<?xml version="1.0" encoding="utf-8"?>
<!-- Generator: Adobe Illustrator 16.0.0, SVG Export Plug-In . SVG Version: 6.00 Build 0)  -->
<!DOCTYPE svg PUBLIC "-//W3C//DTD SVG 1.1//EN" "http://www.w3.org/Graphics/SVG/1.1/DTD/svg11.dtd">
<svg version="1.1" xmlns="http://www.w3.org/2000/svg" xmlns:xlink="http://www.w3.org/1999/xlink" x="0px" y="0px" width="612px"
	 height="792px" viewBox="0 0 612 792" enable-background="new 0 0 612 792" xml:space="preserve">
<g id="White">
	<path fill-rule="evenodd" clip-rule="evenodd" fill="#FEFEFE" d="M390.094,489.612c0.267,0.41,0.451,0.756,0.692,1.057
		c4.683,5.842,6.888,12.644,7.365,19.987c0.217,3.332,0.106,6.758-0.413,10.054c-1.593,10.102-14.893,16.651-24.259,9.588
		c-2.349-1.771-4.442-3.94-6.406-6.146c-2.771-3.113-5.312-6.432-7.955-9.659c-0.504-0.614-1.028-1.21-1.738-2.044
		c-0.361,1.292-0.625,2.354-0.956,3.396c-1.112,3.507-2.115,7.056-3.404,10.497c-2.536,6.771-7.633,10.048-14.767,10.294
		c-1.923,0.066-3.85,0.098-5.771,0.049c-4.966-0.126-8.719-2.361-11.3-6.604c-2.393-3.936-3.892-8.245-5.331-12.583
		c-0.422-1.271-0.866-2.536-1.401-4.097c-2.399,2.332-4.511,4.513-6.762,6.538c-3.395,3.055-6.795,6.117-10.368,8.956
		c-2.976,2.363-6.418,3.898-10.218,4.562c-4.513,0.788-8.61-0.144-12.271-2.872c-7.404-5.519-10.346-14.525-7.219-23.342
		c1.68-4.736,4.039-9.234,6.125-13.824c0.725-1.594,1.549-3.142,2.392-4.839c-0.62-0.374-1.127-0.735-1.679-1.007
		c-6.902-3.393-13.862-6.673-20.708-10.175c-12.889-6.594-24.521-14.9-34.208-25.76c-10.182-11.414-16.862-24.595-19.065-39.758
		c-3.508-24.15,1.536-46.407,15.849-66.329c10.314-14.356,23.487-25.616,38.566-34.687c17.298-10.406,35.974-17.092,55.881-20.394
		c12.003-1.99,24.073-2.68,36.202-1.798c28.316,2.059,54.037,11.13,76.375,28.927c19.221,15.315,31.513,35.002,36.391,59.163
		c2.107,10.435,2.606,20.987,1.792,31.61c-0.509,6.649-1.256,13.248-3.278,19.638c-3.928,12.408-11.107,22.665-20.741,31.289
		c-5.882,5.267-12.421,9.635-19.162,13.685c-8.45,5.077-17.003,9.986-25.509,14.972C391.938,488.481,391.057,489.03,390.094,489.612
		z M273.241,364.244c-1.344,0-3.525-0.16-5.671,0.045c-2.141,0.204-4.294,0.609-6.362,1.204
		c-30.752,8.846-40.08,44.456-24.065,67.563c10.841,15.644,30.239,21.741,47.347,17.778c22.48-5.207,37.972-27.754,33.088-51.896
		C313.205,377.317,292.965,362.584,273.241,364.244z M391.06,364.107c-20.08-1.037-42.688,16.545-43.084,42.429
		c-0.389,25.34,18.661,44.06,41.486,45.437c24.19,1.459,46.166-17.538,47.232-42.314
		C437.762,384.856,418.159,363.694,391.06,364.107z M346.305,462.097c0.029-10.098-5.907-15.905-14.275-15.598
		c-6.902,0.254-12.419,5.971-12.632,13.288c-0.146,5.012,1.349,9.45,5.85,12.173c4.745,2.87,9.826,2.942,14.692,0.368
		C344.591,469.867,346.24,465.527,346.305,462.097z"/>
</g>
<g id="Purple">
	<path fill-rule="evenodd" clip-rule="evenodd" fill="#A260CD" d="M114.177,235.709c-6.204,5.345-12.151,10.469-18.074,15.572
		c-0.336-0.106-0.608-0.118-0.777-0.256c-8.897-7.271-17.495-14.847-24.724-23.853c-9.134-11.379-14.49-24.258-15.847-38.832
		c-0.815-8.762-0.204-17.31,3.057-25.541c3.835-9.681,10.621-16.715,19.843-21.384c7.391-3.742,15.194-6.112,23.577-5.784
		c7.652,0.299,14.798,2.625,21.643,5.956c8.986,4.373,16.631,10.538,23.626,17.592c8.845,8.92,16.31,18.974,23.878,28.942
		c8.539,11.247,17.032,22.528,25.54,33.798c0.381,0.505,0.717,1.044,1.173,1.713c-5.104,7.374-10.198,14.733-15.419,22.276
		c-0.557-0.629-0.995-1.065-1.366-1.553c-10.495-13.789-20.97-27.595-31.48-41.373c-4.625-6.063-9.38-12.021-14.921-17.297
		c-6.311-6.009-13.345-11.069-20.913-15.334c-7.312-4.121-14.462-3.44-21.182,1.559c-2.936,2.184-5.3,4.893-7.039,8.121
		c-2.49,4.624-3.129,9.54-1.185,14.401c3.944,9.862,8.661,19.361,15.795,27.371c2.87,3.222,6.227,6.012,9.384,8.977
		C110.455,232.366,112.19,233.903,114.177,235.709z M557.509,706.08c-28.207-37.756-56.21-75.236-84.42-112.995
		c-4.644,8.799-9.085,17.216-13.589,25.751c25.719,34.326,51.385,68.582,77.169,102.995
		C543.703,716.515,550.569,711.325,557.509,706.08z"/>
</g>
<g id="Black">
	<path fill-rule="evenodd" clip-rule="evenodd" fill="#010101" d="M454.618,622.604c-2.947,1.548-5.6,3.039-8.336,4.357
		c-7.308,3.522-14.993,5.681-23.139,5.825c-10.706,0.19-20.329-3.205-29.112-9.171c-1.722-1.17-3.374-2.442-5.23-3.792
		c-0.411,0.688-0.817,1.337-1.194,2.001c-4.778,8.4-10.768,15.754-18.649,21.446c-8.63,6.232-18.259,9.706-28.93,9.727
		c-15.759,0.029-28.795-6.261-39.234-17.897c-2.711-3.022-4.829-6.579-7.198-9.905c-0.458-0.642-0.817-1.354-1.328-2.212
		c-1.827,0.688-3.596,1.368-5.376,2.021c-6.99,2.563-13.913,5.336-20.994,7.615c-7.219,2.322-14.708,3.204-22.32,2.805
		c-12.036-0.631-21.947-5.495-29.604-14.831c-4.948-6.033-8.219-12.964-10.767-20.283c-0.518-1.486-1.292-2.885-1.897-4.215
		c-3.985,0.688-7.663,1.493-11.383,1.935c-9.36,1.112-18.587,0.493-27.501-2.815c-18.689-6.937-29.885-23.873-29.163-43.951
		c0.285-7.9,2.343-15.332,5.674-22.452c0.365-0.781,0.718-1.567,1.089-2.379c-3.532-0.964-6.954-1.761-10.287-2.834
		c-9.486-3.053-17.953-7.788-24.355-15.629c-11.088-13.58-16.077-34.813-5.324-53.82c2.7-4.771,5.871-9.185,9.447-13.323
		c0.521-0.603,1.041-1.206,1.714-1.987c-0.779-0.505-1.476-0.981-2.195-1.42c-6.269-3.823-12.05-8.243-16.874-13.825
		c-8.921-10.323-12.516-22.324-11.417-35.866c0.833-10.256,3.943-19.604,10.509-27.649c5.224-6.401,11.822-11.033,19.208-14.575
		c2.957-1.417,6.045-2.56,9.074-3.826c0.508-0.213,1.02-0.418,1.508-0.619c-1.065-3.444-2.238-6.749-3.107-10.133
		c-3.98-15.514-0.927-29.589,9.129-42.019c2.811-3.475,5.958-6.763,9.356-9.659c11.463-9.771,24.619-12.498,39.161-8.714
		c0.697,0.182,1.391,0.375,2.088,0.559c0.077,0.02,0.16,0.017,0.418,0.041c0.957-4.057,1.311-8.18,0.915-12.342
		c-0.514-5.4-2.516-10.239-5.809-14.548c-10.036-13.13-20.05-26.277-30.117-39.384c-2.785-3.625-5.622-7.222-8.614-10.676
		c-6.033-6.962-13.134-12.733-20.822-17.748c-8.037-5.242-17.251-3.463-23.026,4.225c-2.747,3.655-3.432,7.729-2.205,12.073
		c0.563,1.991,1.273,3.995,2.265,5.801c6.627,12.061,14.618,23.008,25.905,31.219c2.01,1.462,3.92,3.062,5.87,4.606
		c0.185,0.147,0.326,0.351,0.638,0.694c-8.927,7.824-17.838,15.636-26.852,23.538c-0.641-0.454-1.221-0.837-1.771-1.26
		c-9.751-7.506-19.034-15.513-26.862-25.08c-8.573-10.478-14.641-22.182-17.275-35.532c-1.993-10.1-2.428-20.211,0.218-30.29
		c2.15-8.19,6.218-15.277,12.396-21.07c8.321-7.804,17.93-13.173,29.343-14.903c8.68-1.316,17.113-0.164,25.296,2.883
		c12.704,4.731,23.526,12.326,32.986,21.938c7.114,7.227,13.071,15.418,19.271,23.398c10.189,13.115,20.285,26.302,30.423,39.456
		c0.438,0.568,0.901,1.116,1.495,1.848c0.67-0.454,1.321-0.863,1.939-1.316c6.418-4.698,13.03-9.074,20.395-12.185
		c4.455-1.882,9.062-3.206,13.905-3.596c8.743-0.705,16.67,1.671,23.917,6.459c2.333,1.541,4.531,3.285,6.895,5.012
		c0.572-0.562,1.208-1.144,1.795-1.771c5.559-5.934,11.468-11.468,18.426-15.75c13.692-8.426,28.253-10.42,43.609-5.516
		c7.819,2.497,14.297,7.19,19.824,13.174c2.28,2.469,4.286,5.191,6.407,7.806c0.442,0.545,0.841,1.125,1.375,1.845
		c4.802-4.365,9.475-8.612,14.313-13.009c-0.722-0.487-1.288-0.897-1.881-1.264c-9.965-6.165-20.442-11.384-30.869-16.696
		c-11.003-5.605-21.97-11.275-32.147-18.328c-1.572-1.089-3.104-2.239-4.825-3.484c0.563-1.338,0.968-2.634,1.623-3.787
		c1.399-2.459,3.659-3.619,6.431-3.443c5.679,0.36,11.388,0.583,17.013,1.37c16.884,2.358,32.778,8.066,48.337,14.815
		c2.863,1.242,5.725,2.486,8.829,3.834c18.12-36.851,36.206-73.632,54.377-110.586c42.721,11.207,80.766,31.114,114.658,59.399
		c-19.084,34.165-38.074,68.162-57.135,102.286c0.583,0.477,1.092,0.968,1.671,1.354c8.398,5.613,16.757,11.291,25.228,16.795
		c9.555,6.209,19.175,12.32,27.731,19.905c2.806,2.487,5.454,5.153,8.109,7.675c-2.539,4.822-6.892,7.284-11.864,6.292
		c-5.016-1-10.012-2.268-14.867-3.869c-12.019-3.961-23.951-8.18-35.919-12.295c-0.597-0.205-1.195-0.407-2.052-0.698
		c-2.134,6.931-4.243,13.784-6.331,20.565c4.538,1.145,8.927,2.08,13.208,3.373c6.61,1.996,12.814,4.962,17.364,10.302
		c10.387,12.191,12.724,25.917,6.823,40.848c-1.464,3.705-3.57,7.155-5.508,10.971c0.506,0.335,1.208,0.818,1.928,1.272
		c5.521,3.474,10.714,7.354,15.169,12.158c6.981,7.527,10.606,16.438,11.354,26.663c1.037,14.159-3.315,26.367-12.782,36.842
		c-0.256,0.283-0.495,0.581-0.762,0.896c2.277,2.189,4.541,4.222,6.64,6.412c5.986,6.249,10.453,13.382,12.28,21.962
		c3.041,14.277-0.704,34.917-19.036,46.44c-4.299,2.702-8.857,4.829-13.606,6.582c-0.589,0.217-1.172,0.45-1.899,0.73
		c0.811,3.184,1.644,6.259,2.373,9.357c1.548,6.579,2.513,13.219,2.256,20.016c-0.751,19.899-14.828,36.848-34.31,41.274
		c-6.073,1.38-12.221,1.678-18.413,1.52c-0.551-0.015-1.101-0.002-1.91-0.002c0.314,0.711,0.535,1.27,0.803,1.807
		c5.437,10.918,13.076,20.353,20.31,30.056c21.335,28.625,42.71,57.219,64.039,85.848c2.627,3.526,5.071,7.189,7.67,10.887
		c-0.673,0.589-1.185,1.075-1.733,1.513c-8.284,6.6-16.592,13.168-24.841,19.813c-1.239,0.998-2.456,1.399-3.979,1.033
		c-2.812-6.754-7.837-12.033-12.113-17.791c-21.095-28.401-42.307-56.717-63.514-85.035
		C457.339,625.203,455.875,623.932,454.618,622.604z M390.094,489.612c0.963-0.582,1.845-1.131,2.741-1.656
		c8.506-4.985,17.059-9.895,25.509-14.972c6.741-4.05,13.28-8.418,19.162-13.685c9.634-8.624,16.813-18.881,20.741-31.289
		c2.022-6.39,2.77-12.988,3.278-19.638c0.814-10.623,0.315-21.175-1.792-31.61c-4.878-24.161-17.17-43.848-36.391-59.163
		c-22.338-17.797-48.059-26.868-76.375-28.927c-12.129-0.882-24.199-0.192-36.202,1.798c-19.907,3.302-38.583,9.988-55.881,20.394
		c-15.079,9.071-28.252,20.331-38.566,34.687c-14.313,19.922-19.357,42.179-15.849,66.329c2.203,15.163,8.883,28.344,19.065,39.758
		c9.687,10.859,21.319,19.166,34.208,25.76c6.846,3.502,13.805,6.782,20.708,10.175c0.551,0.271,1.059,0.633,1.679,1.007
		c-0.843,1.697-1.667,3.245-2.392,4.839c-2.086,4.59-4.444,9.088-6.125,13.824c-3.127,8.816-0.185,17.823,7.219,23.342
		c3.661,2.729,7.758,3.66,12.271,2.872c3.8-0.663,7.243-2.198,10.218-4.562c3.573-2.839,6.973-5.901,10.368-8.956
		c2.251-2.025,4.362-4.206,6.762-6.538c0.535,1.561,0.979,2.825,1.401,4.097c1.439,4.338,2.938,8.647,5.331,12.583
		c2.581,4.243,6.334,6.479,11.3,6.604c1.922,0.049,3.849,0.018,5.771-0.049c7.134-0.246,12.23-3.523,14.767-10.294
		c1.289-3.441,2.292-6.99,3.404-10.497c0.331-1.042,0.595-2.104,0.956-3.396c0.71,0.834,1.234,1.43,1.738,2.044
		c2.644,3.228,5.184,6.546,7.955,9.659c1.964,2.205,4.058,4.375,6.406,6.146c9.366,7.063,22.666,0.514,24.259-9.588
		c0.52-3.296,0.63-6.722,0.413-10.054c-0.478-7.344-2.683-14.146-7.365-19.987C390.545,490.368,390.36,490.022,390.094,489.612z
		 M114.177,235.709c-1.987-1.807-3.722-3.343-5.411-4.929c-3.157-2.964-6.514-5.754-9.384-8.977
		c-7.134-8.01-11.851-17.509-15.795-27.371c-1.944-4.861-1.305-9.777,1.185-14.401c1.739-3.229,4.104-5.938,7.039-8.121
		c6.72-4.999,13.871-5.68,21.182-1.559c7.568,4.265,14.602,9.325,20.913,15.334c5.541,5.275,10.296,11.234,14.921,17.297
		c10.511,13.778,20.985,27.583,31.48,41.373c0.371,0.487,0.809,0.923,1.366,1.553c5.221-7.542,10.315-14.902,15.419-22.276
		c-0.456-0.669-0.792-1.208-1.173-1.713c-8.508-11.27-17.001-22.551-25.54-33.798c-7.568-9.968-15.034-20.022-23.878-28.942
		c-6.996-7.055-14.64-13.219-23.626-17.592c-6.845-3.331-13.991-5.656-21.643-5.956c-8.383-0.328-16.186,2.042-23.577,5.784
		c-9.222,4.668-16.007,11.703-19.843,21.384c-3.26,8.23-3.872,16.778-3.057,25.541c1.356,14.574,6.712,27.453,15.847,38.832
		c7.229,9.006,15.827,16.583,24.724,23.853c0.169,0.138,0.441,0.15,0.777,0.256C102.025,246.179,107.973,241.055,114.177,235.709z
		 M536.669,721.831c7.034-5.316,13.9-10.506,20.84-15.751c-28.207-37.756-56.21-75.236-84.42-112.995
		c-4.644,8.799-9.085,17.216-13.589,25.751C485.219,653.162,510.885,687.418,536.669,721.831z M267.57,364.289
		c-2.141,0.204-4.294,0.609-6.362,1.204c-30.752,8.846-40.08,44.456-24.065,67.563c10.841,15.644,30.239,21.741,47.347,17.778
		c22.48-5.207,37.972-27.754,33.088-51.896c-4.373-21.622-24.613-36.354-44.337-34.695
		C271.897,364.244,269.716,364.084,267.57,364.289z M347.976,406.536c-0.389,25.34,18.661,44.06,41.486,45.437
		c24.19,1.459,46.166-17.538,47.232-42.314c1.067-24.802-18.535-45.964-45.635-45.551
		C370.979,363.07,348.372,380.652,347.976,406.536z M332.029,446.499c-6.902,0.254-12.419,5.971-12.632,13.288
		c-0.146,5.012,1.349,9.45,5.85,12.173c4.745,2.87,9.826,2.942,14.692,0.368c4.651-2.461,6.301-6.801,6.365-10.231
		C346.334,451.999,340.397,446.191,332.029,446.499z"/>
</g>
</svg>
