<?xml version="1.0" encoding="utf-8"?>
<!-- Generator: Adobe Illustrator 16.0.0, SVG Export Plug-In . SVG Version: 6.00 Build 0)  -->
<!DOCTYPE svg PUBLIC "-//W3C//DTD SVG 1.1//EN" "http://www.w3.org/Graphics/SVG/1.1/DTD/svg11.dtd">
<svg version="1.1" xmlns="http://www.w3.org/2000/svg" xmlns:xlink="http://www.w3.org/1999/xlink" x="0px" y="0px" width="612px"
	 height="792px" viewBox="0 0 612 792" enable-background="new 0 0 612 792" xml:space="preserve">
<g id="Blue">
	<path fill-rule="evenodd" clip-rule="evenodd" fill="#87D3EA" d="M520.904,454.9c-0.412,1.85-0.644,3.342-1.077,4.771
		c-7.313,24.095-19.646,45.386-36.079,64.364c-13.979,16.145-30.198,29.669-48.366,40.845c-4.184,2.574-6.096,6.11-6.253,10.898
		c-0.225,6.851,1.017,13.399,3.668,19.702c1.927,4.58,3.986,9.111,5.697,13.771c1.098,2.991,1.826,6.146,2.438,9.282
		c0.854,4.382-0.954,7.616-5.037,9.244c-3.872,1.545-7.939,2.024-12.059,1.444c-4.708-0.663-8.324-3.187-11.021-7.056
		c-3.034-4.354-4.73-9.258-5.809-14.398c-1.819-8.675-2.366-17.469-2.438-26.312c-0.049-6.017-0.151-12.033-0.313-18.049
		c-0.208-7.797-1.358-15.489-2.744-23.151c-0.252-1.395-0.371-2.813-0.564-4.315c1.6-0.103,2.674,0.602,3.758,1.241
		c6.491,3.833,12.985,7.662,19.463,11.519c4.259,2.536,4.861,2.442,7.832-1.6c7.411-10.086,14.821-20.174,22.212-30.275
		c2.906-3.972,2.845-4.579-0.527-8.2c-11.988-12.872-25.478-23.938-40.27-33.436c-2.363-1.517-4.733-3.021-7.079-4.564
		c-0.995-0.654-1.936-1.393-3.091-2.229c1.79-2.525,3.467-4.939,5.191-7.319c6.972-9.623,12.461-20.016,15.916-31.397
		c9.731-32.061,5.222-62.26-12.834-90.26c-14.304-22.183-34.415-37.598-58.715-47.614c-13.962-5.755-28.493-9.174-43.581-10.277
		c-29.723-2.173-57.607,3.847-83.39,18.858c-20.667,12.033-36.821,28.511-47.74,49.922c-8.654,16.972-12.342,35.03-11.25,53.994
		c1.248,21.68,9.005,41.018,21.807,58.43c1.08,1.469,2.145,2.947,3.353,4.609c-0.983,0.735-1.681,1.384-2.486,1.843
		c-18.911,10.779-35.501,24.469-50.47,40.197c-2.397,2.52-2.51,3.789-0.37,6.731c7.74,10.642,15.499,21.269,23.267,31.89
		c2.108,2.882,3.108,3.089,6.24,1.275c7.773-4.501,15.519-9.049,23.303-13.531c1.365-0.786,2.862-1.342,4.676-2.179
		c-0.125,1.149-0.071,1.885-0.293,2.524c-3.2,9.212-3.192,18.724-2.88,28.305c0.319,9.777,0.905,19.562,0.227,29.349
		c-0.64,9.235-3.355,17.788-8.753,25.359c-1.476,2.069-3.201,4.067-5.167,5.659c-5.887,4.764-12.522,5.864-19.653,3.176
		c-6.944-2.619-9.902-8.396-8.112-15.587c0.845-3.397,2.56-6.371,4.394-9.309c2.589-4.147,5.207-8.285,7.585-12.554
		c2.688-4.822,3.083-10.077,2.073-15.427c-0.801-4.244-3.142-7.458-6.862-9.714c-7.83-4.749-15.285-10.034-22.458-15.729
		c-10.223-8.117-19.227-17.481-27.965-27.122c-1.79-1.974-1.762-2.373,0.313-4.622c9.852-10.675,16.142-23.249,19.802-37.204
		c0.934-3.563,1.573-7.202,2.342-10.808c0.084-0.392,0.158-0.788,0.192-1.187c0.299-3.525-1.242-4.89-4.75-4.241
		c-5.281,0.976-10.553,2-15.85,2.877c-2.032,0.337-4.122,0.325-6.293,0.48c-0.152-1.833,0.612-3.054,1.297-4.285
		c3.588-6.446,7.074-12.953,10.828-19.302c2.473-4.183,0.542-6.158-3.493-6.095c-13.055,0.207-25.897,1.802-38.421,5.611
		c-0.23,0.07-0.46,0.14-0.69,0.211c-3.704,1.14-3.918,1.02-4.541-2.688c-2.134-12.714-2.89-25.507-1.898-38.364
		c1.521-19.715,6.544-38.536,15.091-56.362c12.493-26.06,30.415-47.81,52.829-65.947c13.656-11.051,28.498-20.227,44.181-28.089
		c4.477-2.245,9.059-2.853,13.996-1.749c13.356,2.99,26.889,3.473,40.442,1.928c15.25-1.738,29.041-7.227,40.809-17.275
		c2.37-2.024,4.503-4.341,6.623-6.636c1.454-1.574,3.098-2.416,5.249-2.479c12.685-0.375,25.355-0.184,37.988,1.073
		c31.173,3.103,60.919,11.352,89.171,24.916c25.077,12.039,47.328,27.99,66.288,48.386c17.371,18.687,30.549,39.948,38.737,64.2
		c1.514,4.482,1.539,4.463-2.321,7.32c-16.948,12.542-27.188,29.36-31.643,49.827c-1.644,7.553-2.114,15.245-2.412,22.944
		c-0.134,3.459,0.596,4.381,4.013,5.175c8.209,1.909,16.503,3.325,24.911,4.006C514.193,454.375,517.303,454.615,520.904,454.9z
		 M176.014,462.853c0.141-8.486-7.029-15.588-15.836-15.685c-8.213-0.089-15.364,6.904-15.55,15.208
		c-0.196,8.768,6.671,16.021,15.323,16.185C168.778,478.728,175.865,471.798,176.014,462.853z M375.451,256.574
		c-8.902-0.009-15.564,6.87-15.553,16.06c0.01,8.404,7.047,15.297,15.615,15.298c8.639,0.001,15.544-6.915,15.58-15.601
		C391.13,263.496,384.268,256.584,375.451,256.574z M434.619,477.756c8.725-0.003,15.742-7.006,15.744-15.712
		c0.002-8.724-6.838-15.663-15.456-15.68c-8.843-0.018-15.749,6.832-15.767,15.64C419.123,470.567,426.188,477.758,434.619,477.756z
		 M312.27,255.454c0.108-8.867-6.852-15.912-15.748-15.939c-8.034-0.024-15.133,6.898-15.358,14.849
		c-0.276,9.735,6.486,16.479,15.463,16.607C305.284,271.095,312.162,264.191,312.27,255.454z M145.472,325.81
		c0.024,8.405,7.083,15.406,15.568,15.438c8.814,0.035,15.741-6.878,15.746-15.714c0.005-8.897-6.872-15.485-16.142-15.464
		C152.291,310.089,145.447,317.189,145.472,325.81z M122.643,396.11c0.332,9.146,7.325,15.743,16.259,15.364
		c8.174-0.346,15.275-6.819,15.098-15.88c-0.173-8.826-7.444-15.5-16.206-15.228C129.128,380.636,122.337,387.692,122.643,396.11z
		 M220.58,256.575c-8.857-0.012-15.729,6.875-15.693,15.729c0.033,8.553,6.991,15.654,15.343,15.659
		c8.795,0.005,15.776-6.914,15.828-15.687C236.108,263.571,229.223,256.586,220.58,256.575z M474.048,395.262
		c0.044-8.838-6.663-15.816-15.229-15.843c-8.862-0.029-15.762,6.609-15.839,15.238c-0.081,9.069,6.477,15.994,15.228,16.081
		C467.127,410.825,474.005,404.106,474.048,395.262z M419.978,325.427c-0.06,8.49,7.092,15.85,15.43,15.88
		c8.552,0.031,15.846-7.025,15.926-15.404c0.084-8.846-6.713-15.763-15.556-15.832C427.065,310.004,420.038,316.833,419.978,325.427
		z"/>
</g>
<g id="Light_Pink">
	<path fill-rule="evenodd" clip-rule="evenodd" fill="#F8CFE1" d="M582.011,357.575c-0.765,1.348-1.343,2.301-1.858,3.287
		c-2.824,5.395-5.677,10.776-8.417,16.213c-0.676,1.339-1.146,2.839-1.406,4.318c-0.472,2.685,0.723,4.277,3.399,4.85
		c4.242,0.908,8.463,0.385,12.674-0.262c2.771-0.426,5.533-0.918,8.305-1.35c0.776-0.121,1.57-0.131,2.489-0.202
		c0,1.145,0.177,2.202-0.026,3.18c-2.624,12.645-7.329,24.374-15.413,34.592c-10.553,13.339-24.304,21.351-40.913,24.64
		c-11.773,2.332-23.586,2.395-35.42,0.611c-4.91-0.74-9.799-1.64-14.684-2.535c-2.279-0.418-2.748-0.988-2.639-3.244
		c0.626-13.004,2.949-25.63,8.691-37.442c8.165-16.795,21.134-28.591,37.985-36.306c11.395-5.216,23.361-8.347,35.794-9.747
		c2.868-0.323,5.743-0.595,8.62-0.826C579.966,357.291,580.758,357.468,582.011,357.575z M276.027,156.37
		c-4.143,0.438-8.289,0.894-12.407,1.517c-11.077,1.674-21.749,4.748-31.862,9.622c-15.57,7.505-27.772,18.568-35.761,34.04
		c-4.688,9.08-7.315,18.785-8.563,28.882c-0.413,3.34-0.684,6.702-0.898,10.061c-0.152,2.382,0.137,2.677,2.531,3.269
		c1.632,0.403,3.279,0.75,4.93,1.07c14.436,2.796,28.914,3.717,43.515,1.233c16.985-2.89,31.035-10.784,41.964-24.152
		c8.575-10.488,13.476-22.64,16.186-35.775c0.169-0.821,0.022-1.707,0.022-2.769c-1.1,0.097-2.045,0.128-2.972,0.272
		c-3.088,0.478-6.154,1.187-9.258,1.449c-3.506,0.296-7.049,0.358-10.566,0.235c-3.077-0.107-4.561-1.934-4.045-4.967
		c0.33-1.938,1.038-3.879,1.922-5.645c2.62-5.23,5.413-10.372,8.135-15.551c0.368-0.7,0.718-1.409,1.359-2.672
		C278.518,156.428,277.256,156.24,276.027,156.37z M107.465,444.378c-2.32,0.15-4.642,0.282-6.957,0.485
		c-12.294,1.078-24.179,3.854-35.598,8.583c-12.744,5.276-23.832,12.84-32.474,23.697c-12.018,15.098-16.966,32.635-17.49,51.642
		c-0.061,2.188,0.452,2.765,2.71,3.221c3.062,0.618,6.133,1.192,9.214,1.709c13.14,2.202,26.301,2.724,39.475,0.297
		c11.542-2.127,22.153-6.421,31.288-13.913c14.808-12.145,22.861-28.172,26.481-46.683c0.317-1.622-0.144-2.133-1.774-1.914
		c-2.221,0.299-4.417,0.777-6.63,1.142c-4.758,0.783-9.541,1.25-14.365,0.806c-3.339-0.308-4.85-2.309-4.112-5.609
		c0.363-1.621,0.94-3.24,1.693-4.721c2.723-5.356,5.568-10.649,8.35-15.976c0.389-0.743,0.686-1.534,1.08-2.428
		C107.756,444.482,107.606,444.368,107.465,444.378z"/>
</g>
<g id="Dark_Pink">
	<path fill-rule="evenodd" clip-rule="evenodd" fill="#F083B3" d="M427.374,543.025c-40.079-24.956-83.451-38.034-130.657-38.013
		c-47.107,0.021-90.461,12.843-130.442,37.958c-0.706-0.764-1.416-1.398-1.969-2.148c-6.141-8.329-12.265-16.67-18.377-25.021
		c-1.989-2.717-1.952-2.929,0.471-5.442c13.281-13.78,28.33-25.307,44.726-35.122c20.615-12.341,42.658-21.051,66.228-25.745
		c15.545-3.095,31.26-4.503,47.127-3.789c41.976,1.889,79.748,15.713,113.811,40.075c10.402,7.439,20.121,15.675,28.989,24.899
		c1.942,2.019,2.006,2.57,0.436,4.728c-6.043,8.302-12.101,16.593-18.163,24.88C428.899,541.178,428.177,542.02,427.374,543.025z
		 M227.294,445.539c-1.808-2.252-3.707-4.435-5.432-6.747c-1.351-1.811-1.185-3.11,0.349-4.717c0.607-0.635,1.3-1.191,1.98-1.753
		c10.953-9.041,21.915-18.071,32.857-27.125c1.149-0.951,2.187-2.037,3.51-3.28c-1.452-1.353-2.672-2.502-3.906-3.637
		c-9.213-8.475-18.431-16.945-27.643-25.42c-1.24-1.141-2.498-2.266-3.678-3.466c-2.545-2.586-2.494-3.873,0.174-6.417
		c0.522-0.498,1.075-0.965,1.622-1.437c6.013-5.191,12.025-10.384,18.044-15.569c5.167-4.451,10.324-8.916,15.524-13.329
		c2.446-2.076,3.363-2.048,5.853-0.005c1.239,1.018,2.412,2.117,3.6,3.196c10.454,9.497,20.9,19.001,31.359,28.492
		c2.284,2.072,2.502,2.082,4.842,0.179c3.238-2.631,6.442-5.305,9.665-7.956c8.675-7.137,17.337-14.29,26.037-21.396
		c2.548-2.081,3.506-2.082,5.878-0.022c10.179,8.839,20.349,17.689,30.468,26.595c3.599,3.167,3.515,4.31-0.074,7.392
		c-10.837,9.304-21.676,18.606-32.5,27.926c-1.324,1.14-2.565,2.376-3.981,3.696c0.998,1.022,1.789,1.915,2.663,2.715
		c4.913,4.497,9.85,8.969,14.772,13.455c6.049,5.514,12.115,11.01,18.129,16.563c2.616,2.415,2.605,3.626,0.219,6.26
		c-0.27,0.297-0.558,0.576-0.839,0.863c-2.58,2.639-5.172,5.268-7.736,7.922c-0.749,0.775-1.422,1.623-2.137,2.446
		c3.006,2.182,3.427,2.178,5.709-0.118c8.079-8.125,14.367-17.425,18.422-28.183c5.123-13.593,6.88-27.501,3.617-41.795
		c-4.14-18.134-13.49-33.237-27.617-45.183c-18.589-15.719-40.523-22.979-64.613-24.035c-12.456-0.546-24.622,1.5-36.488,5.259
		c-20.696,6.556-37.71,18.232-50.088,36.277c-11.464,16.713-15.723,35.092-12.416,55.111c2.645,16.012,10.129,29.606,21.205,41.318
		c2.055,2.174,2.997,2.132,5.68-0.191C229.261,448.06,228.295,446.786,227.294,445.539z M297.835,439.142
		c0.741,0.037,1.407,0.07,2.43,0.122C298.979,437.493,298.979,437.493,297.835,439.142z"/>
</g>
<g id="White">
	<path fill-rule="evenodd" clip-rule="evenodd" fill="#FDFDFD" d="M299.253,603.038c-35.23,0.039-66.316-5.469-96.46-16.405
		c-2.12-0.77-3.005-1.795-3.059-4.136c-0.208-9.059-0.754-18.11-0.957-27.169c-0.177-7.897,1.699-15.405,4.939-22.598
		c1.014-2.253,2.563-3.77,4.867-4.681c14.576-5.762,29.554-10.132,45.005-12.758c8.532-1.449,17.104-2.716,25.699-3.722
		c9.096-1.066,18.253-1.047,27.396-0.514c9.774,0.57,19.502,1.619,29.145,3.326c16.456,2.912,32.491,7.346,48.026,13.539
		c2.381,0.949,4.771,1.879,7.191,2.72c1.946,0.677,3.019,1.988,3.41,3.968c2.891,14.597,4.541,29.313,4.22,44.214
		c-0.104,4.79-0.19,4.879-4.687,6.579c-17.898,6.771-36.285,11.693-55.224,14.479C324.621,601.961,310.401,603.124,299.253,603.038z
		 M346.95,578.469c14.595-0.025,26.356-11.88,26.358-26.565c0.001-14.876-11.726-26.702-26.472-26.698
		c-14.915,0.004-26.85,11.683-26.902,26.326C319.88,566.742,331.666,578.495,346.95,578.469z M273.219,552.303
		c0.507-14.595-11.087-27.213-26.691-27.112c-14.73,0.096-26.352,11.831-26.402,26.802c-0.05,14.705,11.835,26.427,26.688,26.495
		C262.152,578.559,273.683,565.462,273.219,552.303z M295.852,595.322c5.478,0.085,9.564-3.935,9.631-9.475
		c0.066-5.459-4.23-9.896-9.607-9.921c-5.225-0.024-9.586,4.322-9.684,9.653C286.089,591.156,290.132,595.234,295.852,595.322z
		 M378.615,456.351c5.617,2.738,11.238,5.474,16.881,8.16c1.674,0.797,2.211,0.589,3.474-0.955
		c12.824-15.687,21.122-33.354,23.631-53.604c1.456-11.75,1.071-23.404-1.896-34.869c-6.037-23.329-18.344-42.799-37.052-57.971
		c-22.405-18.171-48.134-28.076-76.982-29.742c-20.464-1.182-40.291,1.703-59.401,9.241c-23.298,9.191-42.517,23.58-56.702,44.401
		c-14.661,21.521-20.592,45.157-17.01,71.022c2.628,18.977,10.375,35.743,22.375,50.601c1.476,1.827,1.718,1.881,3.849,0.897
		c5.892-2.718,11.778-5.45,17.655-8.201c0.846-0.396,1.63-0.922,2.604-1.479c-1.239-1.53-2.298-2.936-3.458-4.253
		c-4.483-5.092-8.051-10.793-11.164-16.786c-8.042-15.482-11.38-31.84-8.241-49.128c3.529-19.434,12.316-36.27,26.908-49.666
		c19.166-17.597,42.221-26.344,67.966-28.196c12.494-0.899,24.817,0.631,36.942,3.772c25.264,6.545,45.497,20.243,59.924,42.17
		c13.094,19.903,16.252,41.496,10.627,64.461c-3.334,13.609-10.282,25.316-19.561,35.71c-0.953,1.067-1.871,2.167-2.873,3.329
		C377.716,455.708,378.125,456.111,378.615,456.351z M230.392,439.805c1.601,2.005,3.298,3.935,4.879,5.956
		c1.342,1.715,2.947,2.387,5.063,1.681c0.53-0.177,1.088-0.27,1.633-0.403c8.247-2.031,16.483-4.124,24.933-5.158
		c5.252-0.643,10.517-1.179,15.778-1.74c2.961-0.317,5.54-1.364,7.738-3.463c1.97-1.881,4.075-3.627,6.199-5.336
		c2-1.61,2.927-1.606,4.875,0.039c2.144,1.812,4.321,3.616,6.234,5.658c2.125,2.268,4.617,3.224,7.652,3.44
		c3.913,0.278,7.823,0.739,11.704,1.319c10.155,1.518,20.17,3.693,29.973,6.785c1.764,0.557,3.237,0.268,4.571-1.155
		c2.633-2.809,5.394-5.498,8.062-8.274c0.7-0.729,1.257-1.598,2.109-2.699c-1.166-1.016-2.207-1.89-3.213-2.804
		c-10.273-9.335-20.545-18.673-30.807-28.021c-0.947-0.862-1.897-1.74-2.724-2.715c-1.497-1.767-1.437-2.907,0.153-4.64
		c0.539-0.589,1.164-1.102,1.773-1.623c10.79-9.232,21.59-18.455,32.371-27.699c1.254-1.076,2.411-2.265,3.977-3.746
		c-1.208-1.011-2.201-1.815-3.165-2.653c-7.57-6.58-15.133-13.167-22.7-19.749c-2.553-2.22-2.558-2.217-5.156-0.071
		c-11.134,9.197-22.265,18.396-33.403,27.587c-0.989,0.816-2.004,1.605-3.044,2.353c-1.397,1.005-2.828,1.027-4.196-0.069
		c-0.938-0.751-1.86-1.525-2.749-2.335c-10.973-9.997-21.935-20.006-32.915-29.997c-0.747-0.68-1.609-1.233-2.627-2.003
		c-10.814,9.402-21.597,18.548-32.33,28.088c2.311,2.17,4.337,4.101,6.394,5.999c9.671,8.924,19.363,17.825,29.018,26.765
		c2.635,2.44,2.558,4.048-0.119,6.336c-0.244,0.208-0.503,0.397-0.751,0.603c-11.258,9.298-22.52,18.593-33.77,27.9
		c-1.104,0.914-2.142,1.91-3.374,3.014C229.141,438,229.708,438.948,230.392,439.805z M459.271,561.125
		c9.005,6.296,18.024,12.571,27.026,18.872c3.783,2.648,3.939,3.714,1.059,7.284c-6.04,7.484-8.271,15.915-6.673,25.438
		c2.639,15.723,18.396,27.234,34.158,24.95c18.398-2.667,31.063-19.873,25.856-38.764c-0.276-1.003-0.579-2.009-0.734-3.034
		c-0.329-2.167,0.396-3.187,2.51-3.598c1.021-0.198,2.061-0.331,3.099-0.42c18.67-1.608,31.563-19.125,27.557-37.451
		c-2.999-13.721-15.744-24.136-29.552-24.15c-13.4-0.014-24.283,7.322-29.399,19.816c-1.835,4.481-3.147,4.881-7.136,2.12
		c-7.319-5.066-14.626-10.153-21.945-15.222c-2.998-2.076-3.021-2.08-5.574,0.505c-7.396,7.486-15.256,14.435-24.041,20.87
		C456.822,559.328,458.026,560.255,459.271,561.125z M502.681,310.369c6.395-4.427,12.752-8.906,19.173-13.293
		c2.773-1.895,4.211-1.511,5.912,1.291c0.25,0.411,0.46,0.845,0.711,1.254c9.347,15.226,24.922,17.535,38.058,12.943
		c11.529-4.031,20.128-17.646,19.278-30.706c-0.916-14.108-11.596-26.078-25.542-28.187c-1.9-0.288-3.815-0.522-5.691-0.933
		c-2.108-0.462-2.813-1.515-2.54-3.649c0.142-1.106,0.457-2.193,0.724-3.281c1-4.082,1.397-8.158,0.777-12.383
		c-2.622-17.84-20.145-29.731-37.715-25.487c-13.286,3.209-23.148,15.121-23.62,28.476c-0.346,9.822,3.154,17.999,10.362,24.642
		c3.643,3.358,3.521,4.755-0.56,7.59c-7.77,5.398-15.544,10.79-23.301,16.205c-1.024,0.715-1.965,1.551-3.07,2.432
		c7.733,8.682,15.294,17.17,22.952,25.768C500.035,312.105,501.381,311.269,502.681,310.369z M118.658,282.012
		c-6.315-4.403-12.639-8.792-18.956-13.192c-0.657-0.458-1.333-0.902-1.927-1.435c-1.826-1.633-1.937-3.187-0.33-4.995
		c0.69-0.776,1.52-1.427,2.257-2.163c7.323-7.313,10.69-16.055,9.292-26.406c-2.574-19.051-21.699-31.147-39.92-25.314
		c-13.735,4.397-22.842,17.894-21.349,31.759c0.307,2.851,1.094,5.651,1.672,8.472c0.486,2.369-0.22,3.533-2.542,3.979
		c-1.258,0.242-2.542,0.351-3.815,0.509c-9.633,1.201-17.276,5.632-22.464,13.957c-3.979,6.387-6.059,13.321-4.936,20.86
		c2.773,18.626,20.414,30.239,38.701,25.653c8.418-2.111,14.546-7.147,18.904-14.533c2.339-3.964,3.358-4.171,7.188-1.529
		c4.554,3.142,9.078,6.328,13.628,9.475c1.113,0.77,2.281,1.458,3.557,2.268c7.874-8.459,15.668-16.835,23.641-25.4
		C120.281,283.237,119.491,282.593,118.658,282.012z M138.562,558.87c-7.073-6.048-14.159-12.081-21.231-18.13
		c-2.885-2.469-2.879-2.49-6.072-0.277c-5.799,4.02-11.561,8.095-17.398,12.059c-3.192,2.167-4.809,1.617-6.318-1.88
		c-0.063-0.147-0.142-0.289-0.198-0.439c-1.464-3.976-3.869-7.337-6.638-10.506c-1.646-1.884-3.347-2.271-5.752-1.54
		c-6.312,1.919-12.809,2.989-19.41,3.119c-5.689,0.112-11.388,0.091-17.074-0.117c-2.755-0.101-4.544,0.893-5.948,3.174
		c-4.016,6.524-5.688,13.497-4.596,21.144c1.883,13.188,11.834,23.609,24.926,25.931c1.893,0.336,3.812,0.526,5.705,0.861
		c2.292,0.407,3.01,1.358,2.743,3.675c-0.118,1.026-0.407,2.04-0.687,3.039c-1.23,4.399-1.495,8.864-0.678,13.342
		c3.136,17.182,18.96,27.32,34.099,25.36c15.487-2.005,27.028-14.51,27.358-30.217c0.147-7.022-2.186-13.201-6.298-18.788
		c-0.618-0.84-1.298-1.636-1.888-2.493c-1.548-2.254-1.399-3.463,0.63-5.184c0.61-0.518,1.277-0.971,1.933-1.43
		c7.421-5.2,14.849-10.39,22.263-15.6c1.097-0.771,2.132-1.628,3.34-2.556C140.316,560.457,139.46,559.639,138.562,558.87z
		 M265.437,625.928c3.279,5.281,7.449,9.607,13.252,12.138c13.058,5.692,25.981,5.24,38.775-0.866
		c5.062-2.415,8.966-6.125,11.911-10.854c0.647-1.04,1.059-2.229,1.795-3.814c-7.567,2.827-14.797,4.729-22.27,5.646
		c-7.434,0.912-14.856,0.842-22.293-0.013c-7.456-0.856-14.695-2.74-22.375-4.89C264.788,624.515,265.03,625.272,265.437,625.928z
		 M287.176,608.637c-1.757,0-3.514-0.011-5.271,0.003c-1.974,0.017-2.488,0.445-2.526,2.323c-0.053,2.637-0.047,5.275-0.001,7.912
		c0.031,1.772,0.402,2.189,2.214,2.515c1.413,0.253,2.846,0.398,4.274,0.558c2.302,0.255,4.604,0.54,6.913,0.703
		c1.988,0.139,2.533-0.334,2.569-2.213c0.058-3.036,0.055-6.075-0.003-9.111c-0.031-1.622-0.532-2.087-2.187-2.198
		c-1.992-0.133-3.989-0.195-5.984-0.288C287.175,608.772,287.176,608.705,287.176,608.637z M308.536,608.75
		c-1.757,0.109-3.511,0.25-5.27,0.316c-1.142,0.042-1.872,0.51-1.883,1.69c-0.031,3.275-0.111,6.556,0.031,9.826
		c0.083,1.888,0.549,2.235,2.455,2.077c3.185-0.265,6.363-0.649,9.53-1.085c1.479-0.203,2.125-0.96,2.158-2.425
		c0.062-2.799,0.068-5.602,0.001-8.399c-0.039-1.641-0.581-2.108-2.225-2.147c-1.599-0.039-3.198-0.009-4.798-0.009
		C308.536,608.646,308.536,608.698,308.536,608.75z M273.389,610.429c-0.01-1.12-0.388-2.196-1.629-2.33
		c-3.717-0.401-7.448-0.677-11.176-0.977c-0.276-0.022-0.567,0.155-1.011,0.288c0.255,1.782,0.364,3.465,0.777,5.069
		c0.221,0.86,0.784,1.877,1.503,2.324c3.46,2.152,7.229,3.61,11.545,4.64C273.398,616.183,273.416,613.306,273.389,610.429z
		 M324.503,618.437c2.063-0.869,4.122-1.755,6.152-2.697c3.974-1.846,5.262-4.547,4.283-9.192
		c-3.854,0.473-7.732,0.935-11.606,1.434c-0.996,0.128-1.489,0.74-1.605,1.782c-0.347,3.12-0.446,6.224,0.267,9.517
		C322.866,618.99,323.709,618.771,324.503,618.437z M170.033,462.985c0.043-5.226-4.32-9.719-9.542-9.826
		c-5.317-0.109-9.916,4.392-9.902,9.69c0.014,5.202,4.467,9.697,9.651,9.74C165.391,472.633,169.99,468.122,170.033,462.985z
		 M365.887,272.109c-0.084,5.393,4.352,9.916,9.687,9.877c5.116-0.037,9.604-4.611,9.622-9.805c0.017-5.116-4.546-9.699-9.689-9.731
		C370.217,262.417,365.971,266.68,365.887,272.109z M434.712,471.802c5.241,0.018,9.782-4.613,9.721-9.914
		c-0.061-5.249-4.528-9.69-9.704-9.65c-5.197,0.04-9.55,4.5-9.544,9.778C425.19,467.318,429.538,471.784,434.712,471.802z
		 M287.112,255.154c-0.062,5.354,4.142,9.765,9.407,9.871c5.251,0.106,9.884-4.458,9.875-9.727c-0.008-5.215-4.433-9.706-9.6-9.744
		C291.539,245.516,287.173,249.845,287.112,255.154z M170.887,325.583c-0.043-5.247-4.455-9.62-9.71-9.626
		c-5.363-0.007-9.823,4.502-9.728,9.836c0.094,5.268,4.488,9.508,9.808,9.463C166.51,335.213,170.93,330.773,170.887,325.583z
		 M138.261,386.236c-5.274-0.02-9.723,4.536-9.671,9.905c0.05,5.296,4.384,9.425,9.827,9.363c5.385-0.061,9.562-4.289,9.542-9.661
		C147.94,390.612,143.543,386.257,138.261,386.236z M220.275,281.993c5.181,0.105,9.927-4.574,9.906-9.765
		c-0.021-5.16-4.511-9.693-9.669-9.762c-5.242-0.071-9.607,4.29-9.632,9.622C210.854,277.468,215.046,281.887,220.275,281.993z
		 M458.431,404.863c5.226,0.03,9.767-4.577,9.747-9.891c-0.02-5.209-4.403-9.543-9.723-9.614c-5.213-0.069-9.528,4.33-9.53,9.715
		C448.923,400.437,453.192,404.834,458.431,404.863z M445.395,325.515c-0.005-5.12-4.604-9.599-9.817-9.56
		c-5.312,0.041-9.752,4.44-9.722,9.631c0.03,5.227,4.45,9.64,9.684,9.669C440.918,335.285,445.399,330.855,445.395,325.515z"/>
</g>
<g id="Black">
	<path fill-rule="evenodd" clip-rule="evenodd" fill="#060606" d="M481.718,584.185c-0.608-0.442-1.048-0.774-1.5-1.09
		c-9.079-6.332-18.16-12.663-27.242-18.991c-2.484-1.731-2.823-1.711-5.353-0.051c-2.949,1.936-5.891,3.886-8.896,5.73
		c-2.568,1.577-3.719,3.753-3.715,6.783c0.01,6.299,1.695,12.186,4.029,17.944c1.745,4.307,3.601,8.573,5.17,12.942
		c1.024,2.852,1.817,5.819,2.381,8.797c1.809,9.558-2.419,15.955-11.844,18.17c-3.863,0.907-7.787,1.149-11.717,0.675
		c-5.783-0.698-10.366-3.589-14.061-8.02c-3.798-4.553-5.76-9.957-7.221-15.576c-1.457-5.601-2.361-11.295-2.534-17.095
		c-0.04-1.358-0.043-2.75-1.265-3.988c-0.958,0.304-2.029,0.585-3.059,0.978c-16.073,6.13-32.622,10.506-49.553,13.485
		c-0.552,0.097-1.099,0.228-1.643,0.366c-1.838,0.467-2.088,0.685-2.253,2.564c-0.414,4.732-1.134,9.405-2.912,13.835
		c-5.514,13.736-15.687,21.966-30.063,25.025c-4.218,0.897-8.453,1.883-12.847,1.581c-20.09-1.38-35.295-10.669-40.761-32.933
		c-0.514-2.093-0.726-4.264-1.008-6.408c-0.333-2.53-0.85-3.172-3.379-3.601c-16.15-2.738-31.99-6.675-47.417-12.218
		c-0.899-0.323-1.836-0.54-3.027-0.885c-0.241,0.718-0.51,1.34-0.66,1.989c-1.112,4.837-1.94,9.757-3.358,14.501
		c-2.165,7.238-5.84,13.694-11.269,19.062c-8.594,8.498-19.595,9.474-29.75,4.735c-7.381-3.443-10.445-10.792-9.757-18.282
		c0.444-4.826,2.279-9.14,4.858-13.181c2.33-3.65,4.644-7.311,6.962-10.967c2.267-3.574,3.183-7.474,2.938-11.693
		c-0.211-3.634-1.646-6.429-4.933-8.242c-1.889-1.043-3.69-2.268-5.438-3.539c-1.593-1.158-3.085-1.153-4.649-0.064
		c-7.768,5.408-15.538,10.813-23.293,16.239c-0.641,0.448-1.174,1.052-1.876,1.691c0.669,1.129,1.268,2.154,1.883,3.171
		c8.801,14.532,7.139,32.71-4.529,44.675c-10.248,10.509-22.804,14.247-36.981,10.072c-14.308-4.214-22.966-14.097-26.036-28.722
		c-0.898-4.277-0.728-8.615-0.061-12.935c0.389-2.522,0.349-2.534-2.17-3.343c-2.288-0.733-4.63-1.326-6.864-2.198
		c-12.603-4.92-20.155-14.169-22.78-27.342c-1.653-8.296-0.226-16.271,3.532-23.835c0.568-1.144,1.14-2.285,1.817-3.645
		c-1.234-0.362-2.341-0.766-3.482-1.007c-3.371-0.713-6.76-1.342-10.132-2.05c-1.014-0.214-2.037-0.485-2.983-0.898
		c-1.822-0.797-2.742-2.058-2.758-4.264c-0.02-2.771,0.598-5.404,0.992-8.089c0.837-5.709,1.367-11.492,2.652-17.101
		c5.81-25.347,20.812-43.606,43.628-55.677c1.911-1.011,3.894-1.888,5.855-2.8c2.477-1.152,2.588-1.323,2.172-4.037
		c-0.474-3.09-1.017-6.17-1.44-9.267c-1.43-10.448-1.718-20.929-0.996-31.455c1-14.563,3.886-28.725,8.628-42.522
		c5.221-15.189,12.574-29.283,21.701-42.474c0.592-0.856,1.146-1.74,1.699-2.623c0.253-0.404,0.46-0.836,0.743-1.355
		c-0.551-0.502-1.027-1.036-1.596-1.438c-3.927-2.783-7.847-5.575-11.823-8.286c-1.893-1.291-2.588-1.135-4.135,0.546
		c-1.575,1.711-3.041,3.535-4.709,5.147c-8.275,7.994-18.199,11.054-29.553,9.669c-11.622-1.417-20.813-6.934-26.954-16.893
		c-12.267-19.895-4.063-48.561,22.79-55.477c1.316-0.339,2.641-0.647,4.101-1.004c0-1.083,0.109-2.115-0.018-3.116
		c-0.678-5.306-0.742-10.607,0.855-15.744c4.55-14.63,14.319-23.783,29.449-26.428c19.777-3.458,36.87,8.895,41.59,26.422
		c3.24,12.033,0.783,23.014-6.768,32.887c-0.682,0.892-1.379,1.771-2.056,2.666c-0.139,0.183-0.217,0.412-0.446,0.859
		c0.818,0.685,1.611,1.451,2.501,2.078c5.508,3.88,11.037,7.731,16.563,11.586c2.348,1.638,2.959,1.627,5.274-0.287
		c8.917-7.375,18.233-14.205,28.211-20.065c6.146-3.61,12.396-7.082,18.797-10.208c3.45-1.684,4.713-3.89,4.812-7.664
		c0.414-15.793,4.075-30.794,11.98-44.588c8.183-14.277,20.057-24.666,34.504-32.262c10.672-5.611,22.066-9.069,33.925-10.981
		c6.092-0.982,12.237-1.65,18.371-2.35c2.063-0.235,4.167-0.203,6.251-0.164c2.1,0.04,3.728,2.467,3.05,4.452
		c-0.205,0.601-0.551,1.157-0.865,1.715c-3.645,6.503-7.32,12.988-10.924,19.513c-0.724,1.31-1.182,2.767-1.931,4.557
		c2.205-0.198,4.011-0.246,5.777-0.539c5.454-0.903,10.903-1.847,16.334-2.876c4.416-0.837,5.671-0.062,5.18,4.359
		c-0.475,4.277-1.426,8.534-2.537,12.701c-2.157,8.09-5.466,15.73-9.703,22.962c-0.563,0.961-1.055,1.964-1.601,2.988
		c1.021,0.762,2.099,0.521,3.098,0.563c7.133,0.294,14.267,0.634,21.403,0.802c15.301,0.36,30.341,2.678,45.239,5.992
		c30.417,6.767,58.821,18.396,84.958,35.44c8.48,5.53,16.545,11.613,24.2,18.238c0.485,0.42,0.963,0.851,1.463,1.252
		c1.437,1.156,1.685,1.177,3.18,0.265c0.41-0.25,0.798-0.539,1.193-0.813c6.729-4.652,13.468-9.293,20.181-13.97
		c1.164-0.81,2.221-1.772,3.422-2.741c-0.725-0.936-1.304-1.688-1.888-2.438c-4.102-5.26-7.205-10.994-8.258-17.67
		c-3.746-23.777,13.107-40.054,29.862-42.79c19.656-3.21,37.975,8.963,42.361,28.366c1.184,5.238,0.975,10.517,0.089,15.784
		c-0.053,0.311-0.101,0.623-0.172,1.071c1.946,0.527,3.882,1.005,5.789,1.576c14.561,4.356,23.565,14.044,26.469,28.866
		c3.979,20.304-10.364,39.931-29.638,42.831c-14.744,2.218-26.862-2.396-36.171-14.14c-0.594-0.749-1.177-1.506-1.933-2.473
		c-1.031,0.604-2.081,1.129-3.037,1.791c-5.013,3.469-9.986,6.996-15.005,10.457c-3.817,2.633-3.899,2.331-1.158,6.449
		c4.673,7.02,8.92,14.294,12.371,21.983c2.654,5.914,4.909,12.005,7.342,18.018c0.474,1.169,0.945,2.339,1.466,3.628
		c1.497-0.71,2.795-1.298,4.069-1.934c12.248-6.105,25.214-9.828,38.771-11.454c5.408-0.648,10.861-0.929,16.299-1.319
		c1.11-0.08,2.256-0.005,3.356,0.171c2.325,0.373,3.226,2.008,2.397,4.235c-0.193,0.521-0.514,0.996-0.788,1.485
		c-3.611,6.43-7.247,12.847-10.819,19.299c-0.723,1.306-1.205,2.745-1.854,4.253c2.348,0.602,4.375,0.046,6.378-0.275
		c5.063-0.813,10.105-1.765,15.162-2.623c1.749-0.296,3.502-0.441,5.176,0.439c1.066,0.561,1.544,1.399,1.289,2.557
		c-2.938,13.338-6.433,26.448-13.836,38.202c-12.146,19.284-29.548,30.511-51.88,34.314c-2.761,0.47-5.566,0.695-8.358,0.961
		c-2.695,0.258-3.027,0.438-3.853,3.109c-2.933,9.497-6.063,18.915-10.335,27.921c-6.988,14.73-15.938,28.174-26.394,40.646
		c-1.03,1.229-2.023,2.49-3.021,3.746c-0.197,0.248-0.337,0.542-0.631,1.025c7.373,5.136,14.732,10.261,22.29,15.523
		c1.089-1.695,2.08-3.204,3.037-4.734c5.148-8.229,12.583-13.466,21.84-15.891c18.513-4.851,41.388,5.695,45.449,28.795
		c2.488,14.147-1.691,26.555-13.222,35.826c-4.505,3.622-9.825,5.651-15.397,7.08c-2.769,0.71-3.741,0.021-3.076,4.658
		c2.813,19.61-10.243,38.076-30.069,41.556c-19.101,3.353-37.858-8.979-42.201-27.669c-2.199-9.466-0.86-18.473,3.834-26.977
		C479.848,587.269,480.74,585.84,481.718,584.185z M520.904,454.9c-3.602-0.285-6.711-0.525-9.819-0.777
		c-8.408-0.681-16.702-2.097-24.911-4.006c-3.417-0.794-4.146-1.716-4.013-5.175c0.298-7.699,0.769-15.392,2.412-22.944
		c4.455-20.467,14.694-37.284,31.643-49.827c3.86-2.857,3.835-2.838,2.321-7.32c-8.188-24.252-21.366-45.514-38.737-64.2
		c-18.96-20.396-41.211-36.347-66.288-48.386c-28.252-13.563-57.998-21.813-89.171-24.916c-12.633-1.257-25.303-1.449-37.988-1.073
		c-2.151,0.063-3.795,0.905-5.249,2.479c-2.12,2.295-4.252,4.612-6.623,6.636c-11.768,10.049-25.559,15.538-40.809,17.275
		c-13.553,1.545-27.086,1.062-40.442-1.928c-4.937-1.104-9.519-0.496-13.996,1.749c-15.683,7.862-30.525,17.038-44.181,28.089
		c-22.414,18.137-40.335,39.887-52.829,65.947c-8.546,17.827-13.57,36.647-15.091,56.362c-0.992,12.857-0.236,25.65,1.898,38.364
		c0.622,3.708,0.836,3.828,4.541,2.688c0.23-0.071,0.46-0.141,0.69-0.211c12.524-3.81,25.367-5.404,38.421-5.611
		c4.034-0.063,5.966,1.912,3.493,6.095c-3.754,6.349-7.239,12.855-10.828,19.302c-0.685,1.231-1.449,2.452-1.297,4.285
		c2.172-0.155,4.261-0.144,6.293-0.48c5.297-0.877,10.569-1.901,15.85-2.877c3.509-0.648,5.049,0.716,4.75,4.241
		c-0.034,0.398-0.108,0.795-0.192,1.187c-0.769,3.605-1.408,7.245-2.342,10.808c-3.66,13.955-9.95,26.529-19.802,37.204
		c-2.076,2.249-2.103,2.648-0.313,4.622c8.739,9.641,17.742,19.005,27.965,27.122c7.173,5.694,14.628,10.979,22.458,15.729
		c3.72,2.256,6.061,5.47,6.862,9.714c1.01,5.35,0.614,10.604-2.073,15.427c-2.378,4.269-4.996,8.406-7.585,12.554
		c-1.834,2.938-3.549,5.911-4.394,9.309c-1.79,7.191,1.168,12.968,8.112,15.587c7.13,2.688,13.766,1.588,19.653-3.176
		c1.966-1.592,3.692-3.59,5.167-5.659c5.398-7.571,8.113-16.124,8.753-25.359c0.679-9.787,0.092-19.571-0.227-29.349
		c-0.312-9.581-0.32-19.093,2.88-28.305c0.222-0.64,0.168-1.375,0.293-2.524c-1.814,0.837-3.311,1.393-4.676,2.179
		c-7.784,4.482-15.53,9.03-23.303,13.531c-3.132,1.813-4.132,1.606-6.24-1.275c-7.768-10.621-15.527-21.248-23.267-31.89
		c-2.14-2.942-2.027-4.212,0.37-6.731c14.969-15.729,31.559-29.418,50.47-40.197c0.805-0.459,1.503-1.107,2.486-1.843
		c-1.208-1.662-2.273-3.141-3.353-4.609c-12.801-17.412-20.559-36.75-21.807-58.43c-1.091-18.964,2.596-37.022,11.25-53.994
		c10.919-21.412,27.073-37.889,47.74-49.922c25.783-15.011,53.667-21.031,83.39-18.858c15.088,1.103,29.619,4.522,43.581,10.277
		c24.3,10.016,44.411,25.432,58.715,47.614c18.056,28,22.565,58.199,12.834,90.26c-3.455,11.382-8.944,21.774-15.916,31.397
		c-1.725,2.38-3.401,4.794-5.191,7.319c1.155,0.837,2.096,1.575,3.091,2.229c2.346,1.543,4.716,3.048,7.079,4.564
		c14.792,9.497,28.281,20.563,40.27,33.436c3.372,3.621,3.434,4.229,0.527,8.2c-7.391,10.102-14.801,20.189-22.212,30.275
		c-2.971,4.042-3.573,4.136-7.832,1.6c-6.478-3.856-12.972-7.686-19.463-11.519c-1.084-0.64-2.158-1.344-3.758-1.241
		c0.193,1.503,0.313,2.921,0.564,4.315c1.386,7.662,2.536,15.354,2.744,23.151c0.161,6.016,0.264,12.032,0.313,18.049
		c0.072,8.843,0.619,17.637,2.438,26.312c1.078,5.141,2.774,10.045,5.809,14.398c2.696,3.869,6.313,6.393,11.021,7.056
		c4.119,0.58,8.187,0.101,12.059-1.444c4.083-1.628,5.892-4.862,5.037-9.244c-0.612-3.137-1.341-6.291-2.438-9.282
		c-1.711-4.66-3.771-9.191-5.697-13.771c-2.651-6.303-3.893-12.852-3.668-19.702c0.157-4.788,2.069-8.324,6.253-10.898
		c18.168-11.176,34.387-24.7,48.366-40.845c16.434-18.979,28.767-40.27,36.079-64.364C520.261,458.242,520.492,456.75,520.904,454.9
		z M427.374,543.025c0.803-1.006,1.525-1.848,2.178-2.74c6.063-8.287,12.12-16.578,18.163-24.88c1.57-2.157,1.507-2.709-0.436-4.728
		c-8.868-9.225-18.587-17.46-28.989-24.899c-34.063-24.362-71.835-38.187-113.811-40.075c-15.867-0.714-31.582,0.694-47.127,3.789
		c-23.57,4.694-45.612,13.404-66.228,25.745c-16.396,9.815-31.445,21.342-44.726,35.122c-2.422,2.514-2.46,2.726-0.471,5.442
		c6.112,8.351,12.236,16.691,18.377,25.021c0.553,0.75,1.263,1.385,1.969,2.148c39.981-25.115,83.335-37.937,130.442-37.958
		C343.923,504.991,387.295,518.069,427.374,543.025z M299.253,603.038c11.148,0.086,25.368-1.077,39.513-3.157
		c18.938-2.785,37.325-7.707,55.224-14.479c4.496-1.7,4.583-1.789,4.687-6.579c0.321-14.901-1.329-29.617-4.22-44.214
		c-0.392-1.979-1.464-3.291-3.41-3.968c-2.42-0.841-4.811-1.771-7.191-2.72c-15.535-6.193-31.57-10.627-48.026-13.539
		c-9.643-1.707-19.37-2.756-29.145-3.326c-9.143-0.533-18.301-0.553-27.396,0.514c-8.595,1.006-17.167,2.272-25.699,3.722
		c-15.451,2.626-30.429,6.996-45.005,12.758c-2.304,0.911-3.853,2.428-4.867,4.681c-3.24,7.192-5.116,14.7-4.939,22.598
		c0.203,9.059,0.75,18.11,0.957,27.169c0.054,2.341,0.939,3.366,3.059,4.136C232.938,597.569,264.023,603.077,299.253,603.038z
		 M377.111,455.264c0.604,0.444,1.014,0.848,1.504,1.087c5.617,2.738,11.238,5.474,16.881,8.16c1.674,0.797,2.211,0.589,3.474-0.955
		c12.824-15.687,21.122-33.354,23.631-53.604c1.456-11.75,1.071-23.404-1.896-34.869c-6.037-23.329-18.344-42.799-37.052-57.971
		c-22.405-18.171-48.134-28.076-76.982-29.742c-20.464-1.182-40.291,1.703-59.401,9.241c-23.298,9.191-42.517,23.58-56.702,44.401
		c-14.661,21.521-20.592,45.157-17.01,71.022c2.628,18.977,10.375,35.743,22.375,50.601c1.476,1.827,1.718,1.881,3.849,0.897
		c5.892-2.718,11.778-5.45,17.655-8.201c0.846-0.396,1.63-0.922,2.604-1.479c-1.239-1.53-2.298-2.936-3.458-4.253
		c-4.483-5.092-8.051-10.793-11.164-16.786c-8.042-15.482-11.38-31.84-8.241-49.128c3.529-19.434,12.316-36.27,26.908-49.666
		c19.166-17.597,42.221-26.344,67.966-28.196c12.494-0.899,24.817,0.631,36.942,3.772c25.264,6.545,45.497,20.243,59.924,42.17
		c13.094,19.903,16.252,41.496,10.627,64.461c-3.334,13.609-10.282,25.316-19.561,35.71
		C379.031,453.002,378.113,454.102,377.111,455.264z M228.439,436.976c0.701,1.024,1.269,1.973,1.953,2.829
		c1.601,2.005,3.298,3.935,4.879,5.956c1.342,1.715,2.947,2.387,5.063,1.681c0.53-0.177,1.088-0.27,1.633-0.403
		c8.247-2.031,16.483-4.124,24.933-5.158c5.252-0.643,10.517-1.179,15.778-1.74c2.961-0.317,5.54-1.364,7.738-3.463
		c1.97-1.881,4.075-3.627,6.199-5.336c2-1.61,2.927-1.606,4.875,0.039c2.144,1.812,4.321,3.616,6.234,5.658
		c2.125,2.268,4.617,3.224,7.652,3.44c3.913,0.278,7.823,0.739,11.704,1.319c10.155,1.518,20.17,3.693,29.973,6.785
		c1.764,0.557,3.237,0.268,4.571-1.155c2.633-2.809,5.394-5.498,8.062-8.274c0.7-0.729,1.257-1.598,2.109-2.699
		c-1.166-1.016-2.207-1.89-3.213-2.804c-10.273-9.335-20.545-18.673-30.807-28.021c-0.947-0.862-1.897-1.74-2.724-2.715
		c-1.497-1.767-1.437-2.907,0.153-4.64c0.539-0.589,1.164-1.102,1.773-1.623c10.79-9.232,21.59-18.455,32.371-27.699
		c1.254-1.076,2.411-2.265,3.977-3.746c-1.208-1.011-2.201-1.815-3.165-2.653c-7.57-6.58-15.133-13.167-22.7-19.749
		c-2.553-2.22-2.558-2.217-5.156-0.071c-11.134,9.197-22.265,18.396-33.403,27.587c-0.989,0.816-2.004,1.605-3.044,2.353
		c-1.397,1.005-2.828,1.027-4.196-0.069c-0.938-0.751-1.86-1.525-2.749-2.335c-10.973-9.997-21.935-20.006-32.915-29.997
		c-0.747-0.68-1.609-1.233-2.627-2.003c-10.814,9.402-21.597,18.548-32.33,28.088c2.311,2.17,4.337,4.101,6.394,5.999
		c9.671,8.924,19.363,17.825,29.018,26.765c2.635,2.44,2.558,4.048-0.119,6.336c-0.244,0.208-0.503,0.397-0.751,0.603
		c-11.258,9.298-22.52,18.593-33.77,27.9C230.708,434.876,229.671,435.872,228.439,436.976z M230.324,449.425
		c-1.063-1.365-2.029-2.639-3.029-3.886c-1.808-2.252-3.707-4.435-5.432-6.747c-1.351-1.811-1.185-3.11,0.349-4.717
		c0.607-0.635,1.3-1.191,1.98-1.753c10.953-9.041,21.915-18.071,32.857-27.125c1.149-0.951,2.187-2.037,3.51-3.28
		c-1.452-1.353-2.672-2.502-3.906-3.637c-9.213-8.475-18.431-16.945-27.643-25.42c-1.24-1.141-2.498-2.266-3.678-3.466
		c-2.545-2.586-2.494-3.873,0.174-6.417c0.522-0.498,1.075-0.965,1.622-1.437c6.013-5.191,12.025-10.384,18.044-15.569
		c5.167-4.451,10.324-8.916,15.524-13.329c2.446-2.076,3.363-2.048,5.853-0.005c1.239,1.018,2.412,2.117,3.6,3.196
		c10.454,9.497,20.9,19.001,31.359,28.492c2.284,2.072,2.502,2.082,4.842,0.179c3.238-2.631,6.442-5.305,9.665-7.956
		c8.675-7.137,17.337-14.29,26.037-21.396c2.548-2.081,3.506-2.082,5.878-0.022c10.179,8.839,20.349,17.689,30.468,26.595
		c3.599,3.167,3.515,4.31-0.074,7.392c-10.837,9.304-21.676,18.606-32.5,27.926c-1.324,1.14-2.565,2.376-3.981,3.696
		c0.998,1.022,1.789,1.915,2.663,2.715c4.913,4.497,9.85,8.969,14.772,13.455c6.049,5.514,12.115,11.01,18.129,16.563
		c2.616,2.415,2.605,3.626,0.219,6.26c-0.27,0.297-0.558,0.576-0.839,0.863c-2.58,2.639-5.172,5.268-7.736,7.922
		c-0.749,0.775-1.422,1.623-2.137,2.446c3.006,2.182,3.427,2.178,5.709-0.118c8.079-8.125,14.367-17.425,18.422-28.183
		c5.123-13.593,6.88-27.501,3.617-41.795c-4.14-18.134-13.49-33.237-27.617-45.183c-18.589-15.719-40.523-22.979-64.613-24.035
		c-12.456-0.546-24.622,1.5-36.488,5.259c-20.696,6.556-37.71,18.232-50.088,36.277c-11.464,16.713-15.723,35.092-12.416,55.111
		c2.645,16.012,10.129,29.606,21.205,41.318C226.699,451.79,227.64,451.748,230.324,449.425z M455.481,558.342
		c1.341,0.986,2.545,1.913,3.79,2.783c9.005,6.296,18.024,12.571,27.026,18.872c3.783,2.648,3.939,3.714,1.059,7.284
		c-6.04,7.484-8.271,15.915-6.673,25.438c2.639,15.723,18.396,27.234,34.158,24.95c18.398-2.667,31.063-19.873,25.856-38.764
		c-0.276-1.003-0.579-2.009-0.734-3.034c-0.329-2.167,0.396-3.187,2.51-3.598c1.021-0.198,2.061-0.331,3.099-0.42
		c18.67-1.608,31.563-19.125,27.557-37.451c-2.999-13.721-15.744-24.136-29.552-24.15c-13.4-0.014-24.283,7.322-29.399,19.816
		c-1.835,4.481-3.147,4.881-7.136,2.12c-7.319-5.066-14.626-10.153-21.945-15.222c-2.998-2.076-3.021-2.08-5.574,0.505
		C472.127,544.958,464.267,551.906,455.481,558.342z M498.589,313.051c1.446-0.945,2.792-1.782,4.092-2.682
		c6.395-4.427,12.752-8.906,19.173-13.293c2.773-1.895,4.211-1.511,5.912,1.291c0.25,0.411,0.46,0.845,0.711,1.254
		c9.347,15.226,24.922,17.535,38.058,12.943c11.529-4.031,20.128-17.646,19.278-30.706c-0.916-14.108-11.596-26.078-25.542-28.187
		c-1.9-0.288-3.815-0.522-5.691-0.933c-2.108-0.462-2.813-1.515-2.54-3.649c0.142-1.106,0.457-2.193,0.724-3.281
		c1-4.082,1.397-8.158,0.777-12.383c-2.622-17.84-20.145-29.731-37.715-25.487c-13.286,3.209-23.148,15.121-23.62,28.476
		c-0.346,9.822,3.154,17.999,10.362,24.642c3.643,3.358,3.521,4.755-0.56,7.59c-7.77,5.398-15.544,10.79-23.301,16.205
		c-1.024,0.715-1.965,1.551-3.07,2.432C483.37,295.965,490.931,304.454,498.589,313.051z M121.257,283.979
		c-0.977-0.742-1.766-1.386-2.599-1.967c-6.315-4.403-12.639-8.792-18.956-13.192c-0.657-0.458-1.333-0.902-1.927-1.435
		c-1.826-1.633-1.937-3.187-0.33-4.995c0.69-0.776,1.52-1.427,2.257-2.163c7.323-7.313,10.69-16.055,9.292-26.406
		c-2.574-19.051-21.699-31.147-39.92-25.314c-13.735,4.397-22.842,17.894-21.349,31.759c0.307,2.851,1.094,5.651,1.672,8.472
		c0.486,2.369-0.22,3.533-2.542,3.979c-1.258,0.242-2.542,0.351-3.815,0.509c-9.633,1.201-17.276,5.632-22.464,13.957
		c-3.979,6.387-6.059,13.321-4.936,20.86c2.773,18.626,20.414,30.239,38.701,25.653c8.418-2.111,14.546-7.147,18.904-14.533
		c2.339-3.964,3.358-4.171,7.188-1.529c4.554,3.142,9.078,6.328,13.628,9.475c1.113,0.77,2.281,1.458,3.557,2.268
		C105.49,300.92,113.285,292.544,121.257,283.979z M141.373,561.417c-1.057-0.96-1.912-1.778-2.811-2.547
		c-7.073-6.048-14.159-12.081-21.231-18.13c-2.885-2.469-2.879-2.49-6.072-0.277c-5.799,4.02-11.561,8.095-17.398,12.059
		c-3.192,2.167-4.809,1.617-6.318-1.88c-0.063-0.147-0.142-0.289-0.198-0.439c-1.464-3.976-3.869-7.337-6.638-10.506
		c-1.646-1.884-3.347-2.271-5.752-1.54c-6.312,1.919-12.809,2.989-19.41,3.119c-5.689,0.112-11.388,0.091-17.074-0.117
		c-2.755-0.101-4.544,0.893-5.948,3.174c-4.016,6.524-5.688,13.497-4.596,21.144c1.883,13.188,11.834,23.609,24.926,25.931
		c1.893,0.336,3.812,0.526,5.705,0.861c2.292,0.407,3.01,1.358,2.743,3.675c-0.118,1.026-0.407,2.04-0.687,3.039
		c-1.23,4.399-1.495,8.864-0.678,13.342c3.136,17.182,18.96,27.32,34.099,25.36c15.487-2.005,27.028-14.51,27.358-30.217
		c0.147-7.022-2.186-13.201-6.298-18.788c-0.618-0.84-1.298-1.636-1.888-2.493c-1.548-2.254-1.399-3.463,0.63-5.184
		c0.61-0.518,1.277-0.971,1.933-1.43c7.421-5.2,14.849-10.39,22.263-15.6C139.129,563.202,140.165,562.345,141.373,561.417z
		 M582.011,357.575c-1.253-0.107-2.045-0.285-2.818-0.223c-2.877,0.231-5.752,0.503-8.62,0.826
		c-12.433,1.4-24.399,4.531-35.794,9.747c-16.852,7.714-29.82,19.51-37.985,36.306c-5.742,11.813-8.065,24.438-8.691,37.442
		c-0.109,2.256,0.359,2.826,2.639,3.244c4.885,0.896,9.773,1.795,14.684,2.535c11.834,1.783,23.646,1.721,35.42-0.611
		c16.609-3.289,30.36-11.301,40.913-24.64c8.084-10.219,12.789-21.947,15.413-34.592c0.203-0.978,0.026-2.035,0.026-3.18
		c-0.919,0.071-1.713,0.081-2.489,0.202c-2.771,0.431-5.533,0.924-8.305,1.35c-4.211,0.647-8.432,1.17-12.674,0.262
		c-2.677-0.573-3.871-2.165-3.399-4.85c0.26-1.479,0.73-2.979,1.406-4.318c2.74-5.437,5.593-10.818,8.417-16.213
		C580.668,359.876,581.246,358.923,582.011,357.575z M280.258,156.488c-1.74-0.06-3.002-0.248-4.231-0.118
		c-4.143,0.438-8.289,0.894-12.407,1.517c-11.077,1.674-21.749,4.748-31.862,9.622c-15.57,7.505-27.772,18.568-35.761,34.04
		c-4.688,9.08-7.315,18.785-8.563,28.882c-0.413,3.34-0.684,6.702-0.898,10.061c-0.152,2.382,0.137,2.677,2.531,3.269
		c1.632,0.403,3.279,0.75,4.93,1.07c14.436,2.796,28.914,3.717,43.515,1.233c16.985-2.89,31.035-10.784,41.964-24.152
		c8.575-10.488,13.476-22.64,16.186-35.775c0.169-0.821,0.022-1.707,0.022-2.769c-1.1,0.097-2.045,0.128-2.972,0.272
		c-3.088,0.478-6.154,1.187-9.258,1.449c-3.506,0.296-7.049,0.358-10.566,0.235c-3.077-0.107-4.561-1.934-4.045-4.967
		c0.33-1.938,1.038-3.879,1.922-5.645c2.62-5.23,5.413-10.372,8.135-15.551C279.267,158.46,279.617,157.751,280.258,156.488z
		 M108.358,444.716c-0.602-0.233-0.751-0.348-0.893-0.338c-2.32,0.15-4.642,0.282-6.957,0.485
		c-12.294,1.078-24.179,3.854-35.598,8.583c-12.744,5.276-23.832,12.84-32.474,23.697c-12.018,15.098-16.966,32.635-17.49,51.642
		c-0.061,2.188,0.452,2.765,2.71,3.221c3.062,0.618,6.133,1.192,9.214,1.709c13.14,2.202,26.301,2.724,39.475,0.297
		c11.542-2.127,22.153-6.421,31.288-13.913c14.808-12.145,22.861-28.172,26.481-46.683c0.317-1.622-0.144-2.133-1.774-1.914
		c-2.221,0.299-4.417,0.777-6.63,1.142c-4.758,0.783-9.541,1.25-14.365,0.806c-3.339-0.308-4.85-2.309-4.112-5.609
		c0.363-1.621,0.94-3.24,1.693-4.721c2.723-5.356,5.568-10.649,8.35-15.976C107.667,446.4,107.964,445.609,108.358,444.716z
		 M264.232,623.274c0.556,1.24,0.798,1.998,1.205,2.653c3.279,5.281,7.449,9.607,13.252,12.138
		c13.058,5.692,25.981,5.24,38.775-0.866c5.062-2.415,8.966-6.125,11.911-10.854c0.647-1.04,1.059-2.229,1.795-3.814
		c-7.567,2.827-14.797,4.729-22.27,5.646c-7.434,0.912-14.856,0.842-22.293-0.013C279.151,627.308,271.912,625.424,264.232,623.274z
		 M109.734,533.33c-2.173-2.517-4.192-4.888-6.249-7.224c-1.378-1.567-1.57-1.588-3.434-0.459
		c-4.446,2.694-8.881,5.405-13.312,8.123c-0.528,0.324-1.004,0.731-1.67,1.223c2.489,3.626,4.909,7.151,7.437,10.834
		C98.783,542.243,104.527,538.287,109.734,533.33z M287.175,608.84c0-0.067,0.001-0.135,0.001-0.203
		c-1.757,0-3.514-0.011-5.271,0.003c-1.974,0.017-2.488,0.445-2.526,2.323c-0.053,2.637-0.047,5.275-0.001,7.912
		c0.031,1.772,0.402,2.189,2.214,2.515c1.413,0.253,2.846,0.398,4.274,0.558c2.302,0.255,4.604,0.54,6.913,0.703
		c1.988,0.139,2.533-0.334,2.569-2.213c0.058-3.036,0.055-6.075-0.003-9.111c-0.031-1.622-0.532-2.087-2.187-2.198
		C291.167,608.995,289.169,608.933,287.175,608.84z M308.536,608.595c0,0.052,0,0.104,0,0.155c-1.757,0.109-3.511,0.25-5.27,0.316
		c-1.142,0.042-1.872,0.51-1.883,1.69c-0.031,3.275-0.111,6.556,0.031,9.826c0.083,1.888,0.549,2.235,2.455,2.077
		c3.185-0.265,6.363-0.649,9.53-1.085c1.479-0.203,2.125-0.96,2.158-2.425c0.062-2.799,0.068-5.602,0.001-8.399
		c-0.039-1.641-0.581-2.108-2.225-2.147C311.735,608.564,310.136,608.595,308.536,608.595z M273.398,619.443
		c0-3.261,0.018-6.138-0.009-9.015c-0.01-1.12-0.388-2.196-1.629-2.33c-3.717-0.401-7.448-0.677-11.176-0.977
		c-0.276-0.022-0.567,0.155-1.011,0.288c0.255,1.782,0.364,3.465,0.777,5.069c0.221,0.86,0.784,1.877,1.503,2.324
		C265.313,616.956,269.082,618.414,273.398,619.443z M321.993,619.279c0.873-0.289,1.716-0.508,2.51-0.843
		c2.063-0.869,4.122-1.755,6.152-2.697c3.974-1.846,5.262-4.547,4.283-9.192c-3.854,0.473-7.732,0.935-11.606,1.434
		c-0.996,0.128-1.489,0.74-1.605,1.782C321.38,612.883,321.28,615.986,321.993,619.279z M300.266,439.264
		c-1.287-1.771-1.287-1.771-2.43-0.122C298.577,439.179,299.243,439.212,300.266,439.264z M176.014,462.853
		c-0.148,8.945-7.235,15.875-16.063,15.708c-8.652-0.163-15.52-7.417-15.323-16.185c0.186-8.304,7.337-15.297,15.55-15.208
		C168.984,447.265,176.155,454.366,176.014,462.853z M160.239,472.59c5.152,0.043,9.751-4.468,9.794-9.604
		c0.043-5.226-4.32-9.719-9.542-9.826c-5.317-0.109-9.916,4.392-9.902,9.69C150.602,468.052,155.055,472.547,160.239,472.59z
		 M375.451,256.574c8.816,0.01,15.679,6.922,15.643,15.756c-0.036,8.687-6.941,15.602-15.58,15.601
		c-8.568,0-15.605-6.894-15.615-15.298C359.887,263.444,366.549,256.565,375.451,256.574z M375.506,262.45
		c-5.289-0.033-9.535,4.229-9.619,9.659c-0.084,5.393,4.352,9.916,9.687,9.877c5.116-0.037,9.604-4.611,9.622-9.805
		C385.212,267.065,380.649,262.483,375.506,262.45z M434.619,477.756c-8.431,0.002-15.496-7.188-15.479-15.752
		c0.018-8.808,6.924-15.657,15.767-15.64c8.618,0.017,15.458,6.956,15.456,15.68C450.361,470.75,443.344,477.753,434.619,477.756z
		 M425.185,462.016c0.006,5.303,4.354,9.769,9.527,9.786c5.241,0.018,9.782-4.613,9.721-9.914c-0.061-5.249-4.528-9.69-9.704-9.65
		C429.531,452.277,425.179,456.737,425.185,462.016z M312.27,255.454c-0.107,8.737-6.985,15.641-15.643,15.518
		c-8.978-0.128-15.74-6.873-15.463-16.607c0.226-7.951,7.324-14.873,15.358-14.849C305.417,239.542,312.378,246.587,312.27,255.454z
		 M296.793,245.554c-5.255-0.039-9.62,4.291-9.682,9.6c-0.062,5.354,4.142,9.765,9.407,9.871c5.251,0.106,9.884-4.458,9.875-9.727
		C306.386,250.083,301.96,245.592,296.793,245.554z M145.472,325.81c-0.025-8.621,6.819-15.721,15.172-15.74
		c9.271-0.021,16.147,6.567,16.142,15.464c-0.005,8.836-6.932,15.749-15.746,15.714C152.555,341.216,145.496,334.215,145.472,325.81
		z M161.257,335.256c5.253-0.043,9.673-4.483,9.63-9.673c-0.043-5.247-4.455-9.62-9.71-9.626c-5.363-0.007-9.823,4.502-9.728,9.836
		C151.542,331.061,155.937,335.301,161.257,335.256z M122.643,396.11c-0.305-8.418,6.486-15.474,15.152-15.743
		c8.762-0.272,16.033,6.402,16.206,15.228c0.177,9.061-6.924,15.534-15.098,15.88C129.968,411.854,122.974,405.257,122.643,396.11z
		 M147.959,395.844c-0.019-5.232-4.416-9.587-9.698-9.608c-5.274-0.02-9.723,4.536-9.671,9.905c0.05,5.296,4.384,9.425,9.827,9.363
		C143.802,405.444,147.979,401.216,147.959,395.844z M220.58,256.575c8.643,0.012,15.528,6.997,15.478,15.701
		c-0.051,8.773-7.032,15.692-15.828,15.687c-8.352-0.005-15.31-7.105-15.343-15.659C204.852,263.449,211.723,256.563,220.58,256.575
		z M210.879,272.088c-0.026,5.38,4.167,9.799,9.396,9.905c5.181,0.105,9.927-4.574,9.906-9.765c-0.021-5.16-4.511-9.693-9.669-9.762
		C215.27,262.395,210.905,266.755,210.879,272.088z M474.048,395.262c-0.043,8.844-6.921,15.563-15.841,15.475
		c-8.751-0.087-15.309-7.012-15.228-16.081c0.077-8.629,6.977-15.267,15.839-15.238
		C467.385,379.446,474.092,386.424,474.048,395.262z M448.925,395.074c-0.002,5.363,4.268,9.76,9.506,9.79
		c5.226,0.03,9.767-4.577,9.747-9.891c-0.02-5.209-4.403-9.543-9.723-9.614C453.242,385.29,448.927,389.689,448.925,395.074z
		 M419.978,325.427c0.061-8.594,7.088-15.423,15.8-15.355c8.843,0.068,15.64,6.985,15.556,15.832
		c-0.08,8.379-7.374,15.435-15.926,15.404C427.069,341.277,419.918,333.917,419.978,325.427z M435.539,335.255
		c5.379,0.03,9.86-4.4,9.855-9.74c-0.005-5.12-4.604-9.599-9.817-9.56c-5.312,0.041-9.752,4.44-9.722,9.631
		C425.886,330.813,430.306,335.226,435.539,335.255z M373.309,551.903c0.001-14.876-11.726-26.702-26.472-26.698
		c-14.915,0.004-26.85,11.683-26.902,26.326c-0.055,15.211,11.731,26.964,27.016,26.938
		C361.545,578.443,373.307,566.589,373.309,551.903z M246.527,525.19c-14.73,0.096-26.352,11.831-26.402,26.802
		c-0.05,14.705,11.835,26.427,26.688,26.495c15.339,0.071,26.871-13.025,26.406-26.185
		C273.726,537.708,262.132,525.09,246.527,525.19z M305.483,585.848c0.066-5.459-4.23-9.896-9.607-9.921
		c-5.225-0.024-9.586,4.322-9.684,9.653c-0.103,5.576,3.941,9.654,9.66,9.742C301.33,595.407,305.416,591.388,305.483,585.848z"/>
</g>
</svg>
