<?xml version="1.0" encoding="utf-8"?>
<!-- Generator: Adobe Illustrator 16.0.0, SVG Export Plug-In . SVG Version: 6.00 Build 0)  -->
<!DOCTYPE svg PUBLIC "-//W3C//DTD SVG 1.1//EN" "http://www.w3.org/Graphics/SVG/1.1/DTD/svg11.dtd">
<svg version="1.1" xmlns="http://www.w3.org/2000/svg" xmlns:xlink="http://www.w3.org/1999/xlink" x="0px" y="0px" width="612px"
	 height="792px" viewBox="0 0 612 792" enable-background="new 0 0 612 792" xml:space="preserve">
<g id="White">
	<path fill-rule="evenodd" clip-rule="evenodd" fill="#FEFEFE" d="M305.939,465.703c0.038,3.762,0.018,7.503,0.014,11.354
		c-1.105,0.337-2.133,0.126-3.126,0.021c-9.367-0.987-18.5-2.972-27.272-6.474c-16.21-6.471-29.042-17.122-38.85-31.479
		c-6.517-9.539-11.495-19.801-14.27-31.067c-2.109-8.565-2.829-17.23-1.891-26.016c1.845-17.291,8.434-32.656,19.163-46.223
		c8.101-10.245,18.378-17.819,30.167-23.372c7.217-3.399,14.763-5.784,22.629-7.094c4.036-0.672,8.112-1.055,12.216-1.017
		c0.31,0.003,0.62,0.041,1.091,0.074c0.053,0.496,0.121,0.945,0.143,1.396c0.024,0.48,0.006,0.963,0.006,1.444
		c0,35.874,0,71.747,0,107.622c0,0.87-0.006,1.741-0.01,2.647c-0.542,0.118-0.924,0.258-1.312,0.277
		c-4.419,0.228-8.816,0.002-13.199-0.615c-10.888-1.534-20.805-5.707-30.269-11.111c-6.345-3.622-12.362-7.748-18.303-11.989
		c-0.839-0.599-1.693-1.179-2.646-1.841c-0.109,0.337-0.244,0.538-0.22,0.715c1.078,7.824,3.05,15.4,6.44,22.559
		c2.312,4.883,5.132,9.437,9.022,13.256c5.928,5.819,13.008,7.889,21.168,6.619c5.976-0.929,11.062-3.657,15.604-7.515
		c1.466-1.244,2.904-2.543,4.206-3.955c1.735-1.882,3.774-2.618,6.271-2.184c1.015,0.177,2.031,0.339,2.928,0.488
		c0.144,0.204,0.199,0.266,0.233,0.337c0.033,0.069,0.063,0.148,0.063,0.223c0.002,4.171,0.002,8.342,0.002,12.628
		c-0.49,0.447-1.006,0.936-1.54,1.402c-3.625,3.168-7.251,6.334-10.881,9.496c-2.779,2.421-4.67,5.48-6.222,8.764
		c-0.369,0.78-0.561,1.671-0.688,2.531c-0.237,1.602,0.464,2.831,1.823,3.633c0.751,0.443,1.583,0.77,2.406,1.07
		c3.021,1.104,6.182,1.664,9.32,2.302C302.022,464.989,303.901,465.319,305.939,465.703z M351.721,569.003
		c2.456-7.871,4.901-15.746,7.354-23.618c3.073-9.857,6.154-19.713,9.225-29.572c0.18-0.579,0.534-1.163,0.048-1.927
		c-0.408,0-0.883,0-1.356,0c-40.435,0.013-80.869,0.024-121.304,0.041c-0.074,0-0.156,0.047-0.219,0.092
		c-0.057,0.041-0.094,0.111-0.14,0.168c0.412,1.912,18.785,53.231,19.99,55.807c0.992-0.74,1.673-1.74,2.444-2.643
		c6.304-7.381,12.59-14.776,18.888-22.162c0.344-0.403,0.752-0.752,1.113-1.108c0.18,0.127,0.264,0.16,0.308,0.222
		c6.755,9.362,13.507,18.728,20.261,28.091c0.141,0.194,0.3,0.374,0.459,0.554c0.052,0.058,0.127,0.102,0.199,0.132
		c0.065,0.026,0.142,0.025,0.363,0.059c0.4-0.483,0.87-1.015,1.3-1.576c6.191-8.087,12.374-16.181,18.575-24.261
		c0.365-0.477,0.603-1.139,1.421-1.326c6.793,8.101,13.481,16.278,20.442,24.542C351.372,569.849,351.585,569.438,351.721,569.003z
		 M108.003,482.296c-19.713,11.996-39.424,23.995-59.133,35.997c-0.063,0.039-0.11,0.115-0.148,0.184
		c-0.038,0.069-0.054,0.15-0.081,0.226c0.042,0.149,0.053,0.318,0.132,0.445c3.337,5.32,7.148,10.258,11.745,14.564
		c7.092,6.646,15.355,10.927,25.009,12.406c1.336,0.205,2.673,0.408,4.022,0.614c0.564,1.03,1.077,2.028,1.646,2.993
		c0.854,1.448,1.679,2.921,2.642,4.295c1.59,2.271,3.627,4.068,6.184,5.203c2.479,1.101,5.024,1.499,7.73,0.855
		c2.919-0.693,5.299-2.214,7.313-4.369c1.492-1.596,2.629-3.431,3.529-5.417c0.557-1.229,1.112-2.46,1.655-3.66
		c2.181-0.252,4.26-0.4,6.306-0.742c9.215-1.54,17.116-5.664,23.771-12.211c4.67-4.594,8.39-9.893,11.632-15.55
		c0.267-0.466,0.491-0.956,0.806-1.573c-18.017-11.649-35.92-23.182-53.828-34.725C108.562,482.017,108.269,482.135,108.003,482.296
		z M510.256,484.563c-0.615-0.374-1.238-0.736-1.862-1.098c-0.064-0.038-0.155-0.036-0.233-0.043s-0.157-0.001-0.322-0.001
		c-0.347,0.219-0.753,0.471-1.156,0.73c-6.599,4.259-13.199,8.515-19.797,12.776c-10.165,6.567-20.33,13.134-30.483,19.718
		c-0.713,0.462-1.62,0.729-1.997,1.642c0.129,0.319,0.218,0.632,0.373,0.906c2.611,4.616,5.537,9.014,9.048,13.005
		c7.789,8.856,17.417,14.223,29.248,15.412c1.261,0.127,2.517,0.303,3.736,0.45c0.446,1.07,0.818,2.039,1.25,2.979
		c0.435,0.944,0.893,1.883,1.404,2.787c2.681,4.736,6.676,7.449,12.159,7.879c3.269,0.255,6.238-0.489,8.658-2.758
		c1.1-1.032,2.051-2.251,2.924-3.488c0.875-1.238,1.571-2.604,2.342-3.916c0.686-1.166,1.365-2.335,2.006-3.431
		c1.413-0.207,2.679-0.392,3.943-0.576c7.949-1.164,15.047-4.296,21.363-9.237c6.079-4.755,10.831-10.671,14.975-17.117
		c0.207-0.321,0.305-0.712,0.546-1.297C548.872,508.029,529.564,496.295,510.256,484.563z M311.408,477.425
		c2.39-0.227,4.783-0.431,7.169-0.696c6.871-0.763,13.587-2.255,20.149-4.423c15.31-5.059,28.194-13.693,38.436-26.183
		c6.874-8.383,12.086-17.732,15.939-27.846c3.043-7.988,4.938-16.226,5.398-24.791c0.599-11.147-1.186-21.878-5.313-32.237
		c-4.141-10.39-10.045-19.69-17.415-28.066c-13.821-15.708-31.334-24.628-51.836-27.918c-4.031-0.647-8.124-0.913-12.189-1.339
		c-0.284-0.03-0.581,0.066-0.913,0.109c0,3.804,0,7.47,0,11.265c1.075,0.149,2.086,0.332,3.104,0.423
		c6.494,0.583,12.838,1.907,19.019,3.959c15.347,5.097,28.108,13.887,37.805,26.903c8.648,11.609,13.574,24.603,14.299,39.149
		c0.272,5.476,0.078,10.913-0.764,16.308c-1.592,10.197-5.258,19.626-10.969,28.235c-13.659,20.59-32.788,32.204-57.343,34.9
		c-0.797,0.088-1.591,0.204-2.386,0.313c-0.847,0.117-1.742-0.041-2.51,0.278c-0.344,2.833-0.275,9.995,0.09,11.586
		C311.255,477.38,311.334,477.432,311.408,477.425z M435.135,514.368c-2.04-3.301-4.999-5.373-8.717-6.357
		c-4.128-1.093-8.255-0.932-12.361,0.167c-3.109,0.831-6.053,2.088-8.94,3.488c-0.701,0.34-1.431,0.622-2.016,0.874
		c-0.269-0.139-0.352-0.162-0.41-0.214c-12.878-11.479-25.754-22.959-38.631-34.439c-0.119-0.106-0.24-0.212-0.364-0.314
		c-0.124-0.102-0.249-0.203-0.381-0.293c-0.063-0.043-0.14-0.069-0.214-0.087c-0.078-0.018-0.16-0.015-0.435-0.036
		c0.156,2.657,0.794,5.221,1.134,7.817c0.343,2.621,0.857,5.219,1.267,7.831c0.408,2.613,0.692,5.249,1.191,7.844
		c0.492,2.563,0.566,5.214,1.375,7.7c2.782,0.255,5.423-0.123,8.135,0.233c-0.136,2.326-1.109,4.43-1.036,6.741
		c1.529,1.419,3.054,2.835,4.58,4.25c1.588,1.473,3.194,2.928,4.763,4.422c1.496,1.427,3.152,2.697,4.469,4.373
		c-0.378,0.949-0.738,1.834-1.083,2.725c-0.923,2.391-1.911,4.758-2.743,7.18c-1.391,4.051-1.54,8.148-0.285,12.289
		c2.722,8.979,12.455,13.786,19.416,12.314c5.509-1.165,9.485-4.155,11.196-9.703c0.497-1.612,0.748-3.277,0.724-4.979
		c-0.027-1.926-0.013-3.852-0.001-5.777c0.003-0.461,0.069-0.92,0.115-1.495c0.528,0.046,0.91,0.08,1.293,0.111
		c2.969,0.243,5.931,0.24,8.868-0.334c2.063-0.402,4.028-1.06,5.769-2.277c2.882-2.018,4.271-4.839,4.6-8.499
		c-2.644,1.004-4.64,2.802-7.051,3.757c-0.249-0.21-0.426-0.358-0.729-0.613c2.328-5.843,4.664-11.708,7.012-17.602
		C435.469,515.082,435.341,514.701,435.135,514.368z M183.378,519.122c1.609,4.014,3.223,8.026,4.835,12.039
		c0.177,0.44,0.438,0.885-0.243,1.494c-3.801-2.1-7.362-4.792-11.364-6.983c-0.295,1.213-0.248,2.25-0.136,3.26
		c0.624,5.597,3.763,8.243,8.016,9.339c1.383,0.356,2.841,0.48,4.274,0.564c3.048,0.179,6.054-0.256,9.185-0.958
		c0.193,1.697,0.327,3.284,0.563,4.854c0.297,1.978,0.51,3.99,1.056,5.903c1.631,5.716,5.291,9.45,11.206,10.673
		c3.007,0.621,6.075,0.63,9.091,0.026c3.588-0.72,6.612-2.466,8.727-5.518c2.988-4.313,4.096-9.205,3.913-14.362
		c-0.15-4.206-1.747-7.947-4.388-11.233c-0.331-0.411-0.623-0.854-0.98-1.348c4.168-3.853,8.356-7.452,12.378-11.233
		c-0.646-2.427-1.259-4.729-1.907-7.164c0.564-0.068,1.023-0.168,1.483-0.172c2.247-0.017,4.494,0,6.741-0.014
		c0.457-0.003,0.913-0.086,1.42-0.138c0.151-0.657,0.297-1.191,0.396-1.733c1.071-5.831,2.135-11.663,3.199-17.495
		c0.532-2.916,1.071-5.832,1.572-8.753c0.086-0.501-0.004-1.031-0.015-1.624c-1.069,0.131-1.522,0.864-2.097,1.375
		c-11.458,10.181-22.902,20.378-34.358,30.561c-0.64,0.569-1.189,1.295-2.095,1.565c-0.794-0.496-1.535-0.968-2.284-1.425
		c-3.295-2.012-6.714-3.747-10.47-4.748c-2.821-0.753-5.666-1.081-8.566-0.571c-4.835,0.851-8.51,3.525-11.688,7.45
		C181.724,514.97,182.547,517.048,183.378,519.122z M201.892,317.646c1.79-2.305,3.125-4.849,3.902-7.663
		c1.186-4.293,1.678-8.642,1.001-13.086c-0.976-6.418-4.469-10.645-10.744-12.506c-3.684-1.093-7.461-1.23-11.206-0.72
		c-6.044,0.822-10.067,4.232-11.901,10.112c-0.167,0.534-0.356,1.067-0.457,1.616c-0.597,3.228-1.299,6.444-1.719,9.696
		c-0.458,3.549-0.007,7.069,1.406,10.373c0.99,2.313,1.629,4.669,1.88,7.167c0.281,2.794,1.605,4.999,4.01,6.518
		c0.813,0.514,1.622,1.037,2.403,1.596c2.579,1.845,4.744,4.034,6.121,6.967c0.573,1.22,1.358,2.378,2.227,3.413
		c1.441,1.716,2.945,3.398,4.57,4.938c6.113,5.796,12.278,11.536,18.439,17.281c1.466,1.367,2.983,2.682,4.5,3.993
		c0.344,0.297,0.784,0.482,1.308,0.796c2.579-7.718,5.202-15.259,7.669-22.89c-4.23-4.35-8.363-8.602-12.499-12.851
		c-4.133-4.245-8.269-8.486-12.455-12.781C200.92,318.886,201.409,318.269,201.892,317.646z M517.31,361.827
		c0.13,0.386,0.228,0.764,0.382,1.117c6.326,14.457,12.655,28.913,18.995,43.364c0.187,0.423,0.488,0.796,0.746,1.208
		c0.954,0,1.835,0,2.717,0c11.155,0,22.312,0,33.468,0c1.444,0,2.89,0.022,4.333-0.019c0.434-0.012,0.861-0.201,1.328-0.318
		c-0.047-0.454-0.063-0.771-0.114-1.082c-0.978-5.932-2.185-11.817-3.746-17.623c-2.025-7.53-4.71-14.808-8.646-21.573
		c-1.043-1.791-2.205-3.513-3.243-5.158C560.104,361.476,519.161,361.55,517.31,361.827z M99.61,360.647
		c0.03-0.068,0.022-0.159,0.011-0.236c-0.009-0.065-0.048-0.126-0.102-0.261c-15.279,0-30.588,0-45.932,0
		c-0.386,0.546-0.768,1.057-1.119,1.588c-3.374,5.104-5.996,10.58-8.09,16.322c-3.196,8.766-5.06,17.857-6.671,27.013
		c-0.037,0.212,0.031,0.441,0.048,0.65c1.921,0.263,37.905,0.356,42.122,0.101C86.477,390.717,93.045,375.683,99.61,360.647z
		 M402.463,366.818c7.159-6.318,14.317-12.637,21.475-18.958c1.021-0.902,2.059-1.79,3.05-2.726c0.941-0.889,1.663-1.913,2.036-3.2
		c1.065-3.67,3.274-6.579,6.238-8.919c1.319-1.041,2.715-1.992,4.13-2.9c1.632-1.046,2.703-2.446,3.236-4.314
		c1.366-4.796,2.342-9.668,2.482-14.657c0.111-3.926,0.015-7.86-0.065-11.788c-0.023-1.194-0.206-2.403-0.477-3.569
		c-0.698-3.013-2.29-5.449-4.95-7.108c-2.146-1.339-4.486-2.135-7.016-2.266c-7.429-0.386-13.207,2.681-17.55,8.579
		c-1.888,2.565-2.984,5.48-3.203,8.684c-0.479,7.031,1.466,13.308,5.89,18.808c0.332,0.413,0.632,0.852,1.001,1.352
		c-4.399,3.972-8.687,7.839-12.969,11.709c-4.336,3.919-8.718,7.789-13.028,11.785c2.728,6.905,5.403,13.676,8.203,20.761
		C401.613,367.532,402.047,367.185,402.463,366.818z M478.939,407.303c0.635-1.441,1.312-2.969,1.981-4.499
		c5.739-13.13,11.479-26.259,17.211-39.392c0.242-0.554,0.401-1.145,0.597-1.712c-0.308-0.121-0.454-0.226-0.604-0.229
		c-3.44-0.093-6.877-0.299-10.324-0.013c-2.501,0.207-4.949,0.631-7.229,1.639c-6.1,2.696-12.541,3.112-19.066,3.039
		c-1.682-0.019-3.361-0.164-5.044-0.217c-0.54-0.017-1.084,0.073-1.576,0.111c-4.5,13.994-8.402,32.254-8.92,41.252
		C448.191,407.584,476.69,407.603,478.939,407.303z M138,405.759c0.473,0.037,0.864,0.094,1.255,0.094
		c10.262,0.004,20.524,0.005,30.785-0.007c0.363-0.001,0.726-0.139,1.07-0.209c-0.368-8.457-6.671-36.125-9.428-41.303
		c-1.6,0.108-3.269,0.232-4.938,0.332c-6.795,0.403-13.442-0.301-19.811-2.828c-2.87-1.139-5.817-1.743-8.894-1.77
		c-3.046-0.026-6.091-0.058-9.137-0.074c-0.227-0.001-0.454,0.104-0.851,0.202C124.712,375.41,131.347,390.564,138,405.759z
		 M157.366,359.925c4.154-0.344,8.272-0.938,12.253-2.25c3.377-1.113,6.496-2.713,9.23-5.009c1.418-1.191,2.716-2.505,3.623-4.138
		c1.693-3.048,1.726-6.14-0.059-9.136c-0.688-1.154-1.595-2.216-2.56-3.157c-2.023-1.973-4.378-3.476-7.006-4.552
		c-8.013-3.281-16.272-4.643-24.912-3.423c-4.794,0.676-9.389,2-13.764,4.032c-2.785,1.294-5.235,3.107-7.176,5.525
		c-1.729,2.155-2.553,4.597-2.197,7.385c0.286,2.238,1.369,4.073,2.87,5.691c1.935,2.084,4.288,3.595,6.802,4.871
		c5.687,2.885,11.754,4.095,18.096,4.183C154.167,359.946,155.776,360.056,157.366,359.925z M440.661,334.9
		c-1.577,0.813-2.97,1.872-4.246,3.117c-3.981,3.888-4.212,10.68-0.027,14.684c1.037,0.993,2.16,1.92,3.348,2.724
		c2.397,1.624,5.01,2.843,7.771,3.734c3.681,1.189,7.471,1.73,11.31,2.111c5.991,0.594,11.815,0.163,17.499-1.991
		c3.373-1.278,6.761-2.483,9.843-4.405c1.51-0.942,2.881-2.04,4.012-3.414c1.656-2.01,2.437-4.313,2.118-6.925
		c-0.229-1.875-1.033-3.532-2.164-5.019c-1.573-2.068-3.484-3.782-5.814-4.945c-6.765-3.377-13.914-5.231-21.893-5.3
		C454.965,329.35,447.607,331.319,440.661,334.9z M81.99,330.221c8.26-0.003,16.52-0.016,24.78-0.03c0.078,0,0.164-0.024,0.23-0.063
		c0.064-0.038,0.109-0.109,0.296-0.31c0.016-0.235,0.064-0.623,0.064-1.011c0.004-16.203,0.005-32.407-0.005-48.61
		c0-0.452-0.127-0.905-0.193-1.341c-7.461,0.134-20.069,2.33-25.782,5.646c0,15.098,0,30.245,0,45.477
		C81.703,330.11,81.847,330.221,81.99,330.221z M535.639,330.23c-0.009-14.599-0.017-29.197-0.028-43.795
		c0-0.074-0.054-0.15-0.089-0.222c-0.034-0.069-0.078-0.133-0.118-0.2c-6.752-3.794-21.143-6.227-25.68-4.954
		c-0.037,0.5-0.112,1.042-0.113,1.584c-0.006,15.882-0.006,31.764,0.003,47.646c0,0.45,0.104,0.899,0.163,1.365
		c8.625,0,17.104,0,25.862,0C535.639,331.012,535.639,330.621,535.639,330.23z M494.733,337.081
		c-0.048,0.924,0.546,1.535,0.857,2.25c1.281,2.948,1.77,5.986,0.985,9.149c-0.525,2.117-1.43,4.074-2.64,5.891
		c-0.432,0.648-0.832,1.317-1.31,2.077c0.404,0.102,0.61,0.198,0.817,0.199c2.481,0.011,4.963,0.007,7.574,0.007
		c1.142-2.511,2.226-4.999,3.399-7.443c1.188-2.478,2.113-5.087,3.644-7.654c0.329,0.637,0.563,1.046,0.759,1.472
		c1.733,3.786,3.445,7.582,5.202,11.356c0.327,0.704,0.457,1.56,1.223,2.002c16.521,0,33.028,0,49.497,0
		c0.891-1.962,3.332-11.385,5.008-19.306C544.626,337.081,519.695,337.081,494.733,337.081z M119.783,335.421
		c-14.767,0-29.533,0-44.299,0c-8.426,0-16.853-0.005-25.279,0.01c-0.698,0.001-1.448-0.207-2.186,0.375
		c0.043,6.6,1.789,12.851,4.417,18.838c2.474,0.246,47.885,0.213,49.79-0.032c2.142-4.742,4.306-9.53,6.658-14.737
		c1.384,2.701,2.382,5.119,3.518,7.467c1.178,2.437,2.159,4.972,3.492,7.32c2.737,0,5.364,0,8.364,0
		c-1.286-2.076-2.611-3.871-3.354-5.976c-0.764-2.163-1.071-4.365-0.75-6.624c0.317-2.233,1.16-4.312,2.424-6.642
		C121.372,335.421,120.577,335.421,119.783,335.421z M478.51,326.336c7.726,5.625,18.577,7.168,25.865,4.805c0-0.994,0-2.03,0-3.067
		c0-15.072,0.005-30.144-0.014-45.216c-0.001-0.84,0.254-1.746-0.262-2.51c-8.688-0.248-18.724,1.411-25.686,4.746
		C478.147,289.52,478.237,324.511,478.51,326.336z M138.693,284.129c-5.689-3.699-20.911-6.479-26.094-4.72c0,0.421,0,0.893,0,1.365
		c0.019,16.267,0.037,32.534,0.059,48.801c0,0.076,0.037,0.158,0.076,0.227c0.037,0.065,0.099,0.117,0.248,0.284
		c0.82,0.144,1.75,0.365,2.693,0.46c3.114,0.314,6.223,0.445,9.334-0.136c4.958-0.925,9.328-3.218,13.685-5.651
		C138.693,311.151,138.693,297.622,138.693,284.129z M576.83,497.323c0.442-0.071,0.738-0.12,1.066-0.173
		c0.215-0.68,0.432-1.277,0.593-1.89c1.928-7.295,3.094-14.724,3.776-22.228c0.472-5.189,0.622-10.396,0.66-15.609
		c0.058-7.779-0.307-15.544-0.665-23.31c-0.055-1.19-0.217-2.376-0.362-3.916c-8.523,6.872-16.8,13.544-25.152,20.312
		C563.455,466.147,570.136,481.719,576.83,497.323z M34.416,438.32c-0.13,6.724-0.497,13.441-0.341,20.175
		c0.213,9.225,0.841,18.399,2.657,27.46c0.581,2.9,1.315,5.771,2.012,8.646c0.124,0.511,0.201,1.131,0.868,1.282
		c0.102-0.017,0.191-0.008,0.25-0.047c0.13-0.085,0.261-0.181,0.36-0.299c0.101-0.121,0.176-0.268,0.239-0.414
		c6.516-15.224,13.028-30.448,19.539-45.674c0.03-0.07,0.029-0.158,0.028-0.237c-0.001-0.075-0.021-0.15-0.065-0.432
		c-7.986-6.434-16.092-12.966-24.206-19.488c-0.168-0.136-0.416-0.171-0.82-0.327C34.747,432.244,34.475,435.279,34.416,438.32z
		 M76.375,287.356c-0.385,0.119-0.769,0.199-1.121,0.352c-2.219,0.96-4.263,2.221-6.188,3.674c-3.481,2.625-6.504,5.716-9.17,9.155
		c-4.512,5.821-7.994,12.174-9.928,19.326c-0.589,2.177-0.895,4.397-1.083,6.632c-0.104,1.245-0.183,2.527,0.387,3.722
		c9.103,0,18.072,0,27.173,0C76.727,326.843,76.661,289.209,76.375,287.356z M541.942,331.724
		c8.412,0.006,16.823,0.008,25.235-0.004c0.373,0,0.745-0.139,1.225-0.234c-0.222-1.933-0.308-3.782-0.661-5.578
		c-2.202-11.195-7.25-20.954-15.037-29.28c-2.141-2.29-4.568-4.266-7.344-5.76c-1.332-0.717-2.693-1.4-4.32-1.583
		c-0.061,0.337-0.155,0.639-0.164,0.944c-0.23,7.874-0.086,39.01,0.197,41.396C541.344,331.657,541.644,331.724,541.942,331.724z
		 M466.082,292.37c-4.211,3.411-7.766,7.418-10.663,12.002c-3.504,5.543-5.826,11.579-7.343,17.929
		c-0.264,1.104-0.854,2.226-0.496,3.427c2.341,0.136,23.649-0.953,25.255-1.278c0.26-1.861,0.277-34.406-0.001-36.664
		C470.334,289.024,468.183,290.668,466.082,292.37z M144.257,323.109c0.513,0.066,1.052,0.175,1.596,0.2
		c7.762,0.355,15.524,0.7,23.288,1.042c0.068,0.003,0.143-0.061,0.208-0.104c0.064-0.042,0.121-0.096,0.272-0.218
		c-3.227-15.964-10.738-29.079-25.396-37.783C143.941,288.93,143.985,321.22,144.257,323.109z M172.044,487.363
		c2.208-8.086,3-16.362,3.281-24.703c0.259-7.697-0.304-15.378-0.539-23.065c-0.048-1.584-0.232-3.163-0.375-5.038
		c-2.431,1.661-4.561,3.329-6.741,4.925c-2.198,1.609-4.385,3.234-6.56,4.874c-2.159,1.628-4.43,3.112-6.427,4.863
		c1.361,4.057,15.73,38.64,16.727,40.253C171.632,488.738,171.855,488.056,172.044,487.363z M460.873,454.45
		c0.457-1.109,0.874-2.235,1.306-3.354c0.026-0.069,0.034-0.153,0.023-0.226c-0.013-0.077-0.058-0.148-0.214-0.521
		c-6.219-4.577-12.661-9.319-19.11-14.05c-0.101-0.074-0.304-0.01-0.527-0.01c-0.03,0.482-0.071,0.951-0.087,1.422
		c-0.088,2.722-0.15,5.445-0.258,8.167c-0.345,8.728-0.567,17.451,0.114,26.178c0.412,5.283,1.229,10.49,2.552,15.615
		c0.253,0.98,0.343,2.05,1.181,3.236C450.946,478.547,455.913,466.5,460.873,454.45z M289.547,421.327
		c-2.364-0.417-4.748-0.745-7.086-1.272c-8.845-1.995-16.968-5.699-24.586-10.564c-3.788-2.419-7.388-5.095-10.88-7.92
		c-0.405-0.328-0.732-0.892-1.457-0.637c-0.074,0.193-0.208,0.404-0.225,0.623c-0.024,0.313-0.012,0.647,0.071,0.949
		c1.776,6.462,4.344,12.551,8.458,17.911c2.609,3.399,5.686,6.302,9.213,8.732c3.678,2.535,7.732,3.508,12.108,2.624
		c6.652-1.346,12.134-4.789,17.084-9.984C291.111,421.596,290.329,421.465,289.547,421.327z M365.317,401.391
		c-0.883,0.676-1.763,1.354-2.647,2.027c-0.894,0.679-1.781,1.365-2.688,2.025c-0.973,0.706-1.957,1.396-2.95,2.073
		c-0.926,0.632-1.863,1.248-2.81,1.851s-1.898,1.194-2.865,1.762c-0.967,0.568-1.948,1.11-2.936,1.643
		c-0.986,0.531-1.979,1.053-2.983,1.547c-1.077,0.53-2.163,1.045-3.264,1.526c-1.025,0.45-2.07,0.857-3.114,1.266
		c-1.043,0.409-2.086,0.818-3.144,1.186c-1.059,0.367-2.13,0.697-3.203,1.016c-1.074,0.317-2.151,0.629-3.24,0.89
		c-1.167,0.279-2.348,0.502-3.524,0.738c-1.099,0.22-2.206,0.397-3.299,0.646c-1.053,0.239-2.194,0.059-3.217,0.506
		c0.094,0.311,0.094,0.497,0.188,0.596c4.161,4.425,9.144,7.498,15.034,9.043c4.669,1.225,9.021,0.572,13.073-2.154
		c3.556-2.394,6.709-5.192,9.337-8.585c3.941-5.087,6.394-10.876,8.068-17.033c0.205-0.757,0.359-1.527,0.537-2.292
		C365.552,401.574,365.435,401.482,365.317,401.391z M276.958,493.442c0.103-0.186,0.272-0.375,0.317-0.59
		c0.985-4.777,1.957-9.557,2.959-14.477c-6.016-2.498-11.892-4.974-18-7.358c-2.043,5.544-4.032,10.941-6.065,16.458
		C258.851,488.542,275.028,493.167,276.958,493.442z M334.32,479.197c0.891,4.857,1.753,9.562,2.637,14.386
		c2.606-0.204,4.933-1.104,7.336-1.614c2.506-0.531,4.988-1.181,7.462-1.849c2.364-0.638,4.813-0.991,7.234-1.937
		c-1.871-5.342-3.688-10.533-5.57-15.907C346.878,474.671,340.603,476.802,334.32,479.197z M305.66,482.444
		c-3.379-0.466-6.784-0.948-10.193-1.4c-3.484-0.463-6.972-0.897-10.573-1.359c-0.132,0.386-0.304,0.743-0.375,1.119
		c-0.844,4.473-1.673,8.949-2.524,13.523c0.578,0.154,1.019,0.316,1.475,0.388c2.494,0.39,20.745,1.686,22.394,1.587
		C306.15,490.767,306.057,484.241,305.66,482.444z M320.392,481.299c-3.15,0.393-6.34,0.527-9.409,1.221
		c-0.293,3.465-0.226,12.056,0.093,13.758c2.083,0.119,19.402-1.552,21.583-2.108c-0.791-4.617-1.583-9.248-2.407-14.068
		C326.737,480.526,323.563,480.904,320.392,481.299z M362.311,507.847c-0.014-0.28,0-0.581-0.047-0.872
		c-0.7-4.338-1.402-8.677-2.129-13.011c-0.06-0.357-0.301-0.684-0.469-1.046c-2.536,0.56-4.955,1.081-7.368,1.63
		c-2.491,0.566-4.978,1.157-7.465,1.74c-2.385,0.561-4.831,0.888-7.255,1.786c0.54,3.321,1.063,6.538,1.605,9.875
		C342.705,508.22,360.291,508.143,362.311,507.847z M253.026,507.849c2.372,0.219,4.759,0.073,7.141,0.099
		c2.482,0.027,4.964,0.033,7.446-0.002c2.369-0.033,4.749,0.155,7.053-0.119c0.722-2.807,1.46-7.889,1.442-9.949
		c-6.77-1.979-13.631-3.79-20.461-5.697C254.959,494.105,253.02,505.652,253.026,507.849z M312.731,461.713
		c3.058-0.599,6.118-1.197,9.157-1.884c0.919-0.208,1.838-0.599,2.641-1.093c1.623-1,2.059-2.359,1.307-4.13
		c-0.434-1.019-1.029-1.993-1.692-2.884c-2.5-3.361-5.483-6.271-8.731-8.895c-0.98-0.792-2.148-1.375-3.286-1.942
		c-1.005-0.501-2.107-0.542-3.186-0.409c-0.313,2.849-0.267,19.922,0.066,21.831C310.246,462.112,311.497,461.955,312.731,461.713z
		 M305.874,500.849c-6.925-0.861-22.546-2.082-24.651-1.912c-0.251,1.453-0.602,2.933-0.739,4.432
		c-0.135,1.474-0.761,2.91-0.499,4.506c8.67,0,17.215,0,26.091,0C305.957,505.38,306.261,503.092,305.874,500.849z M333.626,500.661
		c-0.105-0.696-0.275-1.383-0.442-2.2c-7.344,0.686-14.581,1.361-21.818,2.043c-0.066,0.006-0.128,0.086-0.188,0.137
		c-0.061,0.052-0.116,0.11-0.287,0.273c0,1.976-0.005,4.055,0.007,6.134c0.002,0.225,0.102,0.449,0.15,0.652
		c1.903,0.331,21.401,0.354,23.612,0.019C334.317,505.367,333.983,503.013,333.626,500.661z M314.604,364.063
		c0.005,3.405,2.958,6.534,6.354,6.561c4.019,0.032,6.588-3.339,6.619-6.507c0.035-3.556-2.744-6.387-6.326-6.439
		C317.536,357.625,314.6,360.446,314.604,364.063z M340.332,370.621c3.438,0.01,6.354-2.904,6.44-6.436
		c0.089-3.646-2.797-6.531-6.508-6.506c-3.592,0.024-6.443,2.813-6.467,6.323C333.774,367.513,336.833,370.61,340.332,370.621z
		 M359.514,357.663c-3.635,0.007-6.7,2.886-6.716,6.406c-0.016,3.387,3.238,6.618,6.668,6.543c3.517-0.076,6.331-2.868,6.304-6.489
		C365.895,360.133,362.6,357.657,359.514,357.663z"/>
</g>
<g id="Blue">
	<path fill-rule="evenodd" clip-rule="evenodd" fill="#6DC1CB" d="M507.999,353.595c3.122,6.77,5.892,13.32,8.787,19.812
		c2.869,6.435,5.664,12.903,8.496,19.354c2.863,6.521,5.731,13.039,8.574,19.505c0.944,0.415,1.839,0.23,2.706,0.231
		c18.376,0.013,36.753,0.006,55.129,0.021c0.861,0.001,1.764-0.22,2.73,0.326c-0.119,0.334-0.142,0.783-0.377,0.99
		c-1.266,1.11-2.575,2.171-3.885,3.229c-10.848,8.776-21.697,17.549-32.547,26.323c-1.996,1.613-3.991,3.227-5.982,4.846
		c-0.243,0.197-0.457,0.43-0.776,0.733c0.196,0.604,0.344,1.217,0.588,1.787c4.339,10.16,8.697,20.313,13.037,30.472
		c4.089,9.571,8.157,19.15,12.244,28.722c1.226,2.872,2.486,5.729,3.723,8.597c0.309,0.716,0.747,1.409,0.58,2.166
		c-0.617,0.626-1.105,0.297-1.588,0.005c-2.4-1.45-4.801-2.901-7.198-4.357c-14.111-8.565-28.222-17.133-42.333-25.698
		c-6.714-4.075-13.428-8.149-20.144-12.222c-0.541-0.327-1.098-0.63-1.691-0.97c-0.604,0.341-1.171,0.624-1.701,0.965
		c-13.271,8.554-26.536,17.117-39.808,25.671c-8.354,5.384-16.715,10.755-25.074,16.13c-0.403,0.259-0.795,0.556-1.234,0.729
		c-0.247,0.098-0.58-0.021-0.788-0.036c-0.11-0.209-0.158-0.271-0.177-0.342c-0.021-0.075-0.021-0.159-0.016-0.239
		c0.004-0.079,0.017-0.159,0.038-0.235c0.043-0.154,0.083-0.311,0.144-0.458c9.599-23.402,19.198-46.803,28.795-70.205
		c0.028-0.069,0.004-0.159,0.004-0.329c-0.266-0.743-1.029-1.101-1.653-1.563c-14.49-10.743-28.99-21.472-43.486-32.206
		c-0.644-0.477-1.287-0.957-1.895-1.478c-0.147-0.127-0.15-0.422-0.252-0.735c0.344-0.095,0.632-0.228,0.925-0.242
		c0.721-0.035,1.444-0.018,2.166-0.018c18.377,0,36.753,0.001,55.13-0.002c0.873-0.001,1.746-0.037,2.731-0.06
		c4.416-9.857,8.677-19.689,12.984-29.502C499.209,373.507,503.538,363.715,507.999,353.595z M65.796,448.687
		c-4.478,10.451-8.96,20.899-13.435,31.352c-4.285,10.011-8.562,20.024-12.843,30.037c-1.228,2.871-2.462,5.738-3.678,8.614
		c-0.18,0.427-0.405,0.911,0.304,1.309c0.282-0.151,0.633-0.32,0.966-0.522c3.358-2.035,6.713-4.078,10.071-6.115
		c11.716-7.108,23.436-14.212,35.15-21.322c8.358-5.074,16.709-10.158,25.071-15.226c0.532-0.323,1.125-0.545,1.665-0.802
		c0.457,0.276,0.803,0.474,1.137,0.688c10.246,6.592,20.496,13.178,30.735,19.78c11.452,7.384,22.895,14.782,34.344,22.17
		c0.537,0.346,1.085,0.688,1.668,0.941c0.222,0.097,0.555-0.064,1.067-0.144c-2.471-6.182-4.98-12.142-7.426-18.127
		c-2.423-5.93-4.87-11.848-7.305-17.772c-2.465-5.997-4.924-11.997-7.392-17.994c-2.462-5.983-4.932-11.965-7.42-18.001
		c0.516-0.422,0.932-0.791,1.377-1.121c1.417-1.05,2.85-2.079,4.268-3.129c12.758-9.446,25.515-18.895,38.27-28.347
		c1.095-0.812,2.19-1.625,3.243-2.49c0.255-0.209,0.34-0.624,0.517-0.971c-0.969-0.592-1.873-0.344-2.724-0.345
		c-18.619-0.018-37.237-0.01-55.856-0.023c-0.863-0.001-1.756,0.188-2.692-0.223c-0.393-0.816-0.833-1.666-1.217-2.541
		c-2.702-6.16-5.39-12.326-8.085-18.488c-3.177-7.263-6.351-14.525-9.536-21.785c-2.059-4.693-4.125-9.383-6.215-14.062
		c-0.207-0.463-0.263-1.114-1.148-1.292c-1.762,3.806-3.422,7.687-5.109,11.556c-1.728,3.963-3.484,7.915-5.232,11.87
		c-1.716,3.882-3.44,7.76-5.153,11.644c-1.745,3.956-3.487,7.913-5.218,11.875c-1.695,3.88-3.352,7.778-5.184,11.675
		c-0.976,0.026-1.851,0.07-2.726,0.07c-8.266,0.006-16.532,0.004-24.798,0.004c-10.353,0-20.705-0.003-31.058,0.006
		c-0.595,0.001-1.189,0.089-2.257,0.175c14.953,12.164,29.638,23.923,44.321,35.898C66.03,448.1,65.92,448.396,65.796,448.687z
		 M265.643,307.782c0.89-0.347,1.771-0.72,2.67-1.038c7.919-2.799,15.709-5.985,23.882-8.03c3.354-0.839,5.863-2.74,7.693-5.708
		c3.415-5.539,7.274-10.751,11.69-15.555c4.206-4.577,8.865-8.611,14.117-11.911c3.048-1.915,6.291-3.517,9.434-5.284
		c0.676-0.38,1.517-0.576,1.911-1.492c-0.114-0.403-0.199-0.878-0.382-1.313c-2.193-5.247-4.309-10.534-7.056-15.523
		c-1.545-2.805-3.262-5.515-4.936-8.248c-0.271-0.44-0.72-0.77-1.188-1.257c-1.078,4.978-2.056,9.75-3.157,14.495
		c-0.995,4.285-2.037,8.562-3.76,12.638c-0.979,2.318-2.245,4.428-4.055,6.191c-0.33,0.321-0.634,0.717-1.289,0.543
		c-0.26-0.413-0.578-0.871-0.847-1.356c-1.782-3.227-3.543-6.466-5.333-9.688c-2.494-4.487-5.129-8.884-8.177-13.026
		c-2.623-3.564-5.514-6.888-8.767-9.889c-0.391-0.361-0.908-0.586-1.367-0.874l-0.152,0.152c-0.002,0.638-0.028,1.277-0.003,1.915
		c0.297,7.543,0.218,15.072-0.946,22.55c-0.912,5.856-2.27,11.61-4.076,17.259c-3.161,9.886-7.586,19.198-12.719,28.193
		c-1.146,2.009-2.281,4.024-3.421,6.036C265.489,307.636,265.566,307.709,265.643,307.782z M363.62,314.429
		c0.214-1.425,0.457-2.856,0.51-4.292c0.124-3.367,0.182-6.737,0.198-10.106c0.034-6.98-0.373-13.941-1.112-20.881
		c-0.348-3.264-0.813-6.516-1.578-9.708c-0.191-0.801-0.198-1.797-1.172-2.377c-3.136-0.123-6.063,0.949-8.909,2.243
		c-7.165,3.255-12.916,8.288-17.793,14.381c-2.268,2.832-4.128,5.91-5.379,9.332c-0.684,1.871-1.214,3.776-1.194,5.949
		c6.438,1.599,12.635,3.692,18.58,6.488c6.028,2.835,11.71,6.269,17.27,10.141C363.29,315.111,363.566,314.787,363.62,314.429z
		 M346.245,262.472c-4.774,0.765-9.324,2.243-13.644,4.396c-8.363,4.171-15.521,9.883-21.455,17.1
		c-2.703,3.287-5.061,6.815-6.888,10.673c-0.335,0.708-0.876,1.368-0.696,2.523c1.921,0.021,3.905,0.009,5.887,0.01
		c2.085,0.002,4.169,0.008,6.254-0.001c1.992-0.009,3.987,0.043,6.022-0.041c0.394-0.823,0.756-1.529,1.074-2.254
		c1.612-3.672,3.509-7.191,5.643-10.585c3.531-5.621,7.853-10.526,13.182-14.505c3.748-2.798,7.869-4.909,12.269-6.481
		c0.372-0.133,0.793-0.184,0.867-0.687C352.536,262.221,348.212,262.157,346.245,262.472z M352.311,232.537
		c-0.257,0.672-0.479,1.096-0.584,1.547c-1.438,6.221-2.899,12.437-4.251,18.677c-0.294,1.357-0.906,2.71-0.638,4.249
		c3.182,0.805,6.425,0.361,9.572,0.899c1.067,0.183,2.208,0.257,3.477-0.018C358.25,249.196,355.929,240.816,352.311,232.537z
		 M265.412,307.563c-0.08,0.142-0.161,0.284-0.241,0.426c0.157-0.069,0.314-0.139,0.472-0.208
		C265.566,307.709,265.489,307.636,265.412,307.563z"/>
</g>
<g id="Black">
	<path fill-rule="evenodd" clip-rule="evenodd" fill="#060606" d="M30.327,424.921c-3.354-2.727-6.651-5.406-9.949-8.085
		c-3.612-2.936-7.225-5.869-10.836-8.805c-0.433-0.352-0.946-0.67-0.657-1.385c0.484-0.593,1.17-0.377,1.78-0.379
		c6.421-0.014,12.842-0.009,19.263-0.009c0.798,0,1.596,0,2.458,0c0.172-0.534,0.365-0.969,0.451-1.423
		c1.561-8.271,3.276-16.504,5.829-24.539c2.291-7.208,5.282-14.1,9.337-20.507c0.171-0.27,0.322-0.553,0.561-0.963
		c-0.171-0.589-0.356-1.271-0.569-1.945c-1.037-3.282-2.203-6.53-3.099-9.85c-1.845-6.83-2.053-13.773-1.051-20.759
		c1.759-12.267,6.902-22.94,15.201-32.109c6.493-7.173,14.453-12.088,23.508-15.389c11.336-4.132,23.012-5.673,35.005-4.763
		c7.221,0.548,14.289,2.018,21.129,4.41c9.413,3.292,17.101,9.027,23.243,16.857c0.99,1.262,1.912,2.578,2.908,3.835
		c0.267,0.338,0.692,0.551,1.18,0.925c0.443-1.841,0.772-3.484,1.242-5.084c0.496-1.688,1.034-3.374,1.715-4.993
		c2.631-6.256,7.303-9.99,14.018-11.133c2.857-0.486,5.729-0.74,8.627-0.562c5.931,0.365,11.027,2.609,15.209,6.849
		c2.982,3.024,4.65,6.721,5.145,10.894c0.879,7.418-0.151,14.547-3.578,21.258c-0.18,0.353-0.31,0.73-0.511,1.211
		c6.753,7.074,13.505,14.147,20.355,21.324c0.491-0.426,0.937-0.74,1.295-1.134c2.266-2.495,4.467-5.051,6.783-7.5
		c1.651-1.747,3.35-3.474,5.196-5.005c8.558-7.1,15.53-15.526,21.147-25.086c6.603-11.238,11.851-23.083,15.536-35.595
		c2.699-9.164,3.729-18.541,3.103-28.072c-0.363-5.535-1.413-10.962-3.036-16.274c-0.28-0.917-0.507-1.849-0.748-2.778
		c-0.014-0.055,0.074-0.137,0.199-0.35c0.305,0.142,0.643,0.263,0.945,0.444c7.439,4.459,14.02,9.929,19.215,16.907
		c4.214,5.66,8.22,11.476,12.313,17.225c0.65,0.915,1.268,1.854,1.922,2.766c0.224,0.311,0.516,0.571,0.874,0.961
		c0.245-0.583,0.474-1.004,0.604-1.454c1.638-5.615,3.153-11.263,4.198-17.023c1.078-5.945,1.469-11.939,1.071-17.974
		c-0.068-1.026-0.229-2.047-0.34-2.994c0.577-0.486,1.003-0.376,1.309,0.082c0.354,0.533,0.64,1.111,0.951,1.672
		c6.465,11.63,12.928,23.262,19.395,34.891c0.217,0.391,0.467,0.763,0.867,1.413c1.229-3.2,1.957-6.218,2.851-9.178
		c0.879-2.912,1.681-5.854,2.352-8.821c0.689-3.046,1.169-6.14,1.759-9.209c0.568-2.958,0.917-5.959,1.601-9.001
		c1.699,1.812,4.44,6.808,7.172,13.083c1.983,4.557,3.729,9.208,5.096,13.988c1.366,4.77,2.658,9.561,4.039,14.546
		c4.74,2.447,9.635,4.975,14.42,7.445c0.105,0.758-0.285,0.966-0.678,0.906c-1.346-0.208-2.684-0.476-4.017-0.758
		c-2.507-0.532-5.007-1.1-7.516-1.628c-0.362-0.076-0.754-0.01-1.315-0.01c2.559,17.731,3.399,35.382,1.865,52.987
		c1.43,1.963,19.856,21.647,21.371,22.827c7.016-6.43,14.048-12.875,21.189-19.419c-0.318-0.684-0.58-1.334-0.913-1.945
		c-1.188-2.184-2.315-4.397-3.066-6.776c-1.353-4.286-1.668-8.64-0.783-13.062c1.027-5.135,3.526-9.451,7.459-12.872
		c5.356-4.658,11.616-7.087,18.743-6.849c9.779,0.327,16.885,7.146,18.225,16.643c0.146,1.025,0.264,2.054,0.406,3.183
		c1.075-0.386,1.396-1.276,1.944-1.918c1.767-2.076,3.38-4.293,5.256-6.263c6.927-7.269,15.391-11.951,25.035-14.586
		c8.189-2.237,16.533-3.193,25.003-2.794c8.925,0.42,17.717,1.741,26.166,4.775c19.266,6.919,33.392,23.232,37.617,43.259
		c1.05,4.975,1.552,9.983,1.327,15.057c-0.275,6.223-1.564,12.229-4,17.976c-0.469,1.104-0.935,2.209-1.4,3.312
		c0.138,0.354,0.205,0.677,0.373,0.935c5.022,7.74,8.393,16.192,10.877,25.037c1.735,6.177,3.064,12.443,4.305,18.731
		c0.201,1.017,0.407,2.032,0.645,3.216c0.595,0.059,1.204,0.168,1.813,0.169c6.341,0.014,12.682,0.009,19.022,0.009
		c0.795,0,1.589,0,2.216,0c0.622,0.584,0.514,1.039,0.121,1.397c-0.711,0.646-1.466,1.247-2.213,1.854
		c-5.732,4.652-11.469,9.3-17.2,13.951c-0.557,0.452-1.096,0.924-1.753,1.479c0.138,2.841,0.249,5.717,0.421,8.59
		c0.638,10.656,1.063,21.309,0.428,31.987c-0.328,5.531-0.818,11.039-1.63,16.516c-0.906,6.11-2.177,12.154-4.005,18.056
		c-0.83,2.683-0.713,5.182,0.381,7.718c2.443,5.663,4.847,11.343,7.285,17.008c1.009,2.345,1.92,4.72,2.591,7.098
		c-0.108,0.172-0.139,0.275-0.193,0.29c-0.063,0.018-0.156-0.029-0.224-0.069c-6.193-3.693-12.385-7.389-18.519-11.049
		c-0.866,0.108-1.049,0.811-1.378,1.321c-1.962,3.037-4.062,5.97-6.412,8.718c-4.146,4.846-8.754,9.161-14.221,12.506
		c-4.135,2.528-8.542,4.392-13.25,5.545c-0.701,0.171-1.406,0.321-2.102,0.514c-3.285,0.907-5.973,2.685-7.94,5.497
		c-0.552,0.789-1.092,1.586-1.662,2.361c-1.491,2.027-3.285,3.752-5.466,5.008c-5.989,3.45-11.939,3.158-17.762-0.411
		c-2.997-1.838-5.271-4.422-7.119-7.39c-0.844-1.354-1.68-2.714-2.509-4.056c-4.162-0.499-8.169-1.279-12.032-2.66
		c-8.763-3.133-15.912-8.534-21.851-15.622c-2.945-3.514-5.495-7.303-7.837-11.238c-0.408-0.686-0.822-1.366-1.301-2.162
		c-2.712,1.571-5.189,3.333-7.853,4.971c-0.175,1.168-0.324,2.352-0.536,3.523c-0.2,1.102-0.394,2.214-0.718,3.283
		c-1.725,5.691-5.417,9.541-11.01,11.541c-2.427,0.867-4.942,1.362-7.518,1.533c-0.629,0.041-1.256,0.104-1.939,0.161
		c-0.421,1.474-0.441,2.909-0.511,4.336c-0.112,2.337-0.527,4.61-1.326,6.817c-1.282,3.541-3.543,6.254-6.814,8.106
		c-5.317,3.011-10.951,3.539-16.732,1.75c-7.621-2.358-13.014-7.217-15.352-14.958c-2.064-6.837-1.259-13.481,2.18-19.773
		c0.418-0.766,0.861-1.516,1.274-2.24c-1.1-1.4-8.065-7.391-10.48-9.019c-0.642,0.423-0.66,1.201-0.859,1.831
		c-2.124,6.721-4.211,13.453-6.315,20.18c-3.825,12.231-7.654,24.461-11.484,36.69c-0.214,0.684-0.45,1.36-0.759,2.287
		c-7.648-9.125-15.074-18.167-22.685-27.243c-0.396,0.397-0.757,0.687-1.029,1.043c-6.473,8.48-13.122,16.831-19.078,25.695
		c-0.268,0.399-0.506,0.846-0.859,1.152c-0.267,0.231-0.696,0.273-1.188,0.447c-1.685-2.603-3.293-5.176-4.994-7.687
		c-1.709-2.522-3.504-4.987-5.273-7.47s-3.551-4.955-5.329-7.432c-1.774-2.472-3.551-4.942-5.276-7.344
		c-0.635-0.119-0.775,0.334-1.032,0.586c-0.285,0.28-0.53,0.603-0.79,0.908c-6.913,8.132-13.823,16.267-20.745,24.391
		c-0.554,0.65-1.015,1.411-1.927,1.921c-7.181-19.979-14.331-39.871-21.519-59.872c-0.33,0.119-0.659,0.156-0.878,0.331
		c-2.318,1.854-4.621,3.729-6.919,5.608c-0.177,0.145-0.288,0.37-0.493,0.643c0.337,0.771,0.687,1.564,1.03,2.36
		c1.436,3.33,2.48,6.751,2.781,10.398c0.359,4.365-0.467,8.456-2.53,12.299c-1.571,2.928-3.614,5.495-6.162,7.635
		c-3.304,2.775-7.083,4.27-11.447,4.35c-5.375,0.098-10.324-1.339-14.872-4.078c-4.753-2.862-7.523-7.104-8.083-12.69
		c-0.134-1.34-0.235-2.684-0.367-4.204c-0.667,0.124-1.271,0.214-1.865,0.35c-5.079,1.155-9.697,0.248-13.815-3.021
		c-4.701-3.73-7.092-8.582-7.16-14.579c-0.015-1.357-0.002-2.715-0.002-4.253c-1.179-0.925-2.574-1.803-4.116-2.719
		c-0.488,0.795-0.918,1.453-1.307,2.134c-3.197,5.603-6.955,10.778-11.554,15.325c-7.091,7.01-15.454,11.632-25.288,13.485
		c-1.648,0.311-3.317,0.508-5.019,0.764c-0.431,0.798-0.836,1.574-1.266,2.336c-1.106,1.964-2.36,3.832-3.926,5.456
		c-5.027,5.216-11.14,7.021-18.207,5.642c-2.589-0.505-4.757-1.865-6.672-3.642c-1.718-1.594-3.125-3.443-4.38-5.412
		c-0.901-1.416-1.77-2.853-2.609-4.208c-2.363-0.521-4.643-0.958-6.888-1.528c-8.097-2.057-15.104-6.124-21.315-11.648
		c-4.889-4.348-9.101-9.266-12.578-14.811c-0.381-0.608-0.805-1.191-1.218-1.779c-0.038-0.055-0.146-0.061-0.385-0.15
		c-6.2,3.555-12.356,7.412-18.941,11.2c0.359-2.141,0.911-3.86,1.625-5.53c1.45-3.388,2.934-6.762,4.382-10.15
		c1.291-3.02,2.543-6.056,3.83-9.078c0.98-2.303,1.078-4.575,0.351-7.022c-2.469-8.315-4.078-16.805-5.033-25.435
		c-1.294-11.689-0.998-23.39-0.583-35.1C29.973,435.102,30.144,430.134,30.327,424.921z M286.729,231.458
		c-0.082-0.199-0.147-0.467-0.391-0.132c-0.018,0.023,0.155,0.186,0.239,0.284c-0.002,0.638-0.028,1.277-0.003,1.915
		c0.297,7.543,0.218,15.072-0.946,22.55c-0.912,5.856-2.27,11.61-4.076,17.259c-3.161,9.886-7.586,19.198-12.719,28.193
		c-1.146,2.009-2.281,4.024-3.421,6.036c-0.08,0.142-0.161,0.284-0.241,0.426c0.157-0.069,0.314-0.139,0.472-0.208
		c0.89-0.347,1.771-0.72,2.67-1.038c7.919-2.799,15.709-5.985,23.882-8.03c3.354-0.839,5.863-2.74,7.693-5.708
		c3.415-5.539,7.274-10.751,11.69-15.555c4.206-4.577,8.865-8.611,14.117-11.911c3.048-1.915,6.291-3.517,9.434-5.284
		c0.676-0.38,1.517-0.576,1.911-1.492c-0.114-0.403-0.199-0.878-0.382-1.313c-2.193-5.247-4.309-10.534-7.056-15.523
		c-1.545-2.805-3.262-5.515-4.936-8.248c-0.271-0.44-0.72-0.77-1.188-1.257c-1.078,4.978-2.056,9.75-3.157,14.495
		c-0.995,4.285-2.037,8.562-3.76,12.638c-0.979,2.318-2.245,4.428-4.055,6.191c-0.33,0.321-0.634,0.717-1.289,0.543
		c-0.26-0.413-0.578-0.871-0.847-1.356c-1.782-3.227-3.543-6.466-5.333-9.688c-2.494-4.487-5.129-8.884-8.177-13.026
		c-2.623-3.564-5.514-6.888-8.767-9.889C287.705,231.97,287.188,231.746,286.729,231.458z M507.999,353.595
		c-4.461,10.12-8.79,19.913-13.094,29.716c-4.308,9.813-8.568,19.645-12.984,29.502c-0.985,0.022-1.858,0.059-2.731,0.06
		c-18.377,0.003-36.753,0.002-55.13,0.002c-0.722,0-1.445-0.018-2.166,0.018c-0.293,0.015-0.581,0.147-0.925,0.242
		c0.102,0.313,0.104,0.608,0.252,0.735c0.607,0.521,1.251,1.001,1.895,1.478c14.496,10.734,28.996,21.463,43.486,32.206
		c0.624,0.463,1.388,0.82,1.653,1.563c0,0.17,0.024,0.26-0.004,0.329c-9.597,23.402-19.196,46.803-28.795,70.205
		c-0.061,0.147-0.101,0.304-0.144,0.458c-0.021,0.076-0.034,0.156-0.038,0.235c-0.005,0.08-0.005,0.164,0.016,0.239
		c0.019,0.07,0.066,0.133,0.177,0.342c0.208,0.015,0.541,0.134,0.788,0.036c0.439-0.173,0.831-0.47,1.234-0.729
		c8.359-5.375,16.721-10.746,25.074-16.13c13.271-8.554,26.536-17.117,39.808-25.671c0.53-0.341,1.098-0.624,1.701-0.965
		c0.594,0.34,1.15,0.643,1.691,0.97c6.716,4.072,13.43,8.146,20.144,12.222c14.111,8.565,28.222,17.133,42.333,25.698
		c2.397,1.456,4.798,2.907,7.198,4.357c0.482,0.292,0.971,0.621,1.588-0.005c0.167-0.757-0.271-1.45-0.58-2.166
		c-1.236-2.867-2.497-5.725-3.723-8.597c-4.087-9.571-8.155-19.15-12.244-28.722c-4.34-10.159-8.698-20.312-13.037-30.472
		c-0.244-0.57-0.392-1.183-0.588-1.787c0.319-0.304,0.533-0.536,0.776-0.733c1.991-1.619,3.986-3.232,5.982-4.846
		c10.85-8.774,21.699-17.547,32.547-26.323c1.31-1.059,2.619-2.119,3.885-3.229c0.235-0.207,0.258-0.656,0.377-0.99
		c-0.967-0.546-1.869-0.325-2.73-0.326c-18.376-0.015-36.753-0.008-55.129-0.021c-0.867-0.001-1.762,0.184-2.706-0.231
		c-2.843-6.466-5.711-12.984-8.574-19.505c-2.832-6.451-5.627-12.919-8.496-19.354C513.891,366.915,511.121,360.365,507.999,353.595
		z M66.264,447.509c-0.234,0.591-0.344,0.888-0.468,1.178c-4.478,10.451-8.96,20.899-13.435,31.352
		c-4.285,10.011-8.562,20.024-12.843,30.037c-1.228,2.871-2.462,5.738-3.678,8.614c-0.18,0.427-0.405,0.911,0.304,1.309
		c0.282-0.151,0.633-0.32,0.966-0.522c3.358-2.035,6.713-4.078,10.071-6.115c11.716-7.108,23.436-14.212,35.15-21.322
		c8.358-5.074,16.709-10.158,25.071-15.226c0.532-0.323,1.125-0.545,1.665-0.802c0.457,0.276,0.803,0.474,1.137,0.688
		c10.246,6.592,20.496,13.178,30.735,19.78c11.452,7.384,22.895,14.782,34.344,22.17c0.537,0.346,1.085,0.688,1.668,0.941
		c0.222,0.097,0.555-0.064,1.067-0.144c-2.471-6.182-4.98-12.142-7.426-18.127c-2.423-5.93-4.87-11.848-7.305-17.772
		c-2.465-5.997-4.924-11.997-7.392-17.994c-2.462-5.983-4.932-11.965-7.42-18.001c0.516-0.422,0.932-0.791,1.377-1.121
		c1.417-1.05,2.85-2.079,4.268-3.129c12.758-9.446,25.515-18.895,38.27-28.347c1.095-0.812,2.19-1.625,3.243-2.49
		c0.255-0.209,0.34-0.624,0.517-0.971c-0.969-0.592-1.873-0.344-2.724-0.345c-18.619-0.018-37.237-0.01-55.856-0.023
		c-0.863-0.001-1.756,0.188-2.692-0.223c-0.393-0.816-0.833-1.666-1.217-2.541c-2.702-6.16-5.39-12.326-8.085-18.488
		c-3.177-7.263-6.351-14.525-9.536-21.785c-2.059-4.693-4.125-9.383-6.215-14.062c-0.207-0.463-0.263-1.114-1.148-1.292
		c-1.762,3.806-3.422,7.687-5.109,11.556c-1.728,3.963-3.484,7.915-5.232,11.87c-1.716,3.882-3.44,7.76-5.153,11.644
		c-1.745,3.956-3.487,7.913-5.218,11.875c-1.695,3.88-3.352,7.778-5.184,11.675c-0.976,0.026-1.851,0.07-2.726,0.07
		c-8.266,0.006-16.532,0.004-24.798,0.004c-10.353,0-20.705-0.003-31.058,0.006c-0.595,0.001-1.189,0.089-2.257,0.175
		C36.896,423.774,51.582,435.533,66.264,447.509z M305.939,465.703c-2.038-0.384-3.917-0.714-5.787-1.094
		c-3.138-0.638-6.298-1.197-9.32-2.302c-0.823-0.301-1.654-0.627-2.406-1.07c-1.359-0.802-2.06-2.031-1.823-3.633
		c0.128-0.86,0.32-1.751,0.688-2.531c1.552-3.283,3.442-6.343,6.222-8.764c3.63-3.162,7.256-6.328,10.881-9.496
		c0.534-0.467,1.05-0.955,1.54-1.402c0-4.286,0-8.457-0.002-12.628c0-0.074-0.029-0.153-0.063-0.223
		c-0.034-0.071-0.089-0.133-0.233-0.337c-0.897-0.149-1.913-0.312-2.928-0.488c-2.497-0.435-4.536,0.302-6.271,2.184
		c-1.302,1.412-2.74,2.711-4.206,3.955c-4.542,3.857-9.627,6.586-15.604,7.515c-8.161,1.27-15.24-0.8-21.168-6.619
		c-3.891-3.819-6.711-8.373-9.022-13.256c-3.39-7.158-5.362-14.734-6.44-22.559c-0.024-0.178,0.111-0.378,0.22-0.715
		c0.954,0.663,1.807,1.242,2.646,1.841c5.941,4.241,11.958,8.367,18.303,11.989c9.464,5.404,19.381,9.577,30.269,11.111
		c4.383,0.617,8.78,0.843,13.199,0.615c0.388-0.02,0.771-0.159,1.312-0.277c0.004-0.906,0.01-1.777,0.01-2.647
		c0.001-35.875,0-71.748,0-107.622c0-0.481,0.019-0.964-0.006-1.444c-0.022-0.452-0.09-0.9-0.143-1.396
		c-0.472-0.033-0.782-0.071-1.091-0.074c-4.104-0.038-8.18,0.345-12.216,1.017c-7.866,1.31-15.412,3.694-22.629,7.094
		c-11.789,5.553-22.066,13.127-30.167,23.372c-10.729,13.567-17.318,28.932-19.163,46.223c-0.938,8.786-0.219,17.451,1.891,26.016
		c2.775,11.267,7.753,21.528,14.27,31.067c9.808,14.356,22.64,25.008,38.85,31.479c8.773,3.502,17.906,5.486,27.272,6.474
		c0.993,0.105,2.021,0.316,3.126-0.021C305.957,473.206,305.977,469.465,305.939,465.703z M256.671,467.793
		c-0.762-0.689-1.342-1.235-1.945-1.756c-4.134-3.567-8.11-7.298-11.828-11.3c-8.632-9.292-15.84-19.548-20.988-31.179
		c-6.081-13.738-8.289-28.042-6.181-42.968c0.289-2.049,0.439-4.118,0.648-6.123c-3.231-3.011-6.342-5.904-9.447-8.803
		c-5.806-5.419-11.604-10.847-17.42-16.254c-0.498-0.463-0.887-1.176-1.816-1.069c-0.28,0.546-0.558,1.116-0.86,1.674
		c-1.512,2.793-3.476,5.222-6.115,7.001c-1.72,1.16-3.533,2.217-5.405,3.106c-2.238,1.064-4.586,1.892-6.879,2.842
		c-0.415,0.172-0.79,0.436-1.2,0.667c0.145,0.518,0.271,0.895,0.356,1.282c2.95,13.373,5.894,26.747,8.85,40.119
		c0.098,0.442,0.308,0.86,0.485,1.344c2.366,0,4.606,0,6.847,0c2.247,0,4.494,0,6.74,0c2.167,0,4.333,0,6.499,0
		c2.247,0,4.494-0.029,6.74,0.009c2.231,0.037,4.472-0.166,6.855,0.143c-0.079,0.452-0.033,0.89-0.228,1.144
		c-0.283,0.368-0.735,0.608-1.121,0.895c-9.399,6.983-18.799,13.964-28.196,20.949c-0.7,0.521-1.377,1.074-1.933,1.508
		c-0.072,0.373-0.135,0.53-0.127,0.684c0.314,6.006,0.635,12.013,0.954,18.019c0.43,8.102,0.388,16.2-0.315,24.282
		c-0.264,3.03-0.694,6.056-1.238,9.048c-0.63,3.465-1.475,6.89-2.218,10.333c-0.933,4.321-0.437,8.446,1.746,12.324
		c0.218,0.388,0.551,0.711,0.857,1.098c0.987-0.529,1.832-0.975,2.67-1.433c2.465-1.35,5.021-2.491,7.691-3.374
		c5.962-1.969,11.813-1.854,17.536,0.905c2.176,1.05,4.198,2.339,6.145,3.759c0.43,0.313,0.899,0.572,1.365,0.866
		C228.35,494.29,242.402,481.144,256.671,467.793z M437.762,432.437c-0.444-0.345-0.757-0.594-1.076-0.832
		c-7.525-5.606-15.052-11.212-22.576-16.819c-2.508-1.869-5.016-3.74-7.511-5.626c-0.17-0.129-0.238-0.391-0.354-0.591
		c0.166-0.225,0.306-0.414,0.546-0.739c11.046,0,22.18,0,33.455,0c3.199-14.389,6.36-28.673,9.487-43.089
		c-0.878-0.3-1.625-0.552-2.37-0.81c-2.803-0.97-5.578-2.011-8.175-3.463c-4.086-2.284-7.376-5.363-9.536-9.572
		c-0.202-0.394-0.312-0.905-0.854-1.021c-0.157,0.068-0.331,0.099-0.444,0.198c-8.527,7.434-17.051,14.873-25.571,22.314
		c-0.36,0.315-0.698,0.656-1.043,0.99c-0.056,0.055-0.098,0.128-0.132,0.2c-0.033,0.072-0.05,0.152-0.112,0.354
		c0.21,1.625,0.482,3.365,0.653,5.115c0.775,7.929,0.817,15.841-0.297,23.759c-1.136,8.07-3.328,15.813-6.662,23.242
		c-4.818,10.739-11.641,20.081-19.823,28.477c-4.207,4.316-8.727,8.283-13.436,12.041c-0.53,0.423-1.31,0.69-1.325,1.622
		c0.255,0.275,0.511,0.581,0.797,0.856c13.169,12.695,26.34,25.388,39.517,38.074c0.39,0.375,0.851,0.675,1.288,1.018
		c0.831-0.351,1.563-0.667,2.3-0.97c3.707-1.522,7.441-2.962,11.379-3.795c3.082-0.652,6.185-0.933,9.32-0.488
		c4.235,0.6,7.958,2.361,11.285,5.016c0.479,0.382,0.994,0.716,1.571,1.129c0.451-0.857,0.856-1.547,1.188-2.271
		c1.78-3.891,2.532-7.916,1.583-12.169c-0.366-1.642-0.69-3.294-0.983-4.95c-1.261-7.11-2.119-14.263-2.581-21.477
		c-0.479-7.462-0.396-14.908-0.024-22.365C437.463,441.396,437.589,436.99,437.762,432.437z M351.093,570.516
		c0.279-0.667,0.492-1.078,0.628-1.513c2.456-7.871,4.901-15.746,7.354-23.618c3.073-9.857,6.154-19.713,9.225-29.572
		c0.18-0.579,0.534-1.163,0.048-1.927c-0.408,0-0.883,0-1.356,0c-40.435,0.013-80.869,0.024-121.304,0.041
		c-0.074,0-0.156,0.047-0.219,0.092c-0.057,0.041-0.094,0.111-0.14,0.168c0.412,1.912,18.785,53.231,19.99,55.807
		c0.992-0.74,1.673-1.74,2.444-2.643c6.304-7.381,12.59-14.776,18.888-22.162c0.344-0.403,0.752-0.752,1.113-1.108
		c0.18,0.127,0.264,0.16,0.308,0.222c6.755,9.362,13.507,18.728,20.261,28.091c0.141,0.194,0.3,0.374,0.459,0.554
		c0.052,0.058,0.127,0.102,0.199,0.132c0.065,0.026,0.142,0.025,0.363,0.059c0.4-0.483,0.87-1.015,1.3-1.576
		c6.191-8.087,12.374-16.181,18.575-24.261c0.365-0.477,0.603-1.139,1.421-1.326C337.443,554.074,344.132,562.252,351.093,570.516z
		 M108.937,481.832c-0.375,0.185-0.668,0.303-0.934,0.464c-19.713,11.996-39.424,23.995-59.133,35.997
		c-0.063,0.039-0.11,0.115-0.148,0.184c-0.038,0.069-0.054,0.15-0.081,0.226c0.042,0.149,0.053,0.318,0.132,0.445
		c3.337,5.32,7.148,10.258,11.745,14.564c7.092,6.646,15.355,10.927,25.009,12.406c1.336,0.205,2.673,0.408,4.022,0.614
		c0.564,1.03,1.077,2.028,1.646,2.993c0.854,1.448,1.679,2.921,2.642,4.295c1.59,2.271,3.627,4.068,6.184,5.203
		c2.479,1.101,5.024,1.499,7.73,0.855c2.919-0.693,5.299-2.214,7.313-4.369c1.492-1.596,2.629-3.431,3.529-5.417
		c0.557-1.229,1.112-2.46,1.655-3.66c2.181-0.252,4.26-0.4,6.306-0.742c9.215-1.54,17.116-5.664,23.771-12.211
		c4.67-4.594,8.39-9.893,11.632-15.55c0.267-0.466,0.491-0.956,0.806-1.573C144.749,504.907,126.845,493.375,108.937,481.832z
		 M568.38,519.885c-19.508-11.855-38.815-23.59-58.124-35.322c-0.615-0.374-1.238-0.736-1.862-1.098
		c-0.064-0.038-0.155-0.036-0.233-0.043s-0.157-0.001-0.322-0.001c-0.347,0.219-0.753,0.471-1.156,0.73
		c-6.599,4.259-13.199,8.515-19.797,12.776c-10.165,6.567-20.33,13.134-30.483,19.718c-0.713,0.462-1.62,0.729-1.997,1.642
		c0.129,0.319,0.218,0.632,0.373,0.906c2.611,4.616,5.537,9.014,9.048,13.005c7.789,8.856,17.417,14.223,29.248,15.412
		c1.261,0.127,2.517,0.303,3.736,0.45c0.446,1.07,0.818,2.039,1.25,2.979c0.435,0.944,0.893,1.883,1.404,2.787
		c2.681,4.736,6.676,7.449,12.159,7.879c3.269,0.255,6.238-0.489,8.658-2.758c1.1-1.032,2.051-2.251,2.924-3.488
		c0.875-1.238,1.571-2.604,2.342-3.916c0.686-1.166,1.365-2.335,2.006-3.431c1.413-0.207,2.679-0.392,3.943-0.576
		c7.949-1.164,15.047-4.296,21.363-9.237c6.079-4.755,10.831-10.671,14.975-17.117C568.041,520.86,568.139,520.47,568.38,519.885z
		 M311.179,477.355c0.076,0.024,0.155,0.076,0.229,0.069c2.39-0.227,4.783-0.431,7.169-0.696c6.871-0.763,13.587-2.255,20.149-4.423
		c15.31-5.059,28.194-13.693,38.436-26.183c6.874-8.383,12.086-17.732,15.939-27.846c3.043-7.988,4.938-16.226,5.398-24.791
		c0.599-11.147-1.186-21.878-5.313-32.237c-4.141-10.39-10.045-19.69-17.415-28.066c-13.821-15.708-31.334-24.628-51.836-27.918
		c-4.031-0.647-8.124-0.913-12.189-1.339c-0.284-0.03-0.581,0.066-0.913,0.109c0,3.804,0,7.47,0,11.265
		c1.075,0.149,2.086,0.332,3.104,0.423c6.494,0.583,12.838,1.907,19.019,3.959c15.347,5.097,28.108,13.887,37.805,26.903
		c8.648,11.609,13.574,24.603,14.299,39.149c0.272,5.476,0.078,10.913-0.764,16.308c-1.592,10.197-5.258,19.626-10.969,28.235
		c-13.659,20.59-32.788,32.204-57.343,34.9c-0.797,0.088-1.591,0.204-2.386,0.313c-0.847,0.117-1.742-0.041-2.51,0.278
		C310.745,468.603,310.813,475.765,311.179,477.355z M435.643,515.464c-0.174-0.382-0.302-0.763-0.508-1.096
		c-2.04-3.301-4.999-5.373-8.717-6.357c-4.128-1.093-8.255-0.932-12.361,0.167c-3.109,0.831-6.053,2.088-8.94,3.488
		c-0.701,0.34-1.431,0.622-2.016,0.874c-0.269-0.139-0.352-0.162-0.41-0.214c-12.878-11.479-25.754-22.959-38.631-34.439
		c-0.119-0.106-0.24-0.212-0.364-0.314c-0.124-0.102-0.249-0.203-0.381-0.293c-0.063-0.043-0.14-0.069-0.214-0.087
		c-0.078-0.018-0.16-0.015-0.435-0.036c0.156,2.657,0.794,5.221,1.134,7.817c0.343,2.621,0.857,5.219,1.267,7.831
		c0.408,2.613,0.692,5.249,1.191,7.844c0.492,2.563,0.566,5.214,1.375,7.7c2.782,0.255,5.423-0.123,8.135,0.233
		c-0.136,2.326-1.109,4.43-1.036,6.741c1.529,1.419,3.054,2.835,4.58,4.25c1.588,1.473,3.194,2.928,4.763,4.422
		c1.496,1.427,3.152,2.697,4.469,4.373c-0.378,0.949-0.738,1.834-1.083,2.725c-0.923,2.391-1.911,4.758-2.743,7.18
		c-1.391,4.051-1.54,8.148-0.285,12.289c2.722,8.979,12.455,13.786,19.416,12.314c5.509-1.165,9.485-4.155,11.196-9.703
		c0.497-1.612,0.748-3.277,0.724-4.979c-0.027-1.926-0.013-3.852-0.001-5.777c0.003-0.461,0.069-0.92,0.115-1.495
		c0.528,0.046,0.91,0.08,1.293,0.111c2.969,0.243,5.931,0.24,8.868-0.334c2.063-0.402,4.028-1.06,5.769-2.277
		c2.882-2.018,4.271-4.839,4.6-8.499c-2.644,1.004-4.64,2.802-7.051,3.757c-0.249-0.21-0.426-0.358-0.729-0.613
		C430.959,527.223,433.295,521.357,435.643,515.464z M180.842,512.754c0.882,2.216,1.705,4.294,2.537,6.368
		c1.609,4.014,3.223,8.026,4.835,12.039c0.177,0.44,0.438,0.885-0.243,1.494c-3.801-2.1-7.362-4.792-11.364-6.983
		c-0.295,1.213-0.248,2.25-0.136,3.26c0.624,5.597,3.763,8.243,8.016,9.339c1.383,0.356,2.841,0.48,4.274,0.564
		c3.048,0.179,6.054-0.256,9.185-0.958c0.193,1.697,0.327,3.284,0.563,4.854c0.297,1.978,0.51,3.99,1.056,5.903
		c1.631,5.716,5.291,9.45,11.206,10.673c3.007,0.621,6.075,0.63,9.091,0.026c3.588-0.72,6.612-2.466,8.727-5.518
		c2.988-4.313,4.096-9.205,3.913-14.362c-0.15-4.206-1.747-7.947-4.388-11.233c-0.331-0.411-0.623-0.854-0.98-1.348
		c4.168-3.853,8.356-7.452,12.378-11.233c-0.646-2.427-1.259-4.729-1.907-7.164c0.564-0.068,1.023-0.168,1.483-0.172
		c2.247-0.017,4.494,0,6.741-0.014c0.457-0.003,0.913-0.086,1.42-0.138c0.151-0.657,0.297-1.191,0.396-1.733
		c1.071-5.831,2.135-11.663,3.199-17.495c0.532-2.916,1.071-5.832,1.572-8.753c0.086-0.501-0.004-1.031-0.015-1.624
		c-1.069,0.131-1.522,0.864-2.097,1.375c-11.458,10.181-22.902,20.378-34.358,30.561c-0.64,0.569-1.189,1.295-2.095,1.565
		c-0.794-0.496-1.535-0.968-2.284-1.425c-3.295-2.012-6.714-3.747-10.47-4.748c-2.821-0.753-5.666-1.081-8.566-0.571
		C187.695,506.154,184.021,508.829,180.842,512.754z M200.348,319.616c0.573-0.729,1.062-1.347,1.544-1.969
		c1.79-2.305,3.125-4.849,3.902-7.663c1.186-4.293,1.678-8.642,1.001-13.086c-0.976-6.418-4.469-10.645-10.744-12.506
		c-3.684-1.093-7.461-1.23-11.206-0.72c-6.044,0.822-10.067,4.232-11.901,10.112c-0.167,0.534-0.356,1.067-0.457,1.616
		c-0.597,3.228-1.299,6.444-1.719,9.696c-0.458,3.549-0.007,7.069,1.406,10.373c0.99,2.313,1.629,4.669,1.88,7.167
		c0.281,2.794,1.605,4.999,4.01,6.518c0.813,0.514,1.622,1.037,2.403,1.596c2.579,1.845,4.744,4.034,6.121,6.967
		c0.573,1.22,1.358,2.378,2.227,3.413c1.441,1.716,2.945,3.398,4.57,4.938c6.113,5.796,12.278,11.536,18.439,17.281
		c1.466,1.367,2.983,2.682,4.5,3.993c0.344,0.297,0.784,0.482,1.308,0.796c2.579-7.718,5.202-15.259,7.669-22.89
		c-4.23-4.35-8.363-8.602-12.499-12.851C208.67,328.152,204.534,323.911,200.348,319.616z M563.528,361.744
		c-3.424-0.268-44.367-0.194-46.219,0.083c0.13,0.386,0.228,0.764,0.382,1.117c6.326,14.457,12.655,28.913,18.995,43.364
		c0.187,0.423,0.488,0.796,0.746,1.208c0.954,0,1.835,0,2.717,0c11.155,0,22.312,0,33.468,0c1.444,0,2.89,0.022,4.333-0.019
		c0.434-0.012,0.861-0.201,1.328-0.318c-0.047-0.454-0.063-0.771-0.114-1.082c-0.978-5.932-2.185-11.817-3.746-17.623
		c-2.025-7.53-4.71-14.808-8.646-21.573C565.729,365.111,564.566,363.389,563.528,361.744z M79.877,405.825
		c6.6-15.108,13.168-30.142,19.733-45.178c0.03-0.068,0.022-0.159,0.011-0.236c-0.009-0.065-0.048-0.126-0.102-0.261
		c-15.279,0-30.588,0-45.932,0c-0.386,0.546-0.768,1.057-1.119,1.588c-3.374,5.104-5.996,10.58-8.09,16.322
		c-3.196,8.766-5.06,17.857-6.671,27.013c-0.037,0.212,0.031,0.441,0.048,0.65C39.676,405.987,75.66,406.081,79.877,405.825z
		 M400.946,368.091c0.667-0.559,1.101-0.906,1.517-1.273c7.159-6.318,14.317-12.637,21.475-18.958
		c1.021-0.902,2.059-1.79,3.05-2.726c0.941-0.889,1.663-1.913,2.036-3.2c1.065-3.67,3.274-6.579,6.238-8.919
		c1.319-1.041,2.715-1.992,4.13-2.9c1.632-1.046,2.703-2.446,3.236-4.314c1.366-4.796,2.342-9.668,2.482-14.657
		c0.111-3.926,0.015-7.86-0.065-11.788c-0.023-1.194-0.206-2.403-0.477-3.569c-0.698-3.013-2.29-5.449-4.95-7.108
		c-2.146-1.339-4.486-2.135-7.016-2.266c-7.429-0.386-13.207,2.681-17.55,8.579c-1.888,2.565-2.984,5.48-3.203,8.684
		c-0.479,7.031,1.466,13.308,5.89,18.808c0.332,0.413,0.632,0.852,1.001,1.352c-4.399,3.972-8.687,7.839-12.969,11.709
		c-4.336,3.919-8.718,7.789-13.028,11.785C395.471,354.235,398.146,361.006,400.946,368.091z M445.965,407.28
		c2.227,0.304,30.726,0.322,32.975,0.022c0.635-1.441,1.312-2.969,1.981-4.499c5.739-13.13,11.479-26.259,17.211-39.392
		c0.242-0.554,0.401-1.145,0.597-1.712c-0.308-0.121-0.454-0.226-0.604-0.229c-3.44-0.093-6.877-0.299-10.324-0.013
		c-2.501,0.207-4.949,0.631-7.229,1.639c-6.1,2.696-12.541,3.112-19.066,3.039c-1.682-0.019-3.361-0.164-5.044-0.217
		c-0.54-0.017-1.084,0.073-1.576,0.111C450.385,380.022,446.482,398.282,445.965,407.28z M118.051,360.196
		c6.662,15.214,13.296,30.368,19.949,45.563c0.473,0.037,0.864,0.094,1.255,0.094c10.262,0.004,20.524,0.005,30.785-0.007
		c0.363-0.001,0.726-0.139,1.07-0.209c-0.368-8.457-6.671-36.125-9.428-41.303c-1.6,0.108-3.269,0.232-4.938,0.332
		c-6.795,0.403-13.442-0.301-19.811-2.828c-2.87-1.139-5.817-1.743-8.894-1.77c-3.046-0.026-6.091-0.058-9.137-0.074
		C118.675,359.993,118.448,360.098,118.051,360.196z M152.566,359.946c1.601,0,3.21,0.11,4.8-0.021
		c4.154-0.344,8.272-0.938,12.253-2.25c3.377-1.113,6.496-2.713,9.23-5.009c1.418-1.191,2.716-2.505,3.623-4.138
		c1.693-3.048,1.726-6.14-0.059-9.136c-0.688-1.154-1.595-2.216-2.56-3.157c-2.023-1.973-4.378-3.476-7.006-4.552
		c-8.013-3.281-16.272-4.643-24.912-3.423c-4.794,0.676-9.389,2-13.764,4.032c-2.785,1.294-5.235,3.107-7.176,5.525
		c-1.729,2.155-2.553,4.597-2.197,7.385c0.286,2.238,1.369,4.073,2.87,5.691c1.935,2.084,4.288,3.595,6.802,4.871
		C140.157,358.649,146.224,359.859,152.566,359.946z M462.416,329.271c-7.451,0.078-14.809,2.047-21.755,5.629
		c-1.577,0.813-2.97,1.872-4.246,3.117c-3.981,3.888-4.212,10.68-0.027,14.684c1.037,0.993,2.16,1.92,3.348,2.724
		c2.397,1.624,5.01,2.843,7.771,3.734c3.681,1.189,7.471,1.73,11.31,2.111c5.991,0.594,11.815,0.163,17.499-1.991
		c3.373-1.278,6.761-2.483,9.843-4.405c1.51-0.942,2.881-2.04,4.012-3.414c1.656-2.01,2.437-4.313,2.118-6.925
		c-0.229-1.875-1.033-3.532-2.164-5.019c-1.573-2.068-3.484-3.782-5.814-4.945C477.544,331.195,470.395,329.34,462.416,329.271z
		 M81.381,329.979c0.322,0.132,0.466,0.243,0.609,0.243c8.26-0.003,16.52-0.016,24.78-0.03c0.078,0,0.164-0.024,0.23-0.063
		c0.064-0.038,0.109-0.109,0.296-0.31c0.016-0.235,0.064-0.623,0.064-1.011c0.004-16.203,0.005-32.407-0.005-48.61
		c0-0.452-0.127-0.905-0.193-1.341c-7.461,0.134-20.069,2.33-25.782,5.646C81.381,299.599,81.381,314.746,81.381,329.979z
		 M535.639,331.654c0-0.642,0-1.033,0-1.424c-0.009-14.599-0.017-29.197-0.028-43.795c0-0.074-0.054-0.15-0.089-0.222
		c-0.034-0.069-0.078-0.133-0.118-0.2c-6.752-3.794-21.143-6.227-25.68-4.954c-0.037,0.5-0.112,1.042-0.113,1.584
		c-0.006,15.882-0.006,31.764,0.003,47.646c0,0.45,0.104,0.899,0.163,1.365C518.401,331.654,526.88,331.654,535.639,331.654z
		 M569.75,337.081c-25.124,0-50.055,0-75.017,0c-0.048,0.924,0.546,1.535,0.857,2.25c1.281,2.948,1.77,5.986,0.985,9.149
		c-0.525,2.117-1.43,4.074-2.64,5.891c-0.432,0.648-0.832,1.317-1.31,2.077c0.404,0.102,0.61,0.198,0.817,0.199
		c2.481,0.011,4.963,0.007,7.574,0.007c1.142-2.511,2.226-4.999,3.399-7.443c1.188-2.478,2.113-5.087,3.644-7.654
		c0.329,0.637,0.563,1.046,0.759,1.472c1.733,3.786,3.445,7.582,5.202,11.356c0.327,0.704,0.457,1.56,1.223,2.002
		c16.521,0,33.028,0,49.497,0C565.633,354.424,568.074,345.001,569.75,337.081z M122.577,335.421c-1.206,0-2,0-2.794,0
		c-14.767,0-29.533,0-44.299,0c-8.426,0-16.853-0.005-25.279,0.01c-0.698,0.001-1.448-0.207-2.186,0.375
		c0.043,6.6,1.789,12.851,4.417,18.838c2.474,0.246,47.885,0.213,49.79-0.032c2.142-4.742,4.306-9.53,6.658-14.737
		c1.384,2.701,2.382,5.119,3.518,7.467c1.178,2.437,2.159,4.972,3.492,7.32c2.737,0,5.364,0,8.364,0
		c-1.286-2.076-2.611-3.871-3.354-5.976c-0.764-2.163-1.071-4.365-0.75-6.624C120.471,339.83,121.313,337.752,122.577,335.421z
		 M478.414,285.093c-0.267,4.426-0.177,39.418,0.096,41.243c7.726,5.625,18.577,7.168,25.865,4.805c0-0.994,0-2.03,0-3.067
		c0-15.072,0.005-30.144-0.014-45.216c-0.001-0.84,0.254-1.746-0.262-2.51C495.412,280.1,485.376,281.759,478.414,285.093z
		 M138.693,324.76c0-13.608,0-27.138,0-40.631c-5.689-3.699-20.911-6.479-26.094-4.72c0,0.421,0,0.893,0,1.365
		c0.019,16.267,0.037,32.534,0.059,48.801c0,0.076,0.037,0.158,0.076,0.227c0.037,0.065,0.099,0.117,0.248,0.284
		c0.82,0.144,1.75,0.365,2.693,0.46c3.114,0.314,6.223,0.445,9.334-0.136C129.967,329.486,134.336,327.193,138.693,324.76z
		 M363.04,315.599c0.25-0.487,0.526-0.812,0.58-1.169c0.214-1.425,0.457-2.856,0.51-4.292c0.124-3.367,0.182-6.737,0.198-10.106
		c0.034-6.98-0.373-13.941-1.112-20.881c-0.348-3.264-0.813-6.516-1.578-9.708c-0.191-0.801-0.198-1.797-1.172-2.377
		c-3.136-0.123-6.063,0.949-8.909,2.243c-7.165,3.255-12.916,8.288-17.793,14.381c-2.268,2.832-4.128,5.91-5.379,9.332
		c-0.684,1.871-1.214,3.776-1.194,5.949c6.438,1.599,12.635,3.692,18.58,6.488C351.799,308.293,357.48,311.727,363.04,315.599z
		 M556.746,450.51c6.709,15.638,13.39,31.209,20.084,46.813c0.442-0.071,0.738-0.12,1.066-0.173c0.215-0.68,0.432-1.277,0.593-1.89
		c1.928-7.295,3.094-14.724,3.776-22.228c0.472-5.189,0.622-10.396,0.66-15.609c0.058-7.779-0.307-15.544-0.665-23.31
		c-0.055-1.19-0.217-2.376-0.362-3.916C573.375,437.07,565.099,443.742,556.746,450.51z M34.936,428.966
		c-0.189,3.278-0.461,6.313-0.52,9.354c-0.13,6.724-0.497,13.441-0.341,20.175c0.213,9.225,0.841,18.399,2.657,27.46
		c0.581,2.9,1.315,5.771,2.012,8.646c0.124,0.511,0.201,1.131,0.868,1.282c0.102-0.017,0.191-0.008,0.25-0.047
		c0.13-0.085,0.261-0.181,0.36-0.299c0.101-0.121,0.176-0.268,0.239-0.414c6.516-15.224,13.028-30.448,19.539-45.674
		c0.03-0.07,0.029-0.158,0.028-0.237c-0.001-0.075-0.021-0.15-0.065-0.432c-7.986-6.434-16.092-12.966-24.206-19.488
		C35.588,429.157,35.34,429.122,34.936,428.966z M76.445,330.216c0.282-3.373,0.216-41.007-0.07-42.86
		c-0.385,0.119-0.769,0.199-1.121,0.352c-2.219,0.96-4.263,2.221-6.188,3.674c-3.481,2.625-6.504,5.716-9.17,9.155
		c-4.512,5.821-7.994,12.174-9.928,19.326c-0.589,2.177-0.895,4.397-1.083,6.632c-0.104,1.245-0.183,2.527,0.387,3.722
		C58.374,330.216,67.343,330.216,76.445,330.216z M541.073,331.625c0.271,0.032,0.57,0.099,0.869,0.099
		c8.412,0.006,16.823,0.008,25.235-0.004c0.373,0,0.745-0.139,1.225-0.234c-0.222-1.933-0.308-3.782-0.661-5.578
		c-2.202-11.195-7.25-20.954-15.037-29.28c-2.141-2.29-4.568-4.266-7.344-5.76c-1.332-0.717-2.693-1.4-4.32-1.583
		c-0.061,0.337-0.155,0.639-0.164,0.944C540.646,298.103,540.79,329.239,541.073,331.625z M472.834,287.786
		c-2.5,1.238-4.651,2.882-6.752,4.584c-4.211,3.411-7.766,7.418-10.663,12.002c-3.504,5.543-5.826,11.579-7.343,17.929
		c-0.264,1.104-0.854,2.226-0.496,3.427c2.341,0.136,23.649-0.953,25.255-1.278C473.095,322.589,473.112,290.044,472.834,287.786z
		 M144.224,286.247c-0.283,2.683-0.239,34.973,0.034,36.862c0.513,0.066,1.052,0.175,1.596,0.2c7.762,0.355,15.524,0.7,23.288,1.042
		c0.068,0.003,0.143-0.061,0.208-0.104c0.064-0.042,0.121-0.096,0.272-0.218C166.394,308.066,158.882,294.951,144.224,286.247z
		 M171.411,489.472c0.221-0.733,0.445-1.416,0.634-2.108c2.208-8.086,3-16.362,3.281-24.703c0.259-7.697-0.304-15.378-0.539-23.065
		c-0.048-1.584-0.232-3.163-0.375-5.038c-2.431,1.661-4.561,3.329-6.741,4.925c-2.198,1.609-4.385,3.234-6.56,4.874
		c-2.159,1.628-4.43,3.112-6.427,4.863C156.044,453.275,170.414,487.858,171.411,489.472z M445.853,490.908
		c5.094-12.361,10.061-24.408,15.021-36.458c0.457-1.109,0.874-2.235,1.306-3.354c0.026-0.069,0.034-0.153,0.023-0.226
		c-0.013-0.077-0.058-0.148-0.214-0.521c-6.219-4.577-12.661-9.319-19.11-14.05c-0.101-0.074-0.304-0.01-0.527-0.01
		c-0.03,0.482-0.071,0.951-0.087,1.422c-0.088,2.722-0.15,5.445-0.258,8.167c-0.345,8.728-0.567,17.451,0.114,26.178
		c0.412,5.283,1.229,10.49,2.552,15.615C444.925,488.652,445.015,489.722,445.853,490.908z M354.76,262.62
		c-2.224-0.399-6.548-0.463-8.515-0.148c-4.774,0.765-9.324,2.243-13.644,4.396c-8.363,4.171-15.521,9.883-21.455,17.1
		c-2.703,3.287-5.061,6.815-6.888,10.673c-0.335,0.708-0.876,1.368-0.696,2.523c1.921,0.021,3.905,0.009,5.887,0.01
		c2.085,0.002,4.169,0.008,6.254-0.001c1.992-0.009,3.987,0.043,6.022-0.041c0.394-0.823,0.756-1.529,1.074-2.254
		c1.612-3.672,3.509-7.191,5.643-10.585c3.531-5.621,7.853-10.526,13.182-14.505c3.748-2.798,7.869-4.909,12.269-6.481
		C354.265,263.174,354.686,263.123,354.76,262.62z M292.247,421.789c-1.135-0.193-1.918-0.324-2.699-0.462
		c-2.364-0.417-4.748-0.745-7.086-1.272c-8.845-1.995-16.968-5.699-24.586-10.564c-3.788-2.419-7.388-5.095-10.88-7.92
		c-0.405-0.328-0.732-0.892-1.457-0.637c-0.074,0.193-0.208,0.404-0.225,0.623c-0.024,0.313-0.012,0.647,0.071,0.949
		c1.776,6.462,4.344,12.551,8.458,17.911c2.609,3.399,5.686,6.302,9.213,8.732c3.678,2.535,7.732,3.508,12.108,2.624
		C281.815,430.428,287.296,426.984,292.247,421.789z M365.67,401.666c-0.118-0.092-0.235-0.184-0.353-0.275
		c-0.883,0.676-1.763,1.354-2.647,2.027c-0.894,0.679-1.781,1.365-2.688,2.025c-0.973,0.706-1.957,1.396-2.95,2.073
		c-0.926,0.632-1.863,1.248-2.81,1.851s-1.898,1.194-2.865,1.762c-0.967,0.568-1.948,1.11-2.936,1.643
		c-0.986,0.531-1.979,1.053-2.983,1.547c-1.077,0.53-2.163,1.045-3.264,1.526c-1.025,0.45-2.07,0.857-3.114,1.266
		c-1.043,0.409-2.086,0.818-3.144,1.186c-1.059,0.367-2.13,0.697-3.203,1.016c-1.074,0.317-2.151,0.629-3.24,0.89
		c-1.167,0.279-2.348,0.502-3.524,0.738c-1.099,0.22-2.206,0.397-3.299,0.646c-1.053,0.239-2.194,0.059-3.217,0.506
		c0.094,0.311,0.094,0.497,0.188,0.596c4.161,4.425,9.144,7.498,15.034,9.043c4.669,1.225,9.021,0.572,13.073-2.154
		c3.556-2.394,6.709-5.192,9.337-8.585c3.941-5.087,6.394-10.876,8.068-17.033C365.338,403.201,365.492,402.431,365.67,401.666z
		 M256.168,487.476c2.683,1.066,18.86,5.691,20.79,5.967c0.103-0.186,0.272-0.375,0.317-0.59c0.985-4.777,1.957-9.557,2.959-14.477
		c-6.016-2.498-11.892-4.974-18-7.358C260.19,476.562,258.202,481.959,256.168,487.476z M353.419,472.276
		c-6.541,2.395-12.816,4.525-19.099,6.921c0.891,4.857,1.753,9.562,2.637,14.386c2.606-0.204,4.933-1.104,7.336-1.614
		c2.506-0.531,4.988-1.181,7.462-1.849c2.364-0.638,4.813-0.991,7.234-1.937C357.118,482.842,355.301,477.65,353.419,472.276z
		 M305.864,496.302c0.286-5.535,0.192-12.061-0.204-13.857c-3.379-0.466-6.784-0.948-10.193-1.4
		c-3.484-0.463-6.972-0.897-10.573-1.359c-0.132,0.386-0.304,0.743-0.375,1.119c-0.844,4.473-1.673,8.949-2.524,13.523
		c0.578,0.154,1.019,0.316,1.475,0.388C285.964,495.104,304.215,496.4,305.864,496.302z M330.251,480.101
		c-3.514,0.426-6.688,0.804-9.859,1.198c-3.15,0.393-6.34,0.527-9.409,1.221c-0.293,3.465-0.226,12.056,0.093,13.758
		c2.083,0.119,19.402-1.552,21.583-2.108C331.867,489.552,331.075,484.921,330.251,480.101z M339.184,507.949
		c3.521,0.271,21.107,0.193,23.127-0.103c-0.014-0.28,0-0.581-0.047-0.872c-0.7-4.338-1.402-8.677-2.129-13.011
		c-0.06-0.357-0.301-0.684-0.469-1.046c-2.536,0.56-4.955,1.081-7.368,1.63c-2.491,0.566-4.978,1.157-7.465,1.74
		c-2.385,0.561-4.831,0.888-7.255,1.786C338.118,501.396,338.642,504.612,339.184,507.949z M255.646,492.18
		c-0.687,1.926-2.626,13.473-2.621,15.669c2.372,0.219,4.759,0.073,7.141,0.099c2.482,0.027,4.964,0.033,7.446-0.002
		c2.369-0.033,4.749,0.155,7.053-0.119c0.722-2.807,1.46-7.889,1.442-9.949C269.337,495.898,262.477,494.087,255.646,492.18z
		 M309.007,462.308c1.239-0.195,2.49-0.353,3.725-0.595c3.058-0.599,6.118-1.197,9.157-1.884c0.919-0.208,1.838-0.599,2.641-1.093
		c1.623-1,2.059-2.359,1.307-4.13c-0.434-1.019-1.029-1.993-1.692-2.884c-2.5-3.361-5.483-6.271-8.731-8.895
		c-0.98-0.792-2.148-1.375-3.286-1.942c-1.005-0.501-2.107-0.542-3.186-0.409C308.627,443.325,308.674,460.398,309.007,462.308z
		 M306.076,507.874c-0.119-2.494,0.185-4.782-0.203-7.025c-6.925-0.861-22.546-2.082-24.651-1.912
		c-0.251,1.453-0.602,2.933-0.739,4.432c-0.135,1.474-0.761,2.91-0.499,4.506C288.655,507.874,297.2,507.874,306.076,507.874z
		 M334.66,507.719c-0.343-2.352-0.677-4.706-1.034-7.058c-0.105-0.696-0.275-1.383-0.442-2.2
		c-7.344,0.686-14.581,1.361-21.818,2.043c-0.066,0.006-0.128,0.086-0.188,0.137c-0.061,0.052-0.116,0.11-0.287,0.273
		c0,1.976-0.005,4.055,0.007,6.134c0.002,0.225,0.102,0.449,0.15,0.652C312.951,508.031,332.449,508.055,334.66,507.719z
		 M359.887,257.891c-1.637-8.694-3.958-17.074-7.576-25.354c-0.257,0.672-0.479,1.096-0.584,1.547
		c-1.438,6.221-2.899,12.437-4.251,18.677c-0.294,1.357-0.906,2.71-0.638,4.249c3.182,0.805,6.425,0.361,9.572,0.899
		C357.478,258.091,358.618,258.165,359.887,257.891z M321.251,357.678c-3.715-0.054-6.651,2.768-6.646,6.385
		c0.005,3.405,2.958,6.534,6.354,6.561c4.019,0.032,6.588-3.339,6.619-6.507C327.612,360.561,324.833,357.73,321.251,357.678z
		 M333.798,364.002c-0.023,3.511,3.035,6.608,6.534,6.619c3.438,0.01,6.354-2.904,6.44-6.436c0.089-3.646-2.797-6.531-6.508-6.506
		C336.673,357.703,333.821,360.492,333.798,364.002z M365.77,364.123c0.125-3.99-3.17-6.466-6.256-6.46
		c-3.635,0.007-6.7,2.886-6.716,6.406c-0.016,3.387,3.238,6.618,6.668,6.543C362.982,370.535,365.797,367.743,365.77,364.123z
		 M286.729,231.458c-0.082-0.199-0.147-0.467-0.391-0.132c-0.018,0.023,0.155,0.186,0.239,0.284L286.729,231.458z"/>
</g>
</svg>
