<?xml version="1.0" encoding="utf-8"?>
<!-- Generator: Adobe Illustrator 16.0.0, SVG Export Plug-In . SVG Version: 6.00 Build 0)  -->
<!DOCTYPE svg PUBLIC "-//W3C//DTD SVG 1.1//EN" "http://www.w3.org/Graphics/SVG/1.1/DTD/svg11.dtd">
<svg version="1.1" xmlns="http://www.w3.org/2000/svg" xmlns:xlink="http://www.w3.org/1999/xlink" x="0px" y="0px" width="612px"
	 height="792px" viewBox="0 0 612 792" enable-background="new 0 0 612 792" xml:space="preserve">
<g id="White">
	<path fill-rule="evenodd" clip-rule="evenodd" fill="#FEFEFE" d="M393.626,348.273c-0.115-3.418-0.064-6.63-0.376-9.807
		c-0.303-3.097-0.976-6.157-1.509-9.366c0.504-0.302,1.031-0.63,1.568-0.94c6.118-3.53,11.991-7.431,17.625-11.69
		c2.703-2.043,5.124-4.389,7.012-7.222c5.305-7.963,5.444-16.227,1.132-24.593c-2.107-4.09-5.477-6.847-9.991-8.087
		c-3.104-0.853-6.203-0.782-9.249,0.172c-6.101,1.911-10.562,5.587-12.51,11.895c-0.352,1.141-0.784,2.256-1.199,3.44
		c-1.198,0.033-2.232-0.426-3.298-0.693c-4.714-1.178-9.386-1.233-13.904,0.742c-6.377,2.788-10.122,7.635-11.123,14.57
		c-0.236,1.635,0.064,3.214,0.393,4.771c0.419,1.991-0.108,3.646-1.378,5.125c-4.183,4.87-8.404,9.707-12.557,14.602
		c-1.682,1.982-3.697,2.352-6.061,1.655c-3.226-0.95-6.449-1.906-9.681-2.836c-6.617-1.904-13.235-3.8-19.86-5.676
		c-0.998-0.283-2.023-0.524-3.052-0.635c-1.512-0.162-2.561,0.591-2.917,1.928c-0.421,1.577-0.005,2.854,1.297,3.511
		c0.923,0.465,1.92,0.808,2.916,1.098c7.227,2.103,14.466,4.16,21.688,6.275c1.838,0.538,3.63,1.231,5.602,1.908
		c-0.453,1.353-1.381,2.06-2.394,2.627c-1.535,0.861-3.126,1.625-4.684,2.447c-0.777,0.411-1.604,0.772-2.287,1.31
		c-1.932,1.521-2.686,3.493-2.161,5.96c0.444,2.096,2.053,4.168,5.145,4.134c2.263-0.025,4.463-0.438,6.667-0.862
		c0.309-0.06,0.622-0.093,1.009-0.149c0.44,0.692,0.876,1.354,1.291,2.029c1.902,3.094,4.137,5.914,6.856,8.334
		c4.444,3.956,9.624,6.228,15.533,6.982c4.117,0.525,8.175,0.336,12.18-0.647c5.442-1.337,10.05-4.176,13.839-8.27
		c1.629-1.759,3.021-3.739,4.499-5.634c0.438-0.562,0.807-1.179,1.234-1.809c3.299,0.521,6.426,1.505,9.565,2.405
		c10.235,2.933,20.455,5.922,30.684,8.878c0.768,0.222,1.551,0.453,2.342,0.525c2.487,0.229,3.934-1.258,3.716-3.797
		c-0.074-0.876-0.236-1.749-0.419-2.611c-0.965-4.544-1.953-9.084-2.924-13.627c-0.3-1.403-0.59-2.811-0.188-4.342
		c1.42,0.084,2.695,0.557,3.947,1c11.394,4.031,22.767,8.123,34.162,12.149c3.058,1.081,5.165,3.063,6.541,5.978
		c7.244,15.342,12.975,31.2,16.323,47.866c1.789,8.904,2.92,17.896,2.874,26.987c-0.078,15.549-3.343,30.376-10.436,44.284
		c-0.938,1.842-1.943,3.647-3.332,5.436c-0.663-0.456-1.277-0.808-1.81-1.256c-2.64-2.22-5.245-4.479-7.888-6.695
		c-1.515-1.271-2.204-2.894-2.33-4.829c-0.432-6.652-1.427-13.221-2.847-19.734c-3.558-16.319-10.058-31.385-19.191-45.34
		c-0.878-1.342-1.776-2.671-2.693-3.986c-2.494-3.575-5.474-6.688-8.807-9.503c-9.122-7.702-21.006-8.163-30.735-2.568
		c-3.697,2.126-7.056,4.737-10.252,7.55c-7.579,6.673-13.914,14.426-19.556,22.758c-2.472,3.65-4.773,7.414-7.163,11.121
		c-0.955,1.481-1.936,2.946-3.001,4.565c-0.581-0.07-1.21-0.081-1.806-0.228c-6.453-1.59-12.888-3.256-19.354-4.794
		c-8.967-2.134-18.006-3.888-27.137-5.192c-8.592-1.228-17.221-1.794-25.89-2.022c-6.422-0.169-12.835-0.048-19.248,0.197
		c-5.774,0.222-11.506,0.917-17.228,1.722c-11.046,1.555-21.875,4.151-32.719,6.684c-0.688,0.16-1.391,0.263-2.219,0.416
		c-0.983-1.444-1.97-2.8-2.859-4.216c-5.304-8.44-11.13-16.483-17.951-23.778c-4.008-4.287-8.264-8.306-12.979-11.811
		c-4.028-2.995-8.386-5.293-13.387-6.237c-5.362-1.012-10.526-0.499-15.488,1.817c-4.126,1.926-7.665,4.65-10.772,7.955
		c-2.315,2.461-4.34,5.15-6.228,7.947c-9.337,13.837-15.804,28.935-19.661,45.147c-1.075,4.516-1.871,9.101-2.678,13.675
		c-0.376,2.127-0.479,4.302-0.699,6.456c-0.049,0.479-0.077,0.96-0.105,1.44c-0.152,2.573-1.035,4.771-2.927,6.628
		c-1.933,1.897-3.68,3.984-5.591,6.08c-1.099-0.846-1.784-1.806-2.404-2.816c-5.706-9.299-9.797-19.247-12.168-29.911
		c-2.46-11.064-2.845-22.244-2.061-33.5c1.372-19.673,6.968-38.223,14.908-56.158c9.702-21.913,22.306-42.035,37.382-60.625
		c12.157-14.991,25.474-28.877,40.041-41.55c2.42-2.105,4.931-4.108,7.427-6.124c0.867-0.7,1.816-1.299,2.81-2.002
		c1.362,0.817,2.693,1.553,3.961,2.385c12.453,8.177,25.73,14.655,39.864,19.368c8.677,2.894,17.529,5.078,26.552,6.603
		c9.114,1.54,18.28,2.396,27.521,2.542c7.467,0.118,14.905-0.235,22.332-1.037c22.885-2.47,44.408-9.466,65.026-19.479
		c3.384-1.643,6.682-3.465,10.027-5.188c1.201-0.619,2.427-1.192,3.696-1.813c0.559,0.431,1.079,0.793,1.557,1.205
		c21.298,18.372,40.352,38.798,56.575,61.814c5.825,8.264,11.246,16.782,16.209,25.591c0.275,0.489,0.623,0.954,0.795,1.477
		c0.099,0.3-0.087,0.695-0.178,1.253c-1.47-0.406-2.793-0.686-4.057-1.135c-11.313-4.02-22.616-8.067-33.919-12.115
		c-1.211-0.433-2.41-0.878-3.724-0.865c-1.872,0.018-2.846,0.811-3.08,2.654c-0.079,0.621-0.017,1.285,0.109,1.903
		c0.915,4.474,1.848,8.944,2.81,13.408c0.436,2.021,0.883,4.036,0.957,6.183c-1.022,0.278-1.941,0.031-2.875-0.166
		c-7.372-1.553-14.615-3.591-21.817-5.782c-3.062-0.931-6.087-1.983-9.123-2.995C395.058,348.866,394.401,348.576,393.626,348.273z
		 M197.65,329.428c-0.287,0.997-0.515,1.762-0.727,2.532c-1.312,4.772-1.937,9.656-1.019,14.521
		c2.225,11.784,9.135,19.716,20.437,23.712c5.364,1.897,10.852,1.742,16.371,0.557c5.836-1.253,10.74-4.074,14.8-8.414
		c1.982-2.119,3.65-4.467,5.116-6.966c0.273-0.467,0.606-0.899,0.93-1.373c1.276,0.207,2.45,0.461,3.639,0.576
		c1.512,0.146,3.036,0.242,4.554,0.242c1.375,0,2.461-0.714,3.237-1.814c1.767-2.505,1.77-6.414-1.473-8.429
		c-0.813-0.505-1.682-0.926-2.548-1.336c-6.01-2.846-11.365-6.557-15.758-11.615c-4.208-4.846-8.436-9.68-12.8-14.385
		c-1.697-1.83-2.351-3.742-1.868-6.121c0.048-0.236,0.084-0.475,0.112-0.713c0.701-6.012-1.128-11.064-5.731-15.055
		c-4.888-4.238-10.583-5.46-16.843-4.404c-1.795,0.303-3.556,0.811-5.47,1.256c-0.427-1.308-0.832-2.508-1.21-3.716
		c-0.629-2.01-1.553-3.859-2.889-5.498c-2.847-3.493-6.531-5.679-10.885-6.614c-4.764-1.023-9.281-0.306-13.21,2.758
		c-3.66,2.854-6.07,6.549-7.135,11.107c-0.536,2.292-0.568,4.601-0.539,6.932c0.061,4.933,1.796,9.224,4.822,13.056
		c1.949,2.468,4.186,4.646,6.575,6.677c4.604,3.915,9.722,7.056,14.999,9.96C194.604,327.667,196.05,328.517,197.65,329.428z
		 M293.893,408.844c0.64-0.03,1.284-0.027,1.92-0.098c7.243-0.798,12.374-4.443,15.073-11.293c1.108-2.813,1.357-5.757,1.002-8.742
		c-0.791-6.646-4.16-11.483-10.262-14.316c-3.284-1.524-6.742-1.851-10.324-1.401c-9.052,1.138-17.157,9.391-15.406,20.699
		C277.468,403.854,286.138,409.069,293.893,408.844z M379.489,550.037c4.781-1.332,9.574-2.629,14.317-4.087
		c15.965-4.908,31.392-11.119,45.948-19.365c7.892-4.47,15.53-9.335,22.575-15.079c3.491-2.848,6.728-5.959,9.603-9.434
		c1.28-1.548,2.475-3.152,3.213-5.05c1.032-2.649,0.658-5.019-1.339-7.099c-1.294-1.348-2.796-2.418-4.449-3.248
		c-3.577-1.795-7.11-3.707-10.796-5.25c-7.383-3.089-14.832-6.021-22.295-8.913c-23.295-9.024-46.809-17.426-70.753-24.591
		c-16.685-4.994-33.591-8.921-50.915-10.96c-7.178-0.846-14.371-1.403-21.587-1.632c-9.396-0.298-18.762,0.225-28.111,1.192
		c-6.227,0.645-12.411,1.551-18.559,2.694c-11.114,2.068-22.021,4.975-32.829,8.271c-17.167,5.236-33.938,11.563-50.54,18.356
		c-10.234,4.188-20.291,8.752-29.991,14.077c-3.739,2.052-7.253,4.432-10.441,7.269c-4.031,3.588-4.502,7.013-1.417,11.432
		c1.325,1.897,2.829,3.706,4.458,5.351c4.93,4.977,10.491,9.207,16.27,13.133c20.423,13.875,42.471,24.371,66.084,31.577
		c1.066,0.325,2.185,0.498,3.289,0.679c0.422,0.069,0.874-0.036,1.33-0.063c-0.575-3.435-0.422-6.716-0.156-9.991
		c0.104-1.271,0.285-2.56,0.63-3.784c1.107-3.926,4.256-5.833,8.269-5.155c1.521,0.257,2.917,0.817,4.3,1.471
		c1.519,0.718,3.042,1.442,4.617,2.018c3.281,1.2,6.357,0.717,8.998-1.589c1.625-1.418,3.178-2.952,4.564-4.602
		c2.373-2.825,4.601-5.771,6.867-8.684c3.108-3.995,6.375-7.847,10.014-11.373c5.813-5.634,12.295-10.27,19.814-13.371
		c3.655-1.508,7.436-2.495,11.399-2.716c6.145-0.343,11.94,1.077,17.495,3.569c6.365,2.854,11.849,7.011,16.911,11.752
		c4.347,4.07,8.123,8.647,11.858,13.271c3.023,3.743,6.118,7.436,9.323,11.024c3.23,3.617,6.823,4.288,11.309,2.369
		c1.177-0.504,2.305-1.121,3.485-1.613c1.251-0.521,2.506-1.094,3.816-1.402c3.889-0.919,7.289,0.86,8.698,4.563
		c1.036,2.721,1.605,5.572,1.216,8.487c-0.318,2.372-0.883,4.71-1.367,7.208C376.41,550.915,377.956,550.465,379.489,550.037z
		 M461.463,465.671c-0.36-2.294-0.803-4.575-1.251-6.854c-3.419-17.381-10.345-33.278-20.331-47.867
		c-2.604-3.803-5.805-7.074-9.443-9.878c-4.885-3.765-10.163-4.429-15.765-1.632c-3.021,1.508-5.865,3.275-8.452,5.469
		c-10.632,9.017-19.245,19.709-26.366,31.643c-0.805,1.347-1.568,2.736-2.142,4.401c27.968,10.147,55.841,20.261,83.798,30.405
		C461.872,469.326,461.748,467.488,461.463,465.671z M132.725,468.854c8.689-4.293,17.537-8.236,26.484-11.956
		c16.493-6.856,33.299-12.861,50.285-18.369c0.582-0.188,1.135-0.466,1.724-0.712c-0.107-0.525-0.128-0.938-0.277-1.299
		c-0.276-0.664-0.577-1.328-0.955-1.938c-6.68-10.771-14.576-20.527-24.188-28.84c-2.925-2.529-6.151-4.631-9.589-6.382
		c-4.923-2.508-9.754-2.212-14.362,0.813c-1.333,0.875-2.556,1.941-3.745,3.013c-4.392,3.955-7.845,8.672-10.94,13.669
		c-5.134,8.285-8.945,17.18-12.117,26.367c-2.569,7.44-4.665,14.99-5.523,22.846c-0.15,1.379-0.148,2.701,0.38,4.099
		C130.872,469.715,131.809,469.306,132.725,468.854z"/>
</g>
<g id="Grey">
	<path fill-rule="evenodd" clip-rule="evenodd" fill="#C6C6C7" d="M308.769,202.766c-0.208,0.062-0.431,0.185-0.653,0.185
		c-7.92,0.011-15.84,0.011-23.761,0.001c-0.221,0-0.442-0.139-0.649-0.208c-0.418-6.814,7.165-12.26,13.324-11.852
		C303.521,191.322,309.237,196.938,308.769,202.766z"/>
</g>
<g id="Red">
	<path fill-rule="evenodd" clip-rule="evenodd" fill="#B10C24" d="M116.598,308.654c-1-1.216-1.974-2.361-2.905-3.54
		c-4.479-5.672-10.231-9.335-17.25-11.049c-2.338-0.571-4.681-1.011-7.1-1.018c-0.871-0.003-1.748-0.337-2.609-0.289
		c-2.708,0.151-5.409,0.411-8.344,0.648c-0.195-0.271-0.562-0.681-0.814-1.151c-1.732-3.229-2.439-6.726-2.736-10.346
		c-0.519-6.32-0.481-12.651-0.391-18.98c0.073-5.093,1.081-9.955,3.454-14.553c2.4-4.652,5.266-8.99,8.479-13.078
		c2.827-3.597,6.652-6.005,10.888-7.663c3.942-1.542,7.963-2.88,11.937-4.343c2.399-0.883,4.831-1.71,7.149-2.775
		c6.32-2.904,10.89-7.497,13.218-14.162c0.366-1.048,0.821-2.064,1.243-3.115c0.992,0.476,1.449,1.25,1.794,2.047
		c0.827,1.911,1.502,3.856,1.57,5.992c0.118,3.708-0.16,7.322-1.357,10.885c-1.199,3.566-1.876,7.319-1.909,11.054
		c-0.04,4.56,0.455,9.179,3.035,13.139c3.056,4.688,7.344,7.713,12.939,8.785c3.189,0.61,6.33,0.5,9.532,0.041
		c4.497-0.644,8.693-2.132,12.686-4.185c3.494-1.797,6.772-3.969,9.695-6.622c2.135-1.938,4.305-3.849,6.306-5.919
		c3.237-3.347,6.106-7.021,8.472-11.027c2.264-3.835,3.473-8.037,3.656-12.533c0.224-5.484-0.78-10.813-1.693-16.177
		c-1.054-6.194-4.062-11.394-7.699-16.331c-1.377-1.869-2.775-3.721-4.155-5.588c-0.179-0.242-0.3-0.527-0.566-1.003
		c0.568-0.026,0.964-0.152,1.274-0.041c1.502,0.54,3.059,0.999,4.452,1.753c3.596,1.947,7.022,4.147,9.946,7.074
		c3.461,3.465,5.996,7.498,7.572,12.106c0.902,2.639,1.569,5.358,2.34,8.042c0.264,0.92,0.542,1.836,0.78,2.763
		c0.889,3.458,3.843,5.352,7.802,4.646c1.959-0.35,3.833-0.977,5.508-2.204c3.876-2.84,7.887-5.493,11.122-9.125
		c4.403-4.945,7.982-10.386,10.553-16.511c1.961-4.672,3.385-9.505,4.07-14.488c0.485-3.53,0.9-7.099,0.343-10.749
		c-0.434-2.839-0.738-5.683-1.491-8.47c-1.194-4.416-3.375-8.302-6.332-11.726c-2.304-2.669-4.819-5.153-7.624-7.324
		c-0.688-0.533-1.273-1.199-2.076-1.967c0.529-0.263,0.888-0.515,1.286-0.617c0.378-0.097,0.8-0.074,1.197-0.038
		c2.624,0.238,5.246,0.493,7.869,0.747c0.237,0.023,0.471,0.097,0.709,0.114c2.712,0.198,5.426,0.366,8.137,0.586
		c7.091,0.576,14.13,1.381,20.909,3.77c5.615,1.979,10.597,4.851,14.669,9.26c2.556,2.768,5.107,5.525,7.219,8.663
		c1.127,1.676,1.977,3.461,2.546,5.596c-2.567,1.947-5.458,3.485-8.135,5.455c-1.998-1.044-4.028-1.674-6.26-1.544
		c-1.569,0.091-2.992,0.452-4.193,1.516c-0.598,0.53-1.266,0.988-1.826,1.555c-1.357,1.372-3.012,2.045-4.889,2.329
		c-0.862,0.13-1.725,0.355-2.543,0.658c-2.309,0.853-3.846,2.532-4.827,4.75c-0.226,0.511-0.387,1.05-0.6,1.566
		c-0.384,0.931-1.031,1.607-1.971,2c-0.443,0.185-0.871,0.407-1.309,0.605c-2.154,0.973-3.747,2.562-4.479,4.775
		c-0.72,2.177-2.066,3.785-3.841,5.071c-1.154,0.837-1.865,1.96-2.529,3.149c-0.474,0.849-0.759,1.75-0.782,2.743
		c-0.043,1.912-0.696,3.543-2.065,4.959c-1.617,1.672-2.401,3.723-2.318,6.11c0.056,1.609,0.135,3.188,0.663,4.732
		c0.228,0.667,0.34,1.398,0.363,2.104c0.034,1.032-0.471,1.858-1.326,2.419c-0.534,0.35-1.119,0.627-1.7,0.898
		c-2.684,1.25-5.397,2.44-8.057,3.741c-3.089,1.51-6.189,3.015-9.187,4.697c-6.074,3.409-12.011,7.055-17.74,11.021
		c-6.846,4.738-13.542,9.682-20.048,14.882c-6.079,4.857-11.9,9.996-17.43,15.47c-2.619,2.593-5.355,5.07-7.948,7.688
		c-3.385,3.417-6.701,6.903-10.005,10.397c-1.319,1.396-2.599,2.841-3.774,4.358c-1.938,2.501-4.424,4.401-6.806,6.412
		c-4.781,4.036-10.076,7.369-15.187,10.952c-2.227,1.561-4.515,3.034-6.787,4.53C117.839,308,117.267,308.278,116.598,308.654z
		 M163.095,592.248c1.76-2.281,3.487-4.589,5.258-6.862c1.841-2.364,3.977-4.395,6.706-5.729c1.151-0.563,2.275-1.185,3.441-1.717
		c3.153-1.44,6.477-2.307,9.92-2.588c4.188-0.342,8.316,0.067,12.31,1.456c2.499,0.868,4.952,1.847,7.145,3.364
		c2.829,1.958,4.201,4.92,2.831,8.841c-0.595,1.703-1.68,3.1-2.719,4.506c-2.018,2.732-3.525,5.695-4.646,8.896
		c-1.77,5.049-2.434,10.239-2.323,15.565c0.036,1.7,0.327,3.349,0.745,4.966c1.124,4.35,3.432,8.082,6.304,11.479
		c0.73,0.863,1.717,1.396,2.965,1.474c0.355-1.093,0.002-2.104-0.045-3.122c-0.118-2.556-0.507-5.167-0.142-7.662
		c0.771-5.262,3.117-9.867,6.873-13.711c2.537-2.597,5.341-4.831,8.51-6.608c4.322-2.424,8.887-3.988,13.899-4.005
		c1.204-0.004,2.407,0.024,3.611,0.018c2.019-0.011,3.962,0.409,5.896,0.946c3.979,1.104,7.628,2.872,10.975,5.284
		c7.766,5.595,13.092,12.841,15.107,22.324c0.282,1.325,0.6,2.651,0.758,3.994c0.253,2.141,0.395,4.296,0.561,6.446
		c0.024,0.311-0.09,0.63-0.124,0.946c-0.076,0.715-0.21,1.432-0.197,2.145c0.034,1.86-0.316,3.671-0.729,5.457
		c-1.818,7.858-5.253,14.905-10.644,20.962c-0.721,0.81-1.469,1.638-1.956,2.713c3.911,0.418,7.673,0.167,11.377-0.508
		c3.37-0.615,6.729-1.39,10.008-2.375c4.701-1.412,9.127-3.511,13.064-6.473c3.651-2.747,5.274-6.271,3.94-10.937
		c-0.836-2.923-1.139-5.959-1.066-9.022c0.076-3.2,0.041-6.39,0.44-9.59c0.677-5.433,2.278-10.45,5.64-14.828
		c0.438-0.572,0.964-1.078,1.405-1.648c2.874-3.718,6.376-6.779,10.237-9.389c6.505-4.396,13.813-6.621,21.583-7.267
		c3.83-0.317,7.708-0.27,11.498,0.479c7.127,1.408,12.96,4.924,17.112,11.002c2.609,3.819,4.165,8.097,5.313,12.529
		c0.56,2.163,0.91,4.373,0.935,6.627c0.029,2.738-0.346,5.431-0.977,8.072c-1.428,5.969-4.213,11.217-8.702,15.468
		c-1.157,1.096-2.46,2.043-3.727,3.018c-0.623,0.479-1.385,0.814-1.42,1.75c1.635,0.7,2.331,0.807,4.234,0.62
		c2.86-0.28,5.715-0.627,8.581-0.834c1.766-0.127,3.474-0.478,5.188-0.871c3.206-0.734,6.295-1.836,9.309-3.116
		c5.12-2.177,9.812-5.072,13.972-8.787c5.138-4.588,9.009-10.192,12.575-16.005c1.424-2.321,2.245-4.953,2.427-7.711
		c0.243-3.696,0.01-7.354-0.995-10.946c-1.713-6.121-4.415-11.664-9.131-16.081c-1.815-1.701-3.562-3.474-5.357-5.196
		c-1.989-1.907-3.577-4.115-4.794-6.57c-1.064-2.149-2.118-4.318-2.958-6.561c-1.153-3.078-1.826-6.274-1.815-9.601
		c0.007-2.019,0.343-3.976,0.779-5.925c0.21-0.938,0.375-1.854,0.036-2.959c-3.751,0.229-7.259,1.333-10.833,2.029
		c-3.68,0.717-7.332,1.57-11.001,2.339c-3.592,0.751-7.195,1.449-10.786,2.209c-3.62,0.768-7.284,1.354-10.974,2.415
		c0.275,0.496,0.398,0.91,0.669,1.172c1.377,1.338,2.699,2.757,4.214,3.921c2.601,2,5.314,3.853,8.01,5.727
		c1.352,0.939,2.332,2.186,3.19,3.548c0.699,1.11,1.043,2.4,0.994,3.653c-0.078,2.028-0.793,3.912-2.162,5.476
		c-2.09,2.386-4.494,4.296-7.564,5.336c-3.058,1.036-6.218,1.468-9.397,1.69c-2.629,0.185-5.27,0.133-7.899-0.358
		c-2.441-0.455-4.854-0.973-7.164-1.882c-3.986-1.566-7.523-3.883-10.863-6.534c-1.427-1.133-2.907-2.198-4.445-3.355
		c-0.363,0.448-0.676,0.714-0.835,1.051c-0.729,1.544-1.002,3.185-1.016,4.889c-0.031,4.012-1.219,7.761-3.085,11.228
		c-2.187,4.063-5.206,7.514-9.025,10.159c-4.65,3.221-10.915,4.002-15.914,0.239c-1.597-1.203-3.203-2.42-4.641-3.8
		c-2.741-2.631-4.927-5.67-6.193-9.306c-0.9-2.58-1.397-5.226-1.649-7.951c-0.16-1.732-0.64-3.443-1.073-5.14
		c-0.123-0.483-0.585-0.881-0.868-1.283c-1.526,0.267-2.347,1.292-3.25,2.185c-3.777,3.73-8.258,6.299-13.259,7.988
		c-4.285,1.448-8.708,1.939-13.22,1.956c-3.744,0.014-7.319-0.752-10.757-2.103c-2.314-0.908-4.48-2.202-6.196-4.045
		c-2.399-2.577-3.366-5.613-2.211-9.047c0.788-2.346,2.311-4.183,4.479-5.458c3.602-2.118,6.776-4.83,10.065-7.379
		c0.871-0.676,1.72-1.437,2.155-2.562c-0.765-0.917-1.873-0.928-2.836-1.175c-4.481-1.151-8.981-2.229-13.471-3.349
		c-7.976-1.989-15.979-3.88-23.91-6.035c-3.649-0.991-6.909-0.801-10.039,1.379c-0.914,0.637-1.973,1.063-2.965,1.587
		c-3.119,1.646-6.151,3.439-9.029,5.479c-2.694,1.908-5.085,4.149-7.158,6.731c-3.188,3.974-5.577,8.377-7.281,13.174
		c-0.848,2.387-1.108,4.792-0.655,7.59C162.724,592.487,162.968,592.412,163.095,592.248z M352.799,215.843
		c4.373,2.35,8.799,4.603,13.129,7.028c8.115,4.544,15.78,9.786,23.21,15.371c5.249,3.945,10.367,8.052,15.339,12.349
		c4.974,4.299,9.875,8.673,14.583,13.258c3.276,3.19,6.511,6.43,9.642,9.763c4.608,4.904,9.121,9.9,13.65,14.878
		c2.171,2.386,4.612,4.458,7.263,6.271c5.747,3.933,11.528,7.817,17.313,11.697c0.86,0.578,1.794,1.058,2.731,1.505
		c0.511,0.244,0.934,0.02,1.122-0.754c-0.503-0.974-1.43-1.751-2.294-2.564c-2.814-2.648-5.342-5.528-7.36-8.84
		c-3.021-4.958-4.586-10.343-4.799-16.131c-0.107-2.892,0.326-5.725,0.796-8.574c0.467-2.836,0.794-5.7,1.621-8.456
		c1.211-4.035,3.105-7.67,6.102-10.746c2.589-2.658,5.672-4.476,9.044-5.78c4.421-1.709,8.654-3.79,12.814-6.021
		c4.337-2.327,8.235-5.253,11.286-9.179c2.574-3.312,4.099-7.004,4.125-11.277c0.026-4.279-0.735-8.418-1.875-12.516
		c-1.828-6.569-5.026-12.453-9.04-17.903c-1.571-2.135-3.495-3.981-5.828-5.317c-0.522-0.299-1.04-0.824-1.96-0.4
		c0,0.444-0.037,0.981,0.01,1.511c0.057,0.634,0.265,1.26,0.269,1.891c0.022,3.84,0.234,7.672-0.37,11.512
		c-0.688,4.374-1.809,8.605-3.613,12.627c-3.167,7.059-7.896,12.978-13.653,18.094c-0.773,0.687-1.62,1.343-2.536,1.808
		c-2.211,1.12-4.433,2.248-6.74,3.138c-5.956,2.3-12.149,3.322-18.546,3.211c-3.29-0.057-6.524-0.46-9.772-0.934
		c-5-0.73-9.875-1.984-14.63-3.6c-8.148-2.77-15.731-6.744-22.889-11.519c-5.483-3.658-10.519-7.85-15.103-12.603
		c-4.884-5.064-8.954-10.66-11.777-17.132c-2-4.585-3.18-9.393-3.525-14.355c-0.238-3.423-0.143-6.86,0.299-10.308
		c0.645-5.031,1.915-9.873,3.654-14.601c0.548-1.488,1.309-2.957,2.246-4.233c3.416-4.651,7.711-8.327,12.812-11.052
		c5.381-2.875,11.168-4.253,17.21-4.713c0.316-0.024,0.781,0.187,0.993-0.436c-0.287-0.166-0.532-0.368-0.813-0.458
		c-1.899-0.611-3.783-1.294-5.716-1.777c-5.044-1.26-10.107-2.445-15.372-2.19c-0.721,0.035-1.444,0.017-2.167,0.018
		c-3.063,0.001-6.029,0.597-8.955,1.46c-5.098,1.504-9.847,3.818-14.479,6.363c-3.449,1.894-6.602,4.246-9.483,6.928
		c-5.198,4.835-8.949,10.673-11.411,17.293c-1.765,4.744-1.993,9.53,0.657,14.137c0.354,0.614,0.504,1.342,0.79,2
		c0.498,1.143,1.26,2.023,2.485,2.453c0.678,0.238,1.322,0.567,1.984,0.847c1.709,0.723,2.922,1.938,3.63,3.654
		c0.274,0.664,0.6,1.314,0.801,2.001c0.431,1.469,1.269,2.59,2.659,3.232c2.371,1.096,3.758,3.088,4.386,5.449
		c0.694,2.61,1.882,4.879,3.344,7.11c1.591,2.428,2.188,5.148,1.217,8.014c-0.358,1.054-0.865,2.058-1.294,3.088
		c-0.3,0.723-0.888,1.368-0.566,2.485C350.46,214.5,351.611,215.205,352.799,215.843z M131.806,524.896
		c-0.627,0.618-1.258,1.235-1.874,1.866c-4.277,4.384-9.314,7.562-15.173,9.344c-2.282,0.694-4.638,1.197-6.994,1.577
		c-1.965,0.317-3.978,0.4-5.973,0.445c-1.268,0.028-2.543-0.186-3.812-0.325c-1.824-0.201-3.684-0.267-5.46-0.682
		c-7.648-1.785-14.377-5.305-19.935-10.929c-1.24-1.256-2.454-2.538-3.705-3.783c-0.243-0.241-0.601-0.366-1.13-0.675
		c0,1.177,0.409,1.952,0.722,2.741c1.296,3.27,2.688,6.503,3.897,9.804c1.545,4.217,3.276,8.345,5.445,12.273
		c2.218,4.021,4.915,7.718,8.332,10.796c4.193,3.776,8.933,6.762,14.14,8.961c3.402,1.436,6.953,2.437,10.632,2.717
		c5.293,0.403,10.545,0.079,15.696-1.398c6.622-1.9,12.756-4.747,17.939-9.347c5.254-4.662,9.75-9.954,12.732-16.399
		c0.194-0.42,0.33-0.866,0.541-1.426c-8.541-5.322-17.008-10.6-25.459-15.866C131.945,524.817,131.861,524.841,131.806,524.896z
		 M519.633,518.509c-1.583,1.089-3.128,2.235-4.74,3.276c-4.484,2.895-9.438,4.279-14.751,4.358
		c-1.106,0.017-2.215-0.279-3.326-0.378c-3.165-0.28-6.066-1.383-8.836-2.854c-2.702-1.436-5.083-3.328-7.372-5.35
		c-1.372-1.213-2.825-2.335-4.212-3.472c-0.343,0.14-0.599,0.182-0.773,0.325c-1.986,1.62-3.941,3.278-5.939,4.883
		c-3.184,2.558-6.303,5.208-9.612,7.592c-4.74,3.413-9.628,6.621-14.449,9.922c-0.642,0.439-1.262,0.91-1.978,1.429
		c0.693,0.896,1.239,1.676,1.862,2.39c1.687,1.934,3.414,3.829,5.108,5.755c1.693,1.924,3.325,3.902,5.056,5.791
		c2.879,3.139,5.969,6.053,9.611,8.307c2.982,1.847,6.197,2.945,9.762,2.853c1.842-0.047,3.663-0.135,5.492-0.457
		c3.321-0.584,6.55-1.41,9.635-2.793c8.198-3.674,14.569-9.488,19.689-16.769c3.569-5.076,6.119-10.692,8.535-16.368
		c0.813-1.908,1.412-3.905,2.135-5.853c0.345-0.929,0.365-1.857,0.209-3.186C520.162,518.219,519.88,518.339,519.633,518.509z
		 M530.573,307.775c0.847,1.164,1.688,2.336,2.453,3.554c0.765,1.219,1.483,2.474,2.127,3.761c0.643,1.286,1.214,2.613,1.731,3.955
		c0.545,1.415,1.018,2.859,1.471,4.307c0.429,1.37,0.856,2.747,1.162,4.147c0.307,1.402,0.297,2.888,0.726,4.242
		c0.425,1.343,0.049,2.821,0.751,4.351c1.295-1.035,2.453-1.876,3.515-2.825c3.451-3.083,6.057-6.811,8.151-10.91
		c3.502-6.849,5.454-14.182,6.094-21.787c0.448-5.328,0.393-10.701-0.754-16.021c-0.901-4.183-2.183-8.181-4.322-11.885
		c-0.748-1.296-1.446-2.662-2.915-3.626c-0.444,1.661-0.804,3.212-1.275,4.728c-1.699,5.458-4.309,10.501-7.142,15.437
		c-1.848,3.22-4.213,6.058-6.871,8.61c-2.306,2.213-4.84,4.188-7.541,6.496C528.851,305.509,529.736,306.625,530.573,307.775z
		 M577.132,469.869c1.812-3.536,2.83-7.288,2.923-11.267c0.056-2.398-0.066-4.778-0.393-7.176
		c-0.774-5.688-2.351-11.071-5.265-16.043c-2.425-4.138-5.615-7.561-9.524-10.319c-3.03-2.139-6.375-3.66-9.813-5.001
		c-0.935-0.365-1.856-0.422-2.768-0.156c-1.046,0.869-1.831,1.835-2.116,3.187c0.284,0.353,0.512,0.678,0.781,0.962
		c1.215,1.28,2.529,2.477,3.646,3.835c4.932,5.988,8.004,12.881,9.449,20.462c0.571,2.998,1.721,5.578,3.588,7.976
		c2.956,3.794,5.564,7.822,7.306,12.353c0.28,0.729,0.735,1.392,1.302,2.44C576.688,470.506,576.957,470.212,577.132,469.869z
		 M22.756,357.462c1.763-0.749,3.5-1.648,5.342-2.102c5.187-1.278,10.421-2.362,15.637-3.521c1.7-0.378,3.4-0.754,5.169-1.147
		c-0.082-0.602-0.098-1.081-0.218-1.532c-0.554-2.082-1.085-4.155-1.38-6.305c-0.569-4.154-0.614-8.282,0.027-12.425
		c0.077-0.5-0.069-1.034-0.113-1.566c-1.73,0.296-2.045,0.404-3.031,1.087c-1.973,1.368-3.963,2.713-5.904,4.125
		c-2.925,2.127-5.625,4.504-7.839,7.393c-2.92,3.811-5.844,7.62-8.767,11.43c-1.183,1.541-2.06,3.236-2.538,5.123
		c-0.072,0.282-0.01,0.598-0.01,1.167C20.484,358.539,21.6,357.953,22.756,357.462z M558.849,371.055
		c3.052-0.523,6.101-0.876,9.241-0.5c3.066,0.366,5.902,1.247,8.612,2.659c2.636,1.373,4.972,3.182,7.312,4.986
		c0.614,0.474,1.172,1.08,2.026,1.085c0.094-0.198,0.215-0.337,0.214-0.476c-0.001-0.232-0.03-0.488-0.133-0.69
		c-1.169-2.293-2.558-4.396-4.608-6.045c-2.135-1.716-4.516-3.011-6.9-4.3c-3.066-1.657-6.329-2.585-9.863-2.422
		c-1.598,0.074-3.206-0.044-4.801,0.059c-2.134,0.138-4.273,0.334-6.263,1.172C553.858,369.554,555.563,371.618,558.849,371.055z
		 M29.264,424.236c0.902,2.39,1.806,4.805,4.032,6.567c2-2.072,4.076-4.036,6.24-6.437c-3.701-1.357-7.136-2.506-10.573-3.715
		C28.664,422.034,28.644,422.596,29.264,424.236z"/>
</g>
<g id="Yellow">
	<path fill-rule="evenodd" clip-rule="evenodd" fill="#F3F783" d="M86.677,457.26c2.353,6.996,4.589,13.644,6.855,20.381
		c-1.901,1.647-3.856,3.169-6.004,4.387c-6.841,3.88-14.192,5.888-22.085,5.537c-4.346-0.192-8.572-1.113-12.625-2.748
		c-6.878-2.774-11.915-7.503-14.768-14.354c-4.363-10.482-4.083-20.782,1.753-30.697c4.123-7.007,10.258-11.341,18.139-13.195
		c1.55-0.364,3.16-0.581,4.75-0.649c5.071-0.216,9.358,1.669,12.445,5.626c5.394,6.914,7.02,14.707,4.082,23.083
		c-2.286,6.516-7.198,10.337-13.88,11.648c-5.515,1.082-11.398-2.632-12.615-8.876c-0.861-4.419,1.974-8.138,6.414-8.816
		c1.865-0.284,3.67,0.055,5.5,0.252c0.94,0.102,1.927,0.199,2.839,0.024c1.316-0.252,1.923-1.146,1.778-2.449
		c-0.222-2.003-0.96-3.583-3.044-4.481c-8.762-3.781-18.558,1.272-20.442,10.001c-2.127,9.857,3.971,19.59,13.914,21.245
		c8.555,1.424,15.782-1.573,21.603-7.901c1.289-1.4,2.252-3.106,3.328-4.698C85.278,459.594,85.872,458.561,86.677,457.26z
		 M496.189,374.596c0.374-1.14,0.672-2.305,1.009-3.458c1.021-3.496,2.603-6.719,4.79-9.63c3.42-4.552,7.714-7.88,13.295-9.381
		c2.026-0.545,4.086-0.714,6.182-0.76c3.386-0.076,5.453-1.571,6.521-4.702c2.285-6.699,2.634-13.485,0.707-20.338
		c-2.081-7.406-6.139-13.588-12.06-18.416c-8.183-6.671-17.235-7.53-26.805-3.253c-3.887,1.737-6.442,4.752-7.543,8.848
		c-2.519,9.366-0.095,17.437,6.787,24.145c2.77,2.7,6.282,3.773,10.146,3.568c5.129-0.271,8.86-4.437,8.132-9.813
		c-0.447-3.301-3.159-5.643-6.5-5.482c-0.943,0.045-1.903,0.286-2.802,0.594c-1.093,0.375-2.185,0.517-3.311,0.38
		c-1.294-0.158-2.05-0.856-2.245-2.134c-0.284-1.859,0.128-3.504,1.655-4.753c1.07-0.875,2.266-1.492,3.602-1.852
		c6.805-1.835,14.122,2.454,15.904,9.286c0.558,2.134,0.638,4.292,0.396,6.446c-0.688,6.131-4.38,12.907-13.512,14.072
		c-10.295,1.313-18.454-4.659-21.866-11.359c-0.616-1.211-1.214-2.444-1.683-3.717c-0.855-2.328-1.617-4.69-2.4-7.044
		c-1.345-4.041-5.218-7.012-9.545-7.249c3.75,6.081,7.534,12.089,11.188,18.176c3.713,6.185,7.136,12.537,10.213,19.06
		c3.036,6.437,5.88,12.964,8.976,19.821C495.775,375.176,496.084,374.919,496.189,374.596z M501.565,480.512
		c0.802,0.527,1.615,1.051,2.472,1.478c9.547,4.758,19.547,5.633,29.688,2.658c9.386-2.753,15.658-9.144,18.901-18.37
		c1.985-5.647,2.018-11.463,1.058-17.329c-1.671-10.214-9.335-21.505-24.228-24.2c-2.372-0.429-4.792-0.478-7.173,0.087
		c-3.771,0.895-6.648,3.114-8.881,6.193c-4.018,5.541-5.308,11.694-4.234,18.453c1.522,9.587,8.262,13.901,14.607,15.32
		c5.467,1.222,11.288-2.269,12.783-7.646c1.846-6.64-2.822-10.105-7.325-10c-1.358,0.031-2.714,0.207-4.071,0.305
		c-0.877,0.063-1.768,0.219-2.632,0.133c-2.378-0.237-3.5-2.553-2.267-4.626c0.277-0.467,0.691-0.892,1.13-1.217
		c1.434-1.063,3.019-1.837,4.804-2.081c4.819-0.658,9.249,0.253,13.135,3.324c2.359,1.865,3.881,4.269,4.498,7.191
		c0.464,2.202,0.555,4.417,0.229,6.688c-1.104,7.697-7.931,15.597-18.738,15.224c-5.649-0.195-10.628-2.256-14.858-6.002
		c-1.617-1.432-3.072-3.047-4.62-4.56c-0.317-0.311-0.718-0.536-1.169-0.866c-1.869,6.131-3.686,12.091-5.523,18.12
		C500.01,479.405,500.768,479.989,501.565,480.512z M117.818,320.249c-3.372,1.618-5.292,4.279-5.788,8.004
		c-0.843,6.336-3.874,11.495-8.696,15.598c-5.964,5.075-12.76,6.443-20.244,4.174c-3.017-0.915-5.463-2.738-7.139-5.415
		c-2.869-4.583-3.657-9.577-2.213-14.776c2.27-8.17,10.746-10.515,16.896-8.434c1.737,0.588,3.094,1.689,3.976,3.31
		c1.243,2.282-0.192,4.948-2.769,5.089c-0.782,0.043-1.585-0.129-2.366-0.275c-0.627-0.117-1.226-0.384-1.853-0.515
		c-3.924-0.815-6.974,1.826-7.604,4.903c-1.194,5.833,3.465,10.991,9.482,10.228c4.397-0.557,8.065-2.549,10.849-6.053
		c1.917-2.413,3.312-5.118,4.243-8.041c1.587-4.98,1.5-9.951-0.332-14.86c-1.007-2.698-2.565-5.039-5.074-6.529
		c-5.511-3.273-11.418-4.612-17.767-3.125c-6.842,1.603-12.282,5.399-16.44,10.998c-2.789,3.755-4.892,7.903-6.279,12.384
		c-2.299,7.426-1.821,14.702,1.178,21.856c0.974,2.325,2.586,3.544,5.135,3.632c1.76,0.061,3.523,0.24,5.268,0.487
		c2.313,0.329,4.521,1.028,6.6,2.131c6.955,3.691,11.417,9.428,13.855,16.828c0.426,1.292,0.751,2.618,1.171,3.913
		c0.136,0.418,0.223,0.971,1.109,0.991c1.3-3.24,2.427-6.641,3.817-9.935c1.401-3.322,2.772-6.658,4.254-9.944
		c1.483-3.286,3.038-6.542,4.651-9.767c1.614-3.225,3.295-6.418,5.026-9.582c1.732-3.164,3.533-6.291,5.359-9.402
		c1.811-3.084,3.689-6.129,5.717-9.489C120.17,319,119.011,319.676,117.818,320.249z M85.729,399.742
		c-0.583,0.424-1.172,0.844-1.719,1.313c-4.901,4.208-10.723,5.877-17.034,6.348c-5.197,0.388-12.23-3.642-14.342-9.487
		c-1.113-3.081-1.562-6.233-1.239-9.457c0.294-2.94,1.454-5.558,3.542-7.727c3.947-4.1,10.432-5.33,16.036-3.021
		c1.602,0.66,2.861,1.79,3.597,3.392c0.869,1.891,0.056,3.493-1.932,4.117c-1.238,0.388-2.383-0.016-3.555-0.207
		c-1.026-0.167-2.027-0.511-3.056-0.631c-3.536-0.413-6.597,1.711-7.296,5.182c-0.662,3.281,0.221,6.208,2.551,8.635
		c1.159,1.205,2.615,1.815,4.309,1.831c1.848,0.018,3.683-0.021,5.499-0.461c6.923-1.681,11.515-5.772,13.198-12.811
		c1.009-4.218,0.868-8.451-0.354-12.606c-1.183-4.021-3.579-7.156-7.321-9.136c-3.525-1.865-7.316-2.961-11.299-2.924
		c-8.582,0.08-15.516,3.721-20.695,10.47c-4.679,6.097-6.827,13.218-7.223,20.817c-0.382,7.344,2.007,13.889,6.492,19.668
		c1.027,1.324,2.168,2.587,3.407,3.715c1.938,1.765,4.241,2.16,6.721,1.273c1.227-0.438,2.481-0.672,3.775-0.618
		c2.241,0.093,4.49,0.133,6.719,0.361c6.677,0.684,12.277,3.464,16.538,8.749c0.5,0.619,0.987,1.272,1.882,1.46
		c0.096-0.212,0.249-0.413,0.276-0.631c1.069-8.592,2.133-17.184,3.178-25.778c0.076-0.625,0.01-1.268,0.01-2.018
		C86.022,399.657,85.845,399.657,85.729,399.742z M509.632,423.458c1.739-1.938,3.776-3.514,6.16-4.527
		c6.237-2.65,12.662-4.09,19.437-2.414c2.792,0.69,5.081-0.148,6.991-2.124c4.658-4.818,7.594-10.549,8.371-17.213
		c1.159-9.953-1.354-18.961-7.725-26.743c-7.52-9.185-18.038-11.7-28.788-7.898c-3.965,1.402-6.891,4.027-8.728,7.818
		c-2.13,4.396-2.763,8.993-1.854,13.813c1.508,7.99,8.197,15.158,18.315,14.806c3.604-0.125,6.199-2.078,7.386-5.502
		c0.679-1.957,0.696-3.949,0.184-5.923c-0.652-2.507-2.801-4.265-5.423-4.37c-1.265-0.05-2.545,0.165-3.812,0.321
		c-0.873,0.108-1.729,0.424-2.601,0.456c-0.862,0.03-1.78-0.04-2.588-0.316c-1.526-0.523-2.112-2.02-1.494-3.514
		c0.181-0.438,0.428-0.868,0.727-1.233c1.412-1.73,3.195-2.881,5.384-3.412c2.068-0.502,4.11-0.454,6.198-0.056
		c6.698,1.277,11.319,6.736,11.433,13.545c0.062,3.721-0.983,7.127-2.863,10.284c-1.898,3.189-4.736,5.143-8.307,6.104
		c-2.206,0.594-4.447,0.543-6.691,0.52c-2.857-0.028-5.547-0.765-8.095-2.021c-1.437-0.708-2.836-1.491-4.263-2.222
		c-1.341-0.687-2.695-1.348-4.348-2.171c1.494,8.563,2.934,16.825,4.387,25.085c0.037,0.213,0.23,0.397,0.403,0.682
		C508.4,424.895,509.005,424.158,509.632,423.458z M249.303,219.13c-8.701,2.753-16.668,6.958-24.154,12.127
		c-3.505,2.42-3.942,3.283-3.318,7.412c0.911,6.032,2.364,11.926,4.721,17.576c1.298,3.111,2.827,6.1,4.63,8.947
		c1.1,1.736,2.506,3.125,4.487,3.821c8.233,2.89,16.537,5.54,25.137,7.13c1.563,0.289,3.152,0.428,4.867,0.039
		c-0.225-0.604-0.392-1.124-0.608-1.622c-1.657-3.817-3.392-7.602-4.971-11.451c-2.777-6.771-4.781-13.771-5.411-21.084
		c-0.523-6.076-0.397-12.17,0.09-18.25c0.14-1.744,0.234-3.482,0.302-5.373C252.863,218.197,251.08,218.567,249.303,219.13z
		 M329.907,275.998c7.948-2.175,15.883-4.4,23.846-6.521c2.812-0.749,4.819-2.324,6.266-4.828c2.17-3.756,4.053-7.635,5.518-11.716
		c1.739-4.843,2.76-9.851,3.536-14.926c0.437-2.854-0.339-4.964-2.934-6.467c-3.462-2.005-6.757-4.302-10.242-6.263
		c-4.965-2.793-10.216-4.956-15.716-6.495c-1.558-0.436-3.09-0.54-4.692-0.246c0,0.368-0.031,0.606,0.005,0.835
		c0.621,3.965,0.902,7.956,1.007,11.966c0.211,8.067-0.655,15.988-2.998,23.733c-1.953,6.454-4.649,12.609-7.437,18.73
		c-0.395,0.866-0.775,1.74-1.225,2.75C326.679,276.743,328.303,276.437,329.907,275.998z M332.439,348.46
		c0.549-0.103,1.099-0.224,1.629-0.397c8.602-2.823,17.102-5.916,25.347-9.671c6.657-3.032,13.044-6.529,18.792-11.101
		c3.153-2.508,5.989-5.336,8.412-8.562c1.946-2.59,2.928-5.495,2.771-8.756c-0.191-3.993-1.688-7.476-4.215-10.518
		c-1.255-1.511-2.91-2.449-4.803-3.045c-4.104-1.293-11.005,0.069-14.5,4.712c-0.712,0.946-1.289,2.041-1.716,3.148
		c-1.858,4.818,0.141,8.733,2.9,11.07c1.733,1.468,3.741,2.146,6.021,1.868c1.873-0.228,3.497-1.028,4.094-2.881
		c0.605-1.88,0.498-3.795-1.196-5.349c-0.56,0.066-1.191-0.022-1.639,0.223c-1.548,0.851-3.06,0.741-4.763,0.027
		c-0.076-0.446-0.276-0.987-0.24-1.511c0.119-1.683,1.129-2.771,2.566-3.52c3.133-1.629,7.422-0.553,9.437,2.367
		c3.171,4.597,1.932,10.959-2.798,13.946c-3.812,2.408-7.824,2.652-11.918,0.718c-1.366-0.646-2.685-1.393-4.213-2.192
		c-0.463,0.535-0.922,1.081-1.396,1.614c-3.789,4.254-7.607,8.483-11.364,12.765c-3.407,3.883-7.234,7.281-11.47,10.224
		c-1.711,1.19-3.46,2.327-5.188,3.493c-0.452,0.305-0.891,0.631-1.746,1.239C331.967,348.432,332.214,348.502,332.439,348.46z
		 M393.843,321.217c3.593-1.791,7.058-3.799,10.292-6.187c3.573-2.638,6.697-5.719,9.401-9.254
		c5.02-6.562,3.606-14.342,0.276-19.361c-2.252-3.395-5.56-5.076-9.644-4.817c-4.604,0.292-8.295,2.403-10.787,6.308
		c-2.677,4.192-1.852,9.836,1.781,13.203c1.469,1.36,3.189,2.192,5.218,2.082c2.037-0.11,3.812-0.913,4.686-2.853
		c0.846-1.876,0.253-3.606-1.094-5.091c-0.159-0.175-0.364-0.307-0.629-0.527c-0.636,0.225-1.3,0.478-1.977,0.692
		c-0.61,0.194-1.225,0.41-1.854,0.502c-1.314,0.193-2.424-0.689-2.439-2.021c-0.008-0.601,0.173-1.304,0.51-1.794
		c2.697-3.914,8.355-4.188,11.044-0.357c0.725,1.031,1.326,2.23,1.659,3.441c1.788,6.506-2.487,12.234-8.075,12.956
		c-1.442,0.187-2.86,0.312-4.307,0.064c-0.692-0.118-1.41-0.083-2.246-0.123c-0.995,4.307-1.971,8.508-2.925,12.714
		c-0.045,0.198,0.1,0.44,0.177,0.743C393.256,321.421,393.566,321.354,393.843,321.217z M211.978,310.264
		c-0.192,0.348-0.349,0.722-0.479,1.099c-0.765,2.209,0.033,4.237,2.155,5.202c0.783,0.356,1.68,0.584,2.539,0.634
		c4.294,0.248,8.59-3.606,9.015-8.03c0.317-3.304-0.702-6.171-2.915-8.617c-2.062-2.279-4.663-3.636-7.635-4.277
		c-5.169-1.115-9.53,0.564-12.255,4.595c-3.626,5.365-3.993,11.046-0.99,16.833c1.457,2.809,3.489,5.208,5.938,7.194
		c2.239,1.816,4.544,3.568,6.942,5.165c7.435,4.949,15.435,8.836,23.74,12.061c5.594,2.172,11.308,4.038,16.966,6.045
		c0.805,0.286,1.599,0.612,2.719,0.176c-0.55-0.382-0.931-0.651-1.318-0.914c-2.055-1.398-4.106-2.803-6.168-4.19
		c-4.958-3.333-9.372-7.284-13.275-11.794c-2.52-2.911-4.956-5.895-7.417-8.856c-0.973-1.171-1.955-2.325-3.236-3.245
		c-1.069,0.429-2.096,0.876-3.147,1.253c-1.655,0.593-3.292,1.298-4.999,1.676c-7.316,1.621-13.853-5.184-12.293-12.125
		c1.361-6.057,5.852-7.388,9.742-6.409c1.965,0.494,3.472,1.652,4.013,3.741c0.286,1.101-0.149,1.853-1.221,2.261
		c-0.865,0.33-1.726,0.276-2.593,0.015c-0.914-0.276-1.832-0.542-2.939-0.87C212.487,309.466,212.206,309.851,211.978,310.264z
		 M190.779,308.194c-1.444,0.315-2.858,0.106-4.298-0.054c-6.782-0.753-11.701-9.557-6.362-16.513
		c3.229-4.207,8.483-2.557,10.668,0.059c0.477,0.57,0.753,1.22,0.748,1.98c-0.009,1.398-1.172,2.433-2.538,2.194
		c-0.548-0.096-1.069-0.335-1.611-0.475c-0.614-0.159-1.233-0.363-1.858-0.398c-1.125-0.063-1.833,0.466-2.201,1.487
		c-0.651,1.805-0.112,4.01,1.357,5.281c1.562,1.351,3.399,1.861,5.379,1.255c3.407-1.043,5.803-3.391,6.493-6.804
		c0.914-4.518-0.256-8.607-4.095-11.585c-1.666-1.292-3.553-2.147-5.596-2.673c-3.87-0.997-7.383-0.272-10.234,2.524
		c-3.64,3.571-5.163,8.011-4.671,13.107c0.326,3.373,1.709,6.308,3.755,8.964c5.17,6.712,12.103,11.122,19.503,14.913
		c0.223,0.114,0.575-0.023,0.979-0.051c-1.171-4.538-2.087-8.974-3.373-13.421C192.034,308.061,191.392,308.061,190.779,308.194z"/>
</g>
<g id="Black">
	<path fill-rule="evenodd" clip-rule="evenodd" fill="#030202" d="M558.158,409.29c1.562,0.683,2.865,1.274,4.185,1.827
		c10.503,4.397,18.265,11.706,23.283,21.923c2.392,4.868,3.66,10.072,4.523,15.392c0.555,3.415,0.69,6.854,0.604,10.313
		c-0.125,5.04-1.266,9.837-3.242,14.453c-1.549,3.618-3.427,7.064-5.499,10.405c-1.821,2.936-4.618,4.406-7.914,4.889
		c-2.042,0.298-3.767-0.576-5.026-2.243c-0.784-1.039-1.244-2.227-1.564-3.484c-0.752-2.949-1.549-5.887-2.299-8.837
		c-0.419-1.651-1.219-3.113-2.132-4.7c-0.899,0.723-1.364,1.609-1.789,2.524c-0.473,1.017-0.908,2.052-1.411,3.054
		c-5.262,10.476-13.646,16.985-25.045,19.619c-12.625,2.916-24.673,1.207-36.196-4.601c-1.143-0.576-2.308-1.106-3.47-1.641
		c-0.131-0.061-0.313-0.009-0.605-0.009c-3.64,5.295-7.313,10.638-11.065,16.098c0.497,0.769,0.924,1.528,1.445,2.217
		c2.951,3.896,6.81,6.521,11.452,7.979c3.496,1.098,6.95,0.911,10.341-0.522c2.857-1.209,5.375-2.911,7.349-5.293
		c1.686-2.034,3.191-4.218,4.768-6.341c0.573-0.771,1.074-1.603,1.692-2.335c3.117-3.688,8.29-2.003,9.81,1.362
		c0.867,1.921,1.176,3.985,1.555,6.033c1.017,5.495,0.214,10.858-1.15,16.183c-1.722,6.723-4.309,13.073-8.06,18.938
		c-1.252,1.957-2.33,4.025-3.591,5.977c-8.556,13.238-20.43,21.712-35.964,24.831c-10.759,2.16-20.325-0.5-28.805-7.353
		c-3.452-2.79-6.38-6.088-9.222-9.472c-1.651-1.967-3.273-3.959-4.976-5.88c-1.87-2.111-3.97-3.948-6.502-5.277
		c-2.14-1.124-4.249-1.26-6.46-0.283c-5.201,2.297-10.462,4.439-15.876,6.195c-2.549,0.826-4.467,2.5-5.884,4.727
		c-4.067,6.388-4.589,13.023-1.275,19.892c1.591,3.297,3.863,6.067,6.536,8.551c1.938,1.8,3.843,3.645,5.652,5.573
		c2.377,2.533,4.206,5.451,5.615,8.631c2.115,4.775,3.896,9.653,4.713,14.843c1.074,6.824,0.27,13.415-2.39,19.785
		c-0.062,0.147-0.135,0.291-0.213,0.431c-5.808,10.365-13.166,19.347-23.206,25.917c-7.347,4.808-15.404,7.774-24.047,9.233
		c-5.153,0.869-10.323,1.501-15.557,1.279c-3.69-0.156-7.352-0.587-10.882-1.781c-2.136-0.723-4.155-1.677-6.031-2.93
		c-1.639-1.093-2.9-2.522-3.766-4.29c-1.272-2.599-0.793-5.055,1.425-6.911c0.664-0.557,1.453-1.01,2.254-1.346
		c1.622-0.678,3.291-1.244,4.941-1.855c1.2-0.444,2.427-0.828,3.597-1.341c5.231-2.292,8.714-6.188,10.331-11.66
		c1.468-4.969,1.631-9.985-0.249-14.885c-2.173-5.665-5.954-9.846-11.837-11.804c-1.426-0.475-2.965-0.729-4.469-0.827
		c-10.587-0.694-19.677,2.835-27.465,9.921c-0.712,0.647-1.385,1.338-2.073,2.011c-1.815,1.772-3.091,3.876-3.869,6.286
		c-1.691,5.242-2.673,10.57-1.866,16.096c0.208,1.422,0.464,2.852,0.863,4.229c2.44,8.406-0.108,15.293-6.358,21.048
		c-0.938,0.864-2.004,1.609-3.083,2.294c-8.169,5.177-17.041,8.502-26.629,9.787c-5.26,0.705-10.561,0.973-15.833,0.117
		c-2.284-0.371-4.545-0.953-6.772-1.597c-2.381-0.688-4.717-1.538-7.059-2.358c-2.732-0.958-3.954-2.743-3.89-5.66
		c0.014-0.635,0.162-1.268,0.258-1.899c0.258-1.695,1.321-2.701,2.868-3.239c0.754-0.262,1.543-0.429,2.321-0.619
		c5.743-1.402,10.204-4.622,13.215-9.681c4.105-6.896,5.909-14.395,4.776-22.377c-1.09-7.685-4.61-14.132-10.928-18.839
		c-3.96-2.95-8.44-4.531-13.403-4.692c-4.771-0.155-8.997,1.291-12.711,4.259c-2.602,2.08-4.682,4.605-6.296,7.516
		c-2.091,3.771-2.036,7.524,0.265,11.163c0.896,1.415,2.013,2.692,3.054,4.015c0.545,0.691,1.204,1.3,1.704,2.021
		c1.153,1.664,1.523,3.454,0.944,5.476c-0.627,2.189-2.03,3.452-4.2,3.767c-7.732,1.12-14.906-0.344-21.073-5.271
		c-6.992-5.584-11.163-12.877-12.469-21.791c-0.707-4.821-0.459-9.607,0.304-14.374c0.404-2.525,1.01-5.024,1.645-7.505
		c0.92-3.594,2.417-6.956,4.369-10.113c0.545-0.882,1.161-1.738,1.012-3.005c-1.58-0.853-3.372-1.286-5.189-1.404
		c-7.279-0.475-13.366,1.812-17.938,7.751c-4.041,5.25-6.297,11.104-6.636,17.721c-0.057,1.108-0.197,2.257-0.56,3.297
		c-1.426,4.088-6.032,5.13-9.085,2.08c-1.429-1.427-2.598-3.075-3.388-4.935c-3.191-7.505-4.745-15.3-3.876-23.47
		c0.409-3.847,1.455-7.554,3.067-11.072c0.966-2.109,2.043-4.173,3.158-6.209c2.661-4.856,6.319-8.873,10.629-12.306
		c3.761-2.995,7.401-6.151,11.656-8.791c-0.378-0.394-0.635-0.772-0.988-1.009c-3.234-2.159-6.784-3.524-10.648-4.277
		c-1.469,1.811-2.741,3.65-3.747,5.644c-7.583,15.02-24.698,25.938-39.673,28.583c-12,2.119-23.437,0.256-34.248-5.453
		c-11.917-6.292-20.236-15.805-25.462-28.13c-0.844-1.99-1.668-3.993-2.375-6.035c-1.918-5.539-4.352-10.852-6.949-16.094
		c-1.77-3.572-4.361-6.52-7.197-9.269c-0.979-0.949-2.029-1.826-2.993-2.79c-1.26-1.26-2.31-2.667-2.703-4.463
		c-0.579-2.648,0.439-4.807,2.873-5.955c1.553-0.732,3.235-1.001,4.923-0.857c1.427,0.122,2.896,0.318,4.237,0.792
		c3.708,1.31,7.263,2.951,10.425,5.366c5.295,4.046,10.487,8.198,15.28,12.849c5.475,5.313,12.133,7.931,19.747,8.157
		c3.223,0.096,6.409-0.158,9.554-0.894c4.331-1.013,8.017-3.199,11.207-6.238c2.394-2.281,2.375-3.73-0.107-6.023
		c-8.063-7.448-14.99-15.838-20.931-25.056c-0.347-0.537-0.734-1.052-1.134-1.551c-0.196-0.244-0.464-0.43-0.75-0.686
		c-1.062,0.172-1.915,0.746-2.744,1.362c-6.523,4.846-13.895,7.583-21.898,8.614c-7.142,0.921-14.274,0.822-21.221-1.3
		c-11.433-3.494-19.503-10.783-23.978-21.901c-2.237-5.56-3.375-11.365-3.161-17.385c0.115-3.218,0.653-6.378,1.583-9.463
		c0.776-2.572,0.367-4.883-1.321-7.003c-4.494-5.644-6.997-12.186-8.534-19.151c-0.572-2.591-1.009-5.204-0.869-7.867
		c0.055-1.032,0.196-2.088,0.495-3.073c0.707-2.33,2.579-3.677,5.011-3.787c1.47-0.066,2.864,0.257,4.23,0.759
		c1.101,0.404,2.205,0.801,3.605,1.31c-1.974-7.839-2.433-15.42-0.657-23.064c1.77-7.616,5.398-14.326,10.108-20.715
		c-1.074-0.374-1.938-0.186-2.746-0.057c-3.113,0.496-6.052,1.488-8.734,3.2c-4.506,2.876-8.436,6.376-11.733,10.592
		c-0.888,1.136-1.827,2.237-2.817,3.285c-0.6,0.635-1.304,1.192-2.028,1.688c-4.013,2.75-9.001-0.866-8.9-4.728
		c0.077-2.917,0.57-5.754,1.392-8.518c0.912-3.065,1.991-6.087,3.122-9.081c1.133-2.996,2.374-5.954,3.659-8.888
		c0.64-1.46,1.332-2.944,2.269-4.219c3.419-4.653,6.817-9.333,10.473-13.797c5.202-6.352,11.509-11.383,19.107-14.64
		c2.053-0.88,4.218-1.497,6.336-2.222c0.53-0.181,1.082-0.298,1.616-0.467c2.148-0.677,3.904-1.901,5.011-3.884
		c2.468-4.426,5.888-7.98,9.868-11.052c0.95-0.733,1.81-1.585,2.714-2.386c0.33-1.342-0.157-2.567-0.537-3.765
		c-1.092-3.445-1.958-6.938-2.522-10.505c-0.981-6.2-1.406-12.431-1.009-18.703c0.163-2.56,0.443-5.113,0.62-7.673
		c0.376-5.451,2.086-10.516,4.514-15.349c2.199-4.378,4.792-8.533,7.765-12.429c5.11-6.697,11.712-11.244,19.726-13.922
		c5.308-1.773,10.486-3.942,15.689-6.018c2.268-0.905,4.115-2.468,5.721-4.301c1.811-2.066,2.203-4.377,1.191-6.936
		c-0.265-0.669-0.481-1.357-0.702-2.043c-0.967-3.005-0.022-6.992,5.037-7.59c7.994-0.946,16.991,3.095,20.049,12.354
		c1.764,5.338,2.102,10.861,1.256,16.408c-0.47,3.084-1.211,6.127-1.867,9.181c-0.574,2.674-0.968,5.365-0.894,8.106
		c0.129,4.718,2.709,8.026,8.193,8.725c4.73,0.603,9.274-0.206,13.478-2.554c7.753-4.332,14.269-10.042,19.373-17.347
		c2.707-3.873,4.091-8.103,3.996-12.851c-0.249-12.337-5.027-22.536-14.384-30.556c-1.387-1.189-3.033-2.082-4.579-3.08
		c-1.278-0.826-2.621-1.556-3.873-2.419c-2.014-1.389-2.886-3.348-2.746-5.798c0.135-2.373,1.306-3.761,3.349-4.441
		c6.981-2.325,14.023-2.599,21.072-0.57c15.968,4.596,26.683,14.733,31.854,30.604c0.248,0.761,0.463,1.537,0.773,2.272
		c0.145,0.345,0.481,0.608,0.75,0.931c1.795-0.292,3.18-1.246,4.376-2.414c7.542-7.361,12.75-15.999,14.46-26.554
		c0.646-3.991,0.784-7.993,0.342-11.989c-0.616-5.556-2.972-10.282-7.284-13.931c-5.023-4.25-10.085-8.454-15.102-12.71
		c-1.466-1.244-2.909-2.531-4.237-3.919c-2.23-2.33-3.479-5.162-3.864-8.368c-0.156-1.297-0.048-2.568,0.487-3.77
		c1.175-2.643,4.012-3.962,7.035-3.202c1,0.251,1.975,0.668,2.903,1.126c6.916,3.415,14.258,5.25,21.903,5.963
		c5.352,0.499,10.705,0.97,16.059,1.433c7.386,0.64,14.531,2.266,21.526,4.756c4.761,1.695,9.05,4.052,12.816,7.39
		c4.828,4.279,9.155,8.992,12.558,14.506c2.199,3.565,3.937,7.338,5.134,11.356c0.183,0.614,0.338,1.243,0.591,1.828
		c0.354,0.814,0.798,1.606,1.645,2.005c2.233,1.053,4.509,2,7.001,2.603c0.409-0.971,0.722-1.851,0.853-2.808
		c1.493-10.897,6.729-19.758,14.796-27.057c8.635-7.813,18.497-13.453,29.707-16.691c6.094-1.761,12.291-2.156,18.582-1.486
		c5.911,0.63,11.732,1.679,17.41,3.48c3.763,1.193,7.316,2.824,10.67,4.897c3.551,2.194,6.949,4.599,10.281,7.117
		c3.72,2.813,6.211,6.457,7.703,10.799c0.779,2.268,1.35,4.61,1.938,6.938c0.193,0.766,0.208,1.593,0.196,2.391
		c-0.06,3.893-3.673,6.396-7.378,5.165c-1.595-0.53-2.734-1.619-3.788-2.854c-1.041-1.219-2.044-2.482-3.182-3.606
		c-5.955-5.879-13.156-8.446-21.456-7.634c-5.271,0.516-9.783,2.912-13.72,6.398c-4.097,3.63-6.623,8.158-7.809,13.502
		c-2.582,11.644-0.371,22.267,6.593,31.928c3.934,5.456,8.738,10.036,14.137,14.004c8.45,6.211,17.527,11.221,27.604,14.31
		c5.157,1.581,10.421,2.621,15.793,2.994c6.517,0.453,12.783-0.675,18.708-3.477c1.152-0.545,2.291-1.182,3.304-1.951
		c7.454-5.658,12.256-13.017,14.019-22.26c0.784-4.113,1.173-8.249,0.521-12.438c-0.36-2.313-0.985-4.53-1.857-6.695
		c-0.478-1.188-0.9-2.399-1.283-3.621c-0.189-0.604-0.28-1.25-0.331-1.884c-0.365-4.567,3.199-7.175,7.146-6.421
		c3.661,0.699,7.085,2.004,10.306,3.843c9.533,5.443,16.361,13.301,20.629,23.379c3.057,7.218,4.857,14.757,5.294,22.591
		c0.531,9.503-2.989,17.372-9.802,23.884c-4.215,4.029-9.048,7.168-14.235,9.751c-3.22,1.604-6.515,3.085-9.866,4.388
		c-5.439,2.115-8.896,5.862-10.123,11.582c-0.572,2.662-1.292,5.328-1.501,8.026c-0.692,8.932,2.228,16.381,9.528,21.889
		c1.806,1.361,3.626,1.508,5.58,0.36c2.774-1.628,5.698-2.936,8.797-3.8c7.193-2.007,14.271-1.572,21.218,1.142
		c0.82,0.32,1.618,0.698,2.447,0.992c2.238,0.794,4.417,0.66,6.481-0.56c0.757-0.447,1.495-0.937,2.199-1.463
		c7.937-5.943,13.039-13.811,15.71-23.296c1.466-5.206,2.303-10.489,1.661-15.928c-0.169-1.435-0.094-2.861,0.248-4.298
		c0.808-3.397,5.967-5.346,8.804-2.929c1.954,1.665,3.907,3.376,5.316,5.544c5.042,7.757,9.352,15.885,11.942,24.819
		c2.484,8.563,3.487,17.29,2.389,26.174c-1.442,11.671-5.256,22.438-12.605,31.771c-3.649,4.634-8.011,8.543-12.772,11.992
		c-1.081,0.782-2.411,1.232-3.656,1.768c-0.876,0.377-1.801,0.638-2.825,0.993c-0.431,1.004-0.866,2.018-1.37,3.191
		c1.885,1.049,3.686,2.071,5.506,3.057c1.042,0.564,2.114,0.504,3.265,0.223c2.799-0.685,5.603-1.415,8.447-1.834
		c7.522-1.111,15.027-1.228,22.387,1.121c8.578,2.739,14.994,8.184,19.428,15.931c2.974,5.193,3.712,10.847,2.816,16.75
		c-0.41,2.71-1.128,5.324-2.078,7.884c-0.514,1.38-1.243,2.598-2.498,3.443c-3.557,2.397-8.496,0.813-9.949-3.198
		c-0.055-0.15-0.077-0.312-0.122-0.466c-1.911-6.601-6.324-11.03-12.318-14.021c-3.63-1.812-7.368-1.917-11.21-0.336
		c-0.276,1.391-0.07,2.746,0.124,4.066c0.911,6.188,0.704,12.309-0.847,18.381C558.783,406.03,558.528,407.524,558.158,409.29z
		 M393.626,348.273c0.775,0.303,1.432,0.593,2.109,0.818c3.036,1.012,6.062,2.064,9.123,2.995c7.202,2.19,14.445,4.229,21.817,5.782
		c0.934,0.197,1.853,0.444,2.875,0.166c-0.074-2.146-0.521-4.161-0.957-6.183c-0.962-4.464-1.895-8.934-2.81-13.408
		c-0.126-0.618-0.188-1.282-0.109-1.903c0.234-1.843,1.208-2.636,3.08-2.654c1.313-0.013,2.513,0.432,3.724,0.865
		c11.303,4.047,22.605,8.095,33.919,12.115c1.264,0.449,2.587,0.729,4.057,1.135c0.091-0.558,0.276-0.953,0.178-1.253
		c-0.172-0.523-0.52-0.988-0.795-1.477c-4.963-8.809-10.384-17.328-16.209-25.591c-16.224-23.016-35.277-43.442-56.575-61.814
		c-0.478-0.412-0.998-0.774-1.557-1.205c-1.27,0.621-2.495,1.194-3.696,1.813c-3.346,1.724-6.644,3.545-10.027,5.188
		c-20.618,10.012-42.142,17.008-65.026,19.479c-7.427,0.802-14.865,1.155-22.332,1.037c-9.241-0.146-18.407-1.002-27.521-2.542
		c-9.023-1.524-17.875-3.709-26.552-6.603c-14.134-4.713-27.411-11.191-39.864-19.368c-1.268-0.832-2.599-1.567-3.961-2.385
		c-0.994,0.704-1.942,1.302-2.81,2.002c-2.496,2.016-5.007,4.019-7.427,6.124c-14.566,12.672-27.884,26.559-40.041,41.55
		c-15.076,18.589-27.68,38.711-37.382,60.625c-7.94,17.936-13.537,36.485-14.908,56.158c-0.785,11.256-0.4,22.436,2.061,33.5
		c2.371,10.664,6.462,20.612,12.168,29.911c0.62,1.011,1.305,1.971,2.404,2.816c1.912-2.096,3.658-4.183,5.591-6.08
		c1.892-1.856,2.774-4.055,2.927-6.628c0.028-0.48,0.056-0.962,0.105-1.44c0.22-2.154,0.323-4.329,0.699-6.456
		c0.808-4.574,1.604-9.159,2.678-13.675c3.857-16.213,10.323-31.311,19.661-45.147c1.888-2.797,3.913-5.486,6.228-7.947
		c3.108-3.304,6.646-6.028,10.772-7.955c4.961-2.316,10.126-2.829,15.488-1.817c5.001,0.943,9.358,3.242,13.387,6.237
		c4.715,3.505,8.971,7.524,12.979,11.811c6.821,7.295,12.647,15.338,17.951,23.778c0.89,1.416,1.876,2.771,2.859,4.216
		c0.828-0.153,1.531-0.256,2.219-0.416c10.844-2.532,21.673-5.129,32.719-6.684c5.722-0.805,11.454-1.5,17.228-1.722
		c6.412-0.245,12.826-0.366,19.248-0.197c8.669,0.229,17.298,0.795,25.89,2.022c9.131,1.305,18.17,3.059,27.137,5.192
		c6.466,1.538,12.9,3.204,19.354,4.794c0.596,0.146,1.225,0.157,1.806,0.228c1.065-1.619,2.046-3.084,3.001-4.565
		c2.39-3.707,4.691-7.471,7.163-11.121c5.642-8.332,11.977-16.085,19.556-22.758c3.196-2.813,6.555-5.424,10.252-7.55
		c9.729-5.595,21.613-5.133,30.735,2.568c3.333,2.815,6.313,5.928,8.807,9.503c0.917,1.315,1.815,2.645,2.693,3.986
		c9.134,13.955,15.634,29.021,19.191,45.34c1.42,6.514,2.415,13.082,2.847,19.734c0.126,1.936,0.815,3.559,2.33,4.829
		c2.643,2.216,5.248,4.476,7.888,6.695c0.532,0.448,1.146,0.8,1.81,1.256c1.389-1.788,2.394-3.594,3.332-5.436
		c7.093-13.908,10.357-28.735,10.436-44.284c0.046-9.091-1.085-18.083-2.874-26.987c-3.349-16.666-9.079-32.523-16.323-47.866
		c-1.376-2.915-3.483-4.897-6.541-5.978c-11.396-4.026-22.769-8.118-34.162-12.149c-1.252-0.443-2.527-0.915-3.947-1
		c-0.402,1.532-0.112,2.939,0.188,4.342c0.971,4.543,1.959,9.083,2.924,13.627c0.183,0.862,0.345,1.735,0.419,2.611
		c0.218,2.54-1.229,4.026-3.716,3.797c-0.791-0.072-1.574-0.303-2.342-0.525c-10.229-2.957-20.448-5.946-30.684-8.878
		c-3.14-0.899-6.267-1.884-9.565-2.405c-0.428,0.63-0.796,1.247-1.234,1.809c-1.479,1.896-2.87,3.875-4.499,5.634
		c-3.789,4.093-8.396,6.933-13.839,8.27c-4.005,0.983-8.063,1.173-12.18,0.647c-5.909-0.754-11.089-3.026-15.533-6.982
		c-2.72-2.42-4.954-5.241-6.856-8.334c-0.415-0.675-0.851-1.337-1.291-2.029c-0.387,0.056-0.7,0.089-1.009,0.149
		c-2.204,0.425-4.404,0.837-6.667,0.862c-3.092,0.034-4.7-2.039-5.145-4.134c-0.524-2.468,0.229-4.44,2.161-5.96
		c0.684-0.538,1.51-0.899,2.287-1.31c1.558-0.822,3.148-1.586,4.684-2.447c1.013-0.567,1.94-1.274,2.394-2.627
		c-1.972-0.676-3.764-1.37-5.602-1.908c-7.222-2.115-14.461-4.172-21.688-6.275c-0.996-0.29-1.993-0.633-2.916-1.098
		c-1.303-0.656-1.718-1.934-1.297-3.511c0.356-1.336,1.405-2.09,2.917-1.928c1.029,0.11,2.054,0.352,3.052,0.635
		c6.625,1.876,13.243,3.772,19.86,5.676c3.231,0.93,6.455,1.886,9.681,2.836c2.363,0.696,4.379,0.327,6.061-1.655
		c4.152-4.896,8.374-9.732,12.557-14.602c1.27-1.479,1.797-3.134,1.378-5.125c-0.328-1.557-0.629-3.136-0.393-4.771
		c1.001-6.935,4.746-11.782,11.123-14.57c4.519-1.976,9.19-1.92,13.904-0.742c1.065,0.267,2.1,0.726,3.298,0.693
		c0.415-1.184,0.848-2.299,1.199-3.44c1.948-6.307,6.409-9.984,12.51-11.895c3.046-0.954,6.145-1.024,9.249-0.172
		c4.515,1.24,7.884,3.997,9.991,8.087c4.313,8.367,4.173,16.63-1.132,24.593c-1.888,2.833-4.309,5.179-7.012,7.222
		c-5.634,4.259-11.507,8.16-17.625,11.69c-0.537,0.31-1.064,0.638-1.568,0.94c0.533,3.209,1.206,6.27,1.509,9.366
		C393.562,341.643,393.511,344.854,393.626,348.273z M374.614,550.75c1.796,0.165,3.342-0.285,4.875-0.713
		c4.781-1.332,9.574-2.629,14.317-4.087c15.965-4.908,31.392-11.119,45.948-19.365c7.892-4.47,15.53-9.335,22.575-15.079
		c3.491-2.848,6.728-5.959,9.603-9.434c1.28-1.548,2.475-3.152,3.213-5.05c1.032-2.649,0.658-5.019-1.339-7.099
		c-1.294-1.348-2.796-2.418-4.449-3.248c-3.577-1.795-7.11-3.707-10.796-5.25c-7.383-3.089-14.832-6.021-22.295-8.913
		c-23.295-9.024-46.809-17.426-70.753-24.591c-16.685-4.994-33.591-8.921-50.915-10.96c-7.178-0.846-14.371-1.403-21.587-1.632
		c-9.396-0.298-18.762,0.225-28.111,1.192c-6.227,0.645-12.411,1.551-18.559,2.694c-11.114,2.068-22.021,4.975-32.829,8.271
		c-17.167,5.236-33.938,11.563-50.54,18.356c-10.234,4.188-20.291,8.752-29.991,14.077c-3.739,2.052-7.253,4.432-10.441,7.269
		c-4.031,3.588-4.502,7.013-1.417,11.432c1.325,1.897,2.829,3.706,4.458,5.351c4.93,4.977,10.491,9.207,16.27,13.133
		c20.423,13.875,42.471,24.371,66.084,31.577c1.066,0.325,2.185,0.498,3.289,0.679c0.422,0.069,0.874-0.036,1.33-0.063
		c-0.575-3.435-0.422-6.716-0.156-9.991c0.104-1.271,0.285-2.56,0.63-3.784c1.107-3.926,4.256-5.833,8.269-5.155
		c1.521,0.257,2.917,0.817,4.3,1.471c1.519,0.718,3.042,1.442,4.617,2.018c3.281,1.2,6.357,0.717,8.998-1.589
		c1.625-1.418,3.178-2.952,4.564-4.602c2.373-2.825,4.601-5.771,6.867-8.684c3.108-3.995,6.375-7.847,10.014-11.373
		c5.813-5.634,12.295-10.27,19.814-13.371c3.655-1.508,7.436-2.495,11.399-2.716c6.145-0.343,11.94,1.077,17.495,3.569
		c6.365,2.854,11.849,7.011,16.911,11.752c4.347,4.07,8.123,8.647,11.858,13.271c3.023,3.743,6.118,7.436,9.323,11.024
		c3.23,3.617,6.823,4.288,11.309,2.369c1.177-0.504,2.305-1.121,3.485-1.613c1.251-0.521,2.506-1.094,3.816-1.402
		c3.889-0.919,7.289,0.86,8.698,4.563c1.036,2.721,1.605,5.572,1.216,8.487C375.663,545.914,375.099,548.252,374.614,550.75z
		 M116.598,308.654c0.668-0.375,1.241-0.654,1.768-1c2.272-1.496,4.561-2.969,6.787-4.53c5.111-3.583,10.406-6.916,15.187-10.952
		c2.382-2.011,4.869-3.911,6.806-6.412c1.176-1.517,2.455-2.963,3.774-4.358c3.305-3.495,6.621-6.98,10.005-10.397
		c2.593-2.618,5.329-5.094,7.948-7.688c5.53-5.474,11.351-10.613,17.43-15.47c6.507-5.2,13.202-10.144,20.048-14.882
		c5.729-3.966,11.666-7.612,17.74-11.021c2.997-1.682,6.097-3.187,9.187-4.697c2.66-1.3,5.373-2.49,8.057-3.741
		c0.581-0.271,1.166-0.548,1.7-0.898c0.855-0.561,1.36-1.387,1.326-2.419c-0.023-0.707-0.135-1.438-0.363-2.104
		c-0.527-1.544-0.606-3.123-0.663-4.732c-0.083-2.387,0.701-4.438,2.318-6.11c1.369-1.416,2.021-3.047,2.065-4.959
		c0.022-0.993,0.308-1.895,0.782-2.743c0.664-1.189,1.375-2.312,2.529-3.149c1.775-1.286,3.121-2.895,3.841-5.071
		c0.732-2.213,2.325-3.802,4.479-4.775c0.438-0.198,0.865-0.42,1.309-0.605c0.94-0.392,1.587-1.069,1.971-2
		c0.213-0.517,0.374-1.056,0.6-1.566c0.981-2.218,2.518-3.896,4.827-4.75c0.818-0.302,1.681-0.528,2.543-0.658
		c1.877-0.283,3.532-0.957,4.889-2.329c0.56-0.566,1.228-1.024,1.826-1.555c1.201-1.064,2.624-1.424,4.193-1.516
		c2.232-0.13,4.262,0.5,6.26,1.544c2.677-1.97,5.568-3.508,8.135-5.455c-0.57-2.135-1.419-3.919-2.546-5.596
		c-2.111-3.138-4.663-5.895-7.219-8.663c-4.072-4.41-9.054-7.281-14.669-9.26c-6.779-2.389-13.818-3.194-20.909-3.77
		c-2.71-0.22-5.425-0.389-8.137-0.586c-0.238-0.017-0.472-0.091-0.709-0.114c-2.623-0.253-5.245-0.508-7.869-0.747
		c-0.397-0.036-0.819-0.059-1.197,0.038c-0.398,0.102-0.757,0.354-1.286,0.617c0.803,0.768,1.387,1.434,2.076,1.967
		c2.805,2.171,5.32,4.655,7.624,7.324c2.957,3.424,5.138,7.311,6.332,11.726c0.753,2.788,1.058,5.631,1.491,8.47
		c0.557,3.65,0.143,7.219-0.343,10.749c-0.685,4.983-2.109,9.816-4.07,14.488c-2.571,6.125-6.15,11.566-10.553,16.511
		c-3.234,3.632-7.245,6.285-11.122,9.125c-1.675,1.227-3.549,1.854-5.508,2.204c-3.959,0.706-6.913-1.188-7.802-4.646
		c-0.238-0.927-0.516-1.843-0.78-2.763c-0.771-2.684-1.438-5.403-2.34-8.042c-1.576-4.609-4.11-8.642-7.572-12.106
		c-2.924-2.927-6.35-5.126-9.946-7.074c-1.393-0.754-2.95-1.213-4.452-1.753c-0.311-0.112-0.707,0.014-1.274,0.041
		c0.266,0.476,0.387,0.761,0.566,1.003c1.379,1.867,2.778,3.72,4.155,5.588c3.637,4.937,6.645,10.137,7.699,16.331
		c0.913,5.364,1.917,10.693,1.693,16.177c-0.184,4.496-1.393,8.698-3.656,12.533c-2.365,4.006-5.235,7.68-8.472,11.027
		c-2.001,2.07-4.171,3.981-6.306,5.919c-2.923,2.652-6.202,4.825-9.695,6.622c-3.993,2.053-8.189,3.541-12.686,4.185
		c-3.202,0.458-6.343,0.569-9.532-0.041c-5.595-1.071-9.883-4.097-12.939-8.785c-2.581-3.96-3.075-8.579-3.035-13.139
		c0.032-3.735,0.71-7.487,1.909-11.054c1.197-3.563,1.476-7.178,1.357-10.885c-0.068-2.136-0.743-4.081-1.57-5.992
		c-0.345-0.797-0.802-1.572-1.794-2.047c-0.422,1.05-0.877,2.067-1.243,3.115c-2.328,6.665-6.898,11.258-13.218,14.162
		c-2.319,1.065-4.75,1.892-7.149,2.775c-3.973,1.463-7.995,2.801-11.937,4.343c-4.235,1.657-8.061,4.066-10.888,7.663
		c-3.213,4.088-6.079,8.426-8.479,13.078c-2.373,4.599-3.38,9.46-3.454,14.553c-0.09,6.329-0.128,12.66,0.391,18.98
		c0.297,3.621,1.004,7.117,2.736,10.346c0.252,0.471,0.619,0.88,0.814,1.151c2.935-0.237,5.636-0.497,8.344-0.648
		c0.861-0.048,1.738,0.286,2.609,0.289c2.419,0.007,4.762,0.447,7.1,1.018c7.019,1.714,12.771,5.376,17.25,11.049
		C114.624,306.293,115.599,307.438,116.598,308.654z M162.247,592.78c0.477-0.293,0.721-0.368,0.849-0.532
		c1.76-2.281,3.487-4.589,5.258-6.862c1.841-2.364,3.977-4.395,6.706-5.729c1.151-0.563,2.275-1.185,3.441-1.717
		c3.153-1.44,6.477-2.307,9.92-2.588c4.188-0.342,8.316,0.067,12.31,1.456c2.499,0.868,4.952,1.847,7.145,3.364
		c2.829,1.958,4.201,4.92,2.831,8.841c-0.595,1.703-1.68,3.1-2.719,4.506c-2.018,2.732-3.525,5.695-4.646,8.896
		c-1.77,5.049-2.434,10.239-2.323,15.565c0.036,1.7,0.327,3.349,0.745,4.966c1.124,4.35,3.432,8.082,6.304,11.479
		c0.73,0.863,1.717,1.396,2.965,1.474c0.355-1.093,0.002-2.104-0.045-3.122c-0.118-2.556-0.507-5.167-0.142-7.662
		c0.771-5.262,3.117-9.867,6.873-13.711c2.537-2.597,5.341-4.831,8.51-6.608c4.322-2.424,8.887-3.988,13.899-4.005
		c1.204-0.004,2.407,0.024,3.611,0.018c2.019-0.011,3.962,0.409,5.896,0.946c3.979,1.104,7.628,2.872,10.975,5.284
		c7.766,5.595,13.092,12.841,15.107,22.324c0.282,1.325,0.6,2.651,0.758,3.994c0.253,2.141,0.395,4.296,0.561,6.446
		c0.024,0.311-0.09,0.63-0.124,0.946c-0.076,0.715-0.21,1.432-0.197,2.145c0.034,1.86-0.316,3.671-0.729,5.457
		c-1.818,7.858-5.253,14.905-10.644,20.962c-0.721,0.81-1.469,1.638-1.956,2.713c3.911,0.418,7.673,0.167,11.377-0.508
		c3.37-0.615,6.729-1.39,10.008-2.375c4.701-1.412,9.127-3.511,13.064-6.473c3.651-2.747,5.274-6.271,3.94-10.937
		c-0.836-2.923-1.139-5.959-1.066-9.022c0.076-3.2,0.041-6.39,0.44-9.59c0.677-5.433,2.278-10.45,5.64-14.828
		c0.438-0.572,0.964-1.078,1.405-1.648c2.874-3.718,6.376-6.779,10.237-9.389c6.505-4.396,13.813-6.621,21.583-7.267
		c3.83-0.317,7.708-0.27,11.498,0.479c7.127,1.408,12.96,4.924,17.112,11.002c2.609,3.819,4.165,8.097,5.313,12.529
		c0.56,2.163,0.91,4.373,0.935,6.627c0.029,2.738-0.346,5.431-0.977,8.072c-1.428,5.969-4.213,11.217-8.702,15.468
		c-1.157,1.096-2.46,2.043-3.727,3.018c-0.623,0.479-1.385,0.814-1.42,1.75c1.635,0.7,2.331,0.807,4.234,0.62
		c2.86-0.28,5.715-0.627,8.581-0.834c1.766-0.127,3.474-0.478,5.188-0.871c3.206-0.734,6.295-1.836,9.309-3.116
		c5.12-2.177,9.812-5.072,13.972-8.787c5.138-4.588,9.009-10.192,12.575-16.005c1.424-2.321,2.245-4.953,2.427-7.711
		c0.243-3.696,0.01-7.354-0.995-10.946c-1.713-6.121-4.415-11.664-9.131-16.081c-1.815-1.701-3.562-3.474-5.357-5.196
		c-1.989-1.907-3.577-4.115-4.794-6.57c-1.064-2.149-2.118-4.318-2.958-6.561c-1.153-3.078-1.826-6.274-1.815-9.601
		c0.007-2.019,0.343-3.976,0.779-5.925c0.21-0.938,0.375-1.854,0.036-2.959c-3.751,0.229-7.259,1.333-10.833,2.029
		c-3.68,0.717-7.332,1.57-11.001,2.339c-3.592,0.751-7.195,1.449-10.786,2.209c-3.62,0.768-7.284,1.354-10.974,2.415
		c0.275,0.496,0.398,0.91,0.669,1.172c1.377,1.338,2.699,2.757,4.214,3.921c2.601,2,5.314,3.853,8.01,5.727
		c1.352,0.939,2.332,2.186,3.19,3.548c0.699,1.11,1.043,2.4,0.994,3.653c-0.078,2.028-0.793,3.912-2.162,5.476
		c-2.09,2.386-4.494,4.296-7.564,5.336c-3.058,1.036-6.218,1.468-9.397,1.69c-2.629,0.185-5.27,0.133-7.899-0.358
		c-2.441-0.455-4.854-0.973-7.164-1.882c-3.986-1.566-7.523-3.883-10.863-6.534c-1.427-1.133-2.907-2.198-4.445-3.355
		c-0.363,0.448-0.676,0.714-0.835,1.051c-0.729,1.544-1.002,3.185-1.016,4.889c-0.031,4.012-1.219,7.761-3.085,11.228
		c-2.187,4.063-5.206,7.514-9.025,10.159c-4.65,3.221-10.915,4.002-15.914,0.239c-1.597-1.203-3.203-2.42-4.641-3.8
		c-2.741-2.631-4.927-5.67-6.193-9.306c-0.9-2.58-1.397-5.226-1.649-7.951c-0.16-1.732-0.64-3.443-1.073-5.14
		c-0.123-0.483-0.585-0.881-0.868-1.283c-1.526,0.267-2.347,1.292-3.25,2.185c-3.777,3.73-8.258,6.299-13.259,7.988
		c-4.285,1.448-8.708,1.939-13.22,1.956c-3.744,0.014-7.319-0.752-10.757-2.103c-2.314-0.908-4.48-2.202-6.196-4.045
		c-2.399-2.577-3.366-5.613-2.211-9.047c0.788-2.346,2.311-4.183,4.479-5.458c3.602-2.118,6.776-4.83,10.065-7.379
		c0.871-0.676,1.72-1.437,2.155-2.562c-0.765-0.917-1.873-0.928-2.836-1.175c-4.481-1.151-8.981-2.229-13.471-3.349
		c-7.976-1.989-15.979-3.88-23.91-6.035c-3.649-0.991-6.909-0.801-10.039,1.379c-0.914,0.637-1.973,1.063-2.965,1.587
		c-3.119,1.646-6.151,3.439-9.029,5.479c-2.694,1.908-5.085,4.149-7.158,6.731c-3.188,3.974-5.577,8.377-7.281,13.174
		C162.054,587.577,161.793,589.982,162.247,592.78z M349.445,213.914c1.015,0.586,2.166,1.292,3.354,1.929
		c4.373,2.35,8.799,4.603,13.129,7.028c8.115,4.544,15.78,9.786,23.21,15.371c5.249,3.945,10.367,8.052,15.339,12.349
		c4.974,4.299,9.875,8.673,14.583,13.258c3.276,3.19,6.511,6.43,9.642,9.763c4.608,4.904,9.121,9.9,13.65,14.878
		c2.171,2.386,4.612,4.458,7.263,6.271c5.747,3.933,11.528,7.817,17.313,11.697c0.86,0.578,1.794,1.058,2.731,1.505
		c0.511,0.244,0.934,0.02,1.122-0.754c-0.503-0.974-1.43-1.751-2.294-2.564c-2.814-2.648-5.342-5.528-7.36-8.84
		c-3.021-4.958-4.586-10.343-4.799-16.131c-0.107-2.892,0.326-5.725,0.796-8.574c0.467-2.836,0.794-5.7,1.621-8.456
		c1.211-4.035,3.105-7.67,6.102-10.746c2.589-2.658,5.672-4.476,9.044-5.78c4.421-1.709,8.654-3.79,12.814-6.021
		c4.337-2.327,8.235-5.253,11.286-9.179c2.574-3.312,4.099-7.004,4.125-11.277c0.026-4.279-0.735-8.418-1.875-12.516
		c-1.828-6.569-5.026-12.453-9.04-17.903c-1.571-2.135-3.495-3.981-5.828-5.317c-0.522-0.299-1.04-0.824-1.96-0.4
		c0,0.444-0.037,0.981,0.01,1.511c0.057,0.634,0.265,1.26,0.269,1.891c0.022,3.84,0.234,7.672-0.37,11.512
		c-0.688,4.374-1.809,8.605-3.613,12.627c-3.167,7.059-7.896,12.978-13.653,18.094c-0.773,0.687-1.62,1.343-2.536,1.808
		c-2.211,1.12-4.433,2.248-6.74,3.138c-5.956,2.3-12.149,3.322-18.546,3.211c-3.29-0.057-6.524-0.46-9.772-0.934
		c-5-0.73-9.875-1.984-14.63-3.6c-8.148-2.77-15.731-6.744-22.889-11.519c-5.483-3.658-10.519-7.85-15.103-12.603
		c-4.884-5.064-8.954-10.66-11.777-17.132c-2-4.585-3.18-9.393-3.525-14.355c-0.238-3.423-0.143-6.86,0.299-10.308
		c0.645-5.031,1.915-9.873,3.654-14.601c0.548-1.488,1.309-2.957,2.246-4.233c3.416-4.651,7.711-8.327,12.812-11.052
		c5.381-2.875,11.168-4.253,17.21-4.713c0.316-0.024,0.781,0.187,0.993-0.436c-0.287-0.166-0.532-0.368-0.813-0.458
		c-1.899-0.611-3.783-1.294-5.716-1.777c-5.044-1.26-10.107-2.445-15.372-2.19c-0.721,0.035-1.444,0.017-2.167,0.018
		c-3.063,0.001-6.029,0.597-8.955,1.46c-5.098,1.504-9.847,3.818-14.479,6.363c-3.449,1.894-6.602,4.246-9.483,6.928
		c-5.198,4.835-8.949,10.673-11.411,17.293c-1.765,4.744-1.993,9.53,0.657,14.137c0.354,0.614,0.504,1.342,0.79,2
		c0.498,1.143,1.26,2.023,2.485,2.453c0.678,0.238,1.322,0.567,1.984,0.847c1.709,0.723,2.922,1.938,3.63,3.654
		c0.274,0.664,0.6,1.314,0.801,2.001c0.431,1.469,1.269,2.59,2.659,3.232c2.371,1.096,3.758,3.088,4.386,5.449
		c0.694,2.61,1.882,4.879,3.344,7.11c1.591,2.428,2.188,5.148,1.217,8.014c-0.358,1.054-0.865,2.058-1.294,3.088
		C349.712,212.151,349.124,212.796,349.445,213.914z M461.511,471.357c0.361-2.031,0.237-3.869-0.048-5.687
		c-0.36-2.294-0.803-4.575-1.251-6.854c-3.419-17.381-10.345-33.278-20.331-47.867c-2.604-3.803-5.805-7.074-9.443-9.878
		c-4.885-3.765-10.163-4.429-15.765-1.632c-3.021,1.508-5.865,3.275-8.452,5.469c-10.632,9.017-19.245,19.709-26.366,31.643
		c-0.805,1.347-1.568,2.736-2.142,4.401C405.681,451.1,433.554,461.213,461.511,471.357z M129.9,470.164
		c0.972-0.449,1.909-0.858,2.824-1.311c8.689-4.293,17.537-8.236,26.484-11.956c16.493-6.856,33.299-12.861,50.285-18.369
		c0.582-0.188,1.135-0.466,1.724-0.712c-0.107-0.525-0.128-0.938-0.277-1.299c-0.276-0.664-0.577-1.328-0.955-1.938
		c-6.68-10.771-14.576-20.527-24.188-28.84c-2.925-2.529-6.151-4.631-9.589-6.382c-4.923-2.508-9.754-2.212-14.362,0.813
		c-1.333,0.875-2.556,1.941-3.745,3.013c-4.392,3.955-7.845,8.672-10.94,13.669c-5.134,8.285-8.945,17.18-12.117,26.367
		c-2.569,7.44-4.665,14.99-5.523,22.846C129.37,467.444,129.372,468.767,129.9,470.164z M132.368,524.59
		c-0.423,0.228-0.507,0.251-0.562,0.306c-0.627,0.618-1.258,1.235-1.874,1.866c-4.277,4.384-9.314,7.562-15.173,9.344
		c-2.282,0.694-4.638,1.197-6.994,1.577c-1.965,0.317-3.978,0.4-5.973,0.445c-1.268,0.028-2.543-0.186-3.812-0.325
		c-1.824-0.201-3.684-0.267-5.46-0.682c-7.648-1.785-14.377-5.305-19.935-10.929c-1.24-1.256-2.454-2.538-3.705-3.783
		c-0.243-0.241-0.601-0.366-1.13-0.675c0,1.177,0.409,1.952,0.722,2.741c1.296,3.27,2.688,6.503,3.897,9.804
		c1.545,4.217,3.276,8.345,5.445,12.273c2.218,4.021,4.915,7.718,8.332,10.796c4.193,3.776,8.933,6.762,14.14,8.961
		c3.402,1.436,6.953,2.437,10.632,2.717c5.293,0.403,10.545,0.079,15.696-1.398c6.622-1.9,12.756-4.747,17.939-9.347
		c5.254-4.662,9.75-9.954,12.732-16.399c0.194-0.42,0.33-0.866,0.541-1.426C149.286,535.134,140.819,529.856,132.368,524.59z
		 M520.738,517.91c-0.576,0.309-0.858,0.429-1.105,0.599c-1.583,1.089-3.128,2.235-4.74,3.276
		c-4.484,2.895-9.438,4.279-14.751,4.358c-1.106,0.017-2.215-0.279-3.326-0.378c-3.165-0.28-6.066-1.383-8.836-2.854
		c-2.702-1.436-5.083-3.328-7.372-5.35c-1.372-1.213-2.825-2.335-4.212-3.472c-0.343,0.14-0.599,0.182-0.773,0.325
		c-1.986,1.62-3.941,3.278-5.939,4.883c-3.184,2.558-6.303,5.208-9.612,7.592c-4.74,3.413-9.628,6.621-14.449,9.922
		c-0.642,0.439-1.262,0.91-1.978,1.429c0.693,0.896,1.239,1.676,1.862,2.39c1.687,1.934,3.414,3.829,5.108,5.755
		c1.693,1.924,3.325,3.902,5.056,5.791c2.879,3.139,5.969,6.053,9.611,8.307c2.982,1.847,6.197,2.945,9.762,2.853
		c1.842-0.047,3.663-0.135,5.492-0.457c3.321-0.584,6.55-1.41,9.635-2.793c8.198-3.674,14.569-9.488,19.689-16.769
		c3.569-5.076,6.119-10.692,8.535-16.368c0.813-1.908,1.412-3.905,2.135-5.853C520.874,520.167,520.895,519.238,520.738,517.91z
		 M86.677,457.26c-0.805,1.301-1.398,2.334-2.063,3.317c-1.075,1.592-2.039,3.298-3.328,4.698
		c-5.821,6.328-13.048,9.325-21.603,7.901c-9.942-1.655-16.041-11.388-13.914-21.245c1.884-8.729,11.68-13.782,20.442-10.001
		c2.084,0.898,2.822,2.479,3.044,4.481c0.145,1.303-0.462,2.197-1.778,2.449c-0.913,0.175-1.899,0.077-2.839-0.024
		c-1.83-0.197-3.635-0.536-5.5-0.252c-4.439,0.679-7.275,4.397-6.414,8.816c1.216,6.244,7.1,9.958,12.615,8.876
		c6.682-1.312,11.595-5.133,13.88-11.648c2.938-8.376,1.313-16.169-4.082-23.083c-3.087-3.957-7.375-5.842-12.445-5.626
		c-1.591,0.068-3.2,0.285-4.75,0.649c-7.881,1.854-14.016,6.188-18.139,13.195c-5.836,9.915-6.116,20.215-1.753,30.697
		c2.853,6.852,7.89,11.58,14.768,14.354c4.052,1.635,8.278,2.556,12.625,2.748c7.894,0.351,15.244-1.657,22.085-5.537
		c2.147-1.218,4.103-2.739,6.004-4.387C91.266,470.903,89.03,464.256,86.677,457.26z M495.421,375.648
		c0.354-0.473,0.663-0.729,0.769-1.053c0.374-1.14,0.672-2.305,1.009-3.458c1.021-3.496,2.603-6.719,4.79-9.63
		c3.42-4.552,7.714-7.88,13.295-9.381c2.026-0.545,4.086-0.714,6.182-0.76c3.386-0.076,5.453-1.571,6.521-4.702
		c2.285-6.699,2.634-13.485,0.707-20.338c-2.081-7.406-6.139-13.588-12.06-18.416c-8.183-6.671-17.235-7.53-26.805-3.253
		c-3.887,1.737-6.442,4.752-7.543,8.848c-2.519,9.366-0.095,17.437,6.787,24.145c2.77,2.7,6.282,3.773,10.146,3.568
		c5.129-0.271,8.86-4.437,8.132-9.813c-0.447-3.301-3.159-5.643-6.5-5.482c-0.943,0.045-1.903,0.286-2.802,0.594
		c-1.093,0.375-2.185,0.517-3.311,0.38c-1.294-0.158-2.05-0.856-2.245-2.134c-0.284-1.859,0.128-3.504,1.655-4.753
		c1.07-0.875,2.266-1.492,3.602-1.852c6.805-1.835,14.122,2.454,15.904,9.286c0.558,2.134,0.638,4.292,0.396,6.446
		c-0.688,6.131-4.38,12.907-13.512,14.072c-10.295,1.313-18.454-4.659-21.866-11.359c-0.616-1.211-1.214-2.444-1.683-3.717
		c-0.855-2.328-1.617-4.69-2.4-7.044c-1.345-4.041-5.218-7.012-9.545-7.249c3.75,6.081,7.534,12.089,11.188,18.176
		c3.713,6.185,7.136,12.537,10.213,19.06C489.481,362.264,492.325,368.791,495.421,375.648z M499.151,478.789
		c0.858,0.616,1.616,1.2,2.414,1.723c0.802,0.527,1.615,1.051,2.472,1.478c9.547,4.758,19.547,5.633,29.688,2.658
		c9.386-2.753,15.658-9.144,18.901-18.37c1.985-5.647,2.018-11.463,1.058-17.329c-1.671-10.214-9.335-21.505-24.228-24.2
		c-2.372-0.429-4.792-0.478-7.173,0.087c-3.771,0.895-6.648,3.114-8.881,6.193c-4.018,5.541-5.308,11.694-4.234,18.453
		c1.522,9.587,8.262,13.901,14.607,15.32c5.467,1.222,11.288-2.269,12.783-7.646c1.846-6.64-2.822-10.105-7.325-10
		c-1.358,0.031-2.714,0.207-4.071,0.305c-0.877,0.063-1.768,0.219-2.632,0.133c-2.378-0.237-3.5-2.553-2.267-4.626
		c0.277-0.467,0.691-0.892,1.13-1.217c1.434-1.063,3.019-1.837,4.804-2.081c4.819-0.658,9.249,0.253,13.135,3.324
		c2.359,1.865,3.881,4.269,4.498,7.191c0.464,2.202,0.555,4.417,0.229,6.688c-1.104,7.697-7.931,15.597-18.738,15.224
		c-5.649-0.195-10.628-2.256-14.858-6.002c-1.617-1.432-3.072-3.047-4.62-4.56c-0.317-0.311-0.718-0.536-1.169-0.866
		C502.806,466.8,500.989,472.76,499.151,478.789z M121.841,318.635c-1.671,0.366-2.831,1.042-4.023,1.614
		c-3.372,1.618-5.292,4.279-5.788,8.004c-0.843,6.336-3.874,11.495-8.696,15.598c-5.964,5.075-12.76,6.443-20.244,4.174
		c-3.017-0.915-5.463-2.738-7.139-5.415c-2.869-4.583-3.657-9.577-2.213-14.776c2.27-8.17,10.746-10.515,16.896-8.434
		c1.737,0.588,3.094,1.689,3.976,3.31c1.243,2.282-0.192,4.948-2.769,5.089c-0.782,0.043-1.585-0.129-2.366-0.275
		c-0.627-0.117-1.226-0.384-1.853-0.515c-3.924-0.815-6.974,1.826-7.604,4.903c-1.194,5.833,3.465,10.991,9.482,10.228
		c4.397-0.557,8.065-2.549,10.849-6.053c1.917-2.413,3.312-5.118,4.243-8.041c1.587-4.98,1.5-9.951-0.332-14.86
		c-1.007-2.698-2.565-5.039-5.074-6.529c-5.511-3.273-11.418-4.612-17.767-3.125c-6.842,1.603-12.282,5.399-16.44,10.998
		c-2.789,3.755-4.892,7.903-6.279,12.384c-2.299,7.426-1.821,14.702,1.178,21.856c0.974,2.325,2.586,3.544,5.135,3.632
		c1.76,0.061,3.523,0.24,5.268,0.487c2.313,0.329,4.521,1.028,6.6,2.131c6.955,3.691,11.417,9.428,13.855,16.828
		c0.426,1.292,0.751,2.618,1.171,3.913c0.136,0.418,0.223,0.971,1.109,0.991c1.3-3.24,2.427-6.641,3.817-9.935
		c1.401-3.322,2.772-6.658,4.254-9.944c1.483-3.286,3.038-6.542,4.651-9.767c1.614-3.225,3.295-6.418,5.026-9.582
		c1.732-3.164,3.533-6.291,5.359-9.402C117.935,325.039,119.813,321.995,121.841,318.635z M86.393,399.561
		c-0.371,0.097-0.548,0.097-0.665,0.182c-0.583,0.424-1.172,0.844-1.719,1.313c-4.901,4.208-10.723,5.877-17.034,6.348
		c-5.197,0.388-12.23-3.642-14.342-9.487c-1.113-3.081-1.562-6.233-1.239-9.457c0.294-2.94,1.454-5.558,3.542-7.727
		c3.947-4.1,10.432-5.33,16.036-3.021c1.602,0.66,2.861,1.79,3.597,3.392c0.869,1.891,0.056,3.493-1.932,4.117
		c-1.238,0.388-2.383-0.016-3.555-0.207c-1.026-0.167-2.027-0.511-3.056-0.631c-3.536-0.413-6.597,1.711-7.296,5.182
		c-0.662,3.281,0.221,6.208,2.551,8.635c1.159,1.205,2.615,1.815,4.309,1.831c1.848,0.018,3.683-0.021,5.499-0.461
		c6.923-1.681,11.515-5.772,13.198-12.811c1.009-4.218,0.868-8.451-0.354-12.606c-1.183-4.021-3.579-7.156-7.321-9.136
		c-3.525-1.865-7.316-2.961-11.299-2.924c-8.582,0.08-15.516,3.721-20.695,10.47c-4.679,6.097-6.827,13.218-7.223,20.817
		c-0.382,7.344,2.007,13.889,6.492,19.668c1.027,1.324,2.168,2.587,3.407,3.715c1.938,1.765,4.241,2.16,6.721,1.273
		c1.227-0.438,2.481-0.672,3.775-0.618c2.241,0.093,4.49,0.133,6.719,0.361c6.677,0.684,12.277,3.464,16.538,8.749
		c0.5,0.619,0.987,1.272,1.882,1.46c0.096-0.212,0.249-0.413,0.276-0.631c1.069-8.592,2.133-17.184,3.178-25.778
		C86.459,400.953,86.393,400.311,86.393,399.561z M507.43,425.232c0.971-0.338,1.575-1.074,2.202-1.774
		c1.739-1.938,3.776-3.514,6.16-4.527c6.237-2.65,12.662-4.09,19.437-2.414c2.792,0.69,5.081-0.148,6.991-2.124
		c4.658-4.818,7.594-10.549,8.371-17.213c1.159-9.953-1.354-18.961-7.725-26.743c-7.52-9.185-18.038-11.7-28.788-7.898
		c-3.965,1.402-6.891,4.027-8.728,7.818c-2.13,4.396-2.763,8.993-1.854,13.813c1.508,7.99,8.197,15.158,18.315,14.806
		c3.604-0.125,6.199-2.078,7.386-5.502c0.679-1.957,0.696-3.949,0.184-5.923c-0.652-2.507-2.801-4.265-5.423-4.37
		c-1.265-0.05-2.545,0.165-3.812,0.321c-0.873,0.108-1.729,0.424-2.601,0.456c-0.862,0.03-1.78-0.04-2.588-0.316
		c-1.526-0.523-2.112-2.02-1.494-3.514c0.181-0.438,0.428-0.868,0.727-1.233c1.412-1.73,3.195-2.881,5.384-3.412
		c2.068-0.502,4.11-0.454,6.198-0.056c6.698,1.277,11.319,6.736,11.433,13.545c0.062,3.721-0.983,7.127-2.863,10.284
		c-1.898,3.189-4.736,5.143-8.307,6.104c-2.206,0.594-4.447,0.543-6.691,0.52c-2.857-0.028-5.547-0.765-8.095-2.021
		c-1.437-0.708-2.836-1.491-4.263-2.222c-1.341-0.687-2.695-1.348-4.348-2.171c1.494,8.563,2.934,16.825,4.387,25.085
		C507.063,424.764,507.257,424.948,507.43,425.232z M255.075,218.402c-2.211-0.205-3.995,0.166-5.771,0.728
		c-8.701,2.753-16.668,6.958-24.154,12.127c-3.505,2.42-3.942,3.283-3.318,7.412c0.911,6.032,2.364,11.926,4.721,17.576
		c1.298,3.111,2.827,6.1,4.63,8.947c1.1,1.736,2.506,3.125,4.487,3.821c8.233,2.89,16.537,5.54,25.137,7.13
		c1.563,0.289,3.152,0.428,4.867,0.039c-0.225-0.604-0.392-1.124-0.608-1.622c-1.657-3.817-3.392-7.602-4.971-11.451
		c-2.777-6.771-4.781-13.771-5.411-21.084c-0.523-6.076-0.397-12.17,0.09-18.25C254.913,222.031,255.007,220.292,255.075,218.402z
		 M324.841,276.55c1.838,0.193,3.462-0.113,5.066-0.552c7.948-2.175,15.883-4.4,23.846-6.521c2.812-0.749,4.819-2.324,6.266-4.828
		c2.17-3.756,4.053-7.635,5.518-11.716c1.739-4.843,2.76-9.851,3.536-14.926c0.437-2.854-0.339-4.964-2.934-6.467
		c-3.462-2.005-6.757-4.302-10.242-6.263c-4.965-2.793-10.216-4.956-15.716-6.495c-1.558-0.436-3.09-0.54-4.692-0.246
		c0,0.368-0.031,0.606,0.005,0.835c0.621,3.965,0.902,7.956,1.007,11.966c0.211,8.067-0.655,15.988-2.998,23.733
		c-1.953,6.454-4.649,12.609-7.437,18.73C325.671,274.666,325.29,275.54,324.841,276.55z M527.934,304.31
		c0.917,1.199,1.803,2.314,2.64,3.465c0.847,1.164,1.688,2.336,2.453,3.554c0.765,1.219,1.483,2.474,2.127,3.761
		c0.643,1.286,1.214,2.613,1.731,3.955c0.545,1.415,1.018,2.859,1.471,4.307c0.429,1.37,0.856,2.747,1.162,4.147
		c0.307,1.402,0.297,2.888,0.726,4.242c0.425,1.343,0.049,2.821,0.751,4.351c1.295-1.035,2.453-1.876,3.515-2.825
		c3.451-3.083,6.057-6.811,8.151-10.91c3.502-6.849,5.454-14.182,6.094-21.787c0.448-5.328,0.393-10.701-0.754-16.021
		c-0.901-4.183-2.183-8.181-4.322-11.885c-0.748-1.296-1.446-2.662-2.915-3.626c-0.444,1.661-0.804,3.212-1.275,4.728
		c-1.699,5.458-4.309,10.501-7.142,15.437c-1.848,3.22-4.213,6.058-6.871,8.61C533.169,300.027,530.635,302.001,527.934,304.31z
		 M331.244,348.373c0.723,0.059,0.97,0.129,1.195,0.087c0.549-0.103,1.099-0.224,1.629-0.397c8.602-2.823,17.102-5.916,25.347-9.671
		c6.657-3.032,13.044-6.529,18.792-11.101c3.153-2.508,5.989-5.336,8.412-8.562c1.946-2.59,2.928-5.495,2.771-8.756
		c-0.191-3.993-1.688-7.476-4.215-10.518c-1.255-1.511-2.91-2.449-4.803-3.045c-4.104-1.293-11.005,0.069-14.5,4.712
		c-0.712,0.946-1.289,2.041-1.716,3.148c-1.858,4.818,0.141,8.733,2.9,11.07c1.733,1.468,3.741,2.146,6.021,1.868
		c1.873-0.228,3.497-1.028,4.094-2.881c0.605-1.88,0.498-3.795-1.196-5.349c-0.56,0.066-1.191-0.022-1.639,0.223
		c-1.548,0.851-3.06,0.741-4.763,0.027c-0.076-0.446-0.276-0.987-0.24-1.511c0.119-1.683,1.129-2.771,2.566-3.52
		c3.133-1.629,7.422-0.553,9.437,2.367c3.171,4.597,1.932,10.959-2.798,13.946c-3.812,2.408-7.824,2.652-11.918,0.718
		c-1.366-0.646-2.685-1.393-4.213-2.192c-0.463,0.535-0.922,1.081-1.396,1.614c-3.789,4.254-7.607,8.483-11.364,12.765
		c-3.407,3.883-7.234,7.281-11.47,10.224c-1.711,1.19-3.46,2.327-5.188,3.493C332.538,347.439,332.1,347.765,331.244,348.373z
		 M576.248,471.121c0.439-0.615,0.709-0.909,0.884-1.252c1.812-3.536,2.83-7.288,2.923-11.267c0.056-2.398-0.066-4.778-0.393-7.176
		c-0.774-5.688-2.351-11.071-5.265-16.043c-2.425-4.138-5.615-7.561-9.524-10.319c-3.03-2.139-6.375-3.66-9.813-5.001
		c-0.935-0.365-1.856-0.422-2.768-0.156c-1.046,0.869-1.831,1.835-2.116,3.187c0.284,0.353,0.512,0.678,0.781,0.962
		c1.215,1.28,2.529,2.477,3.646,3.835c4.932,5.988,8.004,12.881,9.449,20.462c0.571,2.998,1.721,5.578,3.588,7.976
		c2.956,3.794,5.564,7.822,7.306,12.353C575.227,469.41,575.682,470.072,576.248,471.121z M392.911,321.538
		c0.345-0.117,0.655-0.184,0.932-0.321c3.593-1.791,7.058-3.799,10.292-6.187c3.573-2.638,6.697-5.719,9.401-9.254
		c5.02-6.562,3.606-14.342,0.276-19.361c-2.252-3.395-5.56-5.076-9.644-4.817c-4.604,0.292-8.295,2.403-10.787,6.308
		c-2.677,4.192-1.852,9.836,1.781,13.203c1.469,1.36,3.189,2.192,5.218,2.082c2.037-0.11,3.812-0.913,4.686-2.853
		c0.846-1.876,0.253-3.606-1.094-5.091c-0.159-0.175-0.364-0.307-0.629-0.527c-0.636,0.225-1.3,0.478-1.977,0.692
		c-0.61,0.194-1.225,0.41-1.854,0.502c-1.314,0.193-2.424-0.689-2.439-2.021c-0.008-0.601,0.173-1.304,0.51-1.794
		c2.697-3.914,8.355-4.188,11.044-0.357c0.725,1.031,1.326,2.23,1.659,3.441c1.788,6.506-2.487,12.234-8.075,12.956
		c-1.442,0.187-2.86,0.312-4.307,0.064c-0.692-0.118-1.41-0.083-2.246-0.123c-0.995,4.307-1.971,8.508-2.925,12.714
		C392.689,320.994,392.834,321.235,392.911,321.538z M19.13,359.188c1.354-0.649,2.47-1.235,3.625-1.726
		c1.763-0.749,3.5-1.648,5.342-2.102c5.187-1.278,10.421-2.362,15.637-3.521c1.7-0.378,3.4-0.754,5.169-1.147
		c-0.082-0.602-0.098-1.081-0.218-1.532c-0.554-2.082-1.085-4.155-1.38-6.305c-0.569-4.154-0.614-8.282,0.027-12.425
		c0.077-0.5-0.069-1.034-0.113-1.566c-1.73,0.296-2.045,0.404-3.031,1.087c-1.973,1.368-3.963,2.713-5.904,4.125
		c-2.925,2.127-5.625,4.504-7.839,7.393c-2.92,3.811-5.844,7.62-8.767,11.43c-1.183,1.541-2.06,3.236-2.538,5.123
		C19.069,358.304,19.13,358.62,19.13,359.188z M308.769,202.766c0.469-5.828-5.247-11.443-11.739-11.874
		c-6.159-0.408-13.742,5.037-13.324,11.852c0.207,0.069,0.428,0.207,0.649,0.208c7.92,0.01,15.841,0.01,23.761-0.001
		C308.338,202.95,308.561,202.827,308.769,202.766z M553.686,366.583c0.173,2.972,1.878,5.035,5.163,4.472
		c3.052-0.523,6.101-0.876,9.241-0.5c3.066,0.366,5.902,1.247,8.612,2.659c2.636,1.373,4.972,3.182,7.312,4.986
		c0.614,0.474,1.172,1.08,2.026,1.085c0.094-0.198,0.215-0.337,0.214-0.476c-0.001-0.232-0.03-0.488-0.133-0.69
		c-1.169-2.293-2.558-4.396-4.608-6.045c-2.135-1.716-4.516-3.011-6.9-4.3c-3.066-1.657-6.329-2.585-9.863-2.422
		c-1.598,0.074-3.206-0.044-4.801,0.059C557.814,365.548,555.675,365.744,553.686,366.583z M28.963,420.652
		c-0.299,1.382-0.319,1.943,0.301,3.584c0.902,2.39,1.806,4.805,4.032,6.567c2-2.072,4.076-4.036,6.24-6.437
		C35.834,423.01,32.4,421.861,28.963,420.652z M197.65,329.428c-1.6-0.911-3.046-1.76-4.515-2.568
		c-5.276-2.905-10.395-6.045-14.999-9.96c-2.389-2.031-4.626-4.209-6.575-6.677c-3.026-3.832-4.761-8.123-4.822-13.056
		c-0.029-2.331,0.003-4.64,0.539-6.932c1.065-4.558,3.475-8.253,7.135-11.107c3.929-3.064,8.446-3.781,13.21-2.758
		c4.354,0.935,8.038,3.121,10.885,6.614c1.336,1.639,2.26,3.488,2.889,5.498c0.378,1.208,0.784,2.408,1.21,3.716
		c1.915-0.446,3.675-0.953,5.47-1.256c6.26-1.057,11.955,0.166,16.843,4.404c4.603,3.991,6.432,9.043,5.731,15.055
		c-0.028,0.239-0.064,0.478-0.112,0.713c-0.483,2.379,0.17,4.291,1.868,6.121c4.364,4.705,8.591,9.539,12.8,14.385
		c4.393,5.059,9.748,8.769,15.758,11.615c0.866,0.41,1.736,0.831,2.548,1.336c3.243,2.015,3.24,5.924,1.473,8.429
		c-0.776,1.1-1.862,1.815-3.237,1.814c-1.519,0-3.042-0.096-4.554-0.242c-1.188-0.114-2.363-0.369-3.639-0.576
		c-0.324,0.474-0.656,0.906-0.93,1.373c-1.465,2.499-3.133,4.847-5.116,6.966c-4.06,4.34-8.964,7.161-14.8,8.414
		c-5.519,1.185-11.007,1.34-16.371-0.557c-11.302-3.996-18.212-11.928-20.437-23.712c-0.918-4.865-0.293-9.749,1.019-14.521
		C197.135,331.189,197.363,330.424,197.65,329.428z M212.864,308.886c-0.377,0.58-0.658,0.964-0.887,1.377
		c-0.192,0.348-0.349,0.722-0.479,1.099c-0.765,2.209,0.033,4.237,2.155,5.202c0.783,0.356,1.68,0.584,2.539,0.634
		c4.294,0.248,8.59-3.606,9.015-8.03c0.317-3.304-0.702-6.171-2.915-8.617c-2.062-2.279-4.663-3.636-7.635-4.277
		c-5.169-1.115-9.53,0.564-12.255,4.595c-3.626,5.365-3.993,11.046-0.99,16.833c1.457,2.809,3.489,5.208,5.938,7.194
		c2.239,1.816,4.544,3.568,6.942,5.165c7.435,4.949,15.435,8.836,23.74,12.061c5.594,2.172,11.308,4.038,16.966,6.045
		c0.805,0.286,1.599,0.612,2.719,0.176c-0.55-0.382-0.931-0.651-1.318-0.914c-2.055-1.398-4.106-2.803-6.168-4.19
		c-4.958-3.333-9.372-7.284-13.275-11.794c-2.52-2.911-4.956-5.895-7.417-8.856c-0.973-1.171-1.955-2.325-3.236-3.245
		c-1.069,0.429-2.096,0.876-3.147,1.253c-1.655,0.593-3.292,1.298-4.999,1.676c-7.316,1.621-13.853-5.184-12.293-12.125
		c1.361-6.057,5.852-7.388,9.742-6.409c1.965,0.494,3.472,1.652,4.013,3.741c0.286,1.101-0.149,1.853-1.221,2.261
		c-0.865,0.33-1.726,0.276-2.593,0.015C214.89,309.48,213.972,309.213,212.864,308.886z M192.826,307.984
		c-0.792,0.077-1.434,0.077-2.046,0.21c-1.444,0.315-2.858,0.106-4.298-0.054c-6.782-0.753-11.701-9.557-6.362-16.513
		c3.229-4.207,8.483-2.557,10.668,0.059c0.477,0.57,0.753,1.22,0.748,1.98c-0.009,1.398-1.172,2.433-2.538,2.194
		c-0.548-0.096-1.069-0.335-1.611-0.475c-0.614-0.159-1.233-0.363-1.858-0.398c-1.125-0.063-1.833,0.466-2.201,1.487
		c-0.651,1.805-0.112,4.01,1.357,5.281c1.562,1.351,3.399,1.861,5.379,1.255c3.407-1.043,5.803-3.391,6.493-6.804
		c0.914-4.518-0.256-8.607-4.095-11.585c-1.666-1.292-3.553-2.147-5.596-2.673c-3.87-0.997-7.383-0.272-10.234,2.524
		c-3.64,3.571-5.163,8.011-4.671,13.107c0.326,3.373,1.709,6.308,3.755,8.964c5.17,6.712,12.103,11.122,19.503,14.913
		c0.223,0.114,0.575-0.023,0.979-0.051C195.027,316.868,194.111,312.431,192.826,307.984z M295.813,408.746
		c7.243-0.798,12.374-4.443,15.073-11.293c1.108-2.813,1.357-5.757,1.002-8.742c-0.791-6.646-4.16-11.483-10.262-14.316
		c-3.284-1.524-6.742-1.851-10.324-1.401c-9.052,1.138-17.157,9.391-15.406,20.699c1.573,10.16,10.243,15.376,17.998,15.15
		C294.533,408.813,295.177,408.816,295.813,408.746z"/>
</g>
</svg>
