<?xml version="1.0" encoding="utf-8"?>
<!-- Generator: Adobe Illustrator 16.0.0, SVG Export Plug-In . SVG Version: 6.00 Build 0)  -->
<!DOCTYPE svg PUBLIC "-//W3C//DTD SVG 1.1//EN" "http://www.w3.org/Graphics/SVG/1.1/DTD/svg11.dtd">
<svg version="1.1" xmlns="http://www.w3.org/2000/svg" xmlns:xlink="http://www.w3.org/1999/xlink" x="0px" y="0px" width="612px"
	 height="792px" viewBox="0 0 612 792" enable-background="new 0 0 612 792" xml:space="preserve">
<g id="Yellow">
	<path fill-rule="evenodd" clip-rule="evenodd" fill="#FBFB03" d="M113.236,397.472c-4.495-0.733-8.611-1.333-12.699-2.086
		c-9.143-1.684-18.229-3.634-27.173-6.197c-7.477-2.143-14.857-4.574-21.984-7.711c-6.271-2.76-12.19-6.103-17.276-10.771
		c-0.642-0.589-1.236-1.23-1.805-1.8c0.375-1.094,1.248-1.412,1.977-1.877c4.416-2.819,9.193-4.882,14.076-6.729
		c7.808-2.953,15.852-5.119,23.918-7.211c10.474-2.716,21.035-5.048,31.667-7.042c7.009-1.315,14.058-2.422,21.096-3.571
		c5.774-0.942,11.556-1.839,17.342-2.701c4.995-0.744,9.999-1.421,15.002-2.106c4.289-0.587,8.578-1.17,12.874-1.705
		c3.421-0.426,6.85-0.793,10.278-1.156c5.742-0.606,11.485-1.198,17.229-1.774c3.831-0.385,7.663-0.754,11.497-1.09
		c5.273-0.462,10.549-0.897,15.825-1.32c2.559-0.205,5.121-0.377,7.683-0.526c3.764-0.217,7.528-0.436,11.295-0.589
		c7.935-0.325,15.869-0.748,23.808-0.871c8.905-0.138,17.816-0.126,26.72,0.072c10.264,0.229,20.521,0.737,30.783,1.114
		c4.97,0.182,9.941,0.332,14.912,0.512c6.093,0.221,12.188,0.411,18.278,0.7c9.455,0.45,18.909,0.936,28.359,1.479
		c7.047,0.405,14.092,0.864,21.129,1.412c6.315,0.492,12.621,1.115,18.928,1.722c5.188,0.5,10.378,0.998,15.553,1.614
		c5.57,0.663,11.131,1.427,16.687,2.213c5.714,0.808,11.428,1.628,17.122,2.558c21.946,3.584,43.557,8.494,64.426,16.349
		c8.873,3.34,17.354,7.504,25.764,11.836c0.427,0.22,0.835,0.478,1.235,0.744c0.113,0.075,0.168,0.239,0.332,0.487
		c-0.767,0.708-1.779,0.995-2.711,1.349c-6.814,2.589-13.596,5.274-20.481,7.661c-12.115,4.2-24.486,7.578-36.805,11.12
		c-5.389,1.55-10.792,3.049-16.186,4.585c-0.765,0.218-1.509,0.506-2.43,0.303c-0.021-0.4-0.076-0.788-0.056-1.172
		c0.219-4.165,0.456-8.329,0.674-12.494c0.137-2.609-0.162-3.136-2.588-4.269c-10.103-4.72-20.455-8.817-31.011-12.4
		c-16.491-5.598-33.321-9.894-50.43-13.13c-9.059-1.714-18.156-3.165-27.303-4.33c-7.718-0.983-15.449-1.802-23.204-2.43
		c-8.078-0.654-16.162-1.116-24.259-1.465c-15.001-0.648-30.004-0.612-45.003-0.18c-8.817,0.254-17.633,0.763-26.432,1.403
		c-8.877,0.645-17.753,1.415-26.592,2.454c-10.347,1.216-20.684,2.591-30.97,4.238c-19.315,3.094-38.477,6.974-57.254,12.538
		c-8.769,2.599-17.392,5.627-25.413,10.117c-1.6,0.895-3.144,1.938-4.564,3.095c-2.747,2.237-4.001,5.182-3.504,8.735
		c0.355,2.538,0.854,5.055,1.278,7.583C112.98,395.534,113.073,396.315,113.236,397.472z M166.353,291.271
		c8.445-1.896,16.948-3.472,25.504-4.788c8.64-1.329,17.319-2.315,26.017-3.129c5.907-0.553,11.824-1.029,17.746-1.396
		c9.044-0.562,18.091-1.183,27.146-1.44c9.456-0.27,18.917-0.606,28.385-0.295c7.534,0.248,15.076,0.287,22.608,0.571
		c10.658,0.401,21.316,0.848,31.964,1.452c8.806,0.5,17.602,1.18,26.391,1.917c8.388,0.704,16.764,1.553,25.14,2.396
		c6.46,0.65,12.918,1.331,19.364,2.105c8.116,0.975,16.219,2.063,24.329,3.086c0.347,0.044,0.713-0.061,1.373-0.127
		c-0.604-0.888-1.013-1.551-1.483-2.168c-8.403-11.024-17.995-20.897-28.723-29.677c-29.388-24.051-63.263-36.229-100.999-38.141
		c-13.742-0.696-27.419,0.043-40.972,2.491c-15.958,2.883-31.144,8.059-45.534,15.56c-17.311,9.023-32.521,20.799-45.955,34.921
		c-4.427,4.653-8.631,9.499-12.595,14.552c-0.479,0.61-1.185,1.125-1.072,2.123C165.446,291.284,165.92,291.369,166.353,291.271z"/>
</g>
<g id="Red">
	<path fill-rule="evenodd" clip-rule="evenodd" fill="#EC0606" d="M144.611,322.784c0.419-0.992,0.648-1.661,0.974-2.278
		c1.01-1.914,2.1-3.786,3.077-5.716c0.828-1.636,2.228-2.501,3.861-3.035c2.205-0.72,4.433-1.378,6.668-2
		c7.094-1.972,14.238-3.734,21.52-4.874c6.401-1.002,12.808-1.975,19.221-2.896c5.543-0.796,11.092-1.571,16.653-2.226
		c4.134-0.487,8.289-0.816,12.441-1.127c5.112-0.382,10.229-0.699,15.347-0.994c3.439-0.198,6.883-0.343,10.327-0.45
		c6.571-0.204,13.149-0.235,19.712-0.575c6.897-0.357,13.791-0.249,20.685-0.179c6.092,0.063,12.182,0.267,18.272,0.445
		c3.845,0.113,7.688,0.277,11.532,0.451c6.645,0.3,13.29,0.592,19.932,0.951c4.959,0.268,9.916,0.598,14.869,0.97
		c5.909,0.443,11.815,0.932,17.719,1.456c4.784,0.424,9.565,0.895,14.34,1.41c5.092,0.55,10.175,1.184,15.263,1.767
		c3.341,0.382,6.689,0.695,10.024,1.114c4.286,0.54,8.562,1.168,12.845,1.732c3.016,0.397,6.038,0.735,9.055,1.128
		c3.014,0.394,6.024,0.821,9.036,1.237c1.506,0.208,3.01,0.43,4.517,0.63c1.192,0.159,2.146,0.695,2.679,1.792
		c1.681,3.457,3.337,6.926,4.986,10.398c0.095,0.198,0.044,0.464,0.066,0.794c-1.296,0.275-2.561,0.04-3.812-0.099
		c-3.737-0.416-7.469-0.889-11.204-1.323c-3.735-0.434-7.473-0.855-11.211-1.271c-1.83-0.204-3.661-0.409-5.495-0.566
		c-4.469-0.383-8.94-0.73-13.409-1.107c-4.946-0.417-9.891-0.865-14.838-1.272c-2.395-0.197-4.793-0.357-7.192-0.489
		c-4.161-0.229-8.325-0.405-12.486-0.637c-4.319-0.241-8.635-0.521-12.952-0.784c-0.24-0.015-0.481-0.022-0.722-0.031
		c-5.849-0.209-11.697-0.413-17.546-0.629c-4.807-0.178-9.612-0.371-14.418-0.558c-3.363-0.131-6.726-0.285-10.089-0.39
		c-6.49-0.203-12.985-0.295-19.472-0.582c-15.476-0.683-30.956-0.546-46.433-0.225c-6.808,0.142-13.61,0.585-20.412,0.939
		c-5.361,0.279-10.721,0.582-16.075,0.965c-5.031,0.36-10.053,0.846-15.08,1.261c-2.714,0.225-5.436,0.371-8.147,0.634
		c-3.982,0.386-7.958,0.845-11.937,1.272c-3.343,0.359-6.688,0.695-10.028,1.082c-3.338,0.387-6.67,0.827-10.005,1.239
		c-1.827,0.226-3.656,0.436-5.482,0.665c-4.843,0.606-9.685,1.224-14.529,1.822C146.551,322.716,145.834,322.715,144.611,322.784z"
		/>
</g>
<g id="White">
	<path fill-rule="evenodd" clip-rule="evenodd" fill="#FFFFFF" d="M473.365,390.211c0,0.784,0.081,1.584-0.014,2.363
		c-0.666,5.489-1.168,11.009-2.099,16.455c-2.289,13.382-5.964,26.398-10.934,39.04c-6.622,16.846-15.554,32.333-27.269,46.173
		c-14.883,17.582-33.015,30.763-54.135,39.871c-11.813,5.095-24.07,8.757-36.698,11.203c-8.273,1.604-16.607,2.699-25.003,3.428
		c-8.566,0.743-17.14,1.059-25.725,0.744c-22.286-0.816-43.683-5.411-63.826-15.241c-14.769-7.208-27.886-16.72-39.605-28.21
		c-14.745-14.458-26.456-31.121-35.962-49.389c-10.073-19.356-17.597-39.657-22.458-60.937c-0.339-1.484-0.668-2.971-0.955-4.465
		c-0.133-0.694-0.153-1.411-0.239-2.258c0.829-0.452,1.567-0.906,2.346-1.272c6.762-3.182,13.844-5.487,21.013-7.526
		c13.416-3.817,26.999-6.934,40.741-9.319c8.448-1.466,16.904-2.905,25.389-4.135c7.218-1.046,14.472-1.874,21.728-2.621
		c8.296-0.854,16.602-1.679,24.922-2.208c9.363-0.595,18.746-0.955,28.125-1.212c8.177-0.225,16.363-0.3,24.541-0.193
		c8.981,0.118,17.964,0.389,26.924,1.107c5.037,0.404,10.083,0.7,15.113,1.17c5.188,0.485,10.369,1.067,15.54,1.712
		c4.851,0.604,9.689,1.312,14.525,2.035c11.102,1.658,22.081,3.927,32.994,6.549c15.688,3.77,30.911,8.952,45.895,14.886
		c1.414,0.56,2.838,1.097,4.247,1.669C472.772,389.746,473.013,389.973,473.365,390.211z M224.337,383.655
		c-11.817,0.052-22.092,3.161-31.29,9.636c-19.656,13.837-27.963,39.31-20.447,62.32c6.143,18.805,22.687,34.32,45.031,37.011
		c10.692,1.288,20.912-0.663,30.525-5.604c23.738-12.2,35.525-40.531,26.558-66.612
		C267.105,398.273,246.837,383.674,224.337,383.655z M380.905,492.534c2.474-0.22,4.958-0.349,7.417-0.676
		c8.329-1.108,15.957-4.097,22.856-8.875c19.801-13.715,28.229-39.085,20.855-62.151c-7.999-25.021-32.798-41.175-59.614-37.003
		c-12.624,1.964-23.276,7.676-31.567,17.329c-12.221,14.229-16.533,30.696-12.517,49.093
		C333.731,474.958,355.676,492.468,380.905,492.534z M283.06,507.119c-0.343,10.235,8.097,20.502,20.092,20.569
		c11.176,0.062,20.39-9.071,20.395-20.322c0.007-12.149-9.972-20.548-20.146-20.589C292.134,486.731,282.863,496.289,283.06,507.119
		z M75.292,627.453c-0.495,5.134-0.598,10.254,0.781,15.291c2.321,8.479,7.591,13.9,16.302,15.838
		c4.2,0.935,8.428,1.087,12.677,0.677c1.825-0.177,3.645-0.577,5.424-1.04c8.293-2.161,13.84-7.435,17.052-15.275
		c2.537-6.192,2.982-12.6,1.75-19.129c-0.746-3.952-2.496-7.419-5.416-10.257c-0.803-0.78-1.529-1.646-2.248-2.507
		c-0.343-0.411-0.587-0.905-0.971-1.513c25.448-24.923,50.95-49.653,76.419-74.604c-0.776-0.611-1.402-1.105-2.029-1.597
		c-2.587-2.03-5.221-4.004-7.753-6.1c-7.122-5.896-13.686-12.371-19.815-19.291c-0.568-0.642-1.025-1.437-1.943-1.806
		c-0.856,0.37-1.425,1.055-2.049,1.655c-7.982,7.673-15.959,15.35-23.937,23.026c-15.492,14.91-30.983,29.82-46.479,44.728
		c-0.567,0.545-1.169,1.055-1.815,1.635c-0.804-0.462-1.5-0.84-2.174-1.253c-3.292-2.015-6.72-3.76-10.393-4.954
		c-5.212-1.695-10.503-2.931-16.058-2.221c-6.887,0.88-12.691,3.827-17.217,9.121c-3.349,3.917-5.348,8.517-6.557,13.495
		c-0.443,1.826-0.503,3.666-0.288,5.499c0.357,3.04,1.158,5.971,2.505,8.738c2.639,5.423,6.731,9.529,11.677,12.842
		c5.09,3.409,10.652,5.069,16.836,4.541c1.892-0.162,3.83-0.291,5.928,0.218C75.713,624.77,75.422,626.106,75.292,627.453z
		 M515.628,577.879c-2.176-2.137-4.342-4.283-6.507-6.431c-14.246-14.128-28.49-28.259-42.737-42.385
		c-6.838-6.781-13.681-13.558-20.528-20.329c-0.665-0.658-1.374-1.271-2.106-1.945c-0.945,1.033-1.753,1.922-2.567,2.806
		c-8.355,9.066-17.631,17.068-27.783,24.062c-0.693,0.478-1.569,0.789-1.915,1.604c1.057,0.996,2.072,1.905,3.034,2.867
		c4.483,4.483,8.95,8.983,13.427,13.474c13.429,13.471,26.864,26.936,40.29,40.41c5.324,5.344,10.634,10.703,15.938,16.066
		c0.491,0.497,1.175,0.885,1.216,1.91c-0.304,0.553-0.698,1.242-1.064,1.945c-1.033,1.991-2.176,3.936-3.058,5.991
		c-2.688,6.266-4.271,12.77-3.652,19.651c0.535,5.945,2.788,11.152,6.946,15.487c2.992,3.118,6.611,5.293,10.526,7.048
		c6.254,2.804,12.451,2.642,18.59-0.29c7.89-3.768,13.43-9.72,16.521-17.928c0.825-2.192,1.284-4.439,1.509-6.775
		c0.262-2.733,0.123-5.446,0.02-8.17c-0.029-0.777-0.27-1.604,0.415-2.426c0.365-0.032,0.83-0.133,1.286-0.104
		c2.242,0.139,4.48,0.337,6.723,0.468c5.55,0.324,10.869-0.612,15.877-3.069c5.25-2.577,8.75-6.646,10.329-12.317
		c1.852-6.648,1.791-13.282,0.065-19.956c-2.026-7.835-6.775-13.313-14.072-16.655c-6.177-2.829-12.662-3.373-19.3-2.39
		c-4.744,0.702-8.841,2.728-12.103,6.351c-0.949,1.053-2.117,1.908-3.265,2.924C516.904,579.056,516.247,578.486,515.628,577.879z
		 M159.147,271.954c7.974-9.256,16.583-17.858,26.125-25.552c-1.107-1.01-2.25-2.017-3.353-3.064
		c-10.876-10.336-21.746-20.679-32.617-31.021c-9.766-9.292-19.534-18.581-29.29-27.883c-0.62-0.591-1.438-1.048-1.654-2.087
		c0.347-0.663,0.736-1.358,1.081-2.075c1.042-2.164,2.216-4.279,3.071-6.516c2.229-5.827,3.491-11.828,2.69-18.123
		c-0.68-5.352-2.835-9.992-6.673-13.805c-3.36-3.338-7.357-5.683-11.828-7.168c-4.321-1.436-8.672-1.364-12.981,0.173
		c-5.614,2.003-10.14,5.477-13.615,10.277c-4.024,5.559-6.376,11.643-5.5,18.678c0.188,1.507,0.181,3.042,0.208,4.565
		c0.009,0.533-0.147,1.07-0.246,1.725c-2.032,0.028-3.942-0.083-5.858-0.25c-5.968-0.52-11.672,0.473-17.026,3.201
		c-4.919,2.505-8.094,6.436-9.455,11.814c-1.303,5.15-1.28,10.334-0.317,15.514c1.723,9.275,6.918,15.675,15.891,18.88
		c5.344,1.91,10.816,2.197,16.362,1.24c4.475-0.772,8.359-2.679,11.379-6.2c0.974-1.136,2.16-2.091,3.347-3.223
		c4.748,4.204,9.166,8.511,13.678,12.714c4.521,4.212,9.017,8.451,13.524,12.677c4.506,4.226,9.015,8.449,13.521,12.675
		c4.505,4.227,8.996,8.47,13.515,12.683c4.504,4.198,8.92,8.492,13.498,12.577C157.886,273.819,158.432,272.785,159.147,271.954z
		 M519.186,214.021c2.207,2.344,4.866,3.865,7.937,4.758c6.536,1.902,13.004,1.587,19.372-0.673
		c7.262-2.578,12.172-7.526,14.566-14.896c1.661-5.113,2.118-10.32,1.418-15.667c-1.104-8.425-5.426-14.211-13.557-16.996
		c-4.778-1.636-9.692-2.083-14.704-1.682c-1.119,0.089-2.238,0.201-3.359,0.234c-0.527,0.016-1.059-0.129-1.717-0.218
		c0-0.767-0.017-1.398,0.003-2.028c0.066-2.084,0.229-4.169,0.194-6.252c-0.03-1.833-0.074-3.706-0.455-5.487
		c-2.059-9.638-7.967-16.252-16.636-20.523c-4.241-2.09-8.758-2.435-13.369-1.348c-6.955,1.64-12.328,5.612-16.48,11.311
		c-1.771,2.43-2.794,5.21-3.328,8.168c-0.93,5.144-0.51,10.213,0.801,15.242c1.038,3.98,2.69,7.703,4.629,11.314
		c0.407,0.758,1.072,1.438,0.835,2.586c-0.392,0.418-0.869,0.951-1.372,1.459c-3.333,3.36-6.666,6.721-10.009,10.072
		c-11.221,11.245-22.444,22.485-33.668,33.727c-3.117,3.123-6.223,6.259-9.365,9.356c-3.185,3.139-6.202,6.449-9.609,9.333
		c0.078,0.19,0.102,0.368,0.201,0.47c0.394,0.397,0.793,0.794,1.224,1.15c9.047,7.486,17.371,15.703,24.981,24.645
		c0.338,0.398,0.797,0.693,1.292,1.114c22.005-21.047,43.813-42.088,65.957-63.244C516.55,211.466,517.928,212.687,519.186,214.021z
		 M223.424,624.969c3.001,11.724,9.267,21.206,19.401,27.982c4.895,3.273,10.235,5.613,15.82,7.441
		c8.908,2.916,18.109,4.201,27.411,4.655c14.287,0.698,28.539,0.251,42.663-2.29c7.43-1.336,14.683-3.295,21.655-6.226
		c7.472-3.14,14.216-7.373,19.9-13.202c7.604-7.797,11.701-17.287,13.439-27.909c0.035-0.216-0.075-0.456-0.154-0.888
		c-0.793,0.301-1.524,0.554-2.237,0.852c-11.173,4.669-22.599,8.578-34.355,11.506c-10.988,2.735-22.128,4.574-33.414,5.414
		c-8.079,0.601-16.168,0.751-24.277,0.246c-7.535-0.47-15.014-1.31-22.427-2.678c-14.882-2.747-29.177-7.333-42.78-14.008
		c-0.633-0.312-1.302-0.552-2.333-0.984C222.001,618.6,222.614,621.805,223.424,624.969z M254.58,610.258
		c1.607,0.487,3.22,0.965,4.844,1.394c8.462,2.234,17.08,3.547,25.789,4.305c2.314,0.201,4.631,0.386,6.95,0.531
		c0.604,0.038,1.219-0.097,2.009-0.17c0.099-5.348,0.515-10.521,0.391-15.713c-0.009-0.377-0.19-0.749-0.316-1.215
		c-0.677-0.083-1.296-0.181-1.918-0.23c-2.396-0.192-4.799-0.31-7.189-0.562c-9.005-0.948-17.945-2.292-26.733-4.532
		c-0.521-0.132-1.08-0.115-1.788-0.184c-0.292,0.992-0.632,1.878-0.809,2.794c-0.83,4.301-2.056,8.525-2.645,12.938
		C253.731,609.877,254.138,610.125,254.58,610.258z M345.292,594.131c-9.659,2.422-19.495,3.696-29.389,4.617
		c-1.651,0.154-3.313,0.281-4.979,0.73c-0.104,0.555-0.26,1.017-0.265,1.48c-0.045,4.727-0.072,9.454-0.08,14.182
		c0,0.286,0.201,0.573,0.363,1.006c1.068-0.06,2.104-0.075,3.129-0.184c6.053-0.635,12.108-1.269,18.093-2.401
		c6.449-1.222,12.831-2.731,19.106-4.671c0.616-0.19,1.258-0.292,1.534-0.983c-0.932-5.092-2.925-12.653-3.807-14.378
		C347.72,593.31,346.504,593.827,345.292,594.131z M341.864,563.281c-0.234-0.932-0.661-1.181-1.573-1.129
		c-0.477,0.026-0.946,0.154-1.422,0.219c-4.206,0.574-8.405,1.206-12.62,1.698c-3.66,0.428-7.34,0.686-11.009,1.042
		c-1.255,0.123-2.504,0.318-3.744,0.479c-0.133,0.568-0.295,0.952-0.301,1.338c-0.065,4.808-0.117,9.615-0.144,14.423
		c-0.002,0.445,0.197,0.892,0.295,1.299c5.701,0.486,29.123-3.299,33.908-5.533C344.112,572.434,343.011,567.852,341.864,563.281z
		 M262.775,578.456c5.685,1.371,11.422,2.489,17.219,3.234c4.128,0.53,8.29,0.804,12.438,1.161c0.693,0.061,1.446,0.229,2.204-0.469
		c0.351-3.025-0.06-6.221,0.367-9.393c0.275-2.042,0.023-4.157-0.018-6.239c-0.004-0.215-0.188-0.426-0.376-0.825
		c-1.752-0.12-3.579-0.241-5.406-0.372c-3.515-0.253-7.04-0.417-10.542-0.79c-4.219-0.45-8.417-1.096-12.629-1.616
		c-0.853-0.105-1.744-0.371-2.732,0.18c-1.143,4.303-2.08,8.76-2.96,13.229c-0.071,0.36,0.056,0.759,0.101,1.256
		C261.256,578.038,262.01,578.271,262.775,578.456z M383.187,596.762c0.888-0.388,1.106-1.092,0.968-1.968
		c-0.654-4.112-1.307-8.226-1.991-12.334c-0.057-0.343-0.346-0.647-0.543-0.996c-5.653,2.312-11.172,4.617-16.793,6.995
		c1.239,4.97,2.435,9.761,3.672,14.724C373.517,600.988,378.351,598.872,383.187,596.762z M238.754,598.969
		c0.396-1.714,0.789-3.431,1.1-5.162c0.291-1.612,1.036-3.169,0.773-4.921c-5.468-2.211-10.858-4.39-16.273-6.579
		c-0.681,0.841-0.731,1.74-0.871,2.582c-0.38,2.289-0.69,4.59-1.042,6.884c-0.109,0.712-0.281,1.413-0.396,2.123
		c-0.303,1.885,0.031,2.527,1.771,3.476c0.141,0.076,0.276,0.162,0.419,0.234c2.93,1.475,5.857,2.955,8.793,4.417
		c1.352,0.673,2.721,1.311,4.438,2.136C237.955,602.202,238.379,600.592,238.754,598.969z M377.016,565.162
		c0.001-0.236,0.07-0.5-0.01-0.705c-1.244-3.204-2.496-6.404-3.783-9.591c-0.134-0.329-0.504-0.563-0.748-0.822
		c-4.981,1.518-9.905,2.845-14.896,4.534c0.572,3.934,1.825,7.564,2.624,11.294c0.163,0.759,0.231,1.595,1.025,2.267
		C364.821,571.129,375.424,566.432,377.016,565.162z M244.434,572.577c1.201-4.275,2.031-8.65,2.982-13.066
		c-0.407-0.272-0.703-0.571-1.06-0.694c-4.238-1.461-8.482-2.899-12.732-4.322c-0.282-0.095-0.623-0.012-1-0.012
		c-0.19,0.245-0.46,0.463-0.56,0.74c-1.158,3.241-2.298,6.488-3.417,9.741c-0.096,0.28-0.013,0.622-0.013,1.002
		C231.565,567.676,242.565,572.287,244.434,572.577z"/>
</g>
<g id="Black">
	<path fill-rule="evenodd" clip-rule="evenodd" fill="#020202" d="M454.051,493.815c0.535,0.59,0.987,1.139,1.489,1.636
		c13.222,13.11,26.451,26.214,39.676,39.321c7.183,7.118,14.36,14.242,21.54,21.364c0.171,0.169,0.359,0.325,0.507,0.513
		c0.919,1.169,1.932,1.392,3.36,0.752c3.901-1.745,8.017-2.854,12.268-3.255c14.897-1.405,28.176,2.262,39.042,12.953
		c5.708,5.617,9.104,12.553,10.679,20.361c0.585,2.9,1.02,5.853,1.232,8.803c0.6,8.304-0.671,16.329-4.254,23.885
		c-3.426,7.222-8.897,12.49-16.023,16.04c-4.403,2.194-9.038,3.737-13.929,4.367c-1.601,0.206-2.369,0.914-2.762,2.465
		c-1.636,6.46-4.529,12.322-8.717,17.518c-4.276,5.306-9.313,9.744-15.365,12.926c-11.193,5.883-22.702,6.355-34.347,1.538
		c-7.404-3.063-13.545-7.934-18.528-14.196c-6.147-7.725-8.745-16.655-8.619-26.439c0.081-6.387,1.222-12.592,3.397-18.602
		c0.136-0.377,0.274-0.753,0.433-1.121c0.574-1.345,0.297-2.498-0.757-3.489c-0.292-0.274-0.568-0.565-0.852-0.85
		c-12.297-12.335-24.596-24.667-36.89-37.006c-9.29-9.324-18.573-18.656-27.859-27.985c-0.339-0.341-0.665-0.695-1.016-1.024
		c-0.52-0.487-1.136-0.621-1.775-0.306c-2.44,1.207-4.869,2.436-7.297,3.666c-0.132,0.067-0.211,0.235-0.432,0.491
		c0.184,0.582,0.37,1.263,0.608,1.925c1.901,5.274,3.937,10.505,5.689,15.828c2.892,8.779,4.778,17.784,5.687,26.999
		c0.6,6.085,0.776,12.178,0.315,18.261c-1.065,14.064-5.338,26.995-14.054,38.263c-5.936,7.674-13.37,13.567-21.84,18.215
		c-8.786,4.82-18.171,7.98-27.939,10.063c-13.797,2.941-27.762,4.018-41.847,3.707c-4.171-0.093-8.35-0.097-12.509-0.381
		c-13.039-0.89-25.755-3.276-37.769-8.657c-7.907-3.543-15.042-8.235-21.108-14.471c-7.675-7.889-12.654-17.291-15.484-27.862
		c-2.787-10.414-3.411-21.008-2.608-31.736c1.237-16.527,5.295-32.382,11.125-47.832c0.337-0.894,0.631-1.803,0.987-2.823
		c-0.384-0.32-0.7-0.673-1.091-0.895c-1.253-0.712-2.53-1.386-3.807-2.058c-1.2-0.631-1.616-0.619-2.573,0.294
		c-1.974,1.884-3.901,3.816-5.854,5.722c-19.872,19.393-39.751,38.778-59.612,58.184c-2.546,2.487-2.432,1.998-1.298,5.305
		c5.45,15.897,3.365,30.851-6.251,44.595c-5.812,8.307-14.002,13.268-23.856,15.497c-4.633,1.049-9.326,1.604-14.084,1.437
		c-5.895-0.206-11.64-1.221-17.125-3.437c-8.746-3.534-14.986-9.697-18.914-18.241c-1.922-4.182-3.146-8.565-3.803-13.113
		c-0.057-0.397-0.088-0.799-0.151-1.194c-0.125-0.785-0.555-1.303-1.334-1.535c-0.998-0.298-1.994-0.604-2.98-0.937
		c-13.964-4.718-23.756-13.977-29.535-27.453c-4.044-9.432-4.115-19.01-0.332-28.565c3.223-8.141,8.064-15.127,15.079-20.471
		c5.598-4.265,11.939-6.8,18.887-7.868c7.354-1.13,14.554-0.303,21.658,1.68c1.85,0.516,3.716,1.05,5.464,1.824
		c1.808,0.801,3.137,0.52,4.532-0.858c4.796-4.736,9.664-9.399,14.52-14.075c15.897-15.305,31.803-30.603,47.7-45.908
		c0.802-0.771,1.551-1.598,2.405-2.482c-0.317-0.657-0.531-1.252-0.867-1.767c-1.049-1.613-2.143-3.198-3.222-4.792
		c-13.076-19.318-22.875-40.228-30.241-62.315c-0.861-2.582-1.731-5.167-2.445-7.792c-0.399-1.47-1.201-2.098-2.668-2.279
		c-3.022-0.374-6.032-0.86-9.042-1.326c-19.447-3.007-38.569-7.297-56.958-14.467c-6.438-2.51-12.628-5.526-18.445-9.272
		c-4.822-3.104-9.166-6.755-12.73-11.285c-2.266-2.88-3.452-6.083-3.301-9.801c0.118-2.918,1.101-5.477,2.751-7.818
		c1.876-2.661,4.297-4.754,6.988-6.547c3.144-2.095,6.483-3.834,9.925-5.381c6.959-3.126,14.203-5.458,21.497-7.634
		c11.987-3.575,24.149-6.444,36.438-8.757c9.687-1.824,19.391-3.556,29.087-5.33c0.158-0.029,0.313-0.081,0.472-0.093
		c1.869-0.152,2.971-1.115,3.719-2.88c1.342-3.169,2.866-6.268,4.437-9.333c4.322-8.433,9.302-16.472,14.701-24.255
		c0.32-0.462,0.692-0.895,0.953-1.388c0.325-0.615,0.265-1.247-0.213-1.788c-0.212-0.24-0.458-0.449-0.692-0.669
		c-18.503-17.339-37.006-34.678-55.509-52.018c-0.234-0.219-0.415-0.555-0.688-0.659c-0.495-0.188-1.038-0.301-1.566-0.333
		c-0.294-0.018-0.613,0.167-0.902,0.303c-5.621,2.641-11.585,3.629-17.742,3.765c-8.37,0.184-16.214-1.678-23.503-5.843
		c-10.127-5.785-16.334-14.449-18.944-25.745c-1.143-4.948-1.634-9.976-1.416-15.051c0.248-5.745,1.46-11.283,3.958-16.49
		c2.703-5.634,6.695-10.159,11.961-13.524c4.572-2.921,9.534-4.906,14.866-5.94c2.785-0.541,3.014-0.622,3.708-3.339
		c1.388-5.433,3.793-10.373,6.972-14.955c6.392-9.213,14.992-15.25,25.923-17.884c5.639-1.359,11.306-1.406,16.901,0.135
		c8.611,2.372,16.123,6.676,22.179,13.312c5.226,5.726,8.274,12.534,9.554,20.141c1.274,7.579,0.435,15.024-1.613,22.371
		c-0.279,1-0.589,2.002-0.999,2.954c-0.445,1.032-0.208,1.875,0.477,2.657c0.369,0.421,0.773,0.814,1.18,1.201
		c18.784,17.86,37.57,35.718,56.359,53.573c0.572,0.543,1.183,1.044,1.886,1.664c0.825-0.505,1.576-0.934,2.295-1.411
		c12.896-8.551,26.643-15.364,41.314-20.302c9.437-3.176,19.072-5.526,28.902-7.124c12.561-2.042,25.202-2.666,37.898-2.247
		c25.527,0.842,50.049,6.136,73.357,16.734c8.116,3.69,15.908,7.966,23.398,12.795c0.73,0.471,1.48,0.91,2.054,1.261
		c1.234-0.167,1.74-0.952,2.351-1.562c4.539-4.541,9.056-9.104,13.595-13.646c13.163-13.171,26.333-26.336,39.5-39.504
		c0.397-0.397,0.771-0.822,1.196-1.187c1.452-1.243,1.771-2.648,1.125-4.508c-1.503-4.329-2.47-8.794-2.81-13.377
		c-1.016-13.698,2.923-25.497,13.397-34.758c5.304-4.689,11.267-8.259,18.198-9.914c11.292-2.696,21.843-0.86,31.399,5.802
		c9.628,6.712,16.216,15.649,19.066,27.139c0.428,1.721,1.274,2.599,3.001,2.911c3.559,0.643,7.006,1.7,10.303,3.202
		c10.916,4.973,17.622,13.314,20.013,25.088c1.807,8.899,1.485,17.682-1.386,26.346c-4.389,13.25-13.323,21.808-26.599,25.922
		c-6.289,1.949-12.726,2.569-19.266,1.946c-3.765-0.359-7.417-1.28-10.942-2.672c-0.521-0.206-1.074-0.359-1.558-0.633
		c-1.748-0.99-3.035-0.532-4.468,0.851c-17.438,16.828-34.935,33.596-52.418,50.377c-0.801,0.769-1.627,1.511-2.536,2.354
		c0.703,1.05,1.369,2.036,2.026,3.027c5.682,8.569,10.856,17.417,14.701,26.983c0.925,2.3,1.846,4.63,2.437,7.028
		c0.482,1.957,1.558,2.79,3.414,3.118c3.632,0.643,7.245,1.388,10.863,2.101c14.942,2.946,29.791,6.267,44.28,11.036
		c12.204,4.017,24.07,8.834,35.298,15.115c4.687,2.621,9.225,5.507,13.869,8.205c4.145,2.407,5.385,6.159,5.053,10.631
		c-0.216,2.905-1.643,5.119-4.13,6.693c-4.418,2.796-9.088,5.085-13.894,7.118c-12.855,5.439-26.043,9.95-39.428,13.866
		c-14.144,4.139-28.351,8.06-42.536,12.056c-3.823,1.077-3.967,1.186-4.753,5.047c-3.552,17.435-9.063,34.209-16.913,50.195
		c-3.894,7.932-8.375,15.518-13.347,22.817C455.127,492.117,454.625,492.928,454.051,493.815z M473.365,390.211
		c-0.353-0.238-0.593-0.465-0.877-0.581c-1.409-0.573-2.833-1.109-4.247-1.669c-14.983-5.935-30.207-11.116-45.895-14.886
		c-10.913-2.623-21.893-4.892-32.994-6.549c-4.836-0.723-9.675-1.43-14.525-2.035c-5.171-0.645-10.352-1.227-15.54-1.712
		c-5.03-0.47-10.076-0.766-15.113-1.17c-8.96-0.718-17.942-0.989-26.924-1.107c-8.178-0.107-16.364-0.031-24.541,0.193
		c-9.379,0.257-18.762,0.617-28.125,1.212c-8.321,0.529-16.626,1.354-24.922,2.208c-7.256,0.747-14.51,1.574-21.728,2.621
		c-8.485,1.23-16.941,2.669-25.389,4.135c-13.743,2.385-27.325,5.502-40.741,9.319c-7.169,2.04-14.251,4.344-21.013,7.526
		c-0.779,0.367-1.518,0.82-2.346,1.272c0.086,0.847,0.106,1.563,0.239,2.258c0.287,1.495,0.616,2.981,0.955,4.465
		c4.86,21.28,12.385,41.581,22.458,60.937c9.506,18.268,21.218,34.931,35.962,49.389c11.719,11.49,24.836,21.002,39.605,28.21
		c20.144,9.83,41.54,14.425,63.826,15.241c8.585,0.314,17.159-0.001,25.725-0.744c8.396-0.729,16.729-1.824,25.003-3.428
		c12.628-2.446,24.885-6.108,36.698-11.203c21.12-9.108,39.252-22.289,54.135-39.871c11.715-13.84,20.646-29.327,27.269-46.173
		c4.97-12.642,8.645-25.658,10.934-39.04c0.931-5.446,1.433-10.966,2.099-16.455C473.446,391.795,473.365,390.995,473.365,390.211z
		 M113.236,397.472c-0.164-1.156-0.256-1.938-0.386-2.713c-0.424-2.528-0.923-5.045-1.278-7.583
		c-0.497-3.553,0.757-6.498,3.504-8.735c1.421-1.157,2.965-2.2,4.564-3.095c8.021-4.49,16.644-7.518,25.413-10.117
		c18.777-5.564,37.939-9.444,57.254-12.538c10.287-1.647,20.623-3.022,30.97-4.238c8.838-1.039,17.715-1.809,26.592-2.454
		c8.799-0.64,17.615-1.149,26.432-1.403c14.999-0.432,30.002-0.468,45.003,0.18c8.097,0.349,16.181,0.811,24.259,1.465
		c7.755,0.628,15.486,1.447,23.204,2.43c9.146,1.166,18.244,2.616,27.303,4.33c17.108,3.237,33.938,7.532,50.43,13.13
		c10.556,3.583,20.908,7.68,31.011,12.4c2.426,1.133,2.725,1.66,2.588,4.269c-0.218,4.165-0.455,8.329-0.674,12.494
		c-0.021,0.384,0.035,0.771,0.056,1.172c0.921,0.203,1.665-0.085,2.43-0.303c5.394-1.536,10.797-3.035,16.186-4.585
		c12.318-3.542,24.689-6.92,36.805-11.12c6.886-2.387,13.667-5.072,20.481-7.661c0.932-0.354,1.944-0.641,2.711-1.349
		c-0.164-0.248-0.219-0.412-0.332-0.487c-0.4-0.266-0.809-0.524-1.235-0.744c-8.41-4.332-16.891-8.496-25.764-11.836
		c-20.869-7.855-42.479-12.765-64.426-16.349c-5.694-0.93-11.408-1.75-17.122-2.558c-5.556-0.786-11.116-1.55-16.687-2.213
		c-5.175-0.616-10.365-1.114-15.553-1.614c-6.307-0.607-12.612-1.23-18.928-1.722c-7.037-0.548-14.082-1.007-21.129-1.412
		c-9.45-0.543-18.904-1.028-28.359-1.479c-6.091-0.29-12.186-0.479-18.278-0.7c-4.971-0.18-9.942-0.33-14.912-0.512
		c-10.262-0.376-20.519-0.885-30.783-1.114c-8.903-0.198-17.815-0.21-26.72-0.072c-7.939,0.123-15.873,0.546-23.808,0.871
		c-3.767,0.154-7.531,0.372-11.295,0.589c-2.563,0.148-5.125,0.321-7.683,0.526c-5.276,0.423-10.552,0.858-15.825,1.32
		c-3.834,0.336-7.667,0.706-11.497,1.09c-5.744,0.577-11.487,1.168-17.229,1.774c-3.428,0.362-6.857,0.73-10.278,1.156
		c-4.295,0.535-8.585,1.118-12.874,1.705c-5.003,0.685-10.007,1.362-15.002,2.106c-5.787,0.862-11.568,1.759-17.342,2.701
		c-7.039,1.149-14.087,2.256-21.096,3.571c-10.631,1.994-21.193,4.326-31.667,7.042c-8.067,2.092-16.111,4.259-23.918,7.211
		c-4.882,1.847-9.66,3.91-14.076,6.729c-0.729,0.466-1.602,0.783-1.977,1.877c0.569,0.57,1.164,1.21,1.805,1.8
		c5.085,4.668,11.005,8.011,17.276,10.771c7.127,3.137,14.508,5.568,21.984,7.711c8.943,2.563,18.03,4.513,27.173,6.197
		C104.625,396.139,108.742,396.738,113.236,397.472z M164.99,291.284c0.457,0,0.93,0.085,1.363-0.013
		c8.445-1.896,16.948-3.472,25.504-4.788c8.64-1.329,17.319-2.315,26.017-3.129c5.907-0.553,11.824-1.029,17.746-1.396
		c9.044-0.562,18.091-1.183,27.146-1.44c9.456-0.27,18.917-0.606,28.385-0.295c7.534,0.248,15.076,0.287,22.608,0.571
		c10.658,0.401,21.316,0.848,31.964,1.452c8.806,0.5,17.602,1.18,26.391,1.917c8.388,0.704,16.764,1.553,25.14,2.396
		c6.46,0.65,12.918,1.331,19.364,2.105c8.116,0.975,16.219,2.063,24.329,3.086c0.347,0.044,0.713-0.061,1.373-0.127
		c-0.604-0.888-1.013-1.551-1.483-2.168c-8.403-11.024-17.995-20.897-28.723-29.677c-29.388-24.051-63.263-36.229-100.999-38.141
		c-13.742-0.696-27.419,0.043-40.972,2.491c-15.958,2.883-31.144,8.059-45.534,15.56c-17.311,9.023-32.521,20.799-45.955,34.921
		c-4.427,4.653-8.631,9.499-12.595,14.552C165.583,289.771,164.877,290.286,164.99,291.284z M75.502,623.211
		c0.211,1.559-0.08,2.896-0.21,4.242c-0.495,5.134-0.598,10.254,0.781,15.291c2.321,8.479,7.591,13.9,16.302,15.838
		c4.2,0.935,8.428,1.087,12.677,0.677c1.825-0.177,3.645-0.577,5.424-1.04c8.293-2.161,13.84-7.435,17.052-15.275
		c2.537-6.192,2.982-12.6,1.75-19.129c-0.746-3.952-2.496-7.419-5.416-10.257c-0.803-0.78-1.529-1.646-2.248-2.507
		c-0.343-0.411-0.587-0.905-0.971-1.513c25.448-24.923,50.95-49.653,76.419-74.604c-0.776-0.611-1.402-1.105-2.029-1.597
		c-2.587-2.03-5.221-4.004-7.753-6.1c-7.122-5.896-13.686-12.371-19.815-19.291c-0.568-0.642-1.025-1.437-1.943-1.806
		c-0.856,0.37-1.425,1.055-2.049,1.655c-7.982,7.673-15.959,15.35-23.937,23.026c-15.492,14.91-30.983,29.82-46.479,44.728
		c-0.567,0.545-1.169,1.055-1.815,1.635c-0.804-0.462-1.5-0.84-2.174-1.253c-3.292-2.015-6.72-3.76-10.393-4.954
		c-5.212-1.695-10.503-2.931-16.058-2.221c-6.887,0.88-12.691,3.827-17.217,9.121c-3.349,3.917-5.348,8.517-6.557,13.495
		c-0.443,1.826-0.503,3.666-0.288,5.499c0.357,3.04,1.158,5.971,2.505,8.738c2.639,5.423,6.731,9.529,11.677,12.842
		c5.09,3.409,10.652,5.069,16.836,4.541C71.466,622.831,73.404,622.702,75.502,623.211z M517.683,579.771
		c-0.778-0.716-1.436-1.285-2.055-1.893c-2.176-2.137-4.342-4.283-6.507-6.431c-14.246-14.128-28.49-28.259-42.737-42.385
		c-6.838-6.781-13.681-13.558-20.528-20.329c-0.665-0.658-1.374-1.271-2.106-1.945c-0.945,1.033-1.753,1.922-2.567,2.806
		c-8.355,9.066-17.631,17.068-27.783,24.062c-0.693,0.478-1.569,0.789-1.915,1.604c1.057,0.996,2.072,1.905,3.034,2.867
		c4.483,4.483,8.95,8.983,13.427,13.474c13.429,13.471,26.864,26.936,40.29,40.41c5.324,5.344,10.634,10.703,15.938,16.066
		c0.491,0.497,1.175,0.885,1.216,1.91c-0.304,0.553-0.698,1.242-1.064,1.945c-1.033,1.991-2.176,3.936-3.058,5.991
		c-2.688,6.266-4.271,12.77-3.652,19.651c0.535,5.945,2.788,11.152,6.946,15.487c2.992,3.118,6.611,5.293,10.526,7.048
		c6.254,2.804,12.451,2.642,18.59-0.29c7.89-3.768,13.43-9.72,16.521-17.928c0.825-2.192,1.284-4.439,1.509-6.775
		c0.262-2.733,0.123-5.446,0.02-8.17c-0.029-0.777-0.27-1.604,0.415-2.426c0.365-0.032,0.83-0.133,1.286-0.104
		c2.242,0.139,4.48,0.337,6.723,0.468c5.55,0.324,10.869-0.612,15.877-3.069c5.25-2.577,8.75-6.646,10.329-12.317
		c1.852-6.648,1.791-13.282,0.065-19.956c-2.026-7.835-6.775-13.313-14.072-16.655c-6.177-2.829-12.662-3.373-19.3-2.39
		c-4.744,0.702-8.841,2.728-12.103,6.351C519.998,577.9,518.83,578.756,517.683,579.771z M156.624,274.381
		c1.262-0.562,1.809-1.596,2.524-2.427c7.974-9.256,16.583-17.858,26.125-25.552c-1.107-1.01-2.25-2.017-3.353-3.064
		c-10.876-10.336-21.746-20.679-32.617-31.021c-9.766-9.292-19.534-18.581-29.29-27.883c-0.62-0.591-1.438-1.048-1.654-2.087
		c0.347-0.663,0.736-1.358,1.081-2.075c1.042-2.164,2.216-4.279,3.071-6.516c2.229-5.827,3.491-11.828,2.69-18.123
		c-0.68-5.352-2.835-9.992-6.673-13.805c-3.36-3.338-7.357-5.683-11.828-7.168c-4.321-1.436-8.672-1.364-12.981,0.173
		c-5.614,2.003-10.14,5.477-13.615,10.277c-4.024,5.559-6.376,11.643-5.5,18.678c0.188,1.507,0.181,3.042,0.208,4.565
		c0.009,0.533-0.147,1.07-0.246,1.725c-2.032,0.028-3.942-0.083-5.858-0.25c-5.968-0.52-11.672,0.473-17.026,3.201
		c-4.919,2.505-8.094,6.436-9.455,11.814c-1.303,5.15-1.28,10.334-0.317,15.514c1.723,9.275,6.918,15.675,15.891,18.88
		c5.344,1.91,10.816,2.197,16.362,1.24c4.475-0.772,8.359-2.679,11.379-6.2c0.974-1.136,2.16-2.091,3.347-3.223
		c4.748,4.204,9.166,8.511,13.678,12.714c4.521,4.212,9.017,8.451,13.524,12.677c4.506,4.226,9.015,8.449,13.521,12.675
		c4.505,4.227,8.996,8.47,13.515,12.683C147.629,266.002,152.046,270.296,156.624,274.381z M514.967,209.945
		c1.583,1.521,2.961,2.741,4.219,4.076c2.207,2.344,4.866,3.865,7.937,4.758c6.536,1.902,13.004,1.587,19.372-0.673
		c7.262-2.578,12.172-7.526,14.566-14.896c1.661-5.113,2.118-10.32,1.418-15.667c-1.104-8.425-5.426-14.211-13.557-16.996
		c-4.778-1.636-9.692-2.083-14.704-1.682c-1.119,0.089-2.238,0.201-3.359,0.234c-0.527,0.016-1.059-0.129-1.717-0.218
		c0-0.767-0.017-1.398,0.003-2.028c0.066-2.084,0.229-4.169,0.194-6.252c-0.03-1.833-0.074-3.706-0.455-5.487
		c-2.059-9.638-7.967-16.252-16.636-20.523c-4.241-2.09-8.758-2.435-13.369-1.348c-6.955,1.64-12.328,5.612-16.48,11.311
		c-1.771,2.43-2.794,5.21-3.328,8.168c-0.93,5.144-0.51,10.213,0.801,15.242c1.038,3.98,2.69,7.703,4.629,11.314
		c0.407,0.758,1.072,1.438,0.835,2.586c-0.392,0.418-0.869,0.951-1.372,1.459c-3.333,3.36-6.666,6.721-10.009,10.072
		c-11.221,11.245-22.444,22.485-33.668,33.727c-3.117,3.123-6.223,6.259-9.365,9.356c-3.185,3.139-6.202,6.449-9.609,9.333
		c0.078,0.19,0.102,0.368,0.201,0.47c0.394,0.397,0.793,0.794,1.224,1.15c9.047,7.486,17.371,15.703,24.981,24.645
		c0.338,0.398,0.797,0.693,1.292,1.114C471.015,252.142,492.822,231.102,514.967,209.945z M221.735,614.881
		c0.266,3.719,0.879,6.924,1.689,10.088c3.001,11.724,9.267,21.206,19.401,27.982c4.895,3.273,10.235,5.613,15.82,7.441
		c8.908,2.916,18.109,4.201,27.411,4.655c14.287,0.698,28.539,0.251,42.663-2.29c7.43-1.336,14.683-3.295,21.655-6.226
		c7.472-3.14,14.216-7.373,19.9-13.202c7.604-7.797,11.701-17.287,13.439-27.909c0.035-0.216-0.075-0.456-0.154-0.888
		c-0.793,0.301-1.524,0.554-2.237,0.852c-11.173,4.669-22.599,8.578-34.355,11.506c-10.988,2.735-22.128,4.574-33.414,5.414
		c-8.079,0.601-16.168,0.751-24.277,0.246c-7.535-0.47-15.014-1.31-22.427-2.678c-14.882-2.747-29.177-7.333-42.78-14.008
		C223.435,615.554,222.766,615.313,221.735,614.881z M144.611,322.784c1.224-0.069,1.94-0.068,2.645-0.155
		c4.844-0.598,9.686-1.216,14.529-1.822c1.827-0.229,3.655-0.439,5.482-0.665c3.335-0.413,6.667-0.853,10.005-1.239
		c3.34-0.387,6.686-0.723,10.028-1.082c3.979-0.427,7.954-0.886,11.937-1.272c2.711-0.263,5.433-0.409,8.147-0.634
		c5.027-0.415,10.049-0.901,15.08-1.261c5.354-0.383,10.714-0.687,16.075-0.965c6.802-0.354,13.604-0.797,20.412-0.939
		c15.478-0.321,30.957-0.458,46.433,0.225c6.487,0.286,12.982,0.379,19.472,0.582c3.363,0.105,6.726,0.259,10.089,0.39
		c4.806,0.187,9.611,0.38,14.418,0.558c5.849,0.216,11.697,0.42,17.546,0.629c0.24,0.009,0.481,0.017,0.722,0.031
		c4.317,0.262,8.633,0.543,12.952,0.784c4.161,0.231,8.325,0.408,12.486,0.637c2.399,0.132,4.798,0.292,7.192,0.489
		c4.947,0.407,9.892,0.855,14.838,1.272c4.469,0.377,8.94,0.724,13.409,1.107c1.834,0.157,3.665,0.363,5.495,0.566
		c3.738,0.416,7.476,0.837,11.211,1.271c3.735,0.435,7.467,0.908,11.204,1.323c1.251,0.139,2.516,0.374,3.812,0.099
		c-0.022-0.33,0.028-0.597-0.066-0.794c-1.649-3.472-3.306-6.941-4.986-10.398c-0.533-1.097-1.486-1.633-2.679-1.792
		c-1.507-0.201-3.011-0.422-4.517-0.63c-3.012-0.416-6.022-0.843-9.036-1.237c-3.017-0.394-6.039-0.731-9.055-1.128
		c-4.283-0.564-8.559-1.192-12.845-1.732c-3.335-0.419-6.684-0.732-10.024-1.114c-5.088-0.583-10.171-1.217-15.263-1.767
		c-4.774-0.516-9.556-0.986-14.34-1.41c-5.903-0.524-11.81-1.013-17.719-1.456c-4.953-0.372-9.91-0.702-14.869-0.97
		c-6.642-0.359-13.287-0.651-19.932-0.951c-3.844-0.174-7.688-0.338-11.532-0.451c-6.09-0.179-12.18-0.383-18.272-0.445
		c-6.894-0.07-13.787-0.179-20.685,0.179c-6.563,0.34-13.142,0.372-19.712,0.575c-3.443,0.106-6.887,0.252-10.327,0.45
		c-5.118,0.294-10.235,0.611-15.347,0.994c-4.152,0.311-8.307,0.641-12.441,1.127c-5.561,0.655-11.109,1.429-16.653,2.226
		c-6.414,0.921-12.82,1.893-19.221,2.896c-7.281,1.14-14.426,2.902-21.52,4.874c-2.235,0.622-4.463,1.28-6.668,2
		c-1.633,0.533-3.033,1.399-3.861,3.035c-0.977,1.93-2.066,3.802-3.077,5.716C145.259,321.123,145.03,321.792,144.611,322.784z
		 M253.164,609.614c0.567,0.263,0.974,0.511,1.416,0.644c1.607,0.487,3.22,0.965,4.844,1.394c8.462,2.234,17.08,3.547,25.789,4.305
		c2.314,0.201,4.631,0.386,6.95,0.531c0.604,0.038,1.219-0.097,2.009-0.17c0.099-5.348,0.515-10.521,0.391-15.713
		c-0.009-0.377-0.19-0.749-0.316-1.215c-0.677-0.083-1.296-0.181-1.918-0.23c-2.396-0.192-4.799-0.31-7.189-0.562
		c-9.005-0.948-17.945-2.292-26.733-4.532c-0.521-0.132-1.08-0.115-1.788-0.184c-0.292,0.992-0.632,1.878-0.809,2.794
		C254.979,600.977,253.753,605.201,253.164,609.614z M348.998,593.529c-1.278-0.22-2.494,0.298-3.706,0.602
		c-9.659,2.422-19.495,3.696-29.389,4.617c-1.651,0.154-3.313,0.281-4.979,0.73c-0.104,0.555-0.26,1.017-0.265,1.48
		c-0.045,4.727-0.072,9.454-0.08,14.182c0,0.286,0.201,0.573,0.363,1.006c1.068-0.06,2.104-0.075,3.129-0.184
		c6.053-0.635,12.108-1.269,18.093-2.401c6.449-1.222,12.831-2.731,19.106-4.671c0.616-0.19,1.258-0.292,1.534-0.983
		C351.873,602.815,349.88,595.254,348.998,593.529z M345.255,577.117c-1.143-4.684-2.244-9.266-3.391-13.836
		c-0.234-0.932-0.661-1.181-1.573-1.129c-0.477,0.026-0.946,0.154-1.422,0.219c-4.206,0.574-8.405,1.206-12.62,1.698
		c-3.66,0.428-7.34,0.686-11.009,1.042c-1.255,0.123-2.504,0.318-3.744,0.479c-0.133,0.568-0.295,0.952-0.301,1.338
		c-0.065,4.808-0.117,9.615-0.144,14.423c-0.002,0.445,0.197,0.892,0.295,1.299C317.048,583.137,340.47,579.352,345.255,577.117z
		 M260.44,577.813c0.816,0.226,1.57,0.459,2.334,0.644c5.685,1.371,11.422,2.489,17.219,3.234c4.128,0.53,8.29,0.804,12.438,1.161
		c0.693,0.061,1.446,0.229,2.204-0.469c0.351-3.025-0.06-6.221,0.367-9.393c0.275-2.042,0.023-4.157-0.018-6.239
		c-0.004-0.215-0.188-0.426-0.376-0.825c-1.752-0.12-3.579-0.241-5.406-0.372c-3.515-0.253-7.04-0.417-10.542-0.79
		c-4.219-0.45-8.417-1.096-12.629-1.616c-0.853-0.105-1.744-0.371-2.732,0.18c-1.143,4.303-2.08,8.76-2.96,13.229
		C260.269,576.917,260.396,577.315,260.44,577.813z M368.499,603.183c5.018-2.194,9.852-4.311,14.688-6.421
		c0.888-0.388,1.106-1.092,0.968-1.968c-0.654-4.112-1.307-8.226-1.991-12.334c-0.057-0.343-0.346-0.647-0.543-0.996
		c-5.653,2.312-11.172,4.617-16.793,6.995C366.066,593.429,367.262,598.22,368.499,603.183z M237.467,604.158
		c0.488-1.956,0.913-3.566,1.287-5.189c0.396-1.714,0.789-3.431,1.1-5.162c0.291-1.612,1.036-3.169,0.773-4.921
		c-5.468-2.211-10.858-4.39-16.273-6.579c-0.681,0.841-0.731,1.74-0.871,2.582c-0.38,2.289-0.69,4.59-1.042,6.884
		c-0.109,0.712-0.281,1.413-0.396,2.123c-0.303,1.885,0.031,2.527,1.771,3.476c0.141,0.076,0.276,0.162,0.419,0.234
		c2.93,1.475,5.857,2.955,8.793,4.417C234.381,602.695,235.75,603.333,237.467,604.158z M361.229,572.139
		c3.593-1.01,14.195-5.707,15.788-6.977c0-0.236,0.069-0.5-0.011-0.705c-1.244-3.204-2.496-6.404-3.783-9.591
		c-0.134-0.329-0.504-0.563-0.748-0.822c-4.981,1.518-9.905,2.845-14.896,4.534c0.572,3.934,1.825,7.564,2.624,11.294
		C360.366,570.631,360.435,571.467,361.229,572.139z M228.634,565.966c2.931,1.71,13.931,6.321,15.799,6.611
		c1.201-4.275,2.031-8.65,2.982-13.066c-0.407-0.272-0.703-0.571-1.06-0.694c-4.238-1.461-8.482-2.899-12.732-4.322
		c-0.282-0.095-0.623-0.012-1-0.012c-0.19,0.245-0.46,0.463-0.56,0.74c-1.158,3.241-2.298,6.488-3.417,9.741
		C228.551,565.244,228.634,565.586,228.634,565.966z M193.047,393.291c-19.656,13.837-27.963,39.31-20.447,62.32
		c6.143,18.805,22.687,34.32,45.031,37.011c10.692,1.288,20.912-0.663,30.525-5.604c23.738-12.2,35.525-40.531,26.558-66.612
		c-7.609-22.131-27.877-36.73-50.377-36.75C212.52,383.707,202.245,386.816,193.047,393.291z M388.322,491.858
		c8.329-1.108,15.957-4.097,22.856-8.875c19.801-13.715,28.229-39.085,20.855-62.151c-7.999-25.021-32.798-41.175-59.614-37.003
		c-12.624,1.964-23.276,7.676-31.567,17.329c-12.221,14.229-16.533,30.696-12.517,49.093c5.396,24.708,27.34,42.218,52.569,42.284
		C383.379,492.314,385.863,492.186,388.322,491.858z M303.151,527.688c11.176,0.062,20.39-9.071,20.395-20.322
		c0.007-12.149-9.972-20.548-20.146-20.589c-11.266-0.046-20.537,9.512-20.34,20.342
		C282.717,517.354,291.156,527.621,303.151,527.688z"/>
</g>
</svg>
