<?xml version="1.0" encoding="utf-8"?>
<!-- Generator: Adobe Illustrator 16.0.0, SVG Export Plug-In . SVG Version: 6.00 Build 0)  -->
<!DOCTYPE svg PUBLIC "-//W3C//DTD SVG 1.1//EN" "http://www.w3.org/Graphics/SVG/1.1/DTD/svg11.dtd">
<svg version="1.1" xmlns="http://www.w3.org/2000/svg" xmlns:xlink="http://www.w3.org/1999/xlink" x="0px" y="0px" width="612px"
	 height="792px" viewBox="0 0 612 792" enable-background="new 0 0 612 792" xml:space="preserve">
<g id="White">
	<path fill-rule="evenodd" clip-rule="evenodd" fill="#FEFEFE" d="M153.03,327.17c-0.729,0.451-1.454,0.909-2.189,1.35
		c-6.151,3.683-11.398,8.336-15.16,14.49c-10.16,16.619-8.344,38.574,6.58,52.97c17.304,16.691,44.934,16.632,61.923-0.863
		c19.54-20.122,14.916-52.237-9.189-66.501c-0.85-0.503-1.813-0.86-2.684-1.7c2.348-0.363,177.063-0.403,179.69-0.057
		c-0.479,18.557-4.593,36.272-12.343,53.141c-11.4,24.814-28.463,44.824-51.249,59.888c-44.32,29.298-103.058,30.254-148.337,2.578
		c-49.211-30.079-67.45-80.365-67.493-115.42C94.717,326.588,138.827,326.41,153.03,327.17z M300.119,349.86
		c-5.042,0.058-10.241,1.276-15.216,3.425c-8.376,3.619-14.97,9.481-20.573,16.559c-0.246,0.312-0.454,0.662-0.631,1.018
		c-1.149,2.323-0.521,5.046,1.476,6.448c2.111,1.482,4.699,1.262,6.557-0.604c0.62-0.623,1.142-1.343,1.714-2.013
		c4.373-5.123,9.439-9.355,15.639-12.118c7.442-3.318,14.891-3.325,22.338-0.012c3.165,1.408,6.144,3.15,8.763,5.409
		c2.425,2.091,4.69,4.367,7.027,6.561c0.642,0.602,1.231,1.278,1.941,1.785c1.737,1.242,3.614,1.239,5.441,0.241
		c1.893-1.033,2.583-2.742,2.43-4.85c-0.093-1.265-0.669-2.291-1.488-3.208c-4.672-5.239-9.854-9.865-16.028-13.291
		C313.603,351.935,307.327,349.954,300.119,349.86z M220.43,425.245c-0.042,6.465,4.568,11.844,11.203,12.026
		c5.823,0.161,11.563-4.27,11.689-11.532c0.119-6.811-4.889-11.634-11.074-11.888C225.879,413.59,220.609,418.713,220.43,425.245z
		 M361.304,406.217c4.81-0.195,9.618-0.403,14.427-0.606c1.107-0.047,2.005-0.518,2.716-1.35c0.469-0.548,0.915-1.116,1.367-1.678
		c6.762-8.397,14.15-16.188,22.438-23.1c8.371-6.981,17.478-12.723,27.776-16.463c11.128-4.042,22.521-5.129,34.063-2.444
		c17.538,4.08,31.304,13.867,41.752,28.459c2.894,4.041,5.84,8.052,8.934,11.939c3.863,4.855,8.315,9.132,13.439,12.672
		c2.251,1.555,4.626,2.864,7.239,3.725c2.656,0.875,5.317,1.081,8.038,0.306c6.359-1.813,9.729-7.483,8.244-13.923
		c-0.785-3.406-2.387-6.45-4.238-9.372c-2.805-4.424-6.215-8.369-9.791-12.172c-6.563-6.979-13.89-13.088-21.509-18.866
		c-0.699-0.531-1.427-1.063-1.995-1.72c-1.509-1.748-1.541-4.42-0.167-6.232c1.442-1.902,3.844-2.575,6.014-1.596
		c0.795,0.359,1.542,0.864,2.236,1.399c2.605,2.006,5.216,4.009,7.761,6.091c8.594,7.035,16.572,14.682,23.283,23.581
		c2.909,3.857,5.563,7.847,6.99,12.531c0.692,2.273,2.326,3.59,4.534,4.25c1.86,0.557,3.773,0.728,5.713,0.639
		c4.916-0.224,8.804-3.438,10.037-8.226c0.969-3.761,0.284-7.32-1.206-10.784c-1.756-4.082-4.172-7.764-6.987-11.183
		c-4.864-5.908-10.433-11.106-16.287-16.006c-7.641-6.395-15.829-12.027-24.246-17.34c-0.744-0.469-1.521-0.92-2.162-1.512
		c-1.811-1.674-2.092-4.281-0.771-6.37c1.307-2.065,3.778-2.861,6.096-1.92c0.664,0.269,1.303,0.619,1.914,0.996
		c10.879,6.704,21.216,14.145,30.748,22.675c6.904,6.179,13.215,12.875,18.116,20.798c0.206,0.333,0.468,0.629,0.762,1.021
		c0.966-0.047,1.93-0.029,2.875-0.152c5.43-0.707,9.147-4.701,9.512-10.143c0.213-3.168-0.22-6.235-1.316-9.214
		c-1.844-5.003-4.454-9.583-7.643-13.842c-4.363-5.83-9.697-10.673-15.407-15.135c-10.622-8.3-22.324-14.706-34.739-19.868
		c-0.722-0.3-1.437-0.618-2.304-0.991c0.492-1.143,0.919-2.164,1.369-3.174c2.841-6.373,5.43-12.838,7.182-19.607
		c2.062-7.965,3.343-16.01,2.261-24.271c-1.421-10.838-6.508-19.501-15.447-25.823c-4.974-3.518-10.552-5.722-16.474-7.016
		c-2.262-0.494-4.574-0.699-6.931-0.308c-2.943,0.49-4.702,2.202-5.7,4.885c-0.98,2.638-0.612,5.075,1.254,7.178
		c0.843,0.95,1.891,1.722,2.866,2.552c1.952,1.662,4.028,3.193,5.859,4.978c13.496,13.158,12.878,34.657-0.434,47.118
		c-6.335,5.929-13.609,10.102-21.872,12.601c-10.359,3.132-20.819,3.729-31.294,0.701c-13.748-3.974-22.669-12.829-26.236-26.783
		c-0.75-2.936-1.126-5.987-1.441-9.009c-1.083-10.344,1.073-19.933,7.028-28.553c4.6-6.658,10.901-11.2,18.163-14.573
		c3.633-1.688,7.373-2.473,11.394-2.467c7.058,0.011,14.115-0.253,21.174-0.352c1.82-0.025,3.298-0.656,4.395-2.072
		c3.593-4.636,2.62-10.678-2.251-13.516c-1.239-0.722-2.567-1.313-3.904-1.836c-4.219-1.653-8.676-2.298-13.134-2.781
		c-11.071-1.198-21.938-0.045-32.55,3.313c-11.038,3.492-20.521,9.407-27.836,18.486c-8.268,10.26-12.916,22.092-14.442,35.104
		c-1.202,10.243,0.463,20.125,4.642,29.582c5.804,13.134,14.275,24.283,25.038,33.721c2.592,2.273,5.331,4.377,7.984,6.583
		c0.446,0.372,0.796,0.86,1.354,1.477c-1.663,0.27-3.002,0.479-4.338,0.706c-4.265,0.725-8.565,1.29-12.785,2.217
		c-13.812,3.035-26.257,9.142-37.849,17.12c-1.611,1.109-2.512,2.537-2.997,4.44c-1.266,4.964-2.539,9.936-4.099,14.812
		c-3.703,11.579-8.944,22.46-15.332,32.797c-0.532,0.861-1.278,1.64-1.375,2.723C361.01,406.116,361.159,406.223,361.304,406.217z
		 M156.17,458.889c-1.187,3.233-2.345,6.477-3.504,9.72c-6.504,18.189-10.323,36.852-10.005,56.261
		c0.146,8.936,1.164,17.75,3.298,26.431c3.819,15.53,11.53,28.967,22.164,40.773c11.61,12.893,25.825,21.95,42.015,27.986
		c8.293,3.092,16.878,4.316,25.727,3.835c5.074-0.276,10.018-1.227,14.902-2.54c17.936-4.821,33.131-14.072,44.984-28.439
		c15.612-18.925,23.875-40.777,25.186-65.241c0.521-9.72-0.14-19.39-1.754-29.004c-2.339-13.921-6.714-27.186-12.561-39.996
		c-0.252-0.552-0.585-1.067-0.953-1.729c-9.616,5.268-19.575,9.341-30.139,12.642c0.728,0.907,1.25,1.59,1.806,2.245
		c2.605,3.073,4.796,6.417,6.605,10.017c4.467,8.887,6.504,18.406,7.143,28.24c0.622,9.58-0.248,19.067-2.357,28.437
		c-1.915,8.511-4.942,16.581-9.681,23.939c-8.143,12.646-19.521,20.802-34.149,24.366c-6.434,1.567-12.993,1.904-19.585,1.873
		c-2.657-0.013-5.286-0.272-7.881-0.825c-13.72-2.923-24.323-10.345-31.865-22.15c-3.289-5.149-5.985-10.599-8.125-16.323
		c-4.328-11.579-6.031-23.536-5.408-35.877c0.482-9.561,2.556-18.711,6.479-27.438c2.309-5.138,5.191-9.941,8.532-14.476
		c0.493-0.67,1.211-1.267,1.138-2.286c-10.722-3.293-20.927-7.649-30.836-13.148C156.922,457.148,156.496,458,156.17,458.889z
		 M93.551,316.34c92.669-0.009,185.338-0.023,278.007-0.041c0.067,0,0.137-0.075,0.203-0.118c0.067-0.043,0.132-0.091,0.336-0.232
		c-0.267-8.808-1.404-17.576-3.529-26.376c-3.584,0-7.026,0.014-10.469-0.002c-25.991-0.124-51.982-0.255-77.974-0.379
		c-8.424-0.041-16.848-0.061-25.271-0.102c-25.912-0.125-51.823-0.261-77.734-0.378c-11.793-0.053-23.587-0.061-35.38-0.105
		c-13.959-0.053-27.918-0.125-41.877-0.187c-1.192-0.005-2.384,0-3.719,0c-2.37,9.152-3.463,18.328-3.873,27.802
		C92.929,316.284,93.24,316.34,93.551,316.34z M349.275,244.145c-5.434-8.378-11.771-16.022-18.771-23.135
		c-1.279-1.3-2.643-1.845-4.467-1.854c-14.12-0.066-28.24-0.233-42.361-0.332c-22.626-0.158-45.252-0.301-67.878-0.423
		c-15.567-0.084-31.135-0.106-46.703-0.186c-6.017-0.031-12.033-0.151-18.049-0.216c-3.851-0.042-7.703-0.028-11.553-0.1
		c-1.634-0.03-2.956,0.486-4.069,1.685c-1.037,1.117-2.16,2.152-3.225,3.244c-5.841,5.989-11.097,12.456-15.767,19.396
		c-0.471,0.7-1.209,1.333-0.984,2.438c0.373,0.027,0.756,0.078,1.139,0.082c16.849,0.15,33.697,0.3,50.545,0.442
		c17.57,0.147,35.141,0.291,52.711,0.428c23.348,0.183,46.696,0.358,70.044,0.536c19.737,0.149,39.474,0.297,59.211,0.445
		c0.385,0.003,0.77,0,1.171,0C350.467,245.478,349.73,244.848,349.275,244.145z"/>
</g>
<g id="Orange">
	<path fill-rule="evenodd" clip-rule="evenodd" fill="#FDA81E" d="M314.752,451.677c0.74-0.529,1.433-1.053,2.152-1.534
		c12.217-8.177,23.075-17.865,32.447-29.2c1.397-1.691,3.044-2.688,5.272-2.978c4.756-0.619,9.487-1.423,14.397-2.177
		c-0.106,1.034-0.883,1.223-1.4,1.563c-3.495,2.29-6.839,4.772-9.96,7.557c-10.376,9.259-17.075,20.69-20.28,34.202
		c-1.602,6.755-2.328,13.598-1.895,20.526c0.649,10.372,3.685,19.99,9.559,28.616c5.853,8.594,13.895,14.347,23.673,17.678
		c2.793,0.951,5.723,1.503,8.592,2.229c0.31,0.078,0.633,0.133,0.951,0.139c9.445,0.163,18.765-0.523,27.571-4.354
		c4.611-2.005,8.742-4.714,12.02-8.61c4.01-4.768,6.147-10.33,6.642-16.462c0.708-8.792-0.885-17.255-4.325-25.356
		c-1.773-4.175-4.188-7.963-7.571-11.03c-5.735-5.204-12.598-7.221-20.207-6.632c-6.895,0.533-13.3,2.793-19.338,6.128
		c-1.612,0.89-2.834,2.047-3.2,3.964c-0.688,3.602,2.613,6.777,6.145,5.764c1.37-0.395,2.674-1.071,3.953-1.726
		c3.012-1.544,6.121-2.815,9.457-3.431c2.68-0.494,5.352-0.835,8.118-0.394c4.007,0.64,7.228,2.495,9.79,5.58
		c1.551,1.866,2.761,3.952,3.664,6.189c2.458,6.094,3.791,12.41,3.448,19.012c-0.228,4.351-1.479,8.347-4.333,11.742
		c-1.569,1.867-3.472,3.319-5.575,4.526c-3.879,2.227-8.069,3.583-12.485,4.084c-3.979,0.452-7.987,0.681-11.99,0.858
		c-1.42,0.063-2.919-0.109-4.279-0.518c-10.095-3.031-18.467-8.445-24.007-17.685c-2.633-4.39-4.237-9.162-5.127-14.166
		c-0.702-3.949-1.088-7.946-1.021-11.969c0.229-13.609,4.941-25.521,13.632-35.92c7.813-9.348,17.686-15.438,29.429-18.542
		c5.072-1.341,10.154-1.349,15.186,0.188c8.505,2.599,16.429,6.385,23.51,11.816c10.321,7.917,17.188,18.248,21.236,30.534
		c3.227,9.795,4.447,19.855,3.767,30.123c-0.372,5.598-1.088,11.162-2.702,16.578c-2.771,9.294-7.834,17.155-14.736,23.891
		c-10.443,10.19-23.065,16.346-37.048,19.95c-8.751,2.256-17.653,3.298-26.688,2.868c-8.126-0.387-16.08-1.711-23.713-4.7
		c-6.069-2.377-11.298-6.012-16.113-10.325c-0.989-0.887-1.329-1.946-1.181-3.234c0.22-1.911,0.427-3.824,0.595-5.74
		c0.631-7.208,0.585-14.414,0.018-21.626c-1.448-18.423-6.463-35.901-13.852-52.761
		C316.211,455.232,315.526,453.527,314.752,451.677z M132.691,499.627c-2.923,3.758-6.28,7.079-10.068,9.96
		c-7.589,5.772-16.143,9.456-25.37,11.67c-7.599,1.823-15.234,2.087-22.884,0.392c-5.192-1.15-9.833-3.438-13.643-7.209
		c-4.889-4.839-7.273-10.847-7.981-17.593c-0.473-4.499-0.089-8.972,0.583-13.418c0.745-4.929,1.909-9.746,4.096-14.271
		c5.356-11.082,14.258-16.604,26.487-16.64c6.24-0.018,12.234,1.453,17.945,3.997c0.51,0.227,1.024,0.479,1.473,0.807
		c1.744,1.277,2.426,3.523,1.738,5.583c-0.708,2.119-2.5,3.51-4.717,3.394c-1.086-0.058-2.191-0.42-3.218-0.821
		c-4.683-1.825-9.487-2.899-14.547-2.731c-7.063,0.234-12.194,3.435-15.357,9.778c-4.025,8.072-5.307,16.554-3.987,25.474
		c0.862,5.82,4.014,9.841,9.276,12.273c3.164,1.463,6.497,2.262,10.001,2.301c11.135,0.123,21.397-2.784,30.699-8.923
		c4.647-3.066,8.876-6.604,12.078-11.25c2.708-3.93,4.353-8.25,4.44-13.015c0.132-7.135,0.189-14.275-0.844-21.376
		c-0.894-6.141-2.357-12.114-4.965-17.762c-3.168-6.859-7.73-12.552-14.294-16.457c-1.924-1.145-3.936-2.167-5.983-3.073
		c-9.97-4.411-20.304-5.754-31.01-3.382c-17.905,3.968-32.498,13.226-43.95,27.535c-11.638,14.54-16.373,31-13.903,49.472
		c1.389,10.384,4.898,20.049,10.213,29.068c4.067,6.901,8.98,13.086,15.286,18.098c10.424,8.283,22.5,12.042,35.6,12.907
		c7.718,0.511,15.388-0.049,22.99-1.474c9.976-1.868,19.604-4.806,28.641-9.5c1.98-1.029,3.885-2.204,5.914-3.363
		c-1.48-13.997-1.151-27.826,0.302-41.725C133.384,498.777,133.028,499.194,132.691,499.627z"/>
</g>
<g id="Pink">
	<path fill-rule="evenodd" clip-rule="evenodd" fill="#F485B6" d="M227.065,476.003c0,34.052,0,68.116,0,102.322
		c-1.839,0.528-3.741,0.259-5.606-0.031c-10.958-1.699-19.509-7.306-26.035-16.16c-4.035-5.476-6.813-11.568-8.962-17.991
		c-2.87-8.577-4.57-17.357-4.479-26.412c0.157-15.582,4.908-29.596,14.672-41.828c0.4-0.501,0.835-0.976,1.223-1.485
		c1.188-1.56,2.574-2.03,4.612-1.596c7.138,1.522,14.364,2.489,21.674,2.708c0.719,0.021,1.438,0.101,2.152,0.187
		C226.542,475.743,226.755,475.88,227.065,476.003z M237.65,478.591c0,23.35,0,46.699,0,70.049c0,8.827-0.007,17.653,0.012,26.479
		c0.002,0.84-0.229,1.739,0.392,2.679c1.409-0.256,2.836-0.441,4.228-0.778c10.589-2.56,19.34-7.988,25.905-16.763
		c5.171-6.913,8.464-14.703,10.433-23.058c2.318-9.833,3.021-19.788,2.012-29.859c-0.692-6.918-2.371-13.564-5.311-19.873
		c-2.334-5.009-5.551-9.354-9.732-12.999c-1.452-1.267-2.997-1.782-4.863-1.409c-0.314,0.063-0.633,0.107-0.951,0.146
		c-6.283,0.773-12.564,1.547-18.847,2.315c-1.024,0.125-2.05,0.225-3.278,0.357C237.65,476.854,237.65,477.722,237.65,478.591z"/>
</g>
<g id="Blue">
	<path fill-rule="evenodd" clip-rule="evenodd" fill="#0569BD" d="M365.833,279.435c-1.031,0-1.824,0.002-2.617,0
		c-15.166-0.034-30.332-0.041-45.498-0.108c-25.833-0.114-51.665-0.271-77.497-0.4c-8.265-0.041-16.53-0.039-24.795-0.077
		c-30.406-0.143-60.812-0.293-91.218-0.44c-3.45-0.017-6.901-0.002-10.351-0.045c-4.408-0.055-8.816-0.149-13.224-0.242
		c-0.382-0.008-0.762-0.133-1.332-0.239c0.145-0.784,0.185-1.502,0.412-2.155c2.209-6.367,4.839-12.556,7.812-18.605
		c0.859-1.749,2.073-2.392,4.005-2.372c12.116,0.125,24.232,0.143,36.348,0.232c19.653,0.144,39.306,0.322,58.959,0.475
		c21.579,0.168,43.158,0.32,64.736,0.484c20.616,0.157,41.232,0.307,61.849,0.487c7.377,0.064,14.753,0.208,22.13,0.321
		c0.315,0.004,0.631,0.068,1.088,0.121C360.426,263.987,363.428,271.453,365.833,279.435z M151.498,207.732
		c7.376,0.111,14.751,0.261,22.127,0.318c23.503,0.182,47.006,0.34,70.509,0.484c10.35,0.064,20.701,0.066,31.051,0.109
		c9.628,0.04,19.256,0.08,28.884,0.152c3.445,0.025,6.889,0.158,10.334,0.209c0.395,0.006,0.792-0.193,1.333-0.334
		c-47.791-38.398-121.467-36.141-165.262-1.061C151.031,207.677,151.264,207.729,151.498,207.732z"/>
</g>
<g id="Yellow">
	<path fill-rule="evenodd" clip-rule="evenodd" fill="#FDF841" d="M526.031,502.634c0.563,0.975,1.021,1.698,1.412,2.456
		c2.733,5.287,5.887,10.297,9.717,14.867c3.941,4.705,8.463,8.762,13.54,12.205c0.463,0.313,0.911,0.648,1.359,0.983
		c0.057,0.042,0.07,0.142,0.199,0.421c-5.731,4.014-11.198,8.424-15.804,13.801c-4.565,5.329-8.198,11.267-11.403,17.552
		c-0.913-0.226-0.978-1.057-1.263-1.625c-2.459-4.884-5.294-9.528-8.662-13.84c-4.38-5.604-9.48-10.443-15.372-14.439
		c-0.509-0.346-1.004-0.71-1.73-1.226c6.229-3.809,11.716-8.183,16.427-13.498C519.1,515.044,522.793,509.172,526.031,502.634z"/>
</g>
<g id="Black">
	<path fill-rule="evenodd" clip-rule="evenodd" fill="#030202" d="M590.666,384.633c0.123,0.828,0.244,1.524,0.329,2.226
		c0.976,8.062-0.896,15.135-7.222,20.637c-3.575,3.109-7.73,4.786-12.479,4.974c-3.061,0.121-6.081-0.198-9.201-0.92
		c-0.316,0.806-0.583,1.545-0.892,2.266c-3.333,7.797-9.042,12.72-17.472,14.203c-4.443,0.781-8.774,0.118-12.979-1.502
		c-4.234-1.633-8.006-4.026-11.528-6.848c-5.99-4.797-11.085-10.452-15.741-16.515c-2.394-3.116-4.694-6.305-7.017-9.476
		c-5.336-7.284-11.755-13.368-19.766-17.63c-9.49-5.048-19.597-7.438-30.362-6.508c-6.207,0.537-12.061,2.458-17.712,5.04
		c-7.719,3.526-14.65,8.252-21.082,13.749c-6.18,5.281-11.697,11.212-17.021,17.333c-0.402,0.463-0.702,1.017-1.227,1.788
		c1.667,0.265,3.067,0.701,4.457,0.672c7.768-0.165,15.107,1.589,22.149,4.738c9.458,4.229,18.005,9.812,25.302,17.22
		c9.229,9.37,15.187,20.565,18.482,33.233c2.608,10.024,3.53,20.228,2.805,30.538c-0.762,10.82-3.223,21.216-8.61,30.769
		c-5.137,9.11-12.209,16.451-20.624,22.56c-11,7.985-23.257,13.101-36.512,15.92c-8.271,1.76-16.63,2.678-25.089,2.336
		c-10.651-0.431-21.022-2.243-30.818-6.671c-3.811-1.722-7.405-3.814-10.796-6.26c-0.646-0.466-1.298-0.925-2.135-1.521
		c-0.249,0.675-0.5,1.218-0.653,1.787c-3.172,11.831-7.688,23.105-14.077,33.578c-11.031,18.082-26.421,31.192-45.679,39.877
		c-7.491,3.379-15.247,5.876-23.377,7.089c-12.523,1.868-24.873,0.88-36.754-3.444c-28.398-10.335-49.937-28.686-63.811-55.712
		c-3.343-6.512-5.651-13.427-7.475-20.506c-0.217-0.841-0.47-1.673-0.751-2.667c-0.75,0.348-1.398,0.623-2.024,0.942
		c-9.397,4.799-19.259,8.239-29.601,10.37c-9.724,2.003-19.532,2.898-29.423,2.173c-15.057-1.104-28.855-5.732-40.763-15.307
		c-7.162-5.759-12.732-12.861-17.383-20.722c-6.419-10.847-10.259-22.544-11.657-35.082c-2.023-18.144,2.208-34.639,12.472-49.715
		c13.19-19.375,31.365-31.298,54.077-36.426c9.329-2.105,18.655-1.438,27.854,1.066c2.084,0.567,4.135,1.26,6.203,1.886
		c0.438,0.133,0.887,0.228,1.535,0.392c-0.177-1.116-0.79-1.744-1.249-2.431c-5.767-8.618-10.696-17.683-14.66-27.273
		c-4.518-10.933-7.679-22.237-9.646-33.901c-2.026-12.011-2.615-24.093-1.707-36.212c2.844-37.941,17.536-70.591,44.102-97.864
		c20.094-20.628,44.188-34.26,72.12-41.142c14.103-3.475,28.429-5.092,42.938-4.41c35.439,1.667,66.691,14.05,93.556,37.246
		c15.602,13.472,28.119,29.411,37.287,47.922c6.335,12.788,10.7,26.227,13.36,40.241c1.996,10.52,2.97,21.123,2.711,31.825
		c-0.092,3.765-0.461,7.523-0.703,11.285c-0.051,0.793-0.1,1.586-0.168,2.652c0.74-0.298,1.302-0.484,1.827-0.741
		c5.037-2.457,10.001-5.076,15.121-7.344c4.091-1.813,8.37-3.199,12.563-4.782c0.816-0.308,1.619-0.653,2.67-1.078
		c-0.804-0.904-1.476-1.669-2.158-2.427c-7.68-8.519-14.091-17.867-18.666-28.427c-2.626-6.063-4.523-12.333-5.436-18.879
		c-0.689-4.951-0.681-9.918-0.077-14.883c0.883-7.263,2.353-14.39,4.907-21.265c6.166-16.6,17.268-28.859,32.769-37.251
		c7.404-4.009,15.308-6.472,23.609-7.769c7.889-1.232,15.811-1.518,23.754-0.849c5.193,0.437,10.351,1.182,15.341,2.798
		c3.305,1.07,6.381,2.572,9.14,4.704c4.242,3.278,6.571,7.575,6.933,12.93c0.017,0.24,0.03,0.479,0.057,0.718
		c0.008,0.073,0.053,0.142,0.17,0.434c0.669,0.045,1.444,0.136,2.22,0.142c6.642,0.05,13.072,1.164,19.229,3.73
		c11.552,4.818,20.429,12.522,25.814,23.965c2.874,6.107,4.225,12.602,4.504,19.31c0.412,9.902-1.506,19.463-4.506,28.839
		c-0.732,2.287-1.6,4.531-2.4,6.796c-0.289,0.818-0.564,1.641-0.875,2.548c0.677,0.358,1.222,0.662,1.779,0.94
		c9.995,4.975,19.612,10.566,28.396,17.501c7.151,5.646,13.701,11.882,18.832,19.478c3.609,5.346,6.56,11.015,8.167,17.307
		c1.108,4.336,1.322,8.77,0.419,13.117c-1.622,7.811-6.533,12.833-14.018,15.401C593.439,383.879,592.195,384.188,590.666,384.633z
		 M153.03,327.17c-14.203-0.76-58.313-0.582-60.45-0.125c0.043,35.055,18.282,85.341,67.493,115.42
		c45.279,27.676,104.018,26.72,148.337-2.578c22.786-15.063,39.849-35.073,51.249-59.888c7.75-16.869,11.863-34.584,12.343-53.141
		c-2.627-0.346-177.342-0.306-179.69,0.057c0.871,0.84,1.833,1.197,2.684,1.7c24.105,14.264,28.729,46.379,9.189,66.501
		c-16.989,17.495-44.62,17.554-61.923,0.863c-14.924-14.396-16.74-36.352-6.58-52.97c3.762-6.153,9.009-10.807,15.16-14.49
		C151.576,328.079,152.3,327.621,153.03,327.17z M360.802,406.038c0.208,0.078,0.357,0.185,0.502,0.179
		c4.81-0.195,9.618-0.403,14.427-0.606c1.107-0.047,2.005-0.518,2.716-1.35c0.469-0.548,0.915-1.116,1.367-1.678
		c6.762-8.397,14.15-16.188,22.438-23.1c8.371-6.981,17.478-12.723,27.776-16.463c11.128-4.042,22.521-5.129,34.063-2.444
		c17.538,4.08,31.304,13.867,41.752,28.459c2.894,4.041,5.84,8.052,8.934,11.939c3.863,4.855,8.315,9.132,13.439,12.672
		c2.251,1.555,4.626,2.864,7.239,3.725c2.656,0.875,5.317,1.081,8.038,0.306c6.359-1.813,9.729-7.483,8.244-13.923
		c-0.785-3.406-2.387-6.45-4.238-9.372c-2.805-4.424-6.215-8.369-9.791-12.172c-6.563-6.979-13.89-13.088-21.509-18.866
		c-0.699-0.531-1.427-1.063-1.995-1.72c-1.509-1.748-1.541-4.42-0.167-6.232c1.442-1.902,3.844-2.575,6.014-1.596
		c0.795,0.359,1.542,0.864,2.236,1.399c2.605,2.006,5.216,4.009,7.761,6.091c8.594,7.035,16.572,14.682,23.283,23.581
		c2.909,3.857,5.563,7.847,6.99,12.531c0.692,2.273,2.326,3.59,4.534,4.25c1.86,0.557,3.773,0.728,5.713,0.639
		c4.916-0.224,8.804-3.438,10.037-8.226c0.969-3.761,0.284-7.32-1.206-10.784c-1.756-4.082-4.172-7.764-6.987-11.183
		c-4.864-5.908-10.433-11.106-16.287-16.006c-7.641-6.395-15.829-12.027-24.246-17.34c-0.744-0.469-1.521-0.92-2.162-1.512
		c-1.811-1.674-2.092-4.281-0.771-6.37c1.307-2.065,3.778-2.861,6.096-1.92c0.664,0.269,1.303,0.619,1.914,0.996
		c10.879,6.704,21.216,14.145,30.748,22.675c6.904,6.179,13.215,12.875,18.116,20.798c0.206,0.333,0.468,0.629,0.762,1.021
		c0.966-0.047,1.93-0.029,2.875-0.152c5.43-0.707,9.147-4.701,9.512-10.143c0.213-3.168-0.22-6.235-1.316-9.214
		c-1.844-5.003-4.454-9.583-7.643-13.842c-4.363-5.83-9.697-10.673-15.407-15.135c-10.622-8.3-22.324-14.706-34.739-19.868
		c-0.722-0.3-1.437-0.618-2.304-0.991c0.492-1.143,0.919-2.164,1.369-3.174c2.841-6.373,5.43-12.838,7.182-19.607
		c2.062-7.965,3.343-16.01,2.261-24.271c-1.421-10.838-6.508-19.501-15.447-25.823c-4.974-3.518-10.552-5.722-16.474-7.016
		c-2.262-0.494-4.574-0.699-6.931-0.308c-2.943,0.49-4.702,2.202-5.7,4.885c-0.98,2.638-0.612,5.075,1.254,7.178
		c0.843,0.95,1.891,1.722,2.866,2.552c1.952,1.662,4.028,3.193,5.859,4.978c13.496,13.158,12.878,34.657-0.434,47.118
		c-6.335,5.929-13.609,10.102-21.872,12.601c-10.359,3.132-20.819,3.729-31.294,0.701c-13.748-3.974-22.669-12.829-26.236-26.783
		c-0.75-2.936-1.126-5.987-1.441-9.009c-1.083-10.344,1.073-19.933,7.028-28.553c4.6-6.658,10.901-11.2,18.163-14.573
		c3.633-1.688,7.373-2.473,11.394-2.467c7.058,0.011,14.115-0.253,21.174-0.352c1.82-0.025,3.298-0.656,4.395-2.072
		c3.593-4.636,2.62-10.678-2.251-13.516c-1.239-0.722-2.567-1.313-3.904-1.836c-4.219-1.653-8.676-2.298-13.134-2.781
		c-11.071-1.198-21.938-0.045-32.55,3.313c-11.038,3.492-20.521,9.407-27.836,18.486c-8.268,10.26-12.916,22.092-14.442,35.104
		c-1.202,10.243,0.463,20.125,4.642,29.582c5.804,13.134,14.275,24.283,25.038,33.721c2.592,2.273,5.331,4.377,7.984,6.583
		c0.446,0.372,0.796,0.86,1.354,1.477c-1.663,0.27-3.002,0.479-4.338,0.706c-4.265,0.725-8.565,1.29-12.785,2.217
		c-13.812,3.035-26.257,9.142-37.849,17.12c-1.611,1.109-2.512,2.537-2.997,4.44c-1.266,4.964-2.539,9.936-4.099,14.812
		c-3.703,11.579-8.944,22.46-15.332,32.797C361.645,404.177,360.898,404.955,360.802,406.038z M314.752,451.677
		c0.774,1.851,1.459,3.556,2.196,5.238c7.389,16.859,12.403,34.338,13.852,52.761c0.567,7.212,0.613,14.418-0.018,21.626
		c-0.168,1.916-0.375,3.829-0.595,5.74c-0.148,1.288,0.191,2.348,1.181,3.234c4.815,4.313,10.044,7.948,16.113,10.325
		c7.633,2.989,15.587,4.313,23.713,4.7c9.034,0.43,17.937-0.612,26.688-2.868c13.982-3.604,26.604-9.76,37.048-19.95
		c6.902-6.735,11.965-14.597,14.736-23.891c1.614-5.416,2.33-10.98,2.702-16.578c0.681-10.268-0.54-20.328-3.767-30.123
		c-4.048-12.286-10.915-22.617-21.236-30.534c-7.081-5.432-15.005-9.218-23.51-11.816c-5.031-1.537-10.113-1.529-15.186-0.188
		c-11.743,3.104-21.616,9.194-29.429,18.542c-8.69,10.398-13.403,22.311-13.632,35.92c-0.067,4.022,0.318,8.02,1.021,11.969
		c0.89,5.004,2.494,9.776,5.127,14.166c5.54,9.239,13.912,14.653,24.007,17.685c1.36,0.408,2.859,0.581,4.279,0.518
		c4.003-0.178,8.012-0.406,11.99-0.858c4.416-0.501,8.606-1.857,12.485-4.084c2.104-1.207,4.006-2.659,5.575-4.526
		c2.854-3.396,4.105-7.392,4.333-11.742c0.343-6.602-0.99-12.918-3.448-19.012c-0.903-2.237-2.113-4.323-3.664-6.189
		c-2.563-3.085-5.783-4.94-9.79-5.58c-2.767-0.441-5.438-0.101-8.118,0.394c-3.336,0.615-6.445,1.887-9.457,3.431
		c-1.279,0.654-2.583,1.331-3.953,1.726c-3.531,1.014-6.833-2.162-6.145-5.764c0.366-1.917,1.588-3.074,3.2-3.964
		c6.038-3.335,12.443-5.595,19.338-6.128c7.609-0.589,14.472,1.428,20.207,6.632c3.383,3.067,5.798,6.855,7.571,11.03
		c3.44,8.102,5.033,16.564,4.325,25.356c-0.494,6.132-2.632,11.694-6.642,16.462c-3.277,3.896-7.408,6.605-12.02,8.61
		c-8.807,3.83-18.126,4.517-27.571,4.354c-0.318-0.006-0.642-0.061-0.951-0.139c-2.869-0.727-5.799-1.278-8.592-2.229
		c-9.778-3.331-17.82-9.084-23.673-17.678c-5.874-8.626-8.909-18.244-9.559-28.616c-0.434-6.929,0.293-13.771,1.895-20.526
		c3.205-13.512,9.904-24.943,20.28-34.202c3.121-2.784,6.465-5.267,9.96-7.557c0.518-0.34,1.294-0.528,1.4-1.563
		c-4.91,0.754-9.642,1.558-14.397,2.177c-2.229,0.29-3.875,1.286-5.272,2.978c-9.372,11.335-20.23,21.023-32.447,29.2
		C316.185,450.624,315.492,451.147,314.752,451.677z M133.731,498.354c-0.347,0.424-0.703,0.841-1.04,1.273
		c-2.923,3.758-6.28,7.079-10.068,9.96c-7.589,5.772-16.143,9.456-25.37,11.67c-7.599,1.823-15.234,2.087-22.884,0.392
		c-5.192-1.15-9.833-3.438-13.643-7.209c-4.889-4.839-7.273-10.847-7.981-17.593c-0.473-4.499-0.089-8.972,0.583-13.418
		c0.745-4.929,1.909-9.746,4.096-14.271c5.356-11.082,14.258-16.604,26.487-16.64c6.24-0.018,12.234,1.453,17.945,3.997
		c0.51,0.227,1.024,0.479,1.473,0.807c1.744,1.277,2.426,3.523,1.738,5.583c-0.708,2.119-2.5,3.51-4.717,3.394
		c-1.086-0.058-2.191-0.42-3.218-0.821c-4.683-1.825-9.487-2.899-14.547-2.731c-7.063,0.234-12.194,3.435-15.357,9.778
		c-4.025,8.072-5.307,16.554-3.987,25.474c0.862,5.82,4.014,9.841,9.276,12.273c3.164,1.463,6.497,2.262,10.001,2.301
		c11.135,0.123,21.397-2.784,30.699-8.923c4.647-3.066,8.876-6.604,12.078-11.25c2.708-3.93,4.353-8.25,4.44-13.015
		c0.132-7.135,0.189-14.275-0.844-21.376c-0.894-6.141-2.357-12.114-4.965-17.762c-3.168-6.859-7.73-12.552-14.294-16.457
		c-1.924-1.145-3.936-2.167-5.983-3.073c-9.97-4.411-20.304-5.754-31.01-3.382c-17.905,3.968-32.498,13.226-43.95,27.535
		c-11.638,14.54-16.373,31-13.903,49.472c1.389,10.384,4.898,20.049,10.213,29.068c4.067,6.901,8.98,13.086,15.286,18.098
		c10.424,8.283,22.5,12.042,35.6,12.907c7.718,0.511,15.388-0.049,22.99-1.474c9.976-1.868,19.604-4.806,28.641-9.5
		c1.98-1.029,3.885-2.204,5.914-3.363C131.949,526.081,132.277,512.252,133.731,498.354z M157.345,456.18
		c-0.423,0.969-0.849,1.82-1.174,2.709c-1.187,3.233-2.345,6.477-3.504,9.72c-6.504,18.189-10.323,36.852-10.005,56.261
		c0.146,8.936,1.164,17.75,3.298,26.431c3.819,15.53,11.53,28.967,22.164,40.773c11.61,12.893,25.825,21.95,42.015,27.986
		c8.293,3.092,16.878,4.316,25.727,3.835c5.074-0.276,10.018-1.227,14.902-2.54c17.936-4.821,33.131-14.072,44.984-28.439
		c15.612-18.925,23.875-40.777,25.186-65.241c0.521-9.72-0.14-19.39-1.754-29.004c-2.339-13.921-6.714-27.186-12.561-39.996
		c-0.252-0.552-0.585-1.067-0.953-1.729c-9.616,5.268-19.575,9.341-30.139,12.642c0.728,0.907,1.25,1.59,1.806,2.245
		c2.605,3.073,4.796,6.417,6.605,10.017c4.467,8.887,6.504,18.406,7.143,28.24c0.622,9.58-0.248,19.067-2.357,28.437
		c-1.915,8.511-4.942,16.581-9.681,23.939c-8.143,12.646-19.521,20.802-34.149,24.366c-6.434,1.567-12.993,1.904-19.585,1.873
		c-2.657-0.013-5.286-0.272-7.881-0.825c-13.72-2.923-24.323-10.345-31.865-22.15c-3.289-5.149-5.985-10.599-8.125-16.323
		c-4.328-11.579-6.031-23.536-5.408-35.877c0.482-9.561,2.556-18.711,6.479-27.438c2.309-5.138,5.191-9.941,8.532-14.476
		c0.493-0.67,1.211-1.267,1.138-2.286C177.458,466.035,167.254,461.679,157.345,456.18z M92.272,316.221
		c0.657,0.063,0.968,0.119,1.279,0.119c92.669-0.009,185.338-0.023,278.007-0.041c0.067,0,0.137-0.075,0.203-0.118
		c0.067-0.043,0.132-0.091,0.336-0.232c-0.267-8.808-1.404-17.576-3.529-26.376c-3.584,0-7.026,0.014-10.469-0.002
		c-25.991-0.124-51.982-0.255-77.974-0.379c-8.424-0.041-16.848-0.061-25.271-0.102c-25.912-0.125-51.823-0.261-77.734-0.378
		c-11.793-0.053-23.587-0.061-35.38-0.105c-13.959-0.053-27.918-0.125-41.877-0.187c-1.192-0.005-2.384,0-3.719,0
		C93.774,297.571,92.682,306.747,92.272,316.221z M365.833,279.435c-2.405-7.982-5.407-15.447-9.193-22.563
		c-0.457-0.053-0.772-0.117-1.088-0.121c-7.377-0.113-14.753-0.257-22.13-0.321c-20.616-0.18-41.232-0.331-61.849-0.487
		c-21.579-0.164-43.158-0.316-64.736-0.484c-19.653-0.153-39.306-0.331-58.959-0.475c-12.116-0.089-24.232-0.107-36.348-0.232
		c-1.932-0.02-3.146,0.623-4.005,2.372c-2.972,6.05-5.602,12.239-7.812,18.605c-0.227,0.653-0.267,1.372-0.412,2.155
		c0.57,0.106,0.95,0.231,1.332,0.239c4.408,0.093,8.815,0.188,13.224,0.242c3.45,0.043,6.901,0.029,10.351,0.045
		c30.406,0.147,60.812,0.298,91.218,0.44c8.265,0.039,16.53,0.036,24.795,0.077c25.833,0.129,51.665,0.286,77.497,0.4
		c15.166,0.067,30.332,0.074,45.498,0.108C364.009,279.437,364.802,279.435,365.833,279.435z M350.269,246.596
		c0.198-1.118-0.538-1.748-0.993-2.451c-5.434-8.378-11.771-16.022-18.771-23.135c-1.279-1.3-2.643-1.845-4.467-1.854
		c-14.12-0.066-28.24-0.233-42.361-0.332c-22.626-0.158-45.252-0.301-67.878-0.423c-15.567-0.084-31.135-0.106-46.703-0.186
		c-6.017-0.031-12.033-0.151-18.049-0.216c-3.851-0.042-7.703-0.028-11.553-0.1c-1.634-0.03-2.956,0.486-4.069,1.685
		c-1.037,1.117-2.16,2.152-3.225,3.244c-5.841,5.989-11.097,12.456-15.767,19.396c-0.471,0.7-1.209,1.333-0.984,2.438
		c0.373,0.027,0.756,0.078,1.139,0.082c16.849,0.15,33.697,0.3,50.545,0.442c17.57,0.147,35.141,0.291,52.711,0.428
		c23.348,0.183,46.696,0.358,70.044,0.536c19.737,0.149,39.474,0.297,59.211,0.445C349.482,246.599,349.867,246.596,350.269,246.596
		z M227.065,476.003c-0.311-0.123-0.523-0.26-0.749-0.287c-0.714-0.086-1.433-0.165-2.152-0.187
		c-7.311-0.219-14.536-1.186-21.674-2.708c-2.038-0.435-3.424,0.036-4.612,1.596c-0.388,0.51-0.823,0.984-1.223,1.485
		c-9.765,12.232-14.516,26.246-14.672,41.828c-0.092,9.055,1.609,17.835,4.479,26.412c2.149,6.423,4.927,12.516,8.962,17.991
		c6.526,8.854,15.078,14.461,26.035,16.16c1.866,0.29,3.767,0.56,5.606,0.031C227.065,544.119,227.065,510.055,227.065,476.003z
		 M237.65,475.878c0,0.976,0,1.844,0,2.713c0,23.35,0,46.699,0,70.049c0,8.827-0.007,17.653,0.012,26.479
		c0.002,0.84-0.229,1.739,0.392,2.679c1.409-0.256,2.836-0.441,4.228-0.778c10.589-2.56,19.34-7.988,25.905-16.763
		c5.171-6.913,8.464-14.703,10.433-23.058c2.318-9.833,3.021-19.788,2.012-29.859c-0.692-6.918-2.371-13.564-5.311-19.873
		c-2.334-5.009-5.551-9.354-9.732-12.999c-1.452-1.267-2.997-1.782-4.863-1.409c-0.314,0.063-0.633,0.107-0.951,0.146
		c-6.283,0.773-12.564,1.547-18.847,2.315C239.904,475.646,238.878,475.745,237.65,475.878z M150.476,207.609
		c0.555,0.068,0.788,0.12,1.022,0.123c7.376,0.111,14.751,0.261,22.127,0.318c23.503,0.182,47.006,0.34,70.509,0.484
		c10.35,0.064,20.701,0.066,31.051,0.109c9.628,0.04,19.256,0.08,28.884,0.152c3.445,0.025,6.889,0.158,10.334,0.209
		c0.395,0.006,0.792-0.193,1.333-0.334C267.946,170.272,194.271,172.529,150.476,207.609z M582.18,533.172
		c-6.374,1.306-12.584,3.122-18.449,5.988c-12.718,6.213-21.984,15.877-28.331,28.434c-4.189,8.29-6.854,17.078-8.278,26.238
		c-0.591,3.799-0.959,7.632-1.442,11.447c-0.087,0.683-0.246,1.356-0.523,2.028c-0.46-0.879-0.385-1.819-0.509-2.725
		c-0.12-0.874-0.263-1.744-0.371-2.619c-1.12-9.017-3.075-17.834-6.342-26.329c-2.924-7.602-6.743-14.701-11.956-21.007
		c-8.313-10.057-18.924-16.388-31.541-19.462c-2.389-0.582-4.792-1.103-7.667-1.761c2.426-0.426,4.396-0.742,6.354-1.121
		c9.988-1.937,19.152-5.728,27.112-12.174c6.786-5.493,11.895-12.319,15.739-20.111c4.003-8.111,6.522-16.692,7.79-25.635
		c0.563-3.966,0.952-7.957,1.414-11.938c0.108-0.936,0.123-1.896,0.746-2.654c1.329,13.053,3.882,25.785,9.371,37.795
		c3.428,7.499,7.759,14.382,13.704,20.168c7.261,7.065,15.888,11.547,25.804,13.536c2.275,0.456,4.591,0.712,6.888,1.06
		C581.854,532.611,582.017,532.892,582.18,533.172z M526.031,502.634c-3.238,6.538-6.932,12.41-11.58,17.657
		c-4.711,5.315-10.198,9.689-16.427,13.498c0.727,0.516,1.222,0.88,1.73,1.226c5.892,3.996,10.992,8.835,15.372,14.439
		c3.368,4.312,6.203,8.956,8.662,13.84c0.285,0.568,0.35,1.399,1.263,1.625c3.205-6.285,6.838-12.223,11.403-17.552
		c4.605-5.377,10.072-9.787,15.804-13.801c-0.129-0.279-0.143-0.379-0.199-0.421c-0.448-0.335-0.896-0.67-1.359-0.983
		c-5.077-3.443-9.599-7.5-13.54-12.205c-3.83-4.57-6.983-9.58-9.717-14.867C527.052,504.332,526.594,503.608,526.031,502.634z
		 M284.903,353.285c-8.376,3.619-14.97,9.481-20.573,16.559c-0.246,0.312-0.454,0.662-0.631,1.018
		c-1.149,2.323-0.521,5.046,1.476,6.448c2.111,1.482,4.699,1.262,6.557-0.604c0.62-0.623,1.142-1.343,1.714-2.013
		c4.373-5.123,9.439-9.355,15.639-12.118c7.442-3.318,14.891-3.325,22.338-0.012c3.165,1.408,6.144,3.15,8.763,5.409
		c2.425,2.091,4.69,4.367,7.027,6.561c0.642,0.602,1.231,1.278,1.941,1.785c1.737,1.242,3.614,1.239,5.441,0.241
		c1.893-1.033,2.583-2.742,2.43-4.85c-0.093-1.265-0.669-2.291-1.488-3.208c-4.672-5.239-9.854-9.865-16.028-13.291
		c-5.906-3.276-12.182-5.258-19.39-5.352C295.077,349.918,289.878,351.136,284.903,353.285z M231.633,437.271
		c5.823,0.161,11.563-4.27,11.689-11.532c0.119-6.811-4.889-11.634-11.074-11.888c-6.37-0.262-11.64,4.861-11.819,11.394
		C220.388,431.71,224.998,437.089,231.633,437.271z"/>
</g>
</svg>
