<?xml version="1.0" encoding="utf-8"?>
<!-- Generator: Adobe Illustrator 16.0.0, SVG Export Plug-In . SVG Version: 6.00 Build 0)  -->
<!DOCTYPE svg PUBLIC "-//W3C//DTD SVG 1.1//EN" "http://www.w3.org/Graphics/SVG/1.1/DTD/svg11.dtd">
<svg version="1.1" xmlns="http://www.w3.org/2000/svg" xmlns:xlink="http://www.w3.org/1999/xlink" x="0px" y="0px" width="612px"
	 height="792px" viewBox="0 0 612 792" enable-background="new 0 0 612 792" xml:space="preserve">
<g id="White">
	<path fill-rule="evenodd" clip-rule="evenodd" fill="#FFFFFF" d="M536.494,186.296c1.971,2.048,2.938,4.396,3.437,6.944
		c0.262,1.333,0.404,2.702,0.464,4.062c0.2,4.567,0.279,9.142,0.514,13.707c0.469,9.132,0.998,18.262,1.538,27.39
		c0.056,0.945,0.348,1.875,0.566,2.999c0.723,0.076,1.396,0.147,2.039,0.215c1.589-2.267,1.801-4.766,2.167-7.206
		c0.871-5.809,0.966-11.666,1.025-17.524c0.096-9.565,1.023-19.051,2.66-28.472c0.274-1.579,0.436-3.178,0.718-4.756
		c0.432-2.41,1.846-4.043,4.121-4.917c1.831-0.703,2.756-0.279,3.124,1.672c0.551,2.912,1.004,5.847,1.369,8.789
		c0.884,7.12,0.363,14.259,0.202,21.393c-0.176,7.776-0.612,15.551-0.222,23.332c0.126,2.482,0.328,4.963,0.563,7.438
		c0.074,0.787,0.299,1.578,0.577,2.321c0.296,0.787,1.033,1.001,1.781,0.599c1.22-0.657,1.896-1.701,2.04-3.072
		c0.277-2.632,0.529-5.266,0.807-7.898c0.554-5.263,1.089-10.529,1.687-15.787c0.526-4.621,1.124-9.233,1.696-13.848
		c0.473-3.819,0.918-7.643,1.453-11.453c0.152-1.086,0.575-2.135,0.86-3.151c3.577,0.173,5.094,1.311,5.602,4.514
		c0.414,2.606,0.689,5.265,0.694,7.9c0.015,6.736-0.123,13.474-0.262,20.209c-0.177,8.658-0.818,17.312-0.22,25.976
		c0.05,0.719,0.06,1.451,0.213,2.149c0.235,1.069,1.483,1.431,2.205,0.592c0.503-0.585,0.909-1.344,1.097-2.091
		c0.369-1.471,0.59-2.983,0.813-4.488c1.168-7.849,2.25-15.711,3.501-23.547c0.58-3.634,1.386-7.24,2.253-10.819
		c0.899-3.714,3.052-5.381,7.2-5.75c0.161,2.861,0.633,5.745,0.42,8.577c-0.492,6.554-1.238,13.093-2.023,19.621
		c-1.073,8.914-2.402,17.799-3.38,26.723c-0.602,5.496-0.891,11.038-1.068,16.567c-0.219,6.823-0.619,13.626-1.58,20.381
		c-3.184,22.395-11.16,42.862-24.73,61.058c-10.13,13.584-22.48,24.816-36.409,34.377c-17.625,12.098-36.909,20.505-57.563,25.85
		c-9.554,2.473-19.233,4.305-29.043,5.4c-6.614,0.739-13.233,1.447-19.861,2.046c-3.933,0.355-7.853-0.146-11.748-0.68
		c-1.842-0.253-2.331-1.02-1.814-2.825c0.858-3.002,1.803-5.98,2.736-8.96c1.534-4.891,3.089-9.775,4.635-14.662
		c0.193-0.61,0.412-1.215,0.577-1.833c0.837-3.133,2.8-4.665,6.11-4.624c2.643,0.033,5.288-0.248,7.934-0.288
		c7.385-0.112,14.757-0.393,22.073-1.481c14.03-2.087,27.007-6.763,38.224-15.695c5.304-4.224,9.995-9.04,13.775-14.692
		c4.798-7.175,7.227-15.126,7.679-23.718c0.487-9.259-0.912-18.21-4.189-26.886c-2.037-5.394-3.933-10.842-5.974-16.234
		c-2.259-5.964-3.571-12.145-4.272-18.452c-1.152-10.369-1.727-20.782-2.104-31.207c-0.079-2.18,0.067-4.331,0.66-6.435
		c0.511-1.816,1.415-3.406,2.888-4.617c1.656-1.363,2.871-1.051,3.719,0.95c0.248,0.587,0.422,1.211,0.582,1.83
		c1.433,5.502,2.868,11.004,4.275,16.512c1.153,4.513,2.611,8.907,4.708,13.085c1.488,2.968,4.741,4.896,8.933,4.063
		c2.233-0.444,3.969-1.735,4.92-3.867c1.906-4.269,3.329-8.69,3.647-13.381c0.705-10.405,1.34-20.815,2.003-31.224
		c0.434-6.805,0.895-13.608,1.287-20.415C531.021,194.802,532.74,189.782,536.494,186.296z M78.331,625.799
		c1.807-3.718,2.881-7.668,3.196-11.767c0.423-5.515,0.662-11.046,0.908-16.573c0.416-9.296,0.738-18.597,1.182-27.892
		c0.126-2.637,0.403-5.283,0.849-7.885c0.752-4.39,2.444-8.438,4.826-12.215c0.966-1.532,2.232-2.239,4.007-2.071
		c3.356,0.316,6.165,1.592,8.068,4.528c2.251,3.473,3.751,7.267,4.687,11.263c1.078,4.602,1.963,9.247,2.95,13.869
		c0.368,1.723,0.751,3.442,1.188,5.148c0.386,1.511,1.399,2.212,2.977,2.298c3.432,0.186,4.457-0.742,4.4-4.29
		c-0.134-8.423-0.218-16.847-0.492-25.265c-0.138-4.243-0.467-8.498-1.02-12.707c-1.122-8.532-3.417-16.785-6.402-24.851
		c-1.307-3.53-2.7-7.033-3.852-10.613c-3.62-11.253-4.809-22.72-2.562-34.409c1.739-9.05,5.664-16.976,12.326-23.463
		c14.628-14.245,32.294-21.654,52.495-23.333c5.116-0.425,10.248-0.659,15.37-1.012c0.793-0.055,1.596-0.198,2.356-0.428
		c0.966-0.291,1.306-0.796,1.17-1.808c-0.126-0.946-0.383-1.882-0.655-2.801c-1.747-5.915-3.512-11.823-5.274-17.733
		c-0.572-1.919-1.142-3.838-1.734-5.751c-0.748-2.412-1.339-2.843-3.786-2.757c-0.961,0.034-1.928,0.076-2.88,0.204
		c-4.05,0.542-8.108,1.042-12.141,1.697c-10.771,1.747-21.348,4.323-31.699,7.781c-26.172,8.742-49,22.854-68.186,42.732
		c-16.688,17.291-27.687,37.789-33.832,60.928c-3.042,11.453-4.117,23.206-4.378,35.012c-0.202,9.082-1.003,18.098-2.172,27.088
		c-1.127,8.667-2.533,17.303-2.991,26.04c-0.235,4.484-0.202,8.982-0.303,13.474c-0.023,1.004,0.264,1.895,0.83,2.708
		c0.47,0.674,1.073,0.894,1.875,0.62c1.591-0.543,2.844-1.503,3.559-3.028c0.438-0.937,0.823-1.932,1.022-2.941
		c0.84-4.243,1.673-8.489,2.377-12.756c1.397-8.462,2.707-16.938,4.059-25.407c0.088-0.554,0.196-1.108,0.351-1.646
		c0.233-0.813,0.84-1.105,1.65-1.101c0.781,0.005,1.446,0.2,1.723,1.013c0.155,0.452,0.255,0.929,0.331,1.402
		c0.706,4.382,0.787,8.775,0.305,13.19c-0.278,2.551-0.493,5.112-0.615,7.675c-0.322,6.731-0.601,13.465-0.85,20.198
		c-0.107,2.886-0.125,5.775-0.134,8.663c-0.007,2.476,0.818,4.724,2.091,6.809c0.607,0.996,1.615,1.286,2.711,1.165
		c1.038-0.114,1.756-0.64,2.006-1.753c0.229-1.012,0.609-1.988,0.877-2.993c1.849-6.938,2.226-14.075,2.879-21.18
		c0.617-6.707,1.339-13.405,2.124-20.095c0.203-1.733,0.82-3.417,1.23-5.129c0.18-0.75,0.702-1.067,1.395-1.068
		c0.697-0.002,1.275,0.346,1.428,1.058c0.2,0.936,0.375,1.891,0.411,2.844c0.077,2.084,0.099,4.172,0.072,6.257
		c-0.132,9.947-0.282,19.895-0.44,29.841c-0.074,4.655-0.131,9.313,0.544,13.934c0.348,2.375,0.874,4.723,1.298,7.087
		c0.187,1.04,0.752,1.697,1.722,2.13c2.116,0.942,3.951,0.477,5.223-1.489c0.385-0.596,0.707-1.281,0.856-1.97
		c0.525-2.426,1.159-4.852,1.393-7.312c0.586-6.147,0.986-12.313,1.441-18.474c0.538-7.28,1.014-14.565,1.602-21.842
		c0.219-2.714,0.662-5.411,1.039-8.111c0.122-0.876,0.293-1.782,1.407-1.996c1.251,0.251,1.88,1.13,2.182,2.278
		c0.244,0.929,0.515,1.869,0.592,2.819c0.287,3.514,0.607,7.03,0.717,10.553c0.3,9.621,0.515,19.245,0.73,28.868
		c0.092,4.124,1.79,7.23,5.462,9.158C77.55,627.761,77.884,626.718,78.331,625.799z M463.486,672.099
		c4.161-0.289,8.325-0.774,12.486-0.763c9.625,0.025,19.249,0.286,28.872,0.479c3.847,0.077,7.692,0.362,11.53-0.154
		c2.471-0.332,4.897-0.768,7.123-2.006c1.339-0.745,1.913-2.536,1.467-3.728c-0.374-0.996-1.023-1.773-2.049-2.247
		c-2.196-1.014-4.454-1.849-6.856-2.124c-3.504-0.4-7.021-0.699-10.537-0.986c-3.118-0.255-6.245-0.396-9.363-0.657
		c-4.476-0.373-8.946-0.813-13.419-1.217c-5.832-0.527-11.664-1.042-17.495-1.575c-0.474-0.044-0.964-0.121-1.403-0.293
		c-1.038-0.407-1.186-1.663-0.271-2.29c0.321-0.22,0.722-0.344,1.103-0.452c0.923-0.262,1.851-0.52,2.788-0.726
		c5.12-1.122,10.319-1.461,15.542-1.417c9.803,0.082,19.56-0.631,29.305-1.575c0.953-0.093,1.926-0.236,2.827-0.541
		c1.598-0.54,2.014-1.683,1.319-3.224c-0.859-1.907-2.355-2.948-4.38-3.372c-5.82-1.222-11.713-1.944-17.635-2.306
		c-10.009-0.612-20.03-1.006-30.042-1.566c-5.204-0.292-10.403-0.708-15.503-1.891c-2.975-0.69-5.886-1.602-8.589-3.027
		c-4.481-2.364-5.401-7.249-2.142-11.144c1.472-1.759,3.325-3.001,5.53-3.679c1.607-0.493,3.215-0.986,4.833-1.441
		c7.32-2.061,14.646-4.102,21.966-6.166c0.766-0.216,1.558-0.438,2.24-0.827c1.568-0.893,1.782-2.485,0.573-3.795
		c-1.47-1.59-3.26-2.603-5.443-2.752c-1.357-0.094-2.725-0.088-4.087-0.055c-7.858,0.191-15.717,0.403-23.575,0.612
		c-7.087,0.188-14.087,1.087-20.837,3.272c-5.782,1.873-11.489,3.992-17.171,6.158c-10.896,4.156-22.051,6.742-33.808,6.033
		c-9.647-0.582-18.364-3.697-25.817-9.886c-3.011-2.501-5.705-5.398-8.421-8.232c-1.939-2.024-3.739-4.194-5.479-6.396
		c-1.397-1.768-3.097-2.444-5.276-2.047c-0.394,0.071-0.795,0.107-1.189,0.177c-7.892,1.389-15.783,2.776-23.672,4.177
		c-0.787,0.14-1.585,0.286-2.331,0.56c-1.107,0.407-1.479,1.107-1.191,2.283c0.248,1.007,0.606,1.993,0.987,2.961
		c6.362,16.158,14.913,31.037,25.977,44.451c10.139,12.292,21.789,22.861,35.418,31.182c20.369,12.437,42.651,18.439,66.342,19.683
		c4.326,0.227,8.659,0.336,12.981,0.62c4.961,0.327,9.923,0.697,14.866,1.217c5.741,0.603,11.465,1.366,17.191,2.099
		c5.486,0.702,10.966,1.469,16.452,2.179c3.499,0.452,6.999,0.907,10.51,1.255c2.331,0.231,3.127-0.377,3.929-2.625
		c0.161-0.451,0.323-0.91,0.403-1.379c0.293-1.707-0.028-2.348-1.656-2.963c-1.27-0.479-2.568-0.951-3.896-1.191
		c-6.701-1.215-13.416-2.355-20.128-3.516c-6.554-1.133-13.107-2.271-19.665-3.375c-0.892-0.15-1.462-0.546-1.713-1.404
		c0.245-1.11,1.112-1.595,2.033-1.855c1.067-0.303,2.193-0.538,3.297-0.551c2.163-0.025,4.329,0.098,6.491,0.207
		c3.927,0.197,7.849,0.575,11.776,0.621c10.43,0.121,20.861,0.08,31.292,0.163c2.597,0.021,4.669-1.01,6.431-2.765
		c1.836-1.827,1.449-3.238-1.018-4.002c-0.076-0.023-0.156-0.035-0.235-0.05c-5.199-0.955-10.368-2.167-15.606-2.8
		c-6.285-0.76-12.626-1.072-18.948-1.491c-4.974-0.33-9.868-1.174-14.757-2.063c-1.412-0.257-2.729-0.867-3.904-2.28
		C460.997,672.503,462.209,672.187,463.486,672.099z M130.274,145.302c-2.455,0.368-4.923,0.74-7.397,0.865
		c-10.977,0.557-21.959,0.989-32.936,1.553c-2.636,0.135-5.267,0.525-7.878,0.938c-1.931,0.305-2.807,2.666-1.676,4.248
		c1.433,2.004,3.43,3.108,5.83,3.458c1.506,0.219,3.03,0.333,4.55,0.432c3.603,0.233,7.208,0.418,10.812,0.642
		c9.93,0.617,19.862,1.194,29.786,1.887c4.877,0.34,9.75,0.8,14.603,1.392c3.354,0.41,6.574,1.464,9.54,3.122
		c5.476,3.063,5.885,9.525,0.854,13.253c-1.682,1.246-3.51,2.262-5.547,2.808c-6.109,1.638-12.222,3.258-18.341,4.857
		c-2.633,0.689-5.312,1.22-7.92,1.991c-2.192,0.648-2.816,2.393-1.62,4.336c1.29,2.094,3.069,3.407,5.714,3.319
		c4.57-0.151,9.145-0.146,13.714-0.308c5.611-0.2,11.237-0.302,16.824-0.807c11.076-1,21.765-3.684,32.088-7.872
		c3.926-1.592,7.954-2.95,11.99-4.247c6.127-1.968,12.407-3.31,18.856-3.486c11.733-0.321,22.217,3.355,31.626,10.267
		c1.292,0.949,2.549,1.95,3.879,2.844c2.05,1.377,4.331,2.049,6.815,1.978c1.202-0.035,2.404-0.074,3.606-0.104
		c8.821-0.22,17.642-0.435,26.463-0.667c0.634-0.017,1.291-0.066,1.894-0.245c1.011-0.3,1.419-1.006,1.166-2.028
		c-0.23-0.929-0.575-1.833-0.903-2.736c-2.51-6.889-6.099-13.221-9.942-19.436c-11.61-18.778-26.522-34.371-44.926-46.566
		c-20.336-13.476-42.792-20.439-67.122-21.516c-7.769-0.344-15.556-0.297-23.289-1.369c-6.83-0.946-13.682-1.724-20.525-2.571
		c-8.196-1.015-16.384-2.097-24.593-2.994c-2.534-0.277-5.132-0.171-7.686-0.004c-2.289,0.149-2.999,1.459-2.375,3.673
		c0.622,2.205,2.229,3.28,4.298,3.733c3.991,0.874,7.981,1.769,12.006,2.458c8.136,1.394,16.3,2.627,24.44,3.995
		c1.964,0.33,3.891,0.9,5.817,1.425c0.391,0.106,0.701,0.509,1.249,0.929c-0.608,0.36-0.963,0.697-1.373,0.787
		c-1.016,0.223-2.054,0.438-3.089,0.469c-4.57,0.136-9.144,0.333-13.712,0.267c-6.095-0.088-12.185-0.538-18.279-0.582
		c-7.137-0.051-14.276,0.174-21.415,0.264c-2.384,0.03-3.892,1.353-4.851,3.355c-0.862,1.801-0.154,3.226,1.812,3.57
		c5.684,0.995,11.356,2.135,17.082,2.786c6.61,0.75,13.27,1.077,19.913,1.515c4.092,0.27,8.121,0.905,12.134,1.714
		c1.384,0.279,2.526,0.882,3.454,1.958c-0.972,1.31-2.195,2.146-3.797,2.348c-1.826,0.23-3.652,0.569-5.484,0.611
		c-2.884,0.065-5.775-0.04-8.66-0.142c-7.776-0.274-15.557-0.497-23.326-0.916c-4.265-0.23-8.516-0.284-12.729,0.321
		c-2.841,0.408-5.624,1.231-8.429,1.883c-0.858,0.2-1.322,0.763-1.567,1.626c-0.541,1.901-0.179,2.996,1.519,4.079
		c1.986,1.268,4.151,2.125,6.488,2.386c3.666,0.41,7.342,0.734,11.02,1.033c4.877,0.396,9.763,0.689,14.639,1.107
		c6.473,0.555,12.943,1.154,19.407,1.803c2.944,0.296,5.931,0.401,8.759,1.414c0.382,0.137,0.696,0.463,1.087,0.734
		C132.952,144.507,132.052,145.035,130.274,145.302z M314.396,481.788c11.587-1.684,22.641-5.14,33.039-10.537
		c14.032-7.284,26.401-16.72,36.543-28.925c8.022-9.653,13.818-20.583,18.401-32.226c5.007-12.72,7.438-25.84,6.676-39.516
		c-0.049-0.874-0.126-1.768-0.359-2.605c-0.341-1.23-1.089-1.716-2.338-1.547c-0.948,0.128-1.883,0.39-2.806,0.654
		c-7.696,2.207-15.39,4.425-23.08,6.651c-0.688,0.2-1.388,0.417-2.02,0.746c-1.034,0.537-1.357,1.256-1.166,2.386
		c0.066,0.39,0.216,0.77,0.365,1.14c1.668,4.098,2.718,8.374,3.683,12.676c0.721,3.214,1.397,6.435,1.117,9.759
		c-0.338,4.013-1.129,7.927-2.595,11.694c-6.558,16.851-23.534,25.337-39.153,23.175c-12.773-1.769-22.138-8.36-28.233-19.645
		c-3.255-6.024-4.25-12.54-3.94-19.315c0.117-2.563,0.235-5.133,0.152-7.694c-0.065-2.013-0.664-2.479-2.638-2.712
		c-0.398-0.047-0.798-0.103-1.197-0.106c-5.696-0.044-11.392-0.083-17.088-0.114c-0.399-0.002-0.802,0.051-1.197,0.111
		c-1.816,0.279-2.198,0.657-2.335,2.435c-0.061,0.797-0.021,1.602-0.021,2.403c0,4.813,0.263,9.65-0.51,14.42
		c-2.891,17.84-18.434,30.136-35.176,30.574c-4.877,0.127-9.571-0.823-14.139-2.435c-20.335-7.172-27.042-26.488-23.36-41.89
		c1.004-4.201,2.378-8.313,3.584-12.465c0.871-2.999,0.589-3.749-2.324-4.653c-7.875-2.444-15.776-4.804-23.68-7.153
		c-1.92-0.571-2.41-0.149-2.593,1.907c-0.014,0.16-0.02,0.32-0.029,0.48c-0.637,11.391,0.462,22.616,3.727,33.547
		c6.146,20.58,17.485,37.882,33.589,52.043c10.9,9.585,23.382,16.516,36.919,21.653c11.204,4.252,22.66,6.973,35.054,6.247
		C301.479,483.228,307.958,482.724,314.396,481.788z M289.119,470.217c-2.141-0.308-4.255-0.819-6.401-1.07
		c-2.062-0.242-2.938-1.542-3.21-3.328c-0.343-2.244-0.294-4.522,0.812-6.58c2.579-4.798,5.183-9.586,7.892-14.312
		c0.868-1.515,1.955-2.963,3.188-4.196c3.417-3.418,8.188-3.622,11.981-0.621c0.811,0.642,1.562,1.397,2.198,2.212
		c4.623,5.911,7.875,12.447,8.861,19.969c0.176,1.345,0.221,2.724,0.162,4.079c-0.076,1.759-0.45,2.122-2.191,2.665
		c-4.551,1.417-9.224,2.056-14.982,2.264C295.315,471.026,292.211,470.662,289.119,470.217z M309.395,590.25
		c6.395-0.742,12.613-2.316,18.458-5.056c13.869-6.503,24.11-16.743,30.87-30.463c3.064-6.22,5.023-12.81,6.272-19.615
		c0.48-2.62-0.262-3.489-2.919-3.133c-1.891,0.254-3.765,0.758-5.593,1.321c-4.435,1.365-8.81,2.925-13.259,4.238
		c-14.462,4.271-29.186,6.737-44.324,6.127c-3.525-0.143-7.054-0.285-10.567-0.588c-6.467-0.556-12.941-1.092-19.381-1.884
		c-11.333-1.395-22.29-4.354-32.986-8.335c-2.242-0.834-4.584-1.402-6.887-2.067c-0.456-0.132-0.945-0.197-1.419-0.203
		c-0.981-0.011-1.511,0.396-1.652,1.363c-0.115,0.787-0.115,1.599-0.096,2.397c0.105,4.515,0.949,8.924,2.092,13.27
		c2.646,10.057,7.355,19.001,15.073,26.076c14.272,13.085,31.318,18.541,51.446,17.881
		C298.859,591.201,304.143,590.859,309.395,590.25z M289.482,535.862c2.335-0.039,2.995-0.681,3.12-2.98
		c0.021-0.399-0.004-0.802,0.013-1.202c0.095-2.232,0.227-4.464,0.285-6.696c0.048-1.842,0.059-3.688-0.005-5.528
		c-0.048-1.386-0.655-2.024-1.983-2.321c-0.311-0.069-0.638-0.063-0.955-0.107c-7.448-1.065-14.895-2.141-22.345-3.191
		c-1.108-0.156-2.232-0.269-3.35-0.279c-1.481-0.015-1.961,0.396-2.402,1.844c-0.116,0.38-0.172,0.78-0.229,1.175
		c-0.278,1.901-0.594,3.799-0.806,5.707c-0.248,2.228-0.463,4.463-0.579,6.701c-0.118,2.284,0.234,2.707,2.443,3.486
		c0.527,0.186,1.065,0.34,1.601,0.503c6.802,2.073,13.803,2.704,20.569,2.895C286.598,535.866,288.041,535.887,289.482,535.862z
		 M253.751,510.39c-0.762-0.572-1.613-1.04-2.468-1.468c-6.012-3.008-12.034-5.993-18.056-8.979c-0.5-0.248-1.005-0.513-1.539-0.663
		c-1.287-0.364-1.972-0.022-2.426,1.24c-0.269,0.749-0.43,1.54-0.603,2.32c-0.916,4.142-1.93,8.266-2.693,12.436
		c-0.616,3.364,0.478,5.183,3.652,6.367c6.593,2.46,13.219,4.831,19.837,7.224c0.598,0.217,1.229,0.389,1.859,0.457
		c0.777,0.085,1.431-0.24,1.747-0.995c0.214-0.512,0.392-1.053,0.484-1.599c0.469-2.763,0.913-5.529,1.348-8.298
		c0.224-1.424,0.413-2.853,0.618-4.279C255.631,512.558,254.978,511.311,253.751,510.39z M362.659,508.632
		c-0.146-1.022-0.437-2.042-0.79-3.015c-0.933-2.561-2.438-3.38-5.04-2.791c-0.778,0.176-1.548,0.418-2.296,0.698
		c-5.92,2.215-11.843,4.422-17.744,6.685c-2.348,0.899-2.666,1.422-2.431,4.009c0.342,3.753,0.786,7.495,1.192,11.241
		c0.104,0.956,0.205,1.914,0.345,2.865c0.373,2.535,1.402,3.17,3.793,2.368c0.077-0.025,0.15-0.057,0.226-0.085
		c7.027-2.682,14.063-5.343,21.079-8.056c2.469-0.954,2.935-1.777,2.738-5.592C363.482,514.99,363.112,511.805,362.659,508.632z
		 M325.112,533.915c2.531-0.636,3.128-1.439,3.005-4.085c-0.176-3.761-0.408-7.519-0.633-11.276
		c-0.043-0.719-0.148-1.435-0.252-2.148c-0.295-2.045-0.76-2.479-2.82-2.339c-1.755,0.12-3.504,0.356-5.249,0.595
		c-5.472,0.747-10.944,1.492-16.408,2.294c-2.646,0.389-3.324,1.162-3.376,3.735c-0.063,3.123-0.082,6.248-0.057,9.372
		c0.007,0.868,0.153,1.757,0.381,2.598c0.568,2.092,1.776,3.078,3.963,3.179c1.758,0.081,3.523,0.017,5.285,0.017
		C314.426,535.966,319.811,535.247,325.112,533.915z M269.399,488.496c-2.074,0.069-2.95,0.736-3.318,2.729
		c-0.684,3.697-1.318,7.405-1.907,11.12c-0.335,2.115,0.348,3.076,2.47,3.701c6.385,1.884,12.855,3.326,19.528,3.684
		c1.599,0.086,3.204,0.178,4.802,0.13c1.37-0.041,2.208-0.89,2.391-2.239c0.074-0.549,0.037-1.12-0.005-1.677
		c-0.168-2.235-0.367-4.469-0.539-6.704c-0.153-1.996-0.274-3.994-0.433-5.989c-0.152-1.922-0.974-3.495-3.349-3.681
		c-5.5-0.429-10.981-1.177-16.516-1.08C271.481,488.49,270.439,488.462,269.399,488.496z M299.179,499.809
		c0.149,2.318,0.258,4.64,0.46,6.953c0.182,2.073,0.803,2.66,2.893,2.701c6.702,0.133,13.258-0.765,19.611-2.961
		c2.11-0.729,2.733-1.507,2.589-3.708c-0.185-2.794-0.5-5.582-0.84-8.362c-0.146-1.183-0.381-2.381-0.781-3.499
		c-0.58-1.617-1.771-2.647-3.54-2.862c-0.713-0.086-1.448-0.22-2.149-0.134c-4.927,0.607-9.849,1.265-14.771,1.915
		c-0.396,0.053-0.795,0.139-1.169,0.273c-0.962,0.345-1.669,0.972-1.865,2.013c-0.133,0.703-0.225,1.423-0.238,2.138
		c-0.033,1.842-0.011,3.685-0.011,5.527C299.305,499.805,299.242,499.807,299.179,499.809z M329.558,489.645
		c0.664,3.863,1.291,7.734,2.021,11.585c0.347,1.823,1.25,2.284,3.218,1.693c7.142-2.144,14.05-4.854,20.481-8.676
		c2.277-1.354,2.668-2.271,1.916-4.742c-0.604-1.986-1.355-3.927-2-5.902c-1.336-4.099-3.43-4.565-6.968-3.852
		c-5.928,1.195-11.435,3.534-16.94,5.917c-1.396,0.604-1.908,1.596-1.845,2.827C329.491,489.007,329.503,489.329,329.558,489.645z
		 M235.583,480.279c-0.98,2.096-2.044,4.191-2.667,6.402c-0.49,1.739,0.051,3.442,1.721,4.628
		c5.972,4.243,12.423,7.562,19.28,10.099c1.932,0.715,2.653,0.349,3.192-1.598c1.003-3.621,1.946-7.26,2.875-10.9
		c0.42-1.647,0.097-2.323-1.438-3.104c-0.853-0.433-1.76-0.76-2.648-1.122c-4.366-1.779-8.722-3.583-13.107-5.313
		c-1.327-0.522-2.736-0.835-3.611-1.096C237.212,478.325,236.16,479.047,235.583,480.279z"/>
</g>
<g id="Purple">
	<path fill-rule="evenodd" clip-rule="evenodd" fill="#670599" d="M296.375,377.892c-2.808,0-5.62,0.102-8.421-0.03
		c-2.473-0.117-4.933-0.497-7.399-0.755c-1.831-0.192-3.661-0.393-5.493-0.563c-3.985-0.372-7.975-0.695-11.957-1.099
		c-3.74-0.38-7.471-0.846-11.208-1.262c-1.83-0.203-3.664-0.364-5.494-0.57c-5.803-0.655-11.633-1.143-17.397-2.047
		c-3.696-0.58-7.331-1.655-10.928-2.724c-7.363-2.188-14.729-4.389-22.007-6.841c-5.381-1.813-10.616-4.061-15.938-6.057
		c-2.169-0.813-4.378-1.536-6.601-2.19c-4.482-1.319-8.723-3.191-12.807-5.434c-4.216-2.315-8.43-4.632-12.624-6.986
		c-8.85-4.967-17.171-10.662-24.125-18.134c-1.846-1.984-3.48-4.196-4.987-6.454c-0.871-1.305-1.401-2.874-1.895-4.386
		c-1.307-4.001,0.603-8.219,4.203-10.266c2.988-1.699,6.223-2.03,9.545-1.609c3.071,0.39,5.844,1.621,8.409,3.344
		c7.719,5.185,15.437,10.371,23.177,15.523c2.201,1.465,4.423,2.911,6.726,4.207c5.465,3.074,11.394,4.167,17.606,3.733
		c2.367-0.166,4.019-1.41,4.807-3.729c1.087-3.197,1.617-6.515,2.176-9.825c0.979-5.795,0.794-11.658,1.021-17.5
		c0.13-3.354,0.507-6.7,0.789-10.047c0.167-1.994,0.319-3.99,0.561-5.976c0.599-4.921,1.119-9.856,1.899-14.75
		c1.51-9.474,3.244-18.912,4.754-28.386c0.84-5.269,2.4-10.286,4.691-15.075c1.417-2.965,3.035-5.829,5.077-8.43
		c2.426-3.09,5.511-5.023,9.413-5.739c5.19-0.952,10.345-2.093,15.534-3.053c4.483-0.829,8.994-1.488,13.555-1.779
		c2.953-0.188,5.896-0.526,8.845-0.794c0.319-0.029,0.641-0.037,0.961-0.054c11.298-0.608,22.607-0.685,33.917-0.646
		c10.593,0.036,21.186,0.092,31.778,0.207c5.048,0.055,10.109,0.063,15.138,0.45c13.198,1.014,25.194,5.242,35.329,14.015
		c5.658,4.898,9.055,11.064,10.351,18.486c1.236,7.086,2.845,14.106,4.158,21.181c1.095,5.895,2.073,11.814,2.953,17.746
		c0.375,2.526,0.467,5.107,0.515,7.667c0.088,4.73,0.407,9.436,0.942,14.136c0.308,2.703,0.379,5.432,0.617,8.144
		c0.23,2.629,0.557,5.249,0.807,7.876c0.221,2.311,0.486,4.623,0.566,6.941c0.098,2.844,0.996,5.508,1.673,8.214
		c0.454,1.816,2.035,2.637,4.169,2.491c9.871-0.679,18.969-3.722,27.276-9.075c4.38-2.822,8.676-5.772,13.022-8.646
		c5.564-3.678,11.439-6.773,17.552-9.444c4.472-1.954,8.326-0.588,11.844,2.155c1.67,1.302,2.193,3.311,1.923,5.436
		c-0.453,3.577-1.721,6.82-4.054,9.607c-4.282,5.115-8.749,10.065-14.225,13.938c-3.397,2.402-6.948,4.597-10.5,6.771
		c-5.337,3.268-10.869,6.16-16.695,8.49c-2.151,0.86-4.222,1.96-6.24,3.107c-10.031,5.698-20.769,9.573-31.846,12.646
		c-9.872,2.74-19.854,4.999-29.9,6.962c-6.04,1.181-12.141,2.049-18.215,3.059c-4.495,0.748-8.984,1.536-13.488,2.228
		c-2.054,0.315-4.132,0.539-6.206,0.639c-5.204,0.25-10.412,0.397-15.618,0.603c-4.003,0.158-8.005,0.344-12.007,0.518
		C296.378,378.001,296.376,377.946,296.375,377.892z"/>
</g>
<g id="Black">
	<path fill-rule="evenodd" clip-rule="evenodd" fill="#040304" d="M515.62,257.819c2.882-0.776,4.362-2.716,4.635-5.52
		c0.565-5.827,1.143-11.658,1.497-17.5c0.586-9.689,0.926-19.394,1.521-29.083c0.266-4.317,0.747-8.635,1.406-12.911
		c0.827-5.366,3.498-9.759,7.788-13.128c0.315-0.248,0.649-0.47,0.979-0.699c1.63-1.13,3.275-1.175,4.928-0.054
		c0.598,0.405,1.174,0.839,1.772,1.243c0.664,0.448,1.315,0.923,2.017,1.303c1.541,0.833,2.252,0.651,3.153-0.893
		c0.563-0.964,0.977-2.017,1.462-3.027c0.589-1.227,1.09-2.507,1.792-3.667c3-4.954,9.419-5.672,13.292-1.384
		c1.433,1.585,2.534,3.499,3.624,5.358c1.107,1.892,2.641,2.714,4.782,2.482c0.558-0.061,1.111-0.203,1.67-0.217
		c1.119-0.029,2.249-0.084,3.358,0.03c2.396,0.249,4.297,1.433,5.365,3.588c1.027,2.071,1.841,4.253,2.674,6.415
		c0.487,1.268,0.813,2.597,1.245,3.887c0.352,1.044,1.094,1.548,2.212,1.418c0.956-0.111,1.912-0.22,2.863-0.365
		c2.852-0.435,5.588-0.137,8.185,1.193c1.908,0.977,3.178,2.419,3.434,4.609c0.27,2.31,0.646,4.617,0.739,6.934
		c0.275,6.909-0.109,13.794-1.106,20.64c-1.444,9.918-2.825,19.84-3.709,29.833c-0.947,10.71-1.822,21.419-2.369,32.16
		c-0.376,7.39-1.926,14.611-3.749,21.768c-6.326,24.838-18.233,46.602-35.882,65.214c-16.475,17.373-36.119,29.843-58.558,38.031
		c-3.685,1.345-7.322,2.816-10.972,4.252c-5.844,2.298-11.98,3.507-18.074,4.87c-7.432,1.663-14.904,3.121-22.453,4.142
		c-7.638,1.033-15.311,1.611-23.03,1.581c-3.767-0.016-7.535,0.221-11.302,0.354c-1.363,0.049-2.725,0.166-4.088,0.192
		c-3.785,0.071-6.811,1.635-9.097,4.619c-1.463,1.91-2.808,3.912-4.304,5.795c-4.293,5.401-8.574,10.813-12.99,16.113
		c-1.528,1.834-3.351,3.455-5.191,4.991c-2.895,2.414-5.873,4.732-8.898,6.98c-3.188,2.368-4.438,5.416-3.477,9.257
		c0.991,3.961,2.117,7.89,3.179,11.833c1.978,7.351,4.019,14.69,5.288,22.204c2.66,15.731,1.147,30.998-5.344,45.666
		c-4.869,11.002-12.437,19.748-22.303,26.556c-1.318,0.91-2.7,1.729-4.033,2.619c-2.709,1.813-2.939,2.715-1.452,5.551
		c1.58,3.014,3.607,5.691,6.13,7.973c5.971,5.4,12.992,8.73,20.817,10.428c7.361,1.598,14.669,1.087,21.937-0.656
		c5.147-1.234,10.186-2.801,15.099-4.783c8.735-3.525,17.8-5.798,27.117-7.146c9.236-1.338,18.536-1.584,27.841-1.791
		c3.209-0.071,6.421,0.012,9.631-0.017c4.07-0.037,7.953,0.849,11.721,2.311c5.672,2.201,6.682,7.422,5.191,11.832
		c-0.82,2.428-2.602,4.033-4.97,4.912c-3.3,1.226-6.604,2.456-9.965,3.499c-5.964,1.853-11.969,3.57-17.96,5.333
		c-1.87,0.549-3.479,1.524-5.104,2.89c1.231,1.207,2.685,1.624,4.146,1.803c9.472,1.158,18.931,2.517,28.436,3.283
		c7.666,0.619,15.393,0.488,23.091,0.707c5.163,0.146,10.207,0.921,15.038,2.852c2.397,0.957,4.608,2.227,6.727,3.688
		c1.884,1.299,2.861,3.037,2.562,5.329c-0.301,2.303-0.726,4.588-1.106,6.88c-0.065,0.395-0.185,0.779-0.268,1.172
		c-0.265,1.242,0.116,2.206,1.234,2.854c1.317,0.764,2.64,1.519,3.944,2.303c1.524,0.916,2.9,2,3.947,3.47
		c2.032,2.852,1.993,5.688-0.181,8.386c-1.527,1.893-3.313,3.435-5.571,4.472c-2.995,1.376-3.72,2.849-3.4,6.144
		c0.14,1.436,0.225,2.877,0.347,4.314c0.219,2.576-0.942,4.299-3.26,5.316c-2.272,0.997-4.543,1.997-6.819,2.986
		c-0.954,0.415-1.942,0.758-2.872,1.221c-1.64,0.815-1.899,1.46-1.707,3.277c0.186,1.749,0.399,3.512,0.365,5.265
		c-0.08,4.033-2.791,8.543-9.165,9.031c-1.117,0.085-2.247,0.043-3.369,0.005c-10.108-0.348-20.167-1.119-30.175-2.713
		c-6.249-0.996-12.568-1.636-18.882-2.115c-8.478-0.643-16.982-0.912-25.468-1.459c-13.094-0.844-25.896-3.281-38.433-7.171
		c-21.728-6.741-40.896-17.878-57.509-33.396c-10.946-10.224-19.684-22.166-26.999-35.183c-4.836-8.604-9.043-17.509-12.644-26.699
		c-0.146-0.373-0.3-0.743-0.438-1.119c-1.083-2.963-3.168-4.704-6.271-5.332c-4.396-0.891-8.798-1.768-13.157-2.82
		c-9.403-2.272-18.054-6.198-25.396-12.577c-12.146-10.554-20-23.675-22.919-39.589c-0.491-2.675-0.771-5.41-0.881-8.128
		c-0.275-6.811-0.758-13.629-0.197-20.444c0.416-5.042,1.464-9.989,2.573-14.917c0.896-3.985,1.831-7.965,2.86-11.918
		c0.337-1.296,0.893-2.58,1.582-3.729c1.5-2.506,2.411-5.21,3.226-7.99c0.645-2.201,0.033-4.005-1.429-5.515
		c-1.274-1.317-2.77-2.423-4.192-3.593c-3.034-2.496-6.175-4.87-9.107-7.48c-4.933-4.393-9.134-9.45-13.006-14.798
		c-1.69-2.334-3.599-4.51-5.417-6.751c-1.806-2.226-4.086-3.38-7.001-3.69c-16.226-1.726-31.847,0.155-46.577,7.536
		c-7.297,3.657-13.875,8.348-19.623,14.155c-6.826,6.897-10.978,15.149-12.127,24.81c-0.7,5.881-0.036,11.681,1.461,17.404
		c1.703,6.512,3.596,12.948,6.014,19.248c3.899,10.16,6.322,20.7,6.891,31.587c0.356,6.806,0.396,13.63,0.488,20.447
		c0.061,4.492-0.041,8.988-0.062,13.482c-0.012,2.438-0.454,4.783-1.514,6.992c-0.882,1.839-2.124,3.397-3.748,4.635
		c-3.024,2.304-6.274,2.308-9.297-0.014c-2.202-1.691-3.832-3.87-5.124-6.303c-1.51-2.843-2.677-5.835-3.418-8.96
		c-1.202-5.065-2.36-10.145-3.364-15.252c-0.571-2.903-2.197-4.662-4.969-5.76c-0.815,2.291-1.444,4.517-1.693,6.793
		c-0.61,5.581-1.205,11.17-1.56,16.771c-0.598,9.447-0.958,18.909-1.516,28.358c-0.255,4.316-0.23,8.692-1.397,12.894
		c-0.855,3.078-2.005,6.076-3.098,9.084c-0.296,0.814-0.804,1.572-1.314,2.285c-1.865,2.604-4.453,3.589-7.568,3.113
		c-1.257-0.192-2.481-0.623-3.712-0.971c-0.77-0.218-1.517-0.514-2.29-0.718c-1.125-0.298-2.061-0.011-2.699,1.021
		c-0.506,0.817-1.034,1.622-1.518,2.452c-1.386,2.376-3.125,4.469-5.099,6.368c-2.397,2.305-5.146,2.4-7.412-0.007
		c-1.86-1.977-3.444-4.216-5.124-6.36c-0.393-0.501-0.669-1.093-1.013-1.634c-1.364-2.146-1.616-2.218-4.131-1.534
		c-1.079,0.293-2.177,0.538-3.282,0.705c-3.105,0.468-5.477-0.733-7.194-3.31c-1.672-2.508-2.586-5.316-3.226-8.23
		c-0.155-0.705-0.253-1.425-0.457-2.114c-0.462-1.564-1.203-2.129-2.801-2.028c-1.439,0.092-2.872,0.302-4.306,0.473
		c-1.95,0.232-3.842,0.004-5.668-0.712c-2.853-1.12-4.538-3.26-5.092-6.218c-0.293-1.567-0.369-3.188-0.409-4.788
		c-0.169-6.593,0.359-13.143,1.201-19.679c1.167-9.066,2.354-18.133,3.34-27.221c0.562-5.181,0.737-10.402,1.096-15.605
		c0.514-7.443,0.712-14.925,1.612-22.321c4.042-33.22,16.722-62.502,40.143-86.796c11.934-12.38,25.74-22.118,41.189-29.616
		c12.345-5.991,24.974-11.214,38.228-14.851c7.663-2.103,15.438-3.623,23.315-4.659c3.973-0.522,7.927-1.185,11.887-1.8
		c0.55-0.086,1.089-0.255,1.626-0.41c1.818-0.525,2.837-1.717,2.999-3.621c0.068-0.799,0.196-1.594,0.232-2.393
		c0.198-4.328,0.381-8.656,0.558-12.985c0.029-0.721,0.037-1.445-0.003-2.166c-0.057-1.042-0.556-1.838-1.507-2.292
		c-0.938-0.448-1.891-0.866-2.85-1.27c-10.787-4.536-21.413-9.4-31.489-15.39c-7.121-4.233-13.91-8.908-19.854-14.732
		c-3.333-3.266-6.38-6.775-9.107-10.56c-3.57-4.955-5.048-10.499-4.528-16.569c0.461-5.385,3.184-9.175,8.243-11.104
		c5.609-2.139,11.313-1.951,16.999-0.256c3.008,0.896,5.804,2.302,8.529,3.837c5.249,2.958,10.253,6.283,14.934,10.086
		c4.116,3.343,8.42,6.396,13.157,8.828c3.27,1.678,6.707,2.603,10.355,2.816c0.161,0.009,0.321,0.015,0.481,0.019
		c3.017,0.074,4.128-0.81,4.443-3.788c0.363-3.429,0.682-6.867,0.879-10.31c0.404-7.047,0.605-14.108,1.092-21.148
		c0.597-8.643,1.646-17.239,3.12-25.783c1.308-7.585,2.815-15.125,4.993-22.514c2.222-7.539,5.115-14.842,8.061-22.116
		c2.464-6.083,7.086-10.07,13.217-12.147c4.01-1.358,8.166-2.293,12.273-3.351c4.033-1.038,8.088-1.986,12.131-2.985
		c0.463-0.114,0.909-0.304,1.567-0.528c-1.52-2.92-3.394-5.276-6.651-6.132c-6.41-1.683-12.924-2.442-19.544-1.865
		c-3.28,0.286-6.47,1.063-9.593,2.143c-10.37,3.584-20.817,6.919-31.474,9.564c-6.393,1.586-12.869,2.634-19.429,3.236
		c-8.644,0.793-17.299,0.977-25.969,0.721c-3.557-0.105-7.067-0.521-10.216-2.304c-1.591-0.901-3.152-1.953-4.482-3.198
		c-3.024-2.832-3.372-6.853-1.002-10.251c0.634-0.91,1.441-1.726,2.275-2.464c3.9-3.451,8.574-5.261,13.623-6.157
		c3.234-0.574,6.511-0.912,9.746-1.481c3.803-0.668,7.416-1.993,10.961-3.497c0.207-0.087,0.359-0.303,0.601-0.516
		c-2.36-2.707-5.093-4.593-8.795-4.806c-3.364-0.193-6.72-0.518-10.083-0.717c-12.094-0.716-24.191-1.387-36.285-2.111
		c-3.603-0.216-7.21-0.447-10.794-0.86c-4.669-0.539-8.79-2.388-12.168-5.728c-3.05-3.015-3.536-5.718-1.71-9.578
		c0.444-0.939,1.027-1.812,1.508-2.735c0.729-1.4,0.516-2.216-0.789-3.038c-0.403-0.254-0.871-0.404-1.294-0.629
		c-1.908-1.016-3.835-2.001-5.706-3.084c-0.822-0.477-1.604-1.083-2.265-1.767c-2.286-2.367-2.697-5.411-0.888-8.143
		c0.91-1.375,2.169-2.58,3.466-3.618c1.494-1.196,3.196-2.134,4.822-3.161c2.275-1.438,2.425-1.757,1.881-4.297
		c-1.134-5.296-0.11-7.815,4.338-10.887c1.673-1.156,3.5-1.924,5.438-2.475c1.232-0.35,2.478-0.667,3.681-1.099
		c1.626-0.583,1.917-0.975,1.781-2.667c-0.172-2.157-0.333-4.333-0.766-6.446c-0.501-2.444,0.435-4.007,2.442-5.202
		c2.879-1.713,5.985-2.697,9.313-2.931c6.906-0.485,13.795-0.303,20.647,0.731c8.481,1.28,16.942,2.7,25.439,3.863
		c9.066,1.24,18.188,1.894,27.347,1.999c4.168,0.048,8.345,0.137,12.498,0.458c6.815,0.528,13.445,2.115,20.02,3.934
		c9.816,2.716,19.437,5.965,28.637,10.385c18.517,8.896,34.197,21.389,47.288,37.183c8.175,9.863,14.932,20.649,20.842,31.986
		c1.853,3.553,3.771,7.078,5.45,10.712c1.867,4.04,4.957,5.922,9.307,5.978c1.845,0.023,3.692,0.016,5.535,0.103
		c6.891,0.325,13.801,0.457,20.666,1.082c10.483,0.956,20.74,3.238,30.794,6.342c6.42,1.982,11.155,6.16,14.505,11.944
		c2.176,3.757,3.872,7.73,5.334,11.812c2.119,5.915,3.325,12.037,4.26,18.227c1.042,6.896,2.147,13.783,3.176,20.681
		c0.909,6.106,1.768,12.22,2.617,18.334c0.718,5.162,1.451,10.322,2.056,15.498c0.288,2.464,0.295,4.962,0.425,7.444
		c0.134,2.564,0.236,5.129,0.401,7.691c0.108,1.696,0.533,3.327,1.382,4.814c1.193,2.093,3.109,3.025,5.469,2.561
		c1.091-0.214,2.177-0.564,3.198-1.006c7.016-3.035,13.669-6.706,19.651-11.503c5.902-4.734,12.322-8.66,18.933-12.301
		c5.794-3.191,11.802-3.354,17.877-1.082c5.311,1.986,8.313,6.054,9.59,11.487c0.759,3.229,0.372,6.375-0.695,9.467
		c-2.864,8.288-7.963,14.939-14.871,20.259c-11.742,9.042-24.5,16.376-37.966,22.511c-2.55,1.162-5.127,2.261-7.691,3.389
		c-3.179,1.399-4.674,3.713-4.542,7.204c0.134,3.526,0.34,7.05,0.526,10.574c0.024,0.479,0.091,0.96,0.186,1.431
		c0.205,1.028,0.798,1.749,1.826,2.023c0.614,0.164,1.25,0.304,1.882,0.336c6.813,0.347,13.626,0.565,20.44,0
		c7.965-0.66,15.65-2.526,23.104-5.367c3.216-1.226,6.463-2.402,9.581-3.85c15.077-6.998,24.139-18.88,27.936-34.907
		c1.671-7.053,0.966-14.04-1.141-20.897c-2.493-8.114-5.072-16.202-7.646-24.291c-2.953-9.277-4.854-18.756-5.755-28.455
		c-0.878-9.452-1.003-18.905-0.35-28.367c0.256-3.712,1.306-7.265,2.888-10.618c2.246-4.76,7.577-6.178,11.964-3.232
		c2.866,1.925,5.124,4.453,6.243,7.737c1.29,3.786,2.392,7.643,3.413,11.511c0.939,3.561,1.652,7.181,2.486,10.77
		C514.021,254.149,514.529,256.081,515.62,257.819z M296.375,377.892c0.001,0.055,0.003,0.11,0.004,0.165
		c4.002-0.174,8.004-0.36,12.007-0.518c5.206-0.206,10.414-0.353,15.618-0.603c2.074-0.1,4.152-0.324,6.206-0.639
		c4.504-0.692,8.993-1.48,13.488-2.228c6.074-1.01,12.175-1.878,18.215-3.059c10.047-1.963,20.028-4.222,29.9-6.962
		c11.077-3.073,21.814-6.948,31.846-12.646c2.019-1.147,4.089-2.247,6.24-3.107c5.826-2.33,11.358-5.222,16.695-8.49
		c3.552-2.174,7.103-4.369,10.5-6.771c5.476-3.873,9.942-8.822,14.225-13.938c2.333-2.787,3.601-6.03,4.054-9.607
		c0.271-2.125-0.253-4.134-1.923-5.436c-3.518-2.743-7.372-4.108-11.844-2.155c-6.112,2.67-11.987,5.766-17.552,9.444
		c-4.347,2.874-8.643,5.824-13.022,8.646c-8.308,5.353-17.405,8.396-27.276,9.075c-2.134,0.146-3.715-0.674-4.169-2.491
		c-0.677-2.707-1.575-5.371-1.673-8.214c-0.08-2.318-0.346-4.63-0.566-6.941c-0.25-2.627-0.576-5.247-0.807-7.876
		c-0.238-2.712-0.31-5.441-0.617-8.144c-0.535-4.7-0.854-9.406-0.942-14.136c-0.048-2.56-0.14-5.141-0.515-7.667
		c-0.88-5.932-1.858-11.851-2.953-17.746c-1.313-7.074-2.922-14.094-4.158-21.181c-1.296-7.421-4.692-13.587-10.351-18.486
		c-10.135-8.773-22.131-13.001-35.329-14.015c-5.028-0.387-10.09-0.395-15.138-0.45c-10.593-0.115-21.186-0.17-31.778-0.207
		c-11.31-0.039-22.619,0.039-33.917,0.646c-0.32,0.017-0.642,0.024-0.961,0.054c-2.948,0.268-5.892,0.605-8.845,0.794
		c-4.561,0.291-9.071,0.95-13.555,1.779c-5.188,0.96-10.344,2.101-15.534,3.053c-3.902,0.716-6.987,2.649-9.413,5.739
		c-2.042,2.601-3.66,5.465-5.077,8.43c-2.291,4.79-3.851,9.806-4.691,15.075c-1.511,9.474-3.244,18.912-4.754,28.386
		c-0.78,4.894-1.3,9.829-1.899,14.75c-0.241,1.985-0.393,3.982-0.561,5.976c-0.282,3.348-0.659,6.693-0.789,10.047
		c-0.227,5.841-0.042,11.705-1.021,17.5c-0.559,3.31-1.089,6.628-2.176,9.825c-0.788,2.32-2.439,3.564-4.807,3.729
		c-6.213,0.434-12.141-0.659-17.606-3.733c-2.303-1.295-4.525-2.741-6.726-4.207c-7.74-5.153-15.458-10.339-23.177-15.523
		c-2.565-1.723-5.338-2.954-8.409-3.344c-3.322-0.421-6.557-0.09-9.545,1.609c-3.601,2.047-5.51,6.265-4.203,10.266
		c0.494,1.512,1.024,3.081,1.895,4.386c1.507,2.257,3.141,4.47,4.987,6.454c6.954,7.472,15.275,13.167,24.125,18.134
		c4.194,2.354,8.408,4.671,12.624,6.986c4.084,2.242,8.324,4.115,12.807,5.434c2.223,0.654,4.432,1.376,6.601,2.19
		c5.322,1.996,10.556,4.244,15.938,6.057c7.278,2.452,14.644,4.652,22.007,6.841c3.598,1.069,7.232,2.145,10.928,2.724
		c5.764,0.904,11.594,1.392,17.397,2.047c1.83,0.206,3.664,0.367,5.494,0.57c3.736,0.416,7.467,0.882,11.208,1.262
		c3.981,0.404,7.972,0.727,11.957,1.099c1.833,0.171,3.663,0.371,5.493,0.563c2.466,0.259,4.926,0.639,7.399,0.755
		C290.755,377.993,293.567,377.892,296.375,377.892z M536.494,186.296c-3.754,3.486-5.474,8.506-5.691,12.284
		c-0.393,6.807-0.854,13.61-1.287,20.415c-0.663,10.409-1.298,20.818-2.003,31.224c-0.318,4.691-1.741,9.113-3.647,13.381
		c-0.951,2.132-2.687,3.423-4.92,3.867c-4.191,0.833-7.444-1.095-8.933-4.063c-2.097-4.178-3.555-8.572-4.708-13.085
		c-1.407-5.508-2.843-11.01-4.275-16.512c-0.16-0.619-0.334-1.243-0.582-1.83c-0.848-2.001-2.063-2.313-3.719-0.95
		c-1.473,1.211-2.377,2.801-2.888,4.617c-0.593,2.104-0.739,4.255-0.66,6.435c0.377,10.424,0.951,20.837,2.104,31.207
		c0.701,6.307,2.014,12.488,4.272,18.452c2.041,5.393,3.937,10.84,5.974,16.234c3.277,8.676,4.677,17.627,4.189,26.886
		c-0.452,8.592-2.881,16.543-7.679,23.718c-3.78,5.653-8.472,10.469-13.775,14.692c-11.217,8.933-24.193,13.608-38.224,15.695
		c-7.316,1.088-14.688,1.37-22.073,1.481c-2.646,0.04-5.291,0.32-7.934,0.288c-3.311-0.041-5.273,1.491-6.11,4.624
		c-0.165,0.618-0.384,1.223-0.577,1.833c-1.546,4.887-3.101,9.771-4.635,14.662c-0.934,2.979-1.878,5.958-2.736,8.96
		c-0.517,1.806-0.027,2.572,1.814,2.825c3.896,0.534,7.815,1.035,11.748,0.68c6.628-0.599,13.247-1.307,19.861-2.046
		c9.81-1.096,19.489-2.928,29.043-5.4c20.653-5.345,39.938-13.752,57.563-25.85c13.929-9.562,26.279-20.793,36.409-34.377
		c13.57-18.196,21.547-38.664,24.73-61.058c0.961-6.755,1.361-13.559,1.58-20.381c0.178-5.53,0.467-11.071,1.068-16.567
		c0.978-8.924,2.307-17.809,3.38-26.723c0.785-6.528,1.531-13.066,2.023-19.621c0.213-2.832-0.259-5.716-0.42-8.577
		c-4.148,0.368-6.301,2.036-7.2,5.75c-0.867,3.579-1.673,7.185-2.253,10.819c-1.251,7.836-2.333,15.698-3.501,23.547
		c-0.224,1.504-0.444,3.017-0.813,4.488c-0.188,0.747-0.594,1.506-1.097,2.091c-0.722,0.839-1.97,0.477-2.205-0.592
		c-0.153-0.698-0.163-1.43-0.213-2.149c-0.599-8.664,0.043-17.317,0.22-25.976c0.139-6.735,0.276-13.473,0.262-20.209
		c-0.005-2.636-0.28-5.294-0.694-7.9c-0.508-3.203-2.024-4.34-5.602-4.514c-0.285,1.016-0.708,2.065-0.86,3.151
		c-0.535,3.811-0.98,7.634-1.453,11.453c-0.572,4.615-1.17,9.228-1.696,13.848c-0.598,5.258-1.133,10.524-1.687,15.787
		c-0.277,2.632-0.529,5.266-0.807,7.898c-0.145,1.371-0.82,2.415-2.04,3.072c-0.748,0.403-1.485,0.188-1.781-0.599
		c-0.278-0.743-0.503-1.534-0.577-2.321c-0.234-2.475-0.437-4.956-0.563-7.438c-0.391-7.78,0.046-15.556,0.222-23.332
		c0.161-7.134,0.682-14.273-0.202-21.393c-0.365-2.941-0.818-5.876-1.369-8.789c-0.368-1.951-1.293-2.375-3.124-1.672
		c-2.275,0.875-3.689,2.507-4.121,4.917c-0.282,1.578-0.443,3.177-0.718,4.756c-1.637,9.421-2.564,18.907-2.66,28.472
		c-0.06,5.858-0.154,11.715-1.025,17.524c-0.366,2.439-0.578,4.939-2.167,7.206c-0.644-0.068-1.316-0.139-2.039-0.215
		c-0.219-1.123-0.511-2.054-0.566-2.999c-0.54-9.128-1.069-18.257-1.538-27.39c-0.234-4.565-0.313-9.14-0.514-13.707
		c-0.06-1.359-0.202-2.728-0.464-4.062C539.432,190.692,538.465,188.344,536.494,186.296z M76.404,628.217
		c1.146-0.456,1.48-1.499,1.927-2.418c1.807-3.718,2.881-7.668,3.196-11.767c0.423-5.515,0.662-11.046,0.908-16.573
		c0.416-9.296,0.738-18.597,1.182-27.892c0.126-2.637,0.403-5.283,0.849-7.885c0.752-4.39,2.444-8.438,4.826-12.215
		c0.966-1.532,2.232-2.239,4.007-2.071c3.356,0.316,6.165,1.592,8.068,4.528c2.251,3.473,3.751,7.267,4.687,11.263
		c1.078,4.602,1.963,9.247,2.95,13.869c0.368,1.723,0.751,3.442,1.188,5.148c0.386,1.511,1.399,2.212,2.977,2.298
		c3.432,0.186,4.457-0.742,4.4-4.29c-0.134-8.423-0.218-16.847-0.492-25.265c-0.138-4.243-0.467-8.498-1.02-12.707
		c-1.122-8.532-3.417-16.785-6.402-24.851c-1.307-3.53-2.7-7.033-3.852-10.613c-3.62-11.253-4.809-22.72-2.562-34.409
		c1.739-9.05,5.664-16.976,12.326-23.463c14.628-14.245,32.294-21.654,52.495-23.333c5.116-0.425,10.248-0.659,15.37-1.012
		c0.793-0.055,1.596-0.198,2.356-0.428c0.966-0.291,1.306-0.796,1.17-1.808c-0.126-0.946-0.383-1.882-0.655-2.801
		c-1.747-5.915-3.512-11.823-5.274-17.733c-0.572-1.919-1.142-3.838-1.734-5.751c-0.748-2.412-1.339-2.843-3.786-2.757
		c-0.961,0.034-1.928,0.076-2.88,0.204c-4.05,0.542-8.108,1.042-12.141,1.697c-10.771,1.747-21.348,4.323-31.699,7.781
		c-26.172,8.742-49,22.854-68.186,42.732c-16.688,17.291-27.687,37.789-33.832,60.928c-3.042,11.453-4.117,23.206-4.378,35.012
		c-0.202,9.082-1.003,18.098-2.172,27.088c-1.127,8.667-2.533,17.303-2.991,26.04c-0.235,4.484-0.202,8.982-0.303,13.474
		c-0.023,1.004,0.264,1.895,0.83,2.708c0.47,0.674,1.073,0.894,1.875,0.62c1.591-0.543,2.844-1.503,3.559-3.028
		c0.438-0.937,0.823-1.932,1.022-2.941c0.84-4.243,1.673-8.489,2.377-12.756c1.397-8.462,2.707-16.938,4.059-25.407
		c0.088-0.554,0.196-1.108,0.351-1.646c0.233-0.813,0.84-1.105,1.65-1.101c0.781,0.005,1.446,0.2,1.723,1.013
		c0.155,0.452,0.255,0.929,0.331,1.402c0.706,4.382,0.787,8.775,0.305,13.19c-0.278,2.551-0.493,5.112-0.615,7.675
		c-0.322,6.731-0.601,13.465-0.85,20.198c-0.107,2.886-0.125,5.775-0.134,8.663c-0.007,2.476,0.818,4.724,2.091,6.809
		c0.607,0.996,1.615,1.286,2.711,1.165c1.038-0.114,1.756-0.64,2.006-1.753c0.229-1.012,0.609-1.988,0.877-2.993
		c1.849-6.938,2.226-14.075,2.879-21.18c0.617-6.707,1.339-13.405,2.124-20.095c0.203-1.733,0.82-3.417,1.23-5.129
		c0.18-0.75,0.702-1.067,1.395-1.068c0.697-0.002,1.275,0.346,1.428,1.058c0.2,0.936,0.375,1.891,0.411,2.844
		c0.077,2.084,0.099,4.172,0.072,6.257c-0.132,9.947-0.282,19.895-0.44,29.841c-0.074,4.655-0.131,9.313,0.544,13.934
		c0.348,2.375,0.874,4.723,1.298,7.087c0.187,1.04,0.752,1.697,1.722,2.13c2.116,0.942,3.951,0.477,5.223-1.489
		c0.385-0.596,0.707-1.281,0.856-1.97c0.525-2.426,1.159-4.852,1.393-7.312c0.586-6.147,0.986-12.313,1.441-18.474
		c0.538-7.28,1.014-14.565,1.602-21.842c0.219-2.714,0.662-5.411,1.039-8.111c0.122-0.876,0.293-1.782,1.407-1.996
		c1.251,0.251,1.88,1.13,2.182,2.278c0.244,0.929,0.515,1.869,0.592,2.819c0.287,3.514,0.607,7.03,0.717,10.553
		c0.3,9.621,0.515,19.245,0.73,28.868C71.034,623.183,72.731,626.289,76.404,628.217z M459.857,673.621
		c1.14-1.118,2.352-1.435,3.629-1.522c4.161-0.289,8.325-0.774,12.486-0.763c9.625,0.025,19.249,0.286,28.872,0.479
		c3.847,0.077,7.692,0.362,11.53-0.154c2.471-0.332,4.897-0.768,7.123-2.006c1.339-0.745,1.913-2.536,1.467-3.728
		c-0.374-0.996-1.023-1.773-2.049-2.247c-2.196-1.014-4.454-1.849-6.856-2.124c-3.504-0.4-7.021-0.699-10.537-0.986
		c-3.118-0.255-6.245-0.396-9.363-0.657c-4.476-0.373-8.946-0.813-13.419-1.217c-5.832-0.527-11.664-1.042-17.495-1.575
		c-0.474-0.044-0.964-0.121-1.403-0.293c-1.038-0.407-1.186-1.663-0.271-2.29c0.321-0.22,0.722-0.344,1.103-0.452
		c0.923-0.262,1.851-0.52,2.788-0.726c5.12-1.122,10.319-1.461,15.542-1.417c9.803,0.082,19.56-0.631,29.305-1.575
		c0.953-0.093,1.926-0.236,2.827-0.541c1.598-0.54,2.014-1.683,1.319-3.224c-0.859-1.907-2.355-2.948-4.38-3.372
		c-5.82-1.222-11.713-1.944-17.635-2.306c-10.009-0.612-20.03-1.006-30.042-1.566c-5.204-0.292-10.403-0.708-15.503-1.891
		c-2.975-0.69-5.886-1.602-8.589-3.027c-4.481-2.364-5.401-7.249-2.142-11.144c1.472-1.759,3.325-3.001,5.53-3.679
		c1.607-0.493,3.215-0.986,4.833-1.441c7.32-2.061,14.646-4.102,21.966-6.166c0.766-0.216,1.558-0.438,2.24-0.827
		c1.568-0.893,1.782-2.485,0.573-3.795c-1.47-1.59-3.26-2.603-5.443-2.752c-1.357-0.094-2.725-0.088-4.087-0.055
		c-7.858,0.191-15.717,0.403-23.575,0.612c-7.087,0.188-14.087,1.087-20.837,3.272c-5.782,1.873-11.489,3.992-17.171,6.158
		c-10.896,4.156-22.051,6.742-33.808,6.033c-9.647-0.582-18.364-3.697-25.817-9.886c-3.011-2.501-5.705-5.398-8.421-8.232
		c-1.939-2.024-3.739-4.194-5.479-6.396c-1.397-1.768-3.097-2.444-5.276-2.047c-0.394,0.071-0.795,0.107-1.189,0.177
		c-7.892,1.389-15.783,2.776-23.672,4.177c-0.787,0.14-1.585,0.286-2.331,0.56c-1.107,0.407-1.479,1.107-1.191,2.283
		c0.248,1.007,0.606,1.993,0.987,2.961c6.362,16.158,14.913,31.037,25.977,44.451c10.139,12.292,21.789,22.861,35.418,31.182
		c20.369,12.437,42.651,18.439,66.342,19.683c4.326,0.227,8.659,0.336,12.981,0.62c4.961,0.327,9.923,0.697,14.866,1.217
		c5.741,0.603,11.465,1.366,17.191,2.099c5.486,0.702,10.966,1.469,16.452,2.179c3.499,0.452,6.999,0.907,10.51,1.255
		c2.331,0.231,3.127-0.377,3.929-2.625c0.161-0.451,0.323-0.91,0.403-1.379c0.293-1.707-0.028-2.348-1.656-2.963
		c-1.27-0.479-2.568-0.951-3.896-1.191c-6.701-1.215-13.416-2.355-20.128-3.516c-6.554-1.133-13.107-2.271-19.665-3.375
		c-0.892-0.15-1.462-0.546-1.713-1.404c0.245-1.11,1.112-1.595,2.033-1.855c1.067-0.303,2.193-0.538,3.297-0.551
		c2.163-0.025,4.329,0.098,6.491,0.207c3.927,0.197,7.849,0.575,11.776,0.621c10.43,0.121,20.861,0.08,31.292,0.163
		c2.597,0.021,4.669-1.01,6.431-2.765c1.836-1.827,1.449-3.238-1.018-4.002c-0.076-0.023-0.156-0.035-0.235-0.05
		c-5.199-0.955-10.368-2.167-15.606-2.8c-6.285-0.76-12.626-1.072-18.948-1.491c-4.974-0.33-9.868-1.174-14.757-2.063
		C462.35,675.645,461.033,675.034,459.857,673.621z M134.62,143.138c-1.668,1.369-2.568,1.897-4.346,2.165
		c-2.455,0.368-4.923,0.74-7.397,0.865c-10.977,0.557-21.959,0.989-32.936,1.553c-2.636,0.135-5.267,0.525-7.878,0.938
		c-1.931,0.305-2.807,2.666-1.676,4.248c1.433,2.004,3.43,3.108,5.83,3.458c1.506,0.219,3.03,0.333,4.55,0.432
		c3.603,0.233,7.208,0.418,10.812,0.642c9.93,0.617,19.862,1.194,29.786,1.887c4.877,0.34,9.75,0.8,14.603,1.392
		c3.354,0.41,6.574,1.464,9.54,3.122c5.476,3.063,5.885,9.525,0.854,13.253c-1.682,1.246-3.51,2.262-5.547,2.808
		c-6.109,1.638-12.222,3.258-18.341,4.857c-2.633,0.689-5.312,1.22-7.92,1.991c-2.192,0.648-2.816,2.393-1.62,4.336
		c1.29,2.094,3.069,3.407,5.714,3.319c4.57-0.151,9.145-0.146,13.714-0.308c5.611-0.2,11.237-0.302,16.824-0.807
		c11.076-1,21.765-3.684,32.088-7.872c3.926-1.592,7.954-2.95,11.99-4.247c6.127-1.968,12.407-3.31,18.856-3.486
		c11.733-0.321,22.217,3.355,31.626,10.267c1.292,0.949,2.549,1.95,3.879,2.844c2.05,1.377,4.331,2.049,6.815,1.978
		c1.202-0.035,2.404-0.074,3.606-0.104c8.821-0.22,17.642-0.435,26.463-0.667c0.634-0.017,1.291-0.066,1.894-0.245
		c1.011-0.3,1.419-1.006,1.166-2.028c-0.23-0.929-0.575-1.833-0.903-2.736c-2.51-6.889-6.099-13.221-9.942-19.436
		c-11.61-18.778-26.522-34.371-44.926-46.566c-20.336-13.476-42.792-20.439-67.122-21.516c-7.769-0.344-15.556-0.297-23.289-1.369
		c-6.83-0.946-13.682-1.724-20.525-2.571c-8.196-1.015-16.384-2.097-24.593-2.994c-2.534-0.277-5.132-0.171-7.686-0.004
		c-2.289,0.149-2.999,1.459-2.375,3.673c0.622,2.205,2.229,3.28,4.298,3.733c3.991,0.874,7.981,1.769,12.006,2.458
		c8.136,1.394,16.3,2.627,24.44,3.995c1.964,0.33,3.891,0.9,5.817,1.425c0.391,0.106,0.701,0.509,1.249,0.929
		c-0.608,0.36-0.963,0.697-1.373,0.787c-1.016,0.223-2.054,0.438-3.089,0.469c-4.57,0.136-9.144,0.333-13.712,0.267
		c-6.095-0.088-12.185-0.538-18.279-0.582c-7.137-0.051-14.276,0.174-21.415,0.264c-2.384,0.03-3.892,1.353-4.851,3.355
		c-0.862,1.801-0.154,3.226,1.812,3.57c5.684,0.995,11.356,2.135,17.082,2.786c6.61,0.75,13.27,1.077,19.913,1.515
		c4.092,0.27,8.121,0.905,12.134,1.714c1.384,0.279,2.526,0.882,3.454,1.958c-0.972,1.31-2.195,2.146-3.797,2.348
		c-1.826,0.23-3.652,0.569-5.484,0.611c-2.884,0.065-5.775-0.04-8.66-0.142c-7.776-0.274-15.557-0.497-23.326-0.916
		c-4.265-0.23-8.516-0.284-12.729,0.321c-2.841,0.408-5.624,1.231-8.429,1.883c-0.858,0.2-1.322,0.763-1.567,1.626
		c-0.541,1.901-0.179,2.996,1.519,4.079c1.986,1.268,4.151,2.125,6.488,2.386c3.666,0.41,7.342,0.734,11.02,1.033
		c4.877,0.396,9.763,0.689,14.639,1.107c6.473,0.555,12.943,1.154,19.407,1.803c2.944,0.296,5.931,0.401,8.759,1.414
		C133.915,142.541,134.229,142.867,134.62,143.138z M295.269,482.953c6.209,0.274,12.689-0.229,19.127-1.165
		c11.587-1.684,22.641-5.14,33.039-10.537c14.032-7.284,26.401-16.72,36.543-28.925c8.022-9.653,13.818-20.583,18.401-32.226
		c5.007-12.72,7.438-25.84,6.676-39.516c-0.049-0.874-0.126-1.768-0.359-2.605c-0.341-1.23-1.089-1.716-2.338-1.547
		c-0.948,0.128-1.883,0.39-2.806,0.654c-7.696,2.207-15.39,4.425-23.08,6.651c-0.688,0.2-1.388,0.417-2.02,0.746
		c-1.034,0.537-1.357,1.256-1.166,2.386c0.066,0.39,0.216,0.77,0.365,1.14c1.668,4.098,2.718,8.374,3.683,12.676
		c0.721,3.214,1.397,6.435,1.117,9.759c-0.338,4.013-1.129,7.927-2.595,11.694c-6.558,16.851-23.534,25.337-39.153,23.175
		c-12.773-1.769-22.138-8.36-28.233-19.645c-3.255-6.024-4.25-12.54-3.94-19.315c0.117-2.563,0.235-5.133,0.152-7.694
		c-0.065-2.013-0.664-2.479-2.638-2.712c-0.398-0.047-0.798-0.103-1.197-0.106c-5.696-0.044-11.392-0.083-17.088-0.114
		c-0.399-0.002-0.802,0.051-1.197,0.111c-1.816,0.279-2.198,0.657-2.335,2.435c-0.061,0.797-0.021,1.602-0.021,2.403
		c0,4.813,0.263,9.65-0.51,14.42c-2.891,17.84-18.434,30.136-35.176,30.574c-4.877,0.127-9.571-0.823-14.139-2.435
		c-20.335-7.172-27.042-26.488-23.36-41.89c1.004-4.201,2.378-8.313,3.584-12.465c0.871-2.999,0.589-3.749-2.324-4.653
		c-7.875-2.444-15.776-4.804-23.68-7.153c-1.92-0.571-2.41-0.149-2.593,1.907c-0.014,0.16-0.02,0.32-0.029,0.48
		c-0.637,11.391,0.462,22.616,3.727,33.547c6.146,20.58,17.485,37.882,33.589,52.043c10.9,9.585,23.382,16.516,36.919,21.653
		C271.418,480.958,282.875,483.679,295.269,482.953z M294.523,591.58c4.336-0.379,9.62-0.721,14.872-1.33
		c6.395-0.742,12.613-2.316,18.458-5.056c13.869-6.503,24.11-16.743,30.87-30.463c3.064-6.22,5.023-12.81,6.272-19.615
		c0.48-2.62-0.262-3.489-2.919-3.133c-1.891,0.254-3.765,0.758-5.593,1.321c-4.435,1.365-8.81,2.925-13.259,4.238
		c-14.462,4.271-29.186,6.737-44.324,6.127c-3.525-0.143-7.054-0.285-10.567-0.588c-6.467-0.556-12.941-1.092-19.381-1.884
		c-11.333-1.395-22.29-4.354-32.986-8.335c-2.242-0.834-4.584-1.402-6.887-2.067c-0.456-0.132-0.945-0.197-1.419-0.203
		c-0.981-0.011-1.511,0.396-1.652,1.363c-0.115,0.787-0.115,1.599-0.096,2.397c0.105,4.515,0.949,8.924,2.092,13.27
		c2.646,10.057,7.355,19.001,15.073,26.076C257.349,586.784,274.395,592.24,294.523,591.58z M284.858,535.866
		c1.739,0,3.182,0.021,4.624-0.004c2.335-0.039,2.995-0.681,3.12-2.98c0.021-0.399-0.004-0.802,0.013-1.202
		c0.095-2.232,0.227-4.464,0.285-6.696c0.048-1.842,0.059-3.688-0.005-5.528c-0.048-1.386-0.655-2.024-1.983-2.321
		c-0.311-0.069-0.638-0.063-0.955-0.107c-7.448-1.065-14.895-2.141-22.345-3.191c-1.108-0.156-2.232-0.269-3.35-0.279
		c-1.481-0.015-1.961,0.396-2.402,1.844c-0.116,0.38-0.172,0.78-0.229,1.175c-0.278,1.901-0.594,3.799-0.806,5.707
		c-0.248,2.228-0.463,4.463-0.579,6.701c-0.118,2.284,0.234,2.707,2.443,3.486c0.527,0.186,1.065,0.34,1.601,0.503
		C271.091,535.045,278.092,535.676,284.858,535.866z M255.514,514.152c0.118-1.595-0.536-2.842-1.762-3.763
		c-0.762-0.572-1.613-1.04-2.468-1.468c-6.012-3.008-12.034-5.993-18.056-8.979c-0.5-0.248-1.005-0.513-1.539-0.663
		c-1.287-0.364-1.972-0.022-2.426,1.24c-0.269,0.749-0.43,1.54-0.603,2.32c-0.916,4.142-1.93,8.266-2.693,12.436
		c-0.616,3.364,0.478,5.183,3.652,6.367c6.593,2.46,13.219,4.831,19.837,7.224c0.598,0.217,1.229,0.389,1.859,0.457
		c0.777,0.085,1.431-0.24,1.747-0.995c0.214-0.512,0.392-1.053,0.484-1.599c0.469-2.763,0.913-5.529,1.348-8.298
		C255.12,517.008,255.309,515.579,255.514,514.152z M363.731,516.96c-0.249-1.97-0.619-5.155-1.072-8.328
		c-0.146-1.022-0.437-2.042-0.79-3.015c-0.933-2.561-2.438-3.38-5.04-2.791c-0.778,0.176-1.548,0.418-2.296,0.698
		c-5.92,2.215-11.843,4.422-17.744,6.685c-2.348,0.899-2.666,1.422-2.431,4.009c0.342,3.753,0.786,7.495,1.192,11.241
		c0.104,0.956,0.205,1.914,0.345,2.865c0.373,2.535,1.402,3.17,3.793,2.368c0.077-0.025,0.15-0.057,0.226-0.085
		c7.027-2.682,14.063-5.343,21.079-8.056C363.462,521.598,363.928,520.774,363.731,516.96z M308.951,535.855
		c5.475,0.11,10.859-0.608,16.161-1.94c2.531-0.636,3.128-1.439,3.005-4.085c-0.176-3.761-0.408-7.519-0.633-11.276
		c-0.043-0.719-0.148-1.435-0.252-2.148c-0.295-2.045-0.76-2.479-2.82-2.339c-1.755,0.12-3.504,0.356-5.249,0.595
		c-5.472,0.747-10.944,1.492-16.408,2.294c-2.646,0.389-3.324,1.162-3.376,3.735c-0.063,3.123-0.082,6.248-0.057,9.372
		c0.007,0.868,0.153,1.757,0.381,2.598c0.568,2.092,1.776,3.078,3.963,3.179C305.425,535.92,307.189,535.855,308.951,535.855z
		 M272.523,488.49c-1.042,0-2.084-0.028-3.125,0.006c-2.074,0.069-2.95,0.736-3.318,2.729c-0.684,3.697-1.318,7.405-1.907,11.12
		c-0.335,2.115,0.348,3.076,2.47,3.701c6.385,1.884,12.855,3.326,19.528,3.684c1.599,0.086,3.204,0.178,4.802,0.13
		c1.37-0.041,2.208-0.89,2.391-2.239c0.074-0.549,0.037-1.12-0.005-1.677c-0.168-2.235-0.367-4.469-0.539-6.704
		c-0.153-1.996-0.274-3.994-0.433-5.989c-0.152-1.922-0.974-3.495-3.349-3.681C283.539,489.142,278.058,488.394,272.523,488.49z
		 M299.368,499.803c-0.063,0.002-0.126,0.004-0.189,0.006c0.149,2.318,0.258,4.64,0.46,6.953c0.182,2.073,0.803,2.66,2.893,2.701
		c6.702,0.133,13.258-0.765,19.611-2.961c2.11-0.729,2.733-1.507,2.589-3.708c-0.185-2.794-0.5-5.582-0.84-8.362
		c-0.146-1.183-0.381-2.381-0.781-3.499c-0.58-1.617-1.771-2.647-3.54-2.862c-0.713-0.086-1.448-0.22-2.149-0.134
		c-4.927,0.607-9.849,1.265-14.771,1.915c-0.396,0.053-0.795,0.139-1.169,0.273c-0.962,0.345-1.669,0.972-1.865,2.013
		c-0.133,0.703-0.225,1.423-0.238,2.138C299.347,496.117,299.368,497.96,299.368,499.803z M329.441,488.495
		c0.05,0.512,0.062,0.834,0.116,1.149c0.664,3.863,1.291,7.734,2.021,11.585c0.347,1.823,1.25,2.284,3.218,1.693
		c7.142-2.144,14.05-4.854,20.481-8.676c2.277-1.354,2.668-2.271,1.916-4.742c-0.604-1.986-1.355-3.927-2-5.902
		c-1.336-4.099-3.43-4.565-6.968-3.852c-5.928,1.195-11.435,3.534-16.94,5.917C329.89,486.272,329.378,487.264,329.441,488.495z
		 M239.181,478.275c-1.969,0.05-3.021,0.771-3.598,2.004c-0.98,2.096-2.044,4.191-2.667,6.402c-0.49,1.739,0.051,3.442,1.721,4.628
		c5.972,4.243,12.423,7.562,19.28,10.099c1.932,0.715,2.653,0.349,3.192-1.598c1.003-3.621,1.946-7.26,2.875-10.9
		c0.42-1.647,0.097-2.323-1.438-3.104c-0.853-0.433-1.76-0.76-2.648-1.122c-4.366-1.779-8.722-3.583-13.107-5.313
		C241.465,478.849,240.056,478.536,239.181,478.275z M312.409,469.034c1.741-0.543,2.115-0.906,2.191-2.665
		c0.059-1.355,0.014-2.734-0.162-4.079c-0.986-7.521-4.238-14.058-8.861-19.969c-0.636-0.814-1.387-1.57-2.198-2.212
		c-3.793-3.001-8.564-2.797-11.981,0.621c-1.233,1.233-2.319,2.682-3.188,4.196c-2.709,4.726-5.313,9.514-7.892,14.312
		c-1.106,2.058-1.155,4.336-0.812,6.58c0.273,1.786,1.148,3.086,3.21,3.328c2.146,0.251,4.26,0.763,6.401,1.07
		c3.092,0.445,6.197,0.81,8.309,1.081C303.185,471.09,307.858,470.451,312.409,469.034z"/>
</g>
</svg>
