<?xml version="1.0" encoding="utf-8"?>
<!-- Generator: Adobe Illustrator 16.0.0, SVG Export Plug-In . SVG Version: 6.00 Build 0)  -->
<!DOCTYPE svg PUBLIC "-//W3C//DTD SVG 1.1//EN" "http://www.w3.org/Graphics/SVG/1.1/DTD/svg11.dtd">
<svg version="1.1" xmlns="http://www.w3.org/2000/svg" xmlns:xlink="http://www.w3.org/1999/xlink" x="0px" y="0px" width="612px"
	 height="792px" viewBox="0 0 612 792" enable-background="new 0 0 612 792" xml:space="preserve">
<g id="Grey">
	<path fill-rule="evenodd" clip-rule="evenodd" fill="#BFCBE3" d="M341.48,141.461c1.92-2.577,3.515-5.201,5.576-7.388
		c5.091-5.402,11.591-8.482,18.643-10.45c11.062-3.086,22.14-3.405,33.177,0.125c1.823,0.583,3.609,1.335,5.326,2.185
		c7.647,3.786,12.454,9.828,14.49,18.155c3.662,14.981,0.339,27.825-11.624,37.933c-5.36,4.529-11.727,7.185-18.567,8.642
		c-8.794,1.873-17.543,1.254-26.252-0.654c-0.859-0.188-1.718-0.38-2.843-0.63c-0.211,0.694-0.47,1.333-0.597,1.996
		c-1.68,8.851-2.421,17.783-2.502,26.792c-0.063,6.897-0.358,13.792-0.568,20.688c-0.028,0.929-0.158,1.854-0.258,2.968
		c-0.861-0.323-1.462-0.514-2.035-0.768c-11.093-4.919-22.781-7.522-34.771-8.983c-13.188-1.605-26.411-1.805-39.642-0.846
		c-22.564,1.636-44.68,5.536-65.951,13.52c-0.509,0.191-1.045,0.313-1.905,0.566c-0.072-1.083-0.186-1.994-0.186-2.905
		c0.002-14.204,0.019-28.408,0.032-42.612c0.001-1.029,0-2.058,0-3.292c-3.096,0.583-5.888,1.201-8.709,1.623
		c-10.254,1.534-20.187,0.546-29.451-4.385c-14.14-7.527-22.247-22.452-20.573-38.364c1.238-11.765,7.194-20.736,17.411-26.778
		c6.474-3.829,13.585-5.595,21.01-6.295c15.595-1.471,30.104,2.015,43.669,9.654c4.258,2.397,8.39,5.019,12.579,7.538
		c0.816,0.491,1.631,0.983,2.685,1.619c0.278-0.95,0.555-1.743,0.741-2.557c2-8.772,6.786-15.643,14.132-20.776
		c6.932-4.844,14.708-7.43,23.037-8.348c11.233-1.238,22.076,0.257,32.333,5.191c9.34,4.493,16.308,11.259,19.945,21.126
		C340.52,137.616,340.944,139.579,341.48,141.461z M462.758,281.896c6.695,5.305,14.337,8.35,22.902,9.094
		c7.488,0.651,14.711-0.539,21.793-2.814c10.956-3.52,20.78-9.223,30.037-15.935c16.546-11.997,30.876-26.324,43.74-42.142
		c2.726-3.351,5.21-6.924,7.528-10.572c1.224-1.924,1.96-4.19,2.725-6.369c1.915-5.452-3.83-11.26-9.546-10.136
		c-3.213,0.632-6.073,2.008-8.775,3.768c-6.068,3.95-11.729,8.419-16.948,13.442c-4.048,3.896-8.051,7.837-12.133,11.695
		c-7.531,7.115-15.275,13.98-23.936,19.725c-3.747,2.485-7.623,4.749-11.882,6.263c-2.896,1.029-5.858,1.644-8.968,1.246
		c-5.932-0.759-9.274-5.641-7.817-11.423c0.694-2.759,1.968-5.242,3.508-7.607c2.601-3.994,5.8-7.477,9.231-10.754
		c8.539-8.156,17.638-15.664,26.791-23.109c9.711-7.899,19.394-15.834,29.104-23.735c2.581-2.1,4.322-4.719,5.104-7.948
		c1.548-6.388-1.447-11.472-7.857-12.867c-2.132-0.464-4.467-0.362-6.659-0.101c-3.263,0.39-6.039,2.045-8.527,4.163
		c-8.19,6.969-16.354,13.969-24.576,20.901c-10.308,8.691-20.752,17.214-31.719,25.071c-3.587,2.57-7.321,4.919-11.435,6.593
		c-3.001,1.222-6.08,1.943-9.367,1.76c-5.938-0.331-12.162-6.759-10.125-14.075c0.945-3.395,2.719-6.31,4.8-9.085
		c3.399-4.534,7.584-8.278,11.976-11.796c11.9-9.531,23.832-19.021,35.746-28.534c4.647-3.71,9.206-7.535,12.931-12.203
		c1.435-1.799,2.793-3.77,3.677-5.877c2.78-6.629-2.457-13.097-9.6-12.105c-3.02,0.419-5.65,1.683-8.183,3.282
		c-14.755,9.315-28.489,20-41.854,31.175c-9.423,7.879-18.58,16.04-27.031,24.99c-8.211,8.696-11.854,19.099-12.092,30.819
		c-0.241,11.945,2.637,23.193,8.143,33.782c0.328,0.63,0.655,1.262,1.032,1.988c-7.846,7.395-15.886,14.448-23.969,20.696
		c6.562,6.606,12.926,13.014,19.413,19.544c8.084-5.856,15.436-13.095,23.841-18.924C456.938,276.66,459.696,279.47,462.758,281.896
		z M15.807,159.971c0.31,4.721,0.57,9.447,0.974,14.161c1.119,13.049,3.396,25.899,6.825,38.542
		c7.83,28.875,21.758,54.359,42.35,76.134c17.614,18.625,38.382,32.971,60.955,44.859c0.395,0.208,0.852,0.297,1.357,0.469
		c9.157-20.177,20.69-38.672,35.503-55.275c-0.897-0.777-1.664-1.461-2.452-2.121c-26.156-21.878-52.344-43.719-78.463-65.642
		c-21.142-17.746-42.383-35.363-64.477-51.925c-0.692-0.519-1.406-1.01-2.579-1.851C15.801,158.558,15.761,159.267,15.807,159.971z
		 M153.886,489.25c-39.505,36.112-81.313,69.132-123.178,102.084c-0.174,0.138-0.265,0.381-0.5,0.73
		c6.877,7.477,13.754,14.953,20.61,22.407c7.404-4.461,119.951-100.305,124.082-105.704
		C166.958,503.148,160.198,496.459,153.886,489.25z M402.937,511.726c41.861,34.969,83.978,69.284,126.269,103.705
		c5.248-7.352,10.345-14.492,15.479-21.686c-39.914-34.333-79.612-68.479-119.591-102.866
		C418.442,498.73,411.181,505.595,402.937,511.726z"/>
</g>
<g id="White">
	<path fill-rule="evenodd" clip-rule="evenodd" fill="#FFFFFF" d="M289.734,540.803c-19.032-0.586-37.65-3.472-55.717-9.611
		c-32.339-10.987-59.121-29.73-79.558-57.212c-12.117-16.294-20.439-34.394-24.686-54.285c-2.63-12.317-3.186-24.783-2.316-37.338
		c0.824-11.881,2.756-23.557,6.232-34.951c10.924-35.803,32.792-63.09,64.586-82.54c17.676-10.813,36.853-17.753,57.164-21.759
		c15.606-3.078,31.357-4.093,47.171-3.15c36.584,2.183,69.126,14.927,97.331,38.415c20.709,17.246,36.431,38.241,46.721,63.204
		c4.298,10.428,7.134,21.26,8.312,32.49c0.729,6.961,0.545,13.945,0.047,20.913c-0.778,10.9-2.464,21.655-5.471,32.181
		c-8.698,30.46-25.444,55.622-49.902,75.686c-22.539,18.49-48.327,30.003-76.88,35.397
		C311.868,540.3,300.814,540.937,289.734,540.803z M354.317,487.91c14.939-0.005,24.522-2.238,32.989-8.063
		c13.263-9.125,21.316-21.603,23.083-37.727c2.108-19.254-4.646-34.82-20.414-46.151c-10.361-7.445-22.194-10.179-34.821-9.311
		c-14.699,1.01-26.929,7.104-36.604,18.303c-16.725,19.358-14.875,44.958-3.007,60.735
		C326.346,480.058,340.912,487.669,354.317,487.91z M225.782,386.459c-12.146-0.245-22.898,3.6-32.441,10.91
		c-14.304,10.958-20.987,25.479-20.029,43.479c0.633,11.899,5.387,22.037,13.636,30.479c11.246,11.509,25.054,16.983,41.127,16.536
		c10.896-0.304,20.825-3.629,29.323-10.548c11.446-9.319,18.519-21.202,19.815-36.076c0.864-9.919-0.342-19.661-5.403-28.406
		C261.607,395.201,245.896,386.867,225.782,386.459z M213.43,277.251c-0.961,0.042-1.923,0.08-2.885,0.128
		c-0.4,0.021-0.804,0.035-1.198,0.099c-15.707,2.551-26.295,11.033-30.837,26.562c-2.533,8.657-1.438,16.757,3.366,24.423
		c5.016,8.003,11.541,14.563,19.005,20.231c21.463,16.296,45.368,27.868,70.814,36.43c0.83,0.279,1.707,0.442,2.575,0.575
		c1.208,0.184,1.964-0.412,2.413-1.519c0.459-1.133,0.239-2.066-0.773-2.729c-0.868-0.568-1.771-1.1-2.707-1.544
		c-3.399-1.612-6.8-3.221-10.233-4.757c-11.768-5.263-23.537-10.518-34.795-16.832c-9.393-5.268-18.406-11.077-26.396-18.36
		c-4.411-4.021-8.339-8.449-11.312-13.655c-3.47-6.075-5.22-12.515-4.229-19.588c2.071-14.786,16.608-24.807,31.206-21.454
		c5.47,1.257,9.394,4.707,12.645,9.02c4.231,5.613,5.631,11.96,4.424,18.862c-0.446,2.545-1.647,4.793-3.94,6.066
		c-5.325,2.956-10.885,3.563-16.6,1.075c-1.241-0.54-2.049-1.497-2.55-2.742c-1.562-3.884-0.477-7.948,2.818-10.519
		c0.253-0.197,0.521-0.38,0.75-0.602c1.264-1.224,1.718-3.255,1.048-4.629c-0.642-1.317-2.296-1.999-4.17-1.638
		c-2.289,0.442-4.178,1.532-5.557,3.48c-1.56,2.205-2.515,4.635-2.94,7.288c-1.217,7.607,1.941,13.186,9.09,16.067
		c4.651,1.874,9.417,2.422,14.375,1.458c8.833-1.717,14.573-7.289,16.213-15.916c0.623-3.274,0.169-6.516-0.227-9.792
		C240.777,285.808,225.468,276.897,213.43,277.251z M304.935,495.326c0.329-5.329-2.98-9.329-8.737-10.607
		c-9.003-1.999-16.526,4.219-15.83,13.169c0.43,5.517,4.065,9.92,9.123,11.047c5.263,1.173,10.628-1.147,13.402-5.818
		C304.316,500.72,304.988,498.115,304.935,495.326z M201.688,603.79c0.825,5.3,1.356,10.669,2.57,15.88
		c3.176,13.642,9.097,25.97,18.547,36.453c9.852,10.93,22.089,18.147,35.892,22.867c11.395,3.897,23.176,5.598,35.175,6.014
		c8.299,0.289,16.516-0.38,24.578-2.365c22.663-5.579,39.481-18.858,50.917-39.071c6.588-11.644,10.39-24.249,12.538-37.394
		c0.352-2.152,0.594-4.322,0.954-6.982c-1.224,0.767-1.94,1.251-2.689,1.679c-4.032,2.301-7.964,4.81-12.128,6.843
		c-20.085,9.802-41.411,14.804-63.674,15.847c-17.633,0.826-35.068-0.808-52.319-4.604c-16.405-3.61-32.198-9.013-47.563-15.738
		c-0.856-0.375-1.729-0.713-2.808-1.156C201.679,602.864,201.618,603.338,201.688,603.79z M244.035,607.147
		c0.772,0.277,1.35,0.542,1.955,0.691c3.494,0.862,6.973,1.802,10.497,2.519c9.269,1.885,18.602,3.352,28.057,3.912
		c1.153,0.068,2.32-0.089,3.491-0.143c0-8.714,0-17.105,0-25.795c-13.565-0.813-26.942-2.591-40.422-5.402
		C246.378,591.285,245.211,599.185,244.035,607.147z M336.958,582.333c-10.441,2.984-21.147,4.358-31.93,5.288
		c-2.275,0.196-4.538,0.536-6.884,0.82c-0.084,8.829-0.181,17.369,0.143,25.872c9.355,0.813,37.924-3.932,42.497-7.034
		c-1.043-8.267-2.093-16.594-3.135-24.861C337.255,582.365,337.091,582.295,336.958,582.333z M249.703,573.763
		c12.497,3.116,25.182,5.122,38.393,5.307c0.5-9.559,0.34-19.019-0.091-28.197c-11.45-1.235-22.505-2.428-33.583-3.623
		C252.805,550.908,249.226,570.787,249.703,573.763z M298.327,578.972c13.034,0.065,25.411-2.739,38.006-6.078
		c-1.305-8.757-2.515-17.354-4.197-25.758c-11.354,1.29-22.479,2.554-33.809,3.841C298.327,560.209,298.327,569.539,298.327,578.972
		z M207.835,569.458c-0.119,0.411-0.285,0.858-0.377,1.319c-1.262,6.354-2.538,12.705-3.752,19.068
		c-0.373,1.954-0.304,1.996,1.587,2.898c8.736,4.168,17.691,7.804,26.843,10.954c0.634,0.218,1.323,0.28,2.126,0.444
		c1.46-7.997,2.878-15.767,4.273-23.408C228.081,576.895,217.994,573.189,207.835,569.458z M347.085,579.271
		c0.954,8.479,1.883,16.732,2.814,25.016c0.25,0.018,0.502,0.098,0.718,0.04c0.539-0.145,1.073-0.324,1.591-0.534
		c8.336-3.372,16.316-7.41,23.819-12.398c1.957-1.301,2.907-2.798,2.644-5.166c-0.623-5.572-1.129-11.157-1.737-16.73
		c-0.137-1.252-0.501-2.479-0.839-4.093C366.918,571.435,357.14,575.554,347.085,579.271z M210.735,559.205
		c9.518,4.91,19.22,8.852,29.554,11.871c1.68-8.827,3.348-17.418,4.71-25.925c-8.397-2.483-16.503-4.881-24.894-7.363
		C215.965,544.39,213.004,551.578,210.735,559.205z M347.396,569.125c8.74-3.432,17.116-7.597,25.11-12.523
		c1.539-0.948,1.608-1.142,1.056-2.951c-1.753-5.741-3.533-11.476-5.328-17.204c-0.184-0.585-0.533-1.118-0.679-1.414
		c-8.77,3.26-17.359,6.453-26.166,9.727c1.348,8.031,2.736,16.307,4.174,24.873C346.344,569.419,346.89,569.323,347.396,569.125z"/>
</g>
<g id="Black">
	<path fill-rule="evenodd" clip-rule="evenodd" fill="#040303" d="M18.621,591.084c43.268-36.395,87.791-71.076,128.989-109.46
		c-29.611-41.556-36.665-86.961-24.696-136.023c-0.88-0.552-1.81-1.153-2.756-1.728c-15.86-9.637-31.072-20.178-45.087-32.383
		c-19.563-17.037-35.831-36.693-47.577-59.935c-7.892-15.616-13.341-32.07-16.88-49.182c-1.854-8.963-2.826-18.052-3.942-27.124
		c-0.737-5.986-1.19-11.984-0.945-18.004c0.231-5.688,0.697-11.367,1.087-17.049c0.037-0.531,0.273-1.047,0.489-1.837
		c0.949,0.656,1.733,1.179,2.498,1.73c19.138,13.804,37.621,28.455,55.927,43.332c34.69,28.192,68.789,57.086,102.582,86.346
		c0.725,0.627,1.471,1.231,2.337,1.956c0.636-0.515,1.259-0.976,1.833-1.49c8.362-7.477,17.5-13.792,27.731-18.446
		c1.688-0.768,2.414-1.868,2.409-3.708c-0.035-13.161-0.015-26.321-0.03-39.482c-0.001-0.789-0.155-1.577-0.264-2.617
		c-1.122,0.138-2.125,0.218-3.113,0.39c-4.189,0.729-8.372,1.42-12.659,1.259c-12.385-0.466-22.703-5.251-30.611-14.828
		c-8.169-9.895-12.698-21.353-13.236-34.159c-0.498-11.846,3.73-22.015,12.399-30.175c8.217-7.736,18.07-12.331,29.063-14.564
		c14.908-3.028,29.505-2.052,43.707,3.584c5.244,2.081,10.1,4.863,14.599,8.267c0.511,0.387,1.028,0.767,1.554,1.133
		c0.123,0.086,0.293,0.104,0.585,0.202c0.282-0.531,0.621-1.061,0.859-1.634c2.406-5.78,6.267-10.412,11.218-14.168
		c7.431-5.636,15.855-8.984,24.977-10.629c5.368-0.968,10.783-1.781,16.255-1.426c10.477,0.68,20.665,2.471,29.842,8.076
		c7.067,4.317,12.417,10.063,15.499,17.819c0.199,0.501,0.479,0.97,0.766,1.541c1.823-1.104,3.526-2.154,5.246-3.174
		c8.183-4.854,16.81-8.624,26.162-10.572c9.313-1.94,18.609-1.901,27.414,1.91c12.999,5.627,21.101,15.602,24.268,29.44
		c1.763,7.699,1.805,15.398-0.307,23.089c-2.745,10.005-8.328,18.007-16.857,23.83c-7.239,4.942-15.243,8.1-23.984,9.288
		c-5.187,0.705-10.229,0.104-15.197-1.426c-0.9-0.277-1.811-0.521-2.985-0.858c-0.183,1.583-0.333,2.987-0.509,4.389
		c-1.553,12.386-1.748,24.798-0.703,37.231c0.121,1.437,0.432,2.856,0.574,4.292c0.218,2.191,1.366,3.527,3.282,4.65
		c5.528,3.239,10.998,6.594,16.354,10.11c3.615,2.373,7.002,5.095,10.49,7.662c0.708,0.521,1.412,1.048,2.299,1.705
		c8.001-5.325,15.605-11.143,22.723-17.622c-1.245-2.817-2.479-5.415-3.554-8.077c-3.46-8.574-5.431-17.417-4.802-26.742
		c0.748-11.1,5.11-20.748,11.664-29.542c4.672-6.268,9.904-12.051,15.927-17.013c13.993-11.53,28.082-22.946,42.241-34.271
		c5.196-4.155,10.755-7.848,16.669-10.943c4.707-2.464,9.546-4.555,14.983-4.768c7.711-0.302,14.369,4.479,16.411,11.829
		c0.726,2.61,0.683,5.229,0.029,7.843c-0.984,3.945-2.875,7.46-5.166,10.78c-3.574,5.179-7.885,9.708-12.417,14.041
		c-8.599,8.219-18.022,15.459-27.23,22.956c-3.982,3.242-7.997,6.45-11.871,9.818c-2.416,2.1-4.668,4.404-6.848,6.75
		c-0.96,1.032-1.707,2.333-2.289,3.629c-0.998,2.224-0.034,3.75,2.41,4.06c1.869,0.237,3.738,0.081,5.396-0.813
		c3.165-1.708,6.474-3.266,9.327-5.412c5.895-4.433,11.641-9.082,17.246-13.877c9.086-7.772,17.969-15.78,27.018-23.596
		c4.924-4.252,10.16-8.1,16.057-10.946c4.005-1.934,8.14-3.322,12.685-3.228c3.486,0.073,6.667,1.006,9.434,3.095
		c4.218,3.185,7.383,7.097,8.204,12.542c0.42,2.783-0.105,5.432-0.999,8.03c-1.161,3.376-3.058,6.342-5.261,9.125
		c-4.108,5.189-8.97,9.613-14.063,13.8c-11.714,9.631-23.478,19.203-35.126,28.913c-5.858,4.883-11.462,10.067-16.208,16.082
		c-0.93,1.178-1.732,2.513-2.313,3.894c-0.761,1.807,0.224,3.107,2.17,2.751c1.617-0.295,3.277-0.889,4.675-1.748
		c3.479-2.137,6.93-4.354,10.196-6.8c11.52-8.625,22.077-18.368,32.468-28.294c6.459-6.171,13.312-11.827,21.048-16.346
		c3.684-2.152,7.517-3.907,11.751-4.733c7.405-1.445,12.785,1.171,15.833,8.055c1.455,3.286,2.866,6.709,2.424,10.408
		c-0.282,2.354-0.9,4.711-1.695,6.95c-1.789,5.038-4.814,9.402-7.967,13.663c-5.799,7.839-12.658,14.712-19.701,21.407
		c-13.701,13.025-28.569,24.58-44.278,35.079c-12.086,8.078-25.405,11.616-39.863,10.966c-6.691-0.301-13.201-1.575-19.378-4.272
		c-4.381-1.913-8.334-4.457-11.646-7.94c-0.323-0.34-0.702-0.628-1.22-1.085c-6.003,4.984-11.976,9.943-18.13,15.053
		c0.674,1.058,1.302,2.051,1.938,3.041c10.349,16.112,18.071,33.37,22.62,52.001c3.163,12.95,4.35,26.061,3.311,39.385
		c-2.521,32.331-14.178,61.115-33.521,86.948c-0.422,0.564-0.827,1.142-1.343,1.855c41.631,35.771,83.188,71.477,124.868,107.29
		c-8.186,11.107-16.311,22.131-24.593,33.37c-44.618-36.395-89.11-72.687-133.512-108.904c-6.525,4.145-12.926,8.211-19.499,12.387
		c0.174,0.527,0.373,1.198,0.613,1.855c4.922,13.434,8.609,27.183,10.543,41.376c2.43,17.825,2.123,35.533-2.685,52.977
		c-5.151,18.693-14.803,34.553-30.185,46.629c-10.913,8.567-23.355,13.871-36.863,16.773c-13.716,2.947-27.538,3.074-41.417,1.486
		c-14.988-1.715-29.203-5.93-42.215-13.649c-21.995-13.047-35.167-32.282-39.6-57.464c-2.772-15.749-1.374-31.318,2.249-46.771
		c2.644-11.279,6.698-22.061,11.468-32.591c0.792-1.747,1.547-3.51,2.402-5.453c-9.423-6.45-18.802-12.87-28.27-19.35
		c-43.991,37.097-87.897,74.123-131.781,111.131C48.286,623.876,21.309,594.845,18.621,591.084z M289.734,540.803
		c11.08,0.134,22.134-0.503,33.033-2.562c28.553-5.395,54.341-16.907,76.88-35.397c24.458-20.063,41.204-45.226,49.902-75.686
		c3.007-10.525,4.692-21.28,5.471-32.181c0.498-6.967,0.683-13.951-0.047-20.913c-1.178-11.23-4.014-22.062-8.312-32.49
		c-10.29-24.962-26.012-45.958-46.721-63.204c-28.205-23.488-60.747-36.231-97.331-38.415c-15.814-0.943-31.565,0.072-47.171,3.15
		c-20.311,4.006-39.487,10.947-57.164,21.759c-31.794,19.449-53.662,46.737-64.586,82.54c-3.476,11.394-5.408,23.07-6.232,34.951
		c-0.87,12.555-0.314,25.021,2.316,37.338c4.247,19.892,12.569,37.991,24.686,54.285c20.437,27.481,47.219,46.225,79.558,57.212
		C252.084,537.331,270.702,540.217,289.734,540.803z M341.48,141.461c-0.536-1.882-0.961-3.845-1.648-5.711
		c-3.638-9.867-10.605-16.633-19.945-21.126c-10.258-4.935-21.1-6.429-32.333-5.191c-8.329,0.918-16.104,3.504-23.037,8.348
		c-7.346,5.133-12.132,12.003-14.132,20.776c-0.186,0.814-0.463,1.606-0.741,2.557c-1.054-0.636-1.868-1.128-2.685-1.619
		c-4.189-2.519-8.321-5.141-12.579-7.538c-13.566-7.639-28.075-11.125-43.669-9.654c-7.425,0.7-14.536,2.467-21.01,6.295
		c-10.216,6.042-16.173,15.014-17.411,26.778c-1.674,15.913,6.433,30.837,20.573,38.364c9.264,4.932,19.196,5.919,29.451,4.385
		c2.821-0.422,5.614-1.04,8.709-1.623c0,1.234,0.001,2.263,0,3.292c-0.013,14.204-0.03,28.408-0.032,42.612
		c0,0.911,0.113,1.822,0.186,2.905c0.86-0.253,1.396-0.375,1.905-0.566c21.271-7.984,43.387-11.884,65.951-13.52
		c13.231-0.959,26.455-0.759,39.642,0.846c11.989,1.46,23.678,4.063,34.771,8.983c0.573,0.254,1.174,0.445,2.035,0.768
		c0.1-1.113,0.229-2.039,0.258-2.968c0.21-6.896,0.506-13.791,0.568-20.688c0.081-9.008,0.822-17.94,2.502-26.792
		c0.127-0.663,0.386-1.302,0.597-1.996c1.125,0.25,1.983,0.441,2.843,0.63c8.709,1.908,17.458,2.527,26.252,0.654
		c6.841-1.457,13.207-4.113,18.567-8.642c11.963-10.107,15.286-22.952,11.624-37.933c-2.036-8.328-6.843-14.37-14.49-18.155
		c-1.717-0.85-3.503-1.602-5.326-2.185c-11.037-3.53-22.115-3.211-33.177-0.125c-7.052,1.967-13.552,5.047-18.643,10.45
		C344.995,136.26,343.4,138.884,341.48,141.461z M453.78,273.784c3.158,2.876,5.916,5.687,8.978,8.113
		c6.695,5.305,14.337,8.35,22.902,9.094c7.488,0.651,14.711-0.539,21.793-2.814c10.956-3.52,20.78-9.223,30.037-15.935
		c16.546-11.997,30.876-26.324,43.74-42.142c2.726-3.351,5.21-6.924,7.528-10.572c1.224-1.924,1.96-4.19,2.725-6.369
		c1.915-5.452-3.83-11.26-9.546-10.136c-3.213,0.632-6.073,2.008-8.775,3.768c-6.068,3.95-11.729,8.419-16.948,13.442
		c-4.048,3.896-8.051,7.837-12.133,11.695c-7.531,7.115-15.275,13.98-23.936,19.725c-3.747,2.485-7.623,4.749-11.882,6.263
		c-2.896,1.029-5.858,1.644-8.968,1.246c-5.932-0.759-9.274-5.641-7.817-11.423c0.694-2.759,1.968-5.242,3.508-7.607
		c2.601-3.994,5.8-7.477,9.231-10.754c8.539-8.156,17.638-15.664,26.791-23.109c9.711-7.899,19.394-15.834,29.104-23.735
		c2.581-2.1,4.322-4.719,5.104-7.948c1.548-6.388-1.447-11.472-7.857-12.867c-2.132-0.464-4.467-0.362-6.659-0.101
		c-3.263,0.39-6.039,2.045-8.527,4.163c-8.19,6.969-16.354,13.969-24.576,20.901c-10.308,8.691-20.752,17.214-31.719,25.071
		c-3.587,2.57-7.321,4.919-11.435,6.593c-3.001,1.222-6.08,1.943-9.367,1.76c-5.938-0.331-12.162-6.759-10.125-14.075
		c0.945-3.395,2.719-6.31,4.8-9.085c3.399-4.534,7.584-8.278,11.976-11.796c11.9-9.531,23.832-19.021,35.746-28.534
		c4.647-3.71,9.206-7.535,12.931-12.203c1.435-1.799,2.793-3.77,3.677-5.877c2.78-6.629-2.457-13.097-9.6-12.105
		c-3.02,0.419-5.65,1.683-8.183,3.282c-14.755,9.315-28.489,20-41.854,31.175c-9.423,7.879-18.58,16.04-27.031,24.99
		c-8.211,8.696-11.854,19.099-12.092,30.819c-0.241,11.945,2.637,23.193,8.143,33.782c0.328,0.63,0.655,1.262,1.032,1.988
		c-7.846,7.395-15.886,14.448-23.969,20.696c6.562,6.606,12.926,13.014,19.413,19.544
		C438.023,286.851,445.375,279.612,453.78,273.784z M15.801,157.321c0,1.237-0.04,1.946,0.006,2.649
		c0.31,4.721,0.57,9.447,0.974,14.161c1.119,13.049,3.396,25.899,6.825,38.542c7.83,28.875,21.758,54.359,42.35,76.134
		c17.614,18.625,38.382,32.971,60.955,44.859c0.395,0.208,0.852,0.297,1.357,0.469c9.157-20.177,20.69-38.672,35.503-55.275
		c-0.897-0.777-1.664-1.461-2.452-2.121c-26.156-21.878-52.344-43.719-78.463-65.642c-21.142-17.746-42.383-35.363-64.477-51.925
		C17.688,158.653,16.974,158.162,15.801,157.321z M201.679,602.061c0,0.804-0.061,1.277,0.01,1.729
		c0.825,5.3,1.356,10.669,2.57,15.88c3.176,13.642,9.097,25.97,18.547,36.453c9.852,10.93,22.089,18.147,35.892,22.867
		c11.395,3.897,23.176,5.598,35.175,6.014c8.299,0.289,16.516-0.38,24.578-2.365c22.663-5.579,39.481-18.858,50.917-39.071
		c6.588-11.644,10.39-24.249,12.538-37.394c0.352-2.152,0.594-4.322,0.954-6.982c-1.224,0.767-1.94,1.251-2.689,1.679
		c-4.032,2.301-7.964,4.81-12.128,6.843c-20.085,9.802-41.411,14.804-63.674,15.847c-17.633,0.826-35.068-0.808-52.319-4.604
		c-16.405-3.61-32.198-9.013-47.563-15.738C203.63,602.842,202.757,602.504,201.679,602.061z M174.901,508.768
		c-7.943-5.619-14.703-12.309-21.015-19.518c-39.505,36.112-81.313,69.132-123.178,102.084c-0.174,0.138-0.265,0.381-0.5,0.73
		c6.877,7.477,13.754,14.953,20.61,22.407C58.223,610.011,170.77,514.167,174.901,508.768z M425.093,490.879
		c-6.65,7.852-13.912,14.716-22.156,20.847c41.861,34.969,83.978,69.284,126.269,103.705c5.248-7.352,10.345-14.492,15.479-21.686
		C504.77,559.412,465.071,525.267,425.093,490.879z M247.613,582.93c-1.234,8.355-2.401,16.255-3.578,24.218
		c0.772,0.277,1.35,0.542,1.955,0.691c3.494,0.862,6.973,1.802,10.497,2.519c9.269,1.885,18.602,3.352,28.057,3.912
		c1.153,0.068,2.32-0.089,3.491-0.143c0-8.714,0-17.105,0-25.795C274.47,587.519,261.092,585.741,247.613,582.93z M337.649,582.418
		c-0.395-0.053-0.559-0.123-0.691-0.085c-10.441,2.984-21.147,4.358-31.93,5.288c-2.275,0.196-4.538,0.536-6.884,0.82
		c-0.084,8.829-0.181,17.369,0.143,25.872c9.355,0.813,37.924-3.932,42.497-7.034C339.741,599.013,338.691,590.686,337.649,582.418z
		 M254.421,547.249c-1.616,3.659-5.195,23.538-4.718,26.514c12.497,3.116,25.182,5.122,38.393,5.307
		c0.5-9.559,0.34-19.019-0.091-28.197C276.555,549.637,265.5,548.444,254.421,547.249z M298.327,550.977c0,9.232,0,18.563,0,27.995
		c13.034,0.065,25.411-2.739,38.006-6.078c-1.305-8.757-2.515-17.354-4.197-25.758C320.782,548.426,309.657,549.689,298.327,550.977
		z M238.536,580.734c-10.455-3.84-20.542-7.545-30.701-11.276c-0.119,0.411-0.285,0.858-0.377,1.319
		c-1.262,6.354-2.538,12.705-3.752,19.068c-0.373,1.954-0.304,1.996,1.587,2.898c8.736,4.168,17.691,7.804,26.843,10.954
		c0.634,0.218,1.323,0.28,2.126,0.444C235.722,596.146,237.141,588.376,238.536,580.734z M376.095,565.404
		c-9.177,6.03-18.955,10.149-29.01,13.866c0.954,8.479,1.883,16.732,2.814,25.016c0.25,0.018,0.502,0.098,0.718,0.04
		c0.539-0.145,1.073-0.324,1.591-0.534c8.336-3.372,16.316-7.41,23.819-12.398c1.957-1.301,2.907-2.798,2.644-5.166
		c-0.623-5.572-1.129-11.157-1.737-16.73C376.797,568.245,376.433,567.018,376.095,565.404z M220.105,537.788
		c-4.141,6.602-7.102,13.79-9.371,21.417c9.518,4.91,19.22,8.852,29.554,11.871c1.68-8.827,3.348-17.418,4.71-25.925
		C236.602,542.668,228.496,540.271,220.105,537.788z M345.563,569.632c0.781-0.213,1.327-0.309,1.833-0.507
		c8.74-3.432,17.116-7.597,25.11-12.523c1.539-0.948,1.608-1.142,1.056-2.951c-1.753-5.741-3.533-11.476-5.328-17.204
		c-0.184-0.585-0.533-1.118-0.679-1.414c-8.77,3.26-17.359,6.453-26.166,9.727C342.736,552.79,344.125,561.065,345.563,569.632z
		 M387.307,479.848c13.263-9.125,21.316-21.603,23.083-37.727c2.108-19.254-4.646-34.82-20.414-46.151
		c-10.361-7.445-22.194-10.179-34.821-9.311c-14.699,1.01-26.929,7.104-36.604,18.303c-16.725,19.358-14.875,44.958-3.007,60.735
		c10.803,14.36,25.369,21.972,38.774,22.213C369.257,487.905,378.84,485.672,387.307,479.848z M193.34,397.369
		c-14.304,10.958-20.987,25.479-20.029,43.479c0.633,11.899,5.387,22.037,13.636,30.479c11.246,11.509,25.054,16.983,41.127,16.536
		c10.896-0.304,20.825-3.629,29.323-10.548c11.446-9.319,18.519-21.202,19.815-36.076c0.864-9.919-0.342-19.661-5.403-28.406
		c-10.203-17.631-25.915-25.965-46.028-26.373C213.635,386.214,202.883,390.059,193.34,397.369z M210.545,277.38
		c-0.4,0.021-0.804,0.035-1.198,0.099c-15.707,2.551-26.295,11.033-30.837,26.562c-2.533,8.657-1.438,16.757,3.366,24.423
		c5.016,8.003,11.541,14.563,19.005,20.231c21.463,16.296,45.368,27.868,70.814,36.43c0.83,0.279,1.707,0.442,2.575,0.575
		c1.208,0.184,1.964-0.412,2.413-1.519c0.459-1.133,0.239-2.066-0.773-2.729c-0.868-0.568-1.771-1.1-2.707-1.544
		c-3.399-1.612-6.8-3.221-10.233-4.757c-11.768-5.263-23.537-10.518-34.795-16.832c-9.393-5.268-18.406-11.077-26.396-18.36
		c-4.411-4.021-8.339-8.449-11.312-13.655c-3.47-6.075-5.22-12.515-4.229-19.588c2.071-14.786,16.608-24.807,31.206-21.454
		c5.47,1.257,9.394,4.707,12.645,9.02c4.231,5.613,5.631,11.96,4.424,18.862c-0.446,2.545-1.647,4.793-3.94,6.066
		c-5.325,2.956-10.885,3.563-16.6,1.075c-1.241-0.54-2.049-1.497-2.55-2.742c-1.562-3.884-0.477-7.948,2.818-10.519
		c0.253-0.197,0.521-0.38,0.75-0.602c1.264-1.224,1.718-3.255,1.048-4.629c-0.642-1.317-2.296-1.999-4.17-1.638
		c-2.289,0.442-4.178,1.532-5.557,3.48c-1.56,2.205-2.515,4.635-2.94,7.288c-1.217,7.607,1.941,13.186,9.09,16.067
		c4.651,1.874,9.417,2.422,14.375,1.458c8.833-1.717,14.573-7.289,16.213-15.916c0.623-3.274,0.169-6.516-0.227-9.792
		c-2.046-16.934-17.355-25.845-29.393-25.49C212.469,277.293,211.507,277.332,210.545,277.38z M296.197,484.719
		c-9.003-1.999-16.526,4.219-15.83,13.169c0.43,5.517,4.065,9.92,9.123,11.047c5.263,1.173,10.628-1.147,13.402-5.818
		c1.424-2.396,2.096-5.001,2.042-7.791C305.264,489.997,301.955,485.997,296.197,484.719z"/>
</g>
</svg>
