<?xml version="1.0" encoding="utf-8"?>
<!-- Generator: Adobe Illustrator 16.0.0, SVG Export Plug-In . SVG Version: 6.00 Build 0)  -->
<!DOCTYPE svg PUBLIC "-//W3C//DTD SVG 1.1//EN" "http://www.w3.org/Graphics/SVG/1.1/DTD/svg11.dtd">
<svg version="1.1" xmlns="http://www.w3.org/2000/svg" xmlns:xlink="http://www.w3.org/1999/xlink" x="0px" y="0px" width="612px"
	 height="792px" viewBox="0 0 612 792" enable-background="new 0 0 612 792" xml:space="preserve">
<g id="Light_Brown">
	<path fill-rule="evenodd" clip-rule="evenodd" fill="#916A62" d="M525.312,519.391c2.326-2.974,4.313-5.479,6.265-8.012
		c10.06-13.067,18.965-26.862,26.149-41.729c7.505-15.527,13.018-31.729,16.078-48.714c1.562-8.668,2.922-17.377,4.169-26.097
		c0.748-5.231,1.078-10.521,1.642-15.78c0.717-6.691,1.456-13.38,2.228-20.064c0.671-5.81,1.397-11.614,2.105-17.419
		c0.146-1.193,0.191-2.417,0.51-3.563c0.27-0.969,0.7-1.989,1.348-2.739c2.567-2.975,5.248-5.852,7.888-8.764
		c0.162-0.178,0.322-0.36,0.503-0.518c1.117-0.978,1.907-0.891,2.339,0.5c0.565,1.823,1.185,3.723,1.223,5.601
		c0.142,7.059,0.28,14.132-0.01,21.183c-0.264,6.397-1.027,12.776-1.682,19.152c-0.629,6.136-1.179,12.292-2.158,18.376
		c-1.525,9.486-3.275,18.94-5.128,28.369c-2.736,13.932-6.406,27.626-11.07,41.042c-3.479,10.009-7.387,19.839-12.611,29.092
		c-4.399,7.792-9.384,15.15-16.162,21.116c-5.218,4.592-11.115,7.851-18.1,8.867C529.181,519.528,527.53,519.585,525.312,519.391z
		 M514.992,322.145c3.082-1.129,6.128-2.356,9.208-3.494c1.821-0.673,2.552-1.802,2.477-3.834
		c-0.303-8.174-0.418-16.354-0.655-24.531c-0.097-3.365-0.248-6.732-0.516-10.087c-0.528-6.628-1.109-13.253-1.757-19.87
		c-0.452-4.624-0.857-9.265-1.623-13.841c-1.601-9.555-3.332-19.09-5.181-28.6c-2.267-11.664-5.655-23.02-9.828-34.143
		c-0.24-0.639-0.59-1.236-0.984-2.052c-3.811,2.547-7.397,4.952-10.994,7.341c-0.868,0.576-1.052,1.362-0.821,2.305
		c0.095,0.388,0.231,0.767,0.349,1.149c3.334,10.876,6.627,21.761,9.083,32.882c2.352,10.646,4.102,21.391,5.504,32.193
		c0.649,5.001,1.138,10.029,1.529,15.058c0.522,6.71,1.084,13.427,1.258,20.151c0.211,8.098,0.032,16.206,0.022,24.309
		c-0.002,1.752,0,3.505,0,5.688C513.303,322.514,514.188,322.44,514.992,322.145z M500.977,427.412
		c3.043-0.137,6.084-0.301,9.126-0.447c2.342-0.112,2.414-0.181,3.063-2.524c4.384-15.853,7.379-31.979,9.504-48.275
		c0.108-0.834,0.014-1.696,0.014-2.659c-0.865,0.047-1.503,0.031-2.123,0.126c-1.186,0.183-2.359,0.448-3.543,0.647
		c-2.604,0.438-5.212,0.86-7.819,1.283c-1.783,0.289-2.11,0.596-2.346,2.167c-0.936,6.256-1.818,12.52-2.832,18.763
		c-1.374,8.455-2.854,16.893-4.276,25.34c-0.29,1.723-0.521,3.455-0.823,5.486C499.884,427.365,500.433,427.437,500.977,427.412z"/>
</g>
<g id="White">
	<path fill-rule="evenodd" clip-rule="evenodd" fill="#FEFEFE" d="M194.921,392.027c1.288,0.404,2.426,0.717,3.533,1.116
		c5.195,1.873,10.373,3.796,15.58,5.633c0.874,0.309,1.863,0.379,2.801,0.395c0.973,0.016,1.854-0.565,1.861-1.512
		c0.005-0.662-0.604-1.41-1.109-1.966c-0.346-0.382-0.975-0.519-1.49-0.732c-30.762-12.751-61.542-25.458-92.283-38.261
		c-18.251-7.601-36.447-15.336-54.65-23.052c-3.389-1.437-6.686-3.089-10.044-4.601c-4.133-1.861-7.028-4.939-9.05-8.939
		c-4.445-8.792,2.918-17.002,10.177-17.322c3.671-0.162,7.207,0.501,10.61,1.737c6.844,2.486,13.646,5.091,20.447,7.693
		c30.498,11.672,60.957,23.448,91.5,35.001c12.35,4.671,24.873,8.886,37.331,13.27c1.657,0.583,3.377,1.01,5.096,1.381
		c3.218,0.694,5.594-0.38,7.357-3.221c1.297-2.09,1.856-4.42,2.131-6.828c1.603-14.012-2.085-26.518-10.766-37.579
		c-2.327-2.966-4.742-5.862-7.106-8.8c-0.394-0.49-0.729-1.027-1.115-1.578c0.777-0.809,1.717-0.59,2.54-0.626
		c11.789-0.516,23.585-0.568,35.362,0.137c8.805,0.527,17.595,1.344,26.377,2.182c5.664,0.541,11.317,1.244,16.946,2.075
		c4.435,0.655,8.834,1.597,12.99,3.367c1.218,0.519,2.608,0.9,3.236,2.388c-0.272,1.106-1.225,1.594-2.069,2.175
		c-5.302,3.644-11.03,6.537-16.829,9.257c-9.856,4.625-19.795,9.073-29.699,13.597c-0.932,0.426-1.861,0.858-3.067,1.415
		c0.678,1.211,1.12,2.333,1.846,3.222c1.146,1.402,1.031,2.625,0.205,4.153c-3.717,6.866-6.469,14.116-8.297,21.712
		c-1.17,4.862-1.762,9.774-1.367,14.785c0.889,11.28,6.848,18.503,17.773,21.08c10.2,2.407,20.23,1.544,29.966-2.33
		c4.441-1.767,7.964-4.7,10.589-8.733c3.693-5.675,6.828-11.581,8.313-18.268c1.773-7.981,0.787-15.608-2.707-22.951
		c-2.724-5.725-6.67-10.554-11.081-15.037c-1.52-1.544-3.072-3.056-4.571-4.619c-0.475-0.495-0.827-1.109-1.359-1.839
		c0.749-0.554,1.286-1.005,1.874-1.376c6.235-3.937,12.49-7.843,18.714-11.796c2.293-1.456,4.75-1.869,7.373-1.386
		c14.751,2.72,29.258,6.377,43.381,11.464c2.104,0.758,4.098,1.811,6.167,2.666c2.044,0.844,3.448,2.281,4.301,4.298
		c2.651,6.269,5.478,12.47,7.923,18.818c4.004,10.392,7.593,20.934,10.11,31.805c1.578,6.812,2.506,13.717,2.777,20.708
		c0.155,4.005-0.765,7.799-2.268,11.468c-4.51,11.011-11.643,20.049-20.82,27.53c-10.124,8.255-21.618,14.001-33.864,18.322
		c-11.06,3.903-22.429,6.563-34.016,8.359c-16.127,2.5-32.356,3.604-48.663,3.588c-9.417-0.01-18.732-0.946-27.752-3.88
		c-19.064-6.2-31.544-18.985-37.916-37.894c-2.268-6.729-3.609-13.623-3.896-20.72c-0.149-3.687-0.42-7.373-0.416-11.06
		c0.003-2.88,0.337-5.759,0.552-8.636C194.413,392.991,194.625,392.711,194.921,392.027z M352.004,470.914
		c0.224,3.441,0.632,6.884,0.628,10.325c-0.007,6.576-0.204,13.153-0.423,19.728c-0.063,1.912,0.499,3.308,1.904,4.659
		c28.108,27.031,56.161,54.12,84.283,81.137c1.597,1.534,1.875,2.821,1.085,4.831c-1.522,3.873-2.908,7.811-4.117,11.793
		c-2.184,7.196-3.35,14.524-2.199,22.072c1.336,8.761,5.933,14.872,14.387,17.922c4.634,1.671,9.369,2.085,14.209,1.27
		c7.662-1.29,13.521-5.185,17.291-12.068c2.302-4.204,3.726-8.703,4.188-13.451c0.342-3.505,0.334-7.042,0.51-10.564
		c0.059-1.163-0.263-2.367,0.265-3.561c6.447,0.667,12.721-0.179,18.973-1.29c3.72-0.661,7.057-2.089,9.65-4.963
		c7.336-8.13,10.714-17.517,9.23-28.52c-0.954-7.081-4.764-11.817-11.522-13.97c-10.515-3.348-21.135-3.727-31.68-0.171
		c-4.542,1.531-8.955,3.458-13.384,5.308c-1.587,0.662-2.771,0.609-4.142-0.595c-11.09-9.748-22.212-19.46-33.38-29.118
		c-24.399-21.102-48.83-42.166-73.254-63.24c-0.769-0.663-1.594-1.262-2.818-2.228C351.82,468.198,351.915,469.557,352.004,470.914z
		 M163.6,502.038c-0.19,0.256-0.357,0.533-0.503,0.816c-5.144,9.948-9.16,20.302-11.016,31.394
		c-1.16,6.933-1.276,13.898,0.063,20.828c2.394,12.377,9.095,21.907,19.381,29.023c6.464,4.473,13.635,7.403,21.149,9.549
		c8.051,2.3,16.285,3.46,24.633,4.02c17.131,1.147,33.973-0.287,50.408-5.437c20.788-6.513,38.754-17.544,53.452-33.715
		c3.62-3.981,6.936-8.214,9.582-12.928c1.175-2.092,2.224-4.238,2.594-6.863c-0.809,0.075-1.522,0.079-2.211,0.216
		c-3.929,0.785-7.851,1.604-11.776,2.405c-14.694,3-29.436,5.627-44.43,6.726c-14.637,1.073-29.176,0.729-43.606-2.086
		c-12.697-2.477-24.642-6.925-35.662-13.762c-11.755-7.293-21.464-16.746-29.542-27.928c-0.642-0.888-1.298-1.766-1.931-2.626
		C163.852,501.874,163.685,501.925,163.6,502.038z M83.29,269.119c18.89,16.066,38.197,31.607,58.265,46.188
		c10.384,7.544,20.978,14.767,32.219,20.994c4.348,2.408,8.781,4.637,13.558,6.091c0.807,0.246,1.647,0.385,2.588,0.6
		c0.089-0.715,0.176-1.181,0.2-1.65c0.275-5.368,0.513-10.737,0.822-16.103c0.121-2.102-0.732-3.721-2.167-5.133
		c-4.346-4.277-8.527-8.738-13.061-12.806c-20.486-18.383-41.071-36.655-61.616-54.972c-0.516-0.46-0.97-0.989-1.562-1.598
		c0.643-0.737,1.167-1.322,1.673-1.921c1.087-1.286,2.239-2.525,3.237-3.876c9.673-13.105,8.159-28.681-0.924-40.085
		c-3.148-3.952-7.234-6.525-12.183-7.661c-6.94-1.593-13.566-0.34-19.902,2.533c-6.621,3.001-10.781,8.208-12.458,15.268
		c-0.57,2.399-0.717,4.903-0.986,7.367c-0.136,1.248-0.113,2.514-0.167,3.918c-1.223-0.095-2.178-0.149-3.128-0.246
		c-6.481-0.659-12.818,0.083-18.98,2.127c-13.029,4.322-19.5,16.104-17.063,29.098c1.418,7.563,5.724,13.169,12.813,16.378
		c8.147,3.688,16.361,4.342,24.528,0.005c3.253-1.727,6.463-3.537,9.69-5.313c0.694-0.382,1.377-0.782,2.161-1.228
		C81.696,267.797,82.501,268.448,83.29,269.119z M411.14,349.71c9.059,20.694,18.123,41.385,27.187,62.076
		c4.706,10.743,8.696,21.713,10.531,33.361c0.752,4.773,1.087,9.549,0.271,14.366c-0.508,3-2.026,5.146-4.712,6.546
		c-3.173,1.653-6.531,2.729-10.093,2.86c-3.923,0.145-7.857,0.092-11.783-0.008c-11.341-0.291-22.534-1.674-33.505-4.662
		c-5.794-1.579-11.612-3.069-17.409-4.638c-1.864-0.504-3.65-0.443-5.374,0.434c-1.278,0.649-2.259,1.592-2.323,3.119
		c-0.067,1.574,0.916,2.492,2.23,3.113c2.244,1.061,4.462,2.184,6.748,3.145c11.348,4.767,23.27,7.067,35.471,8.08
		c13.01,1.081,25.974,0.466,38.892-1.288c6.395-0.867,10.69-4.379,12.914-10.432c1.871-5.09,2.205-10.229,1.166-15.602
		c-1.772-9.154-4.425-18.038-7.444-26.837c-7.057-20.566-15.81-40.422-25.116-60.046c-1.145-2.414-2.797-4.478-4.743-6.314
		c-3.928-3.706-8.313-6.797-12.87-9.662c-0.191-0.12-0.438-0.152-1.11-0.375C410.52,348.122,410.798,348.93,411.14,349.71z
		 M97.885,540.152c-7.617,5.883-15.232,11.77-22.836,17.671c-0.864,0.67-1.653,1.438-2.549,2.225
		c10.377,13.563,20.647,26.887,31.564,40.052c9.384-7.318,18.569-14.516,27.792-21.867c-10.694-13.229-21.215-26.242-31.932-39.499
		C99.049,539.341,98.446,539.719,97.885,540.152z M142.81,569.579c1.714-1.195,2.09-2.512,1.602-4.509
		c-2.464-10.083-2.99-20.292-1.503-30.569c0.243-1.675-0.083-2.896-1.188-4.156c-3.438-3.922-6.768-7.938-10.155-11.904
		c-0.556-0.651-1.194-1.234-1.884-1.941c-1.418,0.942-2.722,1.722-3.932,2.627c-5.907,4.422-11.793,8.873-17.678,13.325
		c-3.565,2.696-3.632,2.764-0.942,6.26c6.507,8.456,13.052,16.883,19.662,25.258c2.879,3.648,5.957,7.142,9.165,10.969
		C138.398,573.01,140.521,571.175,142.81,569.579z M207.134,529.802c0.564,0.299,1.147,0.563,1.72,0.845
		c12.308,6.058,25.563,8.562,38.996,10.396c1.185,0.161,1.617-0.173,1.76-1.368c0.143-1.19,0.125-2.404,0.319-3.584
		c0.987-6,2.029-11.991,3.024-17.989c0.101-0.606,0.014-1.242,0.014-1.737c-5.953-1.727-11.858-3.182-17.578-5.171
		c-5.779-2.009-11.375-4.547-17.27-6.941c-3.909,8.221-7.846,16.501-11.825,24.87C206.764,529.507,206.929,529.693,207.134,529.802z
		 M313.209,507.481c9.613-2.246,18.828-5.643,27.812-9.706c1.511-0.683,2.474-1.531,2.377-3.417
		c-0.343-6.642-0.558-13.288-0.843-19.933c-0.029-0.684-0.21-1.36-0.341-2.166c-2.993,0.868-5.736,1.683-8.49,2.457
		c-8.871,2.497-17.897,4.255-26.998,5.666c-2.047,0.317-2.09,0.361-2.141,2.406c-0.204,8.17-0.377,16.34-0.548,24.511
		c-0.013,0.624,0.079,1.25,0.14,2.121C307.292,508.755,310.263,508.17,313.209,507.481z M196.087,489.727
		c-4.981-3.835-9.665-8.057-14.485-12.113c-0.227,0.188-0.443,0.315-0.59,0.497c-3.822,4.737-7.604,9.508-11.476,14.203
		c-0.99,1.201-0.604,2.112,0.017,3.239c6.489,11.784,15.771,20.897,26.915,28.237c0.317,0.209,0.674,0.358,1.193,0.629
		c4.647-8.04,9.237-15.983,13.78-23.845C206.248,496.931,201.018,493.523,196.087,489.727z M296.857,510.343
		c0.167-0.664,0.398-1.188,0.418-1.719c0.335-8.942,0.645-17.886,0.969-27.084c-4.942,0.284-9.628,0.661-14.321,0.793
		c-4.793,0.135-9.593,0.03-14.532,0.03c-2.18,8.955-4.569,17.658-6.337,26.914C274.462,511.311,285.597,511.378,296.857,510.343z
		 M261.727,517.526c-1.463,4.231-4.031,21.88-3.558,24.076c5.519,1.024,33.579-0.591,37.486-2.158
		c0.713-3.479,1.221-19.423,0.621-21.699C284.764,519.005,273.196,518.902,261.727,517.526z M340.46,506.227
		c-5.417,1.951-10.803,3.996-16.255,5.844c-6,2.035-12.216,3.23-18.439,4.371c-2.147,0.395-2.139,0.449-2.21,2.637
		c-0.146,4.485-0.309,8.971-0.428,13.457c-0.051,1.909-0.009,3.821-0.009,5.9c1.047-0.099,1.914-0.114,2.754-0.27
		c9.607-1.775,19.105-4.017,28.528-6.599c2.221-0.608,3.562-1.825,4.383-3.97c2.694-7.037,3.688-14.372,4.23-22.215
		C341.957,505.731,341.201,505.96,340.46,506.227z M224.139,496.367c9.215,4.762,18.866,8.387,28.906,10.974
		c0.665,0.172,1.374,0.173,2.221,0.272c2.375-8.633,4.698-17.081,6.99-25.414c-0.357-0.287-0.467-0.44-0.605-0.474
		c-0.464-0.111-0.935-0.21-1.408-0.261c-8.07-0.873-15.977-2.526-23.721-4.956c-0.458-0.144-0.919-0.276-1.373-0.433
		c-0.79-0.272-1.41-0.104-1.839,0.649c-0.238,0.417-0.511,0.815-0.75,1.231c-2.988,5.217-5.976,10.433-8.955,15.653
		c-0.309,0.542-0.567,1.113-0.9,1.772C223.245,495.757,223.661,496.121,224.139,496.367z M214.273,466.245
		c-4.326-2.697-8.358-5.865-12.621-8.899c-4.475,4.323-9.008,8.702-13.541,13.081c7.745,7.901,23.371,19.662,28.525,21.485
		c3.76-6.11,7.531-12.236,11.219-18.228C223.237,471.182,218.608,468.948,214.273,466.245z M206.912,309.246
		c-1.313-0.483-1.894-0.265-2.599,0.972c-0.67,1.176-1.274,2.416-1.713,3.694c-2.823,8.216-4.509,16.682-5.332,25.318
		c-0.197,2.066-0.107,4.161-0.133,6.242c-0.009,0.763,0.217,1.462,0.942,1.82c1.768,0.872,3.498,1.85,5.526,2.322
		c1.101-2.424,2.125-4.762,3.218-7.069c2.238-4.726,4.9-9.184,8.452-13.064c1.648-1.8,3.533-3.249,5.865-4.055
		c0.517-0.179,1.035-0.354,1.876-0.641C219.838,317.01,214.438,312.018,206.912,309.246z M153.319,499.811
		c0.113-0.236,0.014-0.574,0.014-0.932c-2.458,1.225-17.481,12.407-18.709,13.894c2.479,5.054,6.622,10.434,9.796,12.558
		C146.598,516.379,149.442,507.913,153.319,499.811z"/>
</g>
<g id="Yellow">
	<path fill-rule="evenodd" clip-rule="evenodd" fill="#F7F936" d="M117.124,402.929c5.357,14.274,14.456,24.91,28.395,31.539
		c-4.714,2.604-9.008,5.229-12.721,8.692c-3.78,3.525-7.083,7.464-9.556,11.982c-2.403,4.393-4.442,8.983-6.75,13.711
		c-5.188-14.558-13.239-26.706-27.616-33.938c0.453-0.352,0.705-0.623,1.015-0.775c12.468-6.13,20.81-15.998,26.035-28.697
		c0.244-0.592,0.5-1.179,0.758-1.765C116.748,403.535,116.843,403.404,117.124,402.929z"/>
</g>
<g id="Brown">
	<path fill-rule="evenodd" clip-rule="evenodd" fill="#796501" d="M357.681,294.076c-0.771,0.675-1.502,1.28-2.194,1.926
		c-4.748,4.426-9.523,8.824-14.205,13.318c-1.132,1.087-2.143,1.325-3.644,0.908c-7.553-2.103-15.111-4.195-22.718-6.092
		c-4.571-1.14-9.229-1.939-13.857-2.848c-1.793-0.352-3.243-1.054-4.413-2.591c-1.598-2.098-3.484-3.976-5.223-5.969
		c-0.78-0.894-1.504-1.838-2.204-2.699c4.208-7.896,26.991-29.697,34.915-33.497C327.692,258.369,356.116,290.055,357.681,294.076z
		 M281.904,282.132c0.202,0.213,0.531,0.306,0.916,0.519c2.719-2.991,5.34-6,8.101-8.875c2.772-2.888,5.6-5.733,8.556-8.429
		c2.957-2.698,6.107-5.184,9.166-7.77c3.025-2.557,6.526-4.507,9.831-7.419c-1.056-0.908-1.912-1.624-2.744-2.365
		c-4.308-3.84-8.606-7.69-12.913-11.531c-4.366-3.896-8.73-7.792-13.109-11.673c-1.189-1.054-1.613-1.1-2.984-0.249
		c-1.293,0.802-2.533,1.691-3.787,2.555c-6.278,4.326-12.263,9.037-17.875,14.189c-3.66,3.361-7.079,6.985-10.597,10.501
		c-0.217,0.218-0.348,0.522-0.612,0.929C263.292,262.486,272.593,272.314,281.904,282.132z M379.294,279.064
		c5.288-3.104,10.836-5.765,16.481-8.731c-0.475-0.76-0.882-1.52-1.389-2.204c-5.527-7.467-11.032-14.952-16.629-22.367
		c-2.121-2.811-4.469-5.45-6.703-8.175c-1.116-1.361-2.402-2.106-4.193-1.31c-0.287,0.127-0.625,0.135-0.933,0.221
		c-11.632,3.268-22.615,8.06-33.06,14.108c-0.526,0.304-0.976,0.742-1.703,1.306c11.463,12.027,21.531,24.981,32.326,37.368
		C368.942,285.731,373.988,282.178,379.294,279.064z M313.516,234.02c3.488,3.317,6.836,6.784,10.255,10.174
		c0.61,0.604,1.264,1.165,1.674,1.541c6.404-3.126,12.422-6.345,18.667-9.034c6.227-2.68,12.681-4.83,19.285-7.306
		c-1.021-1.171-1.889-2.305-2.896-3.296c-3.888-3.825-7.694-7.746-11.771-11.359c-3.772-3.343-7.866-6.322-11.791-9.496
		c-1.582-1.279-3.235-1.439-5.179-0.923c-11.519,3.061-22.515,7.43-33.04,13.001c-0.618,0.327-1.173,0.773-1.817,1.204
		C302.621,223.85,308.115,228.885,313.516,234.02z M379.405,310.611c3.696,5.199,7.234,10.511,10.892,15.847
		c1.165-0.729,2.091-1.357,3.061-1.907c2.021-1.146,4.016-2.353,6.107-3.354c6.581-3.148,13.205-6.207,19.803-9.32
		c0.549-0.259,1.027-0.666,1.486-0.969c-0.994-3.543-18.725-32.325-21.278-34.558c-11.296,4.557-21.728,10.694-31.66,18.496
		C371.835,300.299,375.699,305.399,379.405,310.611z M223.872,296.867c4.643,0,9.266,0.027,13.889-0.007
		c4.721-0.035,9.444-0.273,14.16-0.164c6.156,0.142,12.308,0.511,18.458,0.846c1.466,0.08,2.431-0.479,3.192-1.667
		c1.21-1.887,2.487-3.731,3.716-5.605c1.189-1.812,1.206-1.945-0.328-3.445c-8.995-8.793-18.004-17.571-27.022-26.34
		c-0.551-0.536-1.215-0.955-1.804-1.41C240.857,266.375,225.072,290.593,223.872,296.867z M202.878,298.044
		c3.84-0.173,7.677-0.413,11.518-0.569c1.483-0.061,2.043-0.945,2.45-2.192c2.451-7.517,6.101-14.456,10.329-21.104
		c4.137-6.505,8.881-12.558,13.881-18.416c1.376-1.612,1.379-1.938-0.143-3.358c-1.816-1.695-3.66-3.362-5.524-5.005
		c-1.364-1.203-2.781-2.346-4.23-3.564c-0.589,0.465-1.069,0.755-1.437,1.149c-1.038,1.113-2.023,2.274-3.04,3.408
		c-8.351,9.313-15.189,19.639-20.594,30.909c-2.289,4.773-4.251,9.68-5.316,14.898c-0.239,1.17-0.421,2.343-0.016,3.692
		C201.485,297.948,202.186,298.075,202.878,298.044z M377.661,234.897c8.388,10.127,16.325,20.594,23.637,31.525
		c0.849,1.269,1.794,1.441,3.06,1.139c2.723-0.651,5.445-1.305,8.163-1.975c2.485-0.612,4.975-1.214,7.444-1.886
		c1.3-0.353,1.522-0.883,1.054-2.142c-0.166-0.449-0.394-0.878-0.625-1.299c-2.008-3.65-3.894-7.375-6.064-10.926
		c-3.434-5.62-7.549-10.746-11.985-15.612c-1.009-1.107-2.123-1.835-3.732-1.849c-5.782-0.05-11.517,0.392-17.211,1.379
		c-1.312,0.227-2.617,0.486-4.115,0.766C377.534,234.609,377.564,234.781,377.661,234.897z M408.613,277.51
		c6.146,9.965,12.106,20.038,17.531,30.417c2.601,4.975,5.141,9.981,7.721,14.966c0.341,0.66,0.757,1.281,1.139,1.92
		c0.317-1.176,0.183-2.179,0.165-3.183c-0.104-5.852-0.638-11.661-1.429-17.461c-1.228-8.991-3.325-17.769-6.123-26.387
		c-0.618-1.903-1.305-3.789-2.058-5.643c-0.771-1.898-1.089-2.093-3.076-1.722c-4.56,0.85-9.106,1.764-13.65,2.696
		c-0.74,0.152-1.435,0.529-2.313,0.865C407.315,275.322,407.946,276.428,408.613,277.51z M277.359,214.585
		c-1.182-1.042-2.358-1.239-3.747-0.648c-0.81,0.345-1.643,0.644-2.424,1.045c-3.774,1.939-7.584,3.816-11.289,5.883
		c-7.581,4.232-14.468,9.452-21.022,15.122c-1.371,1.186-1.444,2.177-0.19,3.467c0.944,0.972,2.043,1.795,3.078,2.678
		c1.828,1.559,3.628,3.15,5.5,4.652c1.141,0.914,1.365,0.865,2.454-0.128c1.892-1.727,3.753-3.488,5.63-5.232
		c7.881-7.324,16.446-13.767,25.404-19.702c0.857-0.568,1.683-1.184,2.886-2.035C281.311,217.809,279.271,216.271,277.359,214.585z
		 M432.59,347.968c0.762-3.181,1.406-6.392,2.004-9.607c0.317-1.706-0.126-3.293-0.979-4.835c-2.364-4.275-4.633-8.603-6.947-12.905
		c-1.117-2.076-1.354-2.179-3.575-1.377c-7.854,2.834-15.362,6.413-22.617,10.536c-0.6,0.341-1.273,0.651-1.439,1.613
		c11.171,5.682,21.574,12.545,32.024,19.819C431.668,349.954,432.34,349.012,432.59,347.968z M389.088,222.016
		c-1.145-0.876-2.308-1.738-3.529-2.501c-5.593-3.493-11.537-6.279-17.642-8.746c-4.46-1.803-8.958-3.48-13.667-4.528
		c-1.848-0.411-2.562-0.415-4.284,0.118c1.503,1.349,2.977,2.566,4.329,3.905c4.506,4.458,8.977,8.952,13.441,13.451
		c0.789,0.795,1.481,1.685,2.222,2.528c0.849,0.967,1.752,1.429,3.164,1.042c1.92-0.526,3.926-0.74,5.895-1.09
		c3.848-0.685,7.695-1.37,12.184-2.169C390.216,223.079,389.701,222.484,389.088,222.016z M360.93,300.289
		c-4.089,3.846-8.162,7.708-12.217,11.589c-0.305,0.292-0.441,0.757-0.706,1.231c9.802,2.963,19.393,5.955,29.23,8.825
		c-0.816-2.141-13.479-20.745-15.126-22.32C361.733,299.825,361.259,299.979,360.93,300.289z M291.507,213.877
		c0.754,0.514,1.494,0.223,2.245-0.188c4.979-2.723,9.978-5.412,14.96-8.131c0.333-0.182,0.579-0.526,1.271-1.175
		c-8.233,1.009-15.788,2.418-23.754,4.997C288.227,211.162,289.735,212.669,291.507,213.877z M288.437,299.251
		c-0.607-0.879-0.915-1.408-1.304-1.87c-0.609-0.722-1.272-1.399-2.096-2.294c-0.742,1.152-1.371,2.127-2.282,3.541
		C284.846,298.857,286.425,299.031,288.437,299.251z"/>
</g>
<g id="Green">
	<path fill-rule="evenodd" clip-rule="evenodd" fill="#577800" d="M441.818,309.907c0.747,0.605,1.061,0.824,1.332,1.084
		c3.127,2.996,6.222,6.027,9.378,8.992c6.062,5.694,13.227,9.242,21.394,10.735c4.807,0.879,9.654,1.424,14.553,1.496
		c2.399,0.036,4.802,0.39,7.192,0.306c5.762-0.204,11.525-0.474,17.271-0.921c4.773-0.372,9.194-2.062,13.422-4.262
		c9.102-4.737,17.192-10.867,24.661-17.859c4.976-4.659,9.923-9.35,14.956-13.945c3.729-3.405,7.57-6.687,11.371-10.012
		c2.778-2.431,5.852-2.724,9.166-1.229c4.205,1.897,7.643,4.66,9.987,8.701c1.557,2.685,2.422,5.619,2.668,8.653
		c0.184,2.266-0.717,4.412-2.011,6.307c-1.898,2.781-3.781,5.575-5.777,8.285c-5.393,7.321-11.525,14-18.241,20.107
		c-10.818,9.837-22.919,17.746-36.366,23.561c-7.378,3.19-14.981,5.657-22.866,7.208c-6.621,1.302-13.31,1.814-20.068,1.744
		c-10.229-0.106-20.023-2.125-29.437-6.096c-7.769-3.277-14.666-7.862-20.82-13.615c-1.508-1.41-2.601-2.839-1.824-5.022
		c0.052-0.145,0.018-0.319,0.027-0.479c0.592-9.855,0.55-19.72,0.433-29.585C442.205,312.873,441.996,311.688,441.818,309.907z
		 M430.92,253.876c3.776-10.006,8.495-19.542,14.406-28.458c6.712-10.125,14.432-19.39,23.503-27.524
		c4.664-4.182,9.51-8.108,14.69-11.616c4.649-3.148,9.491-5.975,14.54-8.444c1.294-0.633,2.563-1.323,3.81-2.047
		c4.578-2.662,5.954-6.494,4.181-11.396c-1.419-3.922-4.078-6.821-7.37-9.251c-4.393-3.244-9.285-4.947-14.751-5.008
		c-4.634-0.051-9.03,1.213-13.385,2.546c-6.448,1.975-12.581,4.713-18.506,7.953c-10.602,5.796-19.885,13.188-27.537,22.554
		c-9.513,11.642-15,25.052-17.252,39.852c-0.22,1.448,0.213,2.652,1.185,3.749c3.4,3.837,6.788,7.686,10.134,11.571
		c4.193,4.871,8.069,9.964,10.755,15.862c0.185,0.406,0.465,0.77,0.844,1.385C430.49,254.864,430.729,254.379,430.92,253.876z
		 M536.462,464.635c-2.39-7.67-6.205-14.587-11.5-20.638c-2.983-3.41-6.421-6.276-10.763-7.857
		c-6.827-2.487-13.52-1.813-20.142,0.836c-5.992,2.398-10.065,6.751-12.566,12.573c-2.211,5.146-2.977,10.632-2.929,16.188
		c0.028,3.267,0.434,6.538,0.798,9.793c0.894,7.989,3.426,15.441,7.532,22.356c3.322,5.597,7.578,10.335,13.02,13.937
		c4.188,2.772,8.666,4.343,13.834,3.364c5.889-1.114,11.196-3.271,15.438-7.66c3.071-3.179,5.084-6.996,6.584-11.081
		c2.12-5.77,2.923-11.783,2.956-18.515C539.178,473.706,537.868,469.148,536.462,464.635z M492.924,460.41
		c0.375-1.628,0.908-3.237,1.544-4.784c2.696-6.558,10.621-10.115,18.122-6.197c3.181,1.662,5.873,3.928,8.035,6.756
		c3.544,4.636,6.102,9.739,7.195,15.548c0.735,3.906,0.736,7.79,0.197,11.691c-0.638,4.614-1.488,9.192-3.96,13.242
		c-0.991,1.626-2.132,3.22-3.47,4.563c-2.488,2.499-5.591,3.246-9.063,2.572c-3.646-0.707-6.808-2.397-9.505-4.863
		c-4.656-4.257-8.128-9.331-9.302-15.623c-0.657-3.519-0.785-7.137-1.151-10.709C491.746,468.479,492.005,464.408,492.924,460.41z
		 M37.303,588.957c-0.64,0.524-1.334,1.052-1.982,1.631c-2.032,1.813-4.014,3.682-6.073,5.464
		c-4.311,3.728-8.338,7.726-12.036,12.069c-2.14,2.514-2.651,5.24-1.47,8.263c1.11,2.84,2.532,5.521,4.357,7.986
		c2.686,3.627,5.896,6.752,9.281,9.691c3.459,3.003,7.241,5.534,11.47,7.383c3.243,1.417,6.197,1.103,9.049-0.964
		c5.056-3.665,10.146-7.281,15.217-10.927c1.486-1.068,2.953-2.165,4.535-3.327C66.865,622.233,39.018,590.144,37.303,588.957z
		 M89.973,594.544c-2.696-3.173-5.395-6.342-8.093-9.513c-2.75-3.231-5.443-6.514-8.268-9.68c-2.748-3.079-5.123-6.509-8.35-9.336
		c-0.795,0.579-1.448,1.022-2.065,1.511c-1.255,0.993-2.493,2.01-3.736,3.019c-4.661,3.784-9.335,7.553-13.976,11.363
		c-1.885,1.548-1.922,1.89-0.523,3.716c7.544,9.849,14.77,19.951,23.045,29.221c1.866,2.09,3.903,4.031,5.914,5.986
		c1.018,0.989,1.367,0.97,2.525,0.238c0.337-0.212,0.636-0.485,0.955-0.728c3.824-2.906,7.661-5.796,11.468-8.724
		c3.04-2.338,6.044-4.722,9.374-7.328C95.343,600.872,92.66,597.707,89.973,594.544z M503.464,490.059
		c2.118,2.785,4.564,5.159,7.921,6.43c2.428,0.918,4.002,0.563,5.421-1.562c0.925-1.386,1.773-2.876,2.352-4.433
		c1.576-4.242,2.255-8.672,2.155-13.194c-0.18-8.174-3.624-14.837-9.705-20.154c-1.046-0.914-2.468-1.506-3.814-1.946
		c-2.592-0.848-5.011,0.078-6.382,2.457c-0.748,1.298-1.44,2.758-1.639,4.215c-0.569,4.195-0.876,8.426-1.286,12.643
		C498.465,480.27,499.971,485.469,503.464,490.059z"/>
</g>
<g id="Black">
	<path fill-rule="evenodd" clip-rule="evenodd" fill="#030303" d="M469.032,464.581c-0.275,0.739-0.534,1.484-0.828,2.216
		c-0.596,1.485-1.132,3.003-1.831,4.439c-3.78,7.779-10.085,11.951-18.589,13.118c-11.274,1.547-22.585,1.155-33.886,0.692
		c-7.45-0.306-14.882-1.038-22.322-1.573c-0.368-0.027-0.741-0.004-1.588-0.004c1.102,1.041,1.876,1.813,2.691,2.539
		c22.657,20.174,45.318,40.343,67.979,60.512c0.959,0.854,1.957,1.668,2.871,2.566c1.374,1.35,2.824,1.518,4.604,0.776
		c5.27-2.192,10.741-3.734,16.389-4.579c8.224-1.23,16.473-1.554,24.647,0.229c7.548,1.646,13.734,5.669,18.61,11.637
		c3.826,4.684,5.782,10.129,6.079,16.153c0.469,9.549-2.306,18.24-7.396,26.183c-4.733,7.386-11.835,11.645-20.13,13.87
		c-4.078,1.095-8.328,1.551-12.905,2.367c-0.331,0.373-0.119,1.308-0.169,2.149c-0.357,5.979-1.597,11.735-4.044,17.227
		c-4.823,10.819-13.177,17.049-24.728,19.214c-6.395,1.198-12.738,1.121-19.09-0.342c-11.046-2.544-17.731-9.426-20.39-20.335
		c-1.617-6.636-1.598-13.36-0.802-20.094c0.934-7.907,2.666-15.642,5.57-23.069c0.617-1.576-0.055-2.342-1.063-3.267
		c-8.102-7.434-16.165-14.908-24.265-22.343c-16.318-14.979-32.651-29.942-48.984-44.905c-0.867-0.794-1.787-1.531-2.872-2.455
		c-0.383,1.077-0.685,1.874-0.951,2.682c-6.205,18.773-15.789,35.561-29.458,49.922c-15.455,16.239-34.233,26.762-55.904,32.193
		c-14.821,3.716-29.905,4.539-45.133,4.105c-10.977-0.313-21.704-1.876-32.208-5.032c-10.382-3.12-20.102-7.578-28.438-14.626
		c-2.93-2.477-5.554-5.324-8.24-8.078c-1.558-1.597-2.362-1.977-4.427-1.131c-1.242,0.508-2.426,1.24-3.508,2.044
		c-16.62,12.332-33.206,24.711-49.828,37.04c-12.112,8.983-24.241,17.944-36.417,26.84c-3.623,2.646-7.432,5.038-11.158,7.543
		c-1.735,1.166-3.514,1.208-5.483,0.492c-6.086-2.214-11.106-6.025-15.773-10.361c-5.863-5.448-10.75-11.665-14.504-18.758
		c-1.784-3.369-2.836-6.972-3.533-10.684c-0.379-2.02-0.059-3.854,1.308-5.616c3.458-4.46,7.396-8.454,11.439-12.355
		c11.276-10.882,23.489-20.67,35.727-30.423c25.354-20.206,51.62-39.19,77.888-58.172c7.606-5.496,15.218-10.984,22.848-16.448
		c1.976-1.414,3.677-3.06,5.162-4.993c6.781-8.834,14.879-16.379,23.297-23.603c2.74-2.352,5.514-4.665,8.249-7.022
		c1.524-1.313,1.558-1.426,0.858-3.283c-3.218-8.537-4.797-17.427-5.92-26.441c-1.232-9.893-1.782-19.813-1.625-29.773
		c0.034-2.147-0.777-3.314-2.797-4.15c-38.691-16-77.365-32.038-116.014-48.139c-4.427-1.844-8.753-3.967-12.997-6.206
		c-5.639-2.974-9.754-7.504-12.451-13.282c-1.969-4.217-2.071-8.481-0.262-12.813c4.394-10.517,14.948-15.219,25.747-11.309
		c10.086,3.653,20.097,7.514,30.201,11.114c7.538,2.686,15.162,5.133,22.771,7.614c1.667,0.543,3.43,0.797,5.155,1.15
		c0.872,0.178,1.757,0.274,2.428-0.735c-0.527-1.513-1.646-2.632-2.797-3.748c-4.451-4.314-9.432-7.973-14.372-11.683
		c-9.75-7.322-19.516-14.622-29.233-21.986c-1.374-1.041-2.563-0.95-3.984-0.246c-4.029,1.997-8.23,3.542-12.605,4.612
		c-5.996,1.467-12.031,1.803-18.132,0.763c-2.316-0.395-4.519-1.124-6.547-2.285c-9.565-5.473-16.111-13.31-18.751-24.163
		c-1.393-5.725-1.003-11.349,1.418-16.707c4.078-9.022,10.265-16.033,19.727-19.687c5.261-2.032,10.713-2.641,16.311-1.925
		c1.035,0.132,2.074,0.231,3.112,0.33c0.147,0.014,0.303-0.059,0.753-0.155c0.078-0.818,0.163-1.739,0.254-2.66
		c0.978-9.846,5.438-17.518,14.231-22.338c2.441-1.338,5.053-2.497,7.724-3.255c7.247-2.057,14.658-2.687,22.154-1.652
		c9.473,1.308,16.256,6.345,20.426,14.928c2.204,4.535,3.281,9.363,3.626,14.364c0.485,7.03-0.143,13.938-2.432,20.645
		c-0.911,2.668-2.146,5.178-3.734,7.513c-0.536,0.787-1.042,1.595-1.597,2.449c0.576,0.622,1.032,1.174,1.548,1.664
		c16.114,15.315,32.214,30.648,49.189,45.018c5.386,4.558,11.029,8.814,16.599,13.152c0.931,0.726,2.047,1.276,3.159,1.687
		c0.7,0.259,1.592,0.278,2.328,0.107c1.566-0.364,2.151-1.807,1.283-3.148c-0.513-0.792-1.206-1.511-1.945-2.105
		c-1.498-1.206-3.072-2.317-4.632-3.445c-1.896-1.37-2.077-1.769-1.549-4.041c2.001-8.625,5.153-16.837,8.938-24.821
		c8.431-17.785,19.891-33.272,34.953-46.015c15.156-12.823,32.521-21.253,51.784-25.831c15.729-3.738,31.696-4.902,47.795-3.768
		c22.465,1.583,43.385,8.089,62.445,20.253c0.654,0.417,1.345,0.777,2.196,1.267c0.438-1.537,0.806-2.831,1.178-4.124
		c4.939-17.159,13.161-32.512,25.424-45.555c13.348-14.198,29.748-22.871,48.917-26.234c4.644-0.814,9.344-1.74,14.074-1.507
		c11.057,0.546,19.416,5.492,24.251,15.719c0.505,1.067,0.937,2.275,0.984,3.435c0.221,5.302,0.232,10.614-1.794,15.653
		c-0.772,1.921-0.628,3.586,0.254,5.496c4.861,10.518,8.094,21.584,10.684,32.848c2.498,10.866,4.238,21.868,5.874,32.892
		c1.803,12.149,2.995,24.358,3.839,36.602c0.557,8.082,0.934,16.176,1.402,24.264c0.063,1.107,0.19,2.212,0.298,3.422
		c1.145-0.05,1.674-0.783,2.297-1.333c5.722-5.049,11.107-10.438,16.339-15.991c3.521-3.737,7.017-7.515,10.765-11.017
		c2.682-2.505,5.661-4.732,8.687-6.823c9.794-6.771,20.883-4.511,28.508,2.405c4.442,4.029,7.082,9.041,8.075,14.937
		c0.054,0.314,0.063,0.64,0.056,0.959c-0.147,6.924-0.507,13.801-4.365,19.915c-0.997,1.581-1.206,3.354-0.776,5.107
		c1.236,5.035,1.378,10.155,1.417,15.294c0.074,9.559-0.553,19.084-1.355,28.6c-1.296,15.356-3.533,30.587-6.425,45.712
		c-4.343,22.709-10.208,44.996-19.197,66.367c-3.549,8.436-7.646,16.597-12.65,24.276c-4.095,6.283-8.825,12.028-14.597,16.864
		c-4.799,4.021-10.111,7.08-16.287,8.4c-1.87,0.399-3.805,0.645-5.714,0.676c-3.022,0.049-5.737-1.022-7.664-3.38
		c-1.082-1.324-2.257-1.534-3.778-1.486c-3.367,0.106-6.738,0.072-10.108,0.132c-3.551,0.063-6.792-0.977-9.853-2.684
		c-7.862-4.385-13.767-10.688-18.036-18.553c-4.841-8.917-7.667-18.469-8.789-28.535c-0.222-1.992-0.341-3.995-0.534-5.991
		c-0.066-0.691-0.216-1.376-0.327-2.063C469.246,464.591,469.139,464.586,469.032,464.581z M194.921,392.027
		c-0.296,0.684-0.509,0.963-0.531,1.257c-0.215,2.877-0.548,5.756-0.552,8.636c-0.004,3.687,0.267,7.373,0.416,11.06
		c0.288,7.097,1.629,13.991,3.896,20.72c6.372,18.908,18.852,31.693,37.916,37.894c9.02,2.934,18.335,3.87,27.752,3.88
		c16.306,0.017,32.535-1.088,48.663-3.588c11.587-1.797,22.956-4.456,34.016-8.359c12.246-4.321,23.74-10.067,33.864-18.322
		c9.178-7.481,16.311-16.52,20.82-27.53c1.503-3.669,2.423-7.463,2.268-11.468c-0.271-6.991-1.199-13.896-2.777-20.708
		c-2.518-10.871-6.106-21.413-10.11-31.805c-2.445-6.348-5.271-12.55-7.923-18.818c-0.853-2.017-2.257-3.454-4.301-4.298
		c-2.069-0.855-4.063-1.908-6.167-2.666c-14.123-5.087-28.63-8.745-43.381-11.464c-2.623-0.483-5.08-0.07-7.373,1.386
		c-6.225,3.953-12.479,7.86-18.714,11.796c-0.588,0.371-1.125,0.823-1.874,1.376c0.533,0.73,0.884,1.344,1.359,1.839
		c1.499,1.563,3.051,3.075,4.571,4.619c4.411,4.482,8.357,9.312,11.081,15.037c3.494,7.342,4.48,14.97,2.707,22.951
		c-1.485,6.687-4.62,12.592-8.313,18.268c-2.625,4.033-6.148,6.967-10.589,8.733c-9.736,3.874-19.767,4.737-29.966,2.33
		c-10.925-2.577-16.884-9.8-17.773-21.08c-0.395-5.011,0.196-9.923,1.367-14.785c1.828-7.596,4.58-14.846,8.297-21.712
		c0.827-1.527,0.942-2.751-0.205-4.153c-0.727-0.889-1.168-2.011-1.846-3.222c1.206-0.557,2.136-0.989,3.067-1.415
		c9.904-4.524,19.843-8.973,29.699-13.597c5.799-2.721,11.526-5.614,16.829-9.257c0.845-0.581,1.797-1.069,2.069-2.175
		c-0.628-1.488-2.019-1.869-3.236-2.388c-4.156-1.77-8.556-2.712-12.99-3.367c-5.628-0.831-11.282-1.535-16.946-2.075
		c-8.782-0.838-17.572-1.655-26.377-2.182c-11.777-0.705-23.573-0.652-35.362-0.137c-0.823,0.036-1.763-0.183-2.54,0.626
		c0.386,0.55,0.721,1.088,1.115,1.578c2.364,2.938,4.779,5.834,7.106,8.8c8.681,11.062,12.369,23.567,10.766,37.579
		c-0.275,2.407-0.834,4.737-2.131,6.828c-1.763,2.841-4.139,3.916-7.357,3.221c-1.719-0.371-3.439-0.798-5.096-1.381
		c-12.458-4.384-24.981-8.598-37.331-13.27c-30.542-11.554-61.001-23.329-91.5-35.001c-6.801-2.603-13.603-5.207-20.447-7.693
		c-3.403-1.235-6.939-1.898-10.61-1.737c-7.259,0.32-14.622,8.531-10.177,17.322c2.022,4,4.917,7.078,9.05,8.939
		c3.358,1.512,6.655,3.165,10.044,4.601c18.203,7.716,36.399,15.451,54.65,23.052c30.741,12.803,61.521,25.51,92.283,38.261
		c0.516,0.214,1.145,0.351,1.49,0.732c0.505,0.556,1.115,1.304,1.109,1.966c-0.007,0.946-0.889,1.527-1.861,1.512
		c-0.938-0.016-1.927-0.086-2.801-0.395c-5.207-1.837-10.385-3.76-15.58-5.633C197.348,392.745,196.209,392.432,194.921,392.027z
		 M351.688,466.22c0.133,1.979,0.228,3.337,0.316,4.694c0.224,3.441,0.632,6.884,0.628,10.325
		c-0.007,6.576-0.204,13.153-0.423,19.728c-0.063,1.912,0.499,3.308,1.904,4.659c28.108,27.031,56.161,54.12,84.283,81.137
		c1.597,1.534,1.875,2.821,1.085,4.831c-1.522,3.873-2.908,7.811-4.117,11.793c-2.184,7.196-3.35,14.524-2.199,22.072
		c1.336,8.761,5.933,14.872,14.387,17.922c4.634,1.671,9.369,2.085,14.209,1.27c7.662-1.29,13.521-5.185,17.291-12.068
		c2.302-4.204,3.726-8.703,4.188-13.451c0.342-3.505,0.334-7.042,0.51-10.564c0.059-1.163-0.263-2.367,0.265-3.561
		c6.447,0.667,12.721-0.179,18.973-1.29c3.72-0.661,7.057-2.089,9.65-4.963c7.336-8.13,10.714-17.517,9.23-28.52
		c-0.954-7.081-4.764-11.817-11.522-13.97c-10.515-3.348-21.135-3.727-31.68-0.171c-4.542,1.531-8.955,3.458-13.384,5.308
		c-1.587,0.662-2.771,0.609-4.142-0.595c-11.09-9.748-22.212-19.46-33.38-29.118c-24.399-21.102-48.83-42.166-73.254-63.24
		C353.737,467.784,352.912,467.186,351.688,466.22z M164.184,501.671c-0.332,0.203-0.5,0.254-0.584,0.367
		c-0.19,0.256-0.357,0.533-0.503,0.816c-5.144,9.948-9.16,20.302-11.016,31.394c-1.16,6.933-1.276,13.898,0.063,20.828
		c2.394,12.377,9.095,21.907,19.381,29.023c6.464,4.473,13.635,7.403,21.149,9.549c8.051,2.3,16.285,3.46,24.633,4.02
		c17.131,1.147,33.973-0.287,50.408-5.437c20.788-6.513,38.754-17.544,53.452-33.715c3.62-3.981,6.936-8.214,9.582-12.928
		c1.175-2.092,2.224-4.238,2.594-6.863c-0.809,0.075-1.522,0.079-2.211,0.216c-3.929,0.785-7.851,1.604-11.776,2.405
		c-14.694,3-29.436,5.627-44.43,6.726c-14.637,1.073-29.176,0.729-43.606-2.086c-12.697-2.477-24.642-6.925-35.662-13.762
		c-11.755-7.293-21.464-16.746-29.542-27.928C165.474,503.409,164.817,502.531,164.184,501.671z M80.846,267.093
		c0.85,0.704,1.655,1.355,2.443,2.026c18.89,16.066,38.197,31.607,58.265,46.188c10.384,7.544,20.978,14.767,32.219,20.994
		c4.348,2.408,8.781,4.637,13.558,6.091c0.807,0.246,1.647,0.385,2.588,0.6c0.089-0.715,0.176-1.181,0.2-1.65
		c0.275-5.368,0.513-10.737,0.822-16.103c0.121-2.102-0.732-3.721-2.167-5.133c-4.346-4.277-8.527-8.738-13.061-12.806
		c-20.486-18.383-41.071-36.655-61.616-54.972c-0.516-0.46-0.97-0.989-1.562-1.598c0.643-0.737,1.167-1.322,1.673-1.921
		c1.087-1.286,2.239-2.525,3.237-3.876c9.673-13.105,8.159-28.681-0.924-40.085c-3.148-3.952-7.234-6.525-12.183-7.661
		c-6.94-1.593-13.566-0.34-19.902,2.533c-6.621,3.001-10.781,8.208-12.458,15.268c-0.57,2.399-0.717,4.903-0.986,7.367
		c-0.136,1.248-0.113,2.514-0.167,3.918c-1.223-0.095-2.178-0.149-3.128-0.246c-6.481-0.659-12.818,0.083-18.98,2.127
		c-13.029,4.322-19.5,16.104-17.063,29.098c1.418,7.563,5.724,13.169,12.813,16.378c8.147,3.688,16.361,4.342,24.528,0.005
		c3.253-1.727,6.463-3.537,9.69-5.313C79.379,267.938,80.063,267.538,80.846,267.093z M488.862,193.623
		c-0.325,0.083-0.498,0.089-0.627,0.168c-0.478,0.292-0.955,0.589-1.409,0.917c-8.477,6.112-16.478,12.786-23.765,20.289
		c-7.525,7.75-14.111,16.201-19.075,25.843c-4.953,9.624-7.821,19.782-7.886,30.671c-0.061,10.137,2.553,19.622,6.65,28.811
		c3.21,7.196,8.341,12.435,15.278,16.032c6.985,3.623,14.454,5.592,22.204,6.673c6.938,0.968,13.909,1.062,20.894,0.903
		c0.803-0.018,1.607,0.021,2.407-0.025c1.571-0.091,1.815-0.34,1.91-1.839c0.024-0.4,0.005-0.802,0.006-1.204
		c0.014-5.376,0.087-10.753,0.03-16.128c-0.178-16.768-0.672-33.516-2.861-50.175c-1.338-10.175-2.738-20.334-4.921-30.369
		C495.449,213.847,492.607,203.675,488.862,193.623z M441.818,309.907c0.178,1.781,0.387,2.966,0.4,4.152
		c0.117,9.865,0.159,19.73-0.433,29.585c-0.01,0.16,0.024,0.334-0.027,0.479c-0.776,2.183,0.316,3.612,1.824,5.022
		c6.154,5.752,13.052,10.338,20.82,13.615c9.413,3.971,19.208,5.99,29.437,6.096c6.759,0.07,13.447-0.442,20.068-1.744
		c7.885-1.551,15.488-4.018,22.866-7.208c13.447-5.815,25.548-13.724,36.366-23.561c6.716-6.107,12.849-12.786,18.241-20.107
		c1.996-2.71,3.879-5.504,5.777-8.285c1.294-1.895,2.194-4.042,2.011-6.307c-0.246-3.034-1.111-5.968-2.668-8.653
		c-2.345-4.041-5.782-6.804-9.987-8.701c-3.314-1.495-6.388-1.202-9.166,1.229c-3.801,3.326-7.643,6.607-11.371,10.012
		c-5.033,4.596-9.98,9.287-14.956,13.945c-7.469,6.993-15.56,13.123-24.661,17.859c-4.228,2.2-8.648,3.89-13.422,4.262
		c-5.746,0.448-11.51,0.718-17.271,0.921c-2.391,0.084-4.793-0.27-7.192-0.306c-4.898-0.072-9.746-0.617-14.553-1.496
		c-8.167-1.493-15.332-5.041-21.394-10.735c-3.156-2.965-6.251-5.997-9.378-8.992C442.879,310.731,442.565,310.513,441.818,309.907z
		 M430.166,255.603c0.324-0.739,0.563-1.223,0.754-1.727c3.776-10.006,8.495-19.542,14.406-28.458
		c6.712-10.125,14.432-19.39,23.503-27.524c4.664-4.182,9.51-8.108,14.69-11.616c4.649-3.148,9.491-5.975,14.54-8.444
		c1.294-0.633,2.563-1.323,3.81-2.047c4.578-2.662,5.954-6.494,4.181-11.396c-1.419-3.922-4.078-6.821-7.37-9.251
		c-4.393-3.244-9.285-4.947-14.751-5.008c-4.634-0.051-9.03,1.213-13.385,2.546c-6.448,1.975-12.581,4.713-18.506,7.953
		c-10.602,5.796-19.885,13.188-27.537,22.554c-9.513,11.642-15,25.052-17.252,39.852c-0.22,1.448,0.213,2.652,1.185,3.749
		c3.4,3.837,6.788,7.686,10.134,11.571c4.193,4.871,8.069,9.964,10.755,15.862C429.507,254.624,429.787,254.987,430.166,255.603z
		 M545.871,476.175c0.273-0.132,0.473-0.162,0.545-0.273c0.389-0.605,0.768-1.219,1.111-1.851
		c3.408-6.274,6.359-12.761,8.939-19.415c9.721-25.064,14.854-51.186,17.788-77.799c0.729-6.615,1.224-13.257,1.755-19.892
		c0.324-4.05,0.368-8.111,0.14-12.499c-0.991,0.688-1.774,1.188-2.511,1.75c-5.229,3.99-10.557,7.829-16.255,11.145
		c-7.979,4.643-16.296,8.568-24.901,11.881c-1.594,0.613-2.406,1.504-2.698,3.248c-1.244,7.427-2.694,14.819-3.953,22.244
		c-1.836,10.825-3.564,21.667-5.361,32.499c-0.18,1.085,0.1,1.801,1.058,2.415c1.482,0.949,2.929,1.974,4.284,3.095
		c4.652,3.85,7.997,8.733,10.803,14.01c3.714,6.982,6.141,14.429,7.802,22.137C544.937,471.283,545.384,473.715,545.871,476.175z
		 M525.312,519.391c2.219,0.194,3.869,0.138,5.524-0.104c6.984-1.017,12.882-4.275,18.1-8.867
		c6.778-5.966,11.763-13.324,16.162-21.116c5.225-9.253,9.132-19.083,12.611-29.092c4.664-13.416,8.334-27.11,11.07-41.042
		c1.853-9.429,3.603-18.883,5.128-28.369c0.979-6.084,1.529-12.241,2.158-18.376c0.654-6.375,1.418-12.755,1.682-19.152
		c0.29-7.05,0.151-14.124,0.01-21.183c-0.038-1.878-0.657-3.777-1.223-5.601c-0.432-1.39-1.222-1.477-2.339-0.5
		c-0.181,0.158-0.341,0.34-0.503,0.518c-2.64,2.912-5.32,5.79-7.888,8.764c-0.647,0.75-1.078,1.771-1.348,2.739
		c-0.318,1.146-0.364,2.37-0.51,3.563c-0.708,5.806-1.435,11.609-2.105,17.419c-0.771,6.685-1.511,13.374-2.228,20.064
		c-0.563,5.259-0.894,10.549-1.642,15.78c-1.247,8.72-2.607,17.429-4.169,26.097c-3.061,16.984-8.573,33.187-16.078,48.714
		c-7.185,14.867-16.09,28.662-26.149,41.729C529.625,513.912,527.638,516.417,525.312,519.391z M437.908,358.077
		c0.231,0.75,0.433,1.511,0.697,2.25c8.731,24.336,17.488,48.664,26.19,73.01c1.938,5.422,4.118,10.778,5.103,16.501
		c0.049,0.286,0.29,0.539,0.456,0.833c0.165-0.178,0.318-0.269,0.359-0.396c1.571-4.863,4.648-8.73,8.135-12.329
		c3.082-3.181,6.497-5.966,10.141-8.467c1.329-0.912,2.162-2.024,2.522-3.623c0.896-3.983,1.942-7.932,2.861-11.909
		c2.601-11.248,4.503-22.623,6.128-34.046c0.153-1.076,0.213-2.164,0.34-3.49c-11.425,0.441-22.323-0.946-33.003-4.125
		C457.146,369.104,447.317,364.191,437.908,358.077z M410.065,346.947c0.454,1.174,0.732,1.982,1.074,2.763
		c9.059,20.694,18.123,41.385,27.187,62.076c4.706,10.743,8.696,21.713,10.531,33.361c0.752,4.773,1.087,9.549,0.271,14.366
		c-0.508,3-2.026,5.146-4.712,6.546c-3.173,1.653-6.531,2.729-10.093,2.86c-3.923,0.145-7.857,0.092-11.783-0.008
		c-11.341-0.291-22.534-1.674-33.505-4.662c-5.794-1.579-11.612-3.069-17.409-4.638c-1.864-0.504-3.65-0.443-5.374,0.434
		c-1.278,0.649-2.259,1.592-2.323,3.119c-0.067,1.574,0.916,2.492,2.23,3.113c2.244,1.061,4.462,2.184,6.748,3.145
		c11.348,4.767,23.27,7.067,35.471,8.08c13.01,1.081,25.974,0.466,38.892-1.288c6.395-0.867,10.69-4.379,12.914-10.432
		c1.871-5.09,2.205-10.229,1.166-15.602c-1.772-9.154-4.425-18.038-7.444-26.837c-7.057-20.566-15.81-40.422-25.116-60.046
		c-1.145-2.414-2.797-4.478-4.743-6.314c-3.928-3.706-8.313-6.797-12.87-9.662C410.984,347.203,410.738,347.17,410.065,346.947z
		 M538.724,477.932c0.454-4.226-0.855-8.783-2.262-13.297c-2.39-7.67-6.205-14.587-11.5-20.638
		c-2.983-3.41-6.421-6.276-10.763-7.857c-6.827-2.487-13.52-1.813-20.142,0.836c-5.992,2.398-10.065,6.751-12.566,12.573
		c-2.211,5.146-2.977,10.632-2.929,16.188c0.028,3.267,0.434,6.538,0.798,9.793c0.894,7.989,3.426,15.441,7.532,22.356
		c3.322,5.597,7.578,10.335,13.02,13.937c4.188,2.772,8.666,4.343,13.834,3.364c5.889-1.114,11.196-3.271,15.438-7.66
		c3.071-3.179,5.084-6.996,6.584-11.081C537.888,490.677,538.69,484.663,538.724,477.932z M357.681,294.076
		c-1.564-4.021-29.988-35.707-33.543-37.544c-7.924,3.8-30.706,25.601-34.915,33.497c0.7,0.86,1.423,1.805,2.204,2.699
		c1.739,1.993,3.625,3.871,5.223,5.969c1.17,1.537,2.62,2.239,4.413,2.591c4.628,0.909,9.286,1.708,13.857,2.848
		c7.606,1.897,15.165,3.99,22.718,6.092c1.501,0.417,2.512,0.179,3.644-0.908c4.682-4.495,9.457-8.893,14.205-13.318
		C356.179,295.355,356.909,294.75,357.681,294.076z M512.063,322.771c1.24-0.257,2.126-0.331,2.93-0.625
		c3.082-1.129,6.128-2.356,9.208-3.494c1.821-0.673,2.552-1.802,2.477-3.834c-0.303-8.174-0.418-16.354-0.655-24.531
		c-0.097-3.365-0.248-6.732-0.516-10.087c-0.528-6.628-1.109-13.253-1.757-19.87c-0.452-4.624-0.857-9.265-1.623-13.841
		c-1.601-9.555-3.332-19.09-5.181-28.6c-2.267-11.664-5.655-23.02-9.828-34.143c-0.24-0.639-0.59-1.236-0.984-2.052
		c-3.811,2.547-7.397,4.952-10.994,7.341c-0.868,0.576-1.052,1.362-0.821,2.305c0.095,0.388,0.231,0.767,0.349,1.149
		c3.334,10.876,6.627,21.761,9.083,32.882c2.352,10.646,4.102,21.391,5.504,32.193c0.649,5.001,1.138,10.029,1.529,15.058
		c0.522,6.71,1.084,13.427,1.258,20.151c0.211,8.098,0.032,16.206,0.022,24.309C512.061,318.834,512.063,320.587,512.063,322.771z
		 M253.853,252.513c9.44,9.973,18.74,19.801,28.052,29.619c0.202,0.213,0.531,0.306,0.916,0.519c2.719-2.991,5.34-6,8.101-8.875
		c2.772-2.888,5.6-5.733,8.556-8.429c2.957-2.698,6.107-5.184,9.166-7.77c3.025-2.557,6.526-4.507,9.831-7.419
		c-1.056-0.908-1.912-1.624-2.744-2.365c-4.308-3.84-8.606-7.69-12.913-11.531c-4.366-3.896-8.73-7.792-13.109-11.673
		c-1.189-1.054-1.613-1.1-2.984-0.249c-1.293,0.802-2.533,1.691-3.787,2.555c-6.278,4.326-12.263,9.037-17.875,14.189
		c-3.66,3.361-7.079,6.985-10.597,10.501C254.248,251.802,254.117,252.106,253.853,252.513z M363.492,289.281
		c5.45-3.55,10.496-7.104,15.802-10.217c5.288-3.104,10.836-5.765,16.481-8.731c-0.475-0.76-0.882-1.52-1.389-2.204
		c-5.527-7.467-11.032-14.952-16.629-22.367c-2.121-2.811-4.469-5.45-6.703-8.175c-1.116-1.361-2.402-2.106-4.193-1.31
		c-0.287,0.127-0.625,0.135-0.933,0.221c-11.632,3.268-22.615,8.06-33.06,14.108c-0.526,0.304-0.976,0.742-1.703,1.306
		C342.629,263.94,352.697,276.895,363.492,289.281z M99.924,538.733c-0.875,0.607-1.478,0.985-2.039,1.419
		c-7.617,5.883-15.232,11.77-22.836,17.671c-0.864,0.67-1.653,1.438-2.549,2.225c10.377,13.563,20.647,26.887,31.564,40.052
		c9.384-7.318,18.569-14.516,27.792-21.867C121.162,565.004,110.641,551.99,99.924,538.733z M69.65,626.227
		c-2.785-3.993-30.632-36.083-32.347-37.27c-0.64,0.524-1.334,1.052-1.982,1.631c-2.032,1.813-4.014,3.682-6.073,5.464
		c-4.311,3.728-8.338,7.726-12.036,12.069c-2.14,2.514-2.651,5.24-1.47,8.263c1.11,2.84,2.532,5.521,4.357,7.986
		c2.686,3.627,5.896,6.752,9.281,9.691c3.459,3.003,7.241,5.534,11.47,7.383c3.243,1.417,6.197,1.103,9.049-0.964
		c5.056-3.665,10.146-7.281,15.217-10.927C66.602,628.485,68.068,627.389,69.65,626.227z M296.902,218.525
		c5.719,5.324,11.213,10.36,16.614,15.495c3.488,3.317,6.836,6.784,10.255,10.174c0.61,0.604,1.264,1.165,1.674,1.541
		c6.404-3.126,12.422-6.345,18.667-9.034c6.227-2.68,12.681-4.83,19.285-7.306c-1.021-1.171-1.889-2.305-2.896-3.296
		c-3.888-3.825-7.694-7.746-11.771-11.359c-3.772-3.343-7.866-6.322-11.791-9.496c-1.582-1.279-3.235-1.439-5.179-0.923
		c-11.519,3.061-22.515,7.43-33.04,13.001C298.101,217.649,297.545,218.095,296.902,218.525z M98.243,604.29
		c-2.9-3.418-5.583-6.583-8.27-9.746c-2.696-3.173-5.395-6.342-8.093-9.513c-2.75-3.231-5.443-6.514-8.268-9.68
		c-2.748-3.079-5.123-6.509-8.35-9.336c-0.795,0.579-1.448,1.022-2.065,1.511c-1.255,0.993-2.493,2.01-3.736,3.019
		c-4.661,3.784-9.335,7.553-13.976,11.363c-1.885,1.548-1.922,1.89-0.523,3.716c7.544,9.849,14.77,19.951,23.045,29.221
		c1.866,2.09,3.903,4.031,5.914,5.986c1.018,0.989,1.367,0.97,2.525,0.238c0.337-0.212,0.636-0.485,0.955-0.728
		c3.824-2.906,7.661-5.796,11.468-8.724C91.909,609.28,94.913,606.896,98.243,604.29z M367.815,294.846
		c4.02,5.453,7.884,10.553,11.59,15.765c3.696,5.199,7.234,10.511,10.892,15.847c1.165-0.729,2.091-1.357,3.061-1.907
		c2.021-1.146,4.016-2.353,6.107-3.354c6.581-3.148,13.205-6.207,19.803-9.32c0.549-0.259,1.027-0.666,1.486-0.969
		c-0.994-3.543-18.725-32.325-21.278-34.558C388.18,280.908,377.748,287.045,367.815,294.846z M135.956,574.938
		c2.442-1.928,4.564-3.763,6.854-5.358c1.714-1.195,2.09-2.512,1.602-4.509c-2.464-10.083-2.99-20.292-1.503-30.569
		c0.243-1.675-0.083-2.896-1.188-4.156c-3.438-3.922-6.768-7.938-10.155-11.904c-0.556-0.651-1.194-1.234-1.884-1.941
		c-1.418,0.942-2.722,1.722-3.932,2.627c-5.907,4.422-11.793,8.873-17.678,13.325c-3.565,2.696-3.632,2.764-0.942,6.26
		c6.507,8.456,13.052,16.883,19.662,25.258C129.67,567.617,132.748,571.11,135.956,574.938z M248.132,259.074
		c-7.275,7.3-23.06,31.519-24.26,37.792c4.643,0,9.266,0.027,13.889-0.007c4.721-0.035,9.444-0.273,14.16-0.164
		c6.156,0.142,12.308,0.511,18.458,0.846c1.466,0.08,2.431-0.479,3.192-1.667c1.21-1.887,2.487-3.731,3.716-5.605
		c1.189-1.812,1.206-1.945-0.328-3.445c-8.995-8.793-18.004-17.571-27.022-26.34C249.385,259.948,248.721,259.529,248.132,259.074z
		 M206.294,529.121c0.47,0.386,0.634,0.572,0.84,0.681c0.564,0.299,1.147,0.563,1.72,0.845c12.308,6.058,25.563,8.562,38.996,10.396
		c1.185,0.161,1.617-0.173,1.76-1.368c0.143-1.19,0.125-2.404,0.319-3.584c0.987-6,2.029-11.991,3.024-17.989
		c0.101-0.606,0.014-1.242,0.014-1.737c-5.953-1.727-11.858-3.182-17.578-5.171c-5.779-2.009-11.375-4.547-17.27-6.941
		C214.211,512.472,210.273,520.752,206.294,529.121z M304.176,509.421c3.116-0.666,6.087-1.251,9.033-1.939
		c9.613-2.246,18.828-5.643,27.812-9.706c1.511-0.683,2.474-1.531,2.377-3.417c-0.343-6.642-0.558-13.288-0.843-19.933
		c-0.029-0.684-0.21-1.36-0.341-2.166c-2.993,0.868-5.736,1.683-8.49,2.457c-8.871,2.497-17.897,4.255-26.998,5.666
		c-2.047,0.317-2.09,0.361-2.141,2.406c-0.204,8.17-0.377,16.34-0.548,24.511C304.023,507.924,304.115,508.55,304.176,509.421z
		 M211.44,500.574c-5.192-3.644-10.423-7.051-15.354-10.848c-4.981-3.835-9.665-8.057-14.485-12.113
		c-0.227,0.188-0.443,0.315-0.59,0.497c-3.822,4.737-7.604,9.508-11.476,14.203c-0.99,1.201-0.604,2.112,0.017,3.239
		c6.489,11.784,15.771,20.897,26.915,28.237c0.317,0.209,0.674,0.358,1.193,0.629C202.307,516.379,206.897,508.436,211.44,500.574z
		 M200.756,297.892c0.729,0.057,1.43,0.184,2.123,0.152c3.84-0.173,7.677-0.413,11.518-0.569c1.483-0.061,2.043-0.945,2.45-2.192
		c2.451-7.517,6.101-14.456,10.329-21.104c4.137-6.505,8.881-12.558,13.881-18.416c1.376-1.612,1.379-1.938-0.143-3.358
		c-1.816-1.695-3.66-3.362-5.524-5.005c-1.364-1.203-2.781-2.346-4.23-3.564c-0.589,0.465-1.069,0.755-1.437,1.149
		c-1.038,1.113-2.023,2.274-3.04,3.408c-8.351,9.313-15.189,19.639-20.594,30.909c-2.289,4.773-4.251,9.68-5.316,14.898
		C200.533,295.37,200.351,296.543,200.756,297.892z M263.054,509.277c11.408,2.033,22.543,2.101,33.803,1.065
		c0.167-0.664,0.398-1.188,0.418-1.719c0.335-8.942,0.645-17.886,0.969-27.084c-4.942,0.284-9.628,0.661-14.321,0.793
		c-4.793,0.135-9.593,0.03-14.532,0.03C267.211,491.318,264.822,500.021,263.054,509.277z M296.275,517.745
		c-11.512,1.26-23.079,1.157-34.549-0.219c-1.463,4.231-4.031,21.88-3.558,24.076c5.519,1.024,33.579-0.591,37.486-2.158
		C296.368,535.966,296.875,520.021,296.275,517.745z M343.015,505.383c-1.058,0.349-1.813,0.577-2.555,0.844
		c-5.417,1.951-10.803,3.996-16.255,5.844c-6,2.035-12.216,3.23-18.439,4.371c-2.147,0.395-2.139,0.449-2.21,2.637
		c-0.146,4.485-0.309,8.971-0.428,13.457c-0.051,1.909-0.009,3.821-0.009,5.9c1.047-0.099,1.914-0.114,2.754-0.27
		c9.607-1.775,19.105-4.017,28.528-6.599c2.221-0.608,3.562-1.825,4.383-3.97C341.479,520.561,342.472,513.226,343.015,505.383z
		 M377.285,234.017c0.249,0.592,0.279,0.764,0.376,0.88c8.388,10.127,16.325,20.594,23.637,31.525
		c0.849,1.269,1.794,1.441,3.06,1.139c2.723-0.651,5.445-1.305,8.163-1.975c2.485-0.612,4.975-1.214,7.444-1.886
		c1.3-0.353,1.522-0.883,1.054-2.142c-0.166-0.449-0.394-0.878-0.625-1.299c-2.008-3.65-3.894-7.375-6.064-10.926
		c-3.434-5.62-7.549-10.746-11.985-15.612c-1.009-1.107-2.123-1.835-3.732-1.849c-5.782-0.05-11.517,0.392-17.211,1.379
		C380.089,233.479,378.783,233.737,377.285,234.017z M222.706,495.383c0.539,0.374,0.955,0.738,1.433,0.984
		c9.215,4.762,18.866,8.387,28.906,10.974c0.665,0.172,1.374,0.173,2.221,0.272c2.375-8.633,4.698-17.081,6.99-25.414
		c-0.357-0.287-0.467-0.44-0.605-0.474c-0.464-0.111-0.935-0.21-1.408-0.261c-8.07-0.873-15.977-2.526-23.721-4.956
		c-0.458-0.144-0.919-0.276-1.373-0.433c-0.79-0.272-1.41-0.104-1.839,0.649c-0.238,0.417-0.511,0.815-0.75,1.231
		c-2.988,5.217-5.976,10.433-8.955,15.653C223.297,494.152,223.039,494.724,222.706,495.383z M498.92,427.318
		c0.964,0.047,1.513,0.118,2.057,0.094c3.043-0.137,6.084-0.301,9.126-0.447c2.342-0.112,2.414-0.181,3.063-2.524
		c4.384-15.853,7.379-31.979,9.504-48.275c0.108-0.834,0.014-1.696,0.014-2.659c-0.865,0.047-1.503,0.031-2.123,0.126
		c-1.186,0.183-2.359,0.448-3.543,0.647c-2.604,0.438-5.212,0.86-7.819,1.283c-1.783,0.289-2.11,0.596-2.346,2.167
		c-0.936,6.256-1.818,12.52-2.832,18.763c-1.374,8.455-2.854,16.893-4.276,25.34C499.453,423.555,499.223,425.287,498.92,427.318z
		 M227.856,473.685c-4.619-2.503-9.248-4.736-13.583-7.439c-4.326-2.697-8.358-5.865-12.621-8.899
		c-4.475,4.323-9.008,8.702-13.541,13.081c7.745,7.901,23.371,19.662,28.525,21.485
		C220.397,485.802,224.168,479.676,227.856,473.685z M406.52,273.978c0.796,1.344,1.427,2.45,2.094,3.532
		c6.146,9.965,12.106,20.038,17.531,30.417c2.601,4.975,5.141,9.981,7.721,14.966c0.341,0.66,0.757,1.281,1.139,1.92
		c0.317-1.176,0.183-2.179,0.165-3.183c-0.104-5.852-0.638-11.661-1.429-17.461c-1.228-8.991-3.325-17.769-6.123-26.387
		c-0.618-1.903-1.305-3.789-2.058-5.643c-0.771-1.898-1.089-2.093-3.076-1.722c-4.56,0.85-9.106,1.764-13.65,2.696
		C408.093,273.266,407.398,273.643,406.52,273.978z M283.639,219.685c-2.328-1.876-4.368-3.415-6.279-5.1
		c-1.182-1.042-2.358-1.239-3.747-0.648c-0.81,0.345-1.643,0.644-2.424,1.045c-3.774,1.939-7.584,3.816-11.289,5.883
		c-7.581,4.232-14.468,9.452-21.022,15.122c-1.371,1.186-1.444,2.177-0.19,3.467c0.944,0.972,2.043,1.795,3.078,2.678
		c1.828,1.559,3.628,3.15,5.5,4.652c1.141,0.914,1.365,0.865,2.454-0.128c1.892-1.727,3.753-3.488,5.63-5.232
		c7.881-7.324,16.446-13.767,25.404-19.702C281.61,221.152,282.436,220.536,283.639,219.685z M431.06,351.21
		c0.608-1.256,1.28-2.199,1.53-3.243c0.762-3.181,1.406-6.392,2.004-9.607c0.317-1.706-0.126-3.293-0.979-4.835
		c-2.364-4.275-4.633-8.603-6.947-12.905c-1.117-2.076-1.354-2.179-3.575-1.377c-7.854,2.834-15.362,6.413-22.617,10.536
		c-0.6,0.341-1.273,0.651-1.439,1.613C410.206,337.074,420.609,343.937,431.06,351.21z M223.015,324.786
		c-3.177-7.775-8.578-12.768-16.104-15.54c-1.313-0.483-1.894-0.265-2.599,0.972c-0.67,1.176-1.274,2.416-1.713,3.694
		c-2.823,8.216-4.509,16.682-5.332,25.318c-0.197,2.066-0.107,4.161-0.133,6.242c-0.009,0.763,0.217,1.462,0.942,1.82
		c1.768,0.872,3.498,1.85,5.526,2.322c1.101-2.424,2.125-4.762,3.218-7.069c2.238-4.726,4.9-9.184,8.452-13.064
		c1.648-1.8,3.533-3.249,5.865-4.055C221.655,325.248,222.174,325.073,223.015,324.786z M391.2,224.025
		c-0.984-0.946-1.499-1.541-2.112-2.009c-1.145-0.876-2.308-1.738-3.529-2.501c-5.593-3.493-11.537-6.279-17.642-8.746
		c-4.46-1.803-8.958-3.48-13.667-4.528c-1.848-0.411-2.562-0.415-4.284,0.118c1.503,1.349,2.977,2.566,4.329,3.905
		c4.506,4.458,8.977,8.952,13.441,13.451c0.789,0.795,1.481,1.685,2.222,2.528c0.849,0.967,1.752,1.429,3.164,1.042
		c1.92-0.526,3.926-0.74,5.895-1.09C382.864,225.51,386.712,224.824,391.2,224.025z M362.111,299.614
		c-0.378,0.211-0.853,0.365-1.182,0.675c-4.089,3.846-8.162,7.708-12.217,11.589c-0.305,0.292-0.441,0.757-0.706,1.231
		c9.802,2.963,19.393,5.955,29.23,8.825C376.421,319.793,363.759,301.189,362.111,299.614z M144.42,525.33
		c2.178-8.951,5.022-17.417,8.899-25.52c0.113-0.236,0.014-0.574,0.014-0.932c-2.458,1.225-17.481,12.407-18.709,13.894
		C137.102,517.826,141.245,523.206,144.42,525.33z M286.229,209.38c1.998,1.782,3.506,3.29,5.278,4.497
		c0.754,0.514,1.494,0.223,2.245-0.188c4.979-2.723,9.978-5.412,14.96-8.131c0.333-0.182,0.579-0.526,1.271-1.175
		C301.75,205.392,294.195,206.801,286.229,209.38z M282.754,298.628c2.091,0.229,3.671,0.403,5.682,0.623
		c-0.607-0.879-0.915-1.408-1.304-1.87c-0.609-0.722-1.272-1.399-2.096-2.294C284.294,296.239,283.666,297.214,282.754,298.628z
		 M162.183,435.232c-1.782,0.44-3.546,0.973-5.348,1.306c-14.352,2.656-24.133,11.237-30.869,23.762
		c-3.689,6.861-5.719,14.243-6.791,21.925c-0.509,3.652-1.126,7.288-1.711,10.929c-0.069,0.429-0.243,0.84-0.743,1.273
		c-0.307-1.624-0.609-3.249-0.922-4.872c-0.954-4.956-1.676-9.972-2.917-14.854c-2.504-9.856-6.92-18.771-13.954-26.259
		c-5.839-6.218-12.915-10.167-21.311-11.761c-2.34-0.444-4.648-1.057-7.491-1.712c0.89-0.386,1.277-0.615,1.695-0.725
		c3.872-1.018,7.819-1.803,11.611-3.058c10.079-3.337,17.675-9.835,23.257-18.808c4.349-6.989,6.771-14.651,8.161-22.695
		c0.505-2.922,1.01-5.844,1.536-8.763c0.098-0.542,0.296-1.065,0.77-1.604c0.673,3.548,1.359,7.094,2.017,10.645
		c1.054,5.693,2.582,11.242,5.037,16.504c5.841,12.519,15.372,20.914,28.431,25.326c3.179,1.074,6.392,2.05,9.589,3.071
		C162.215,434.987,162.199,435.109,162.183,435.232z M117.124,402.929c-0.281,0.476-0.376,0.606-0.44,0.75
		c-0.258,0.586-0.514,1.173-0.758,1.765c-5.225,12.699-13.566,22.567-26.035,28.697c-0.31,0.152-0.562,0.424-1.015,0.775
		c14.377,7.231,22.428,19.38,27.616,33.938c2.308-4.728,4.347-9.318,6.75-13.711c2.473-4.519,5.775-8.457,9.556-11.982
		c3.713-3.463,8.006-6.089,12.721-8.692C131.58,427.839,122.481,417.203,117.124,402.929z M491.567,472.606
		c0.179-4.127,0.438-8.198,1.356-12.196c0.375-1.628,0.908-3.237,1.544-4.784c2.696-6.558,10.621-10.115,18.122-6.197
		c3.181,1.662,5.873,3.928,8.035,6.756c3.544,4.636,6.102,9.739,7.195,15.548c0.735,3.906,0.736,7.79,0.197,11.691
		c-0.638,4.614-1.488,9.192-3.96,13.242c-0.991,1.626-2.132,3.22-3.47,4.563c-2.488,2.499-5.591,3.246-9.063,2.572
		c-3.646-0.707-6.808-2.397-9.505-4.863c-4.656-4.257-8.128-9.331-9.302-15.623C492.062,479.797,491.934,476.179,491.567,472.606z
		 M498.486,474.514c-0.021,5.756,1.484,10.955,4.978,15.545c2.118,2.785,4.564,5.159,7.921,6.43
		c2.428,0.918,4.002,0.563,5.421-1.562c0.925-1.386,1.773-2.876,2.352-4.433c1.576-4.242,2.255-8.672,2.155-13.194
		c-0.18-8.174-3.624-14.837-9.705-20.154c-1.046-0.914-2.468-1.506-3.814-1.946c-2.592-0.848-5.011,0.078-6.382,2.457
		c-0.748,1.298-1.44,2.758-1.639,4.215C499.203,466.066,498.896,470.297,498.486,474.514z"/>
</g>
</svg>
