<?xml version="1.0" encoding="utf-8"?>
<!-- Generator: Adobe Illustrator 16.0.0, SVG Export Plug-In . SVG Version: 6.00 Build 0)  -->
<!DOCTYPE svg PUBLIC "-//W3C//DTD SVG 1.1//EN" "http://www.w3.org/Graphics/SVG/1.1/DTD/svg11.dtd">
<svg version="1.1" xmlns="http://www.w3.org/2000/svg" xmlns:xlink="http://www.w3.org/1999/xlink" x="0px" y="0px" width="612px"
	 height="792px" viewBox="0 0 612 792" enable-background="new 0 0 612 792" xml:space="preserve">
<g id="Yellow">
	<path fill-rule="evenodd" clip-rule="evenodd" fill="#FEEC7E" d="M525.119,175.388c-5.871-4.05-9.984-9.129-11.046-16.161
		c-0.786-5.211,0-10.216,2.502-14.924c4.897-9.216,16.368-14.196,26.45-11.381c10.363,2.894,17.8,12.637,17.166,23.823
		c-0.237,4.192-1.559,8.003-3.87,11.478c-2.366,3.556-5.531,6.189-9.354,8.089c-3.764,1.87-7.849,2.109-12.057,2.351
		c-0.426,1.043-0.85,1.98-1.194,2.944c-7.918,22.101-15.826,44.206-23.74,66.308c-1.404,3.922-2.818,7.841-4.242,11.757
		c-0.298,0.818-0.656,1.615-0.993,2.437c-1.068,0.068-1.792-0.462-2.551-0.854c-12.943-6.681-26.491-11.767-40.61-15.326
		c-8.326-2.099-16.741-3.725-25.285-4.648c-5.184-0.561-10.352-1.296-15.546-1.694c-7.683-0.588-15.386-0.8-23.092-0.404
		c-4.006,0.206-8.013,0.399-12.015,0.665c-10.662,0.708-21.201,2.277-31.623,4.626c-14.835,3.345-29.121,8.251-42.723,15.097
		c-1.497,0.753-3.039,1.418-4.601,2.143c-0.828-0.839-1.012-1.883-1.339-2.841c-8.65-25.322-17.289-50.649-25.935-75.973
		c-0.463-1.356-0.973-2.697-1.515-4.193c-0.877-0.043-1.654-0.103-2.433-0.117c-11.928-0.214-19.437-7.99-22.081-15.694
		c-4.914-14.316,5.106-28.686,18.735-30.528c11.402-1.541,22.918,5.453,25.73,17.501c2.041,8.743-0.289,16.35-6.893,22.538
		c-1.049,0.983-2.198,1.859-3.38,2.852c0.205,0.518,0.341,1.064,0.616,1.528c6.679,11.264,15.61,20.096,27.669,25.524
		c6.435,2.896,13.213,4.378,20.23,4.871c3.766,0.265,7.517,0.389,11.297,0.075c12.604-1.047,23.081-6.278,31.409-15.771
		c6.724-7.665,11.136-16.602,14.197-26.258c1.772-5.593,2.891-11.333,3.837-17.11c0.246-1.503,0.501-3.006,0.716-4.514
		c0.191-1.344,0.006-1.707-1.163-2.308c-0.712-0.367-1.469-0.645-2.184-1.005c-8.361-4.218-12.786-11.146-13.088-20.368
		c-0.421-12.881,10.205-23.543,22.825-23.669c11.761-0.116,21.688,8.767,23.386,20.126c1.237,8.282-3.265,20.074-14.094,24.455
		c-1.03,0.417-2.061,0.835-3.249,1.317c0.142,1.011,0.215,1.96,0.412,2.884c2.189,10.229,5.294,20.148,10.126,29.466
		c3.641,7.02,7.976,13.553,13.705,19.069c6.67,6.421,14.388,10.953,23.536,12.837c4.582,0.944,9.229,1.139,13.887,0.994
		c8.598-0.269,16.843-2.099,24.631-5.808c10.134-4.825,18.354-11.98,25.172-20.815c1.028-1.333,1.981-2.725,2.952-4.101
		C524.641,176.355,524.797,175.983,525.119,175.388z"/>
</g>
<g id="White">
	<path fill-rule="evenodd" clip-rule="evenodd" fill="#FFFFFF" d="M405.791,248.077c13.043-0.105,25.938,1.17,38.725,3.755
		c14.906,3.013,29.305,7.558,43.033,14.094c36.234,17.252,64,43.395,82.527,79.115c7.799,15.036,13.085,30.941,16.158,47.613
		c2.472,13.407,3.284,26.919,2.664,40.49c-0.797,17.42-4.484,34.29-10.671,50.605c-9.005,23.749-22.561,44.542-40.495,62.509
		c-25.198,25.244-55.394,41.395-90.022,49.438c-8.755,2.034-17.649,3.245-26.605,4.051c-9.862,0.887-19.713,0.607-29.571,0.019
		c-10.508-0.627-20.9-2.073-31.155-4.441c-32.961-7.611-61.728-22.952-85.771-46.862c-24.655-24.52-40.401-53.967-48.099-87.785
		c-1.905-8.372-3.306-16.856-3.817-25.427c-0.592-9.927-0.978-19.873-0.083-29.82c3.518-39.145,18.283-73.277,45.451-101.84
		c18.851-19.818,41.389-34.013,67.012-43.411c11.915-4.371,24.14-7.581,36.676-9.54c7.133-1.114,14.306-1.936,21.538-2.119
		C397.455,248.416,401.623,248.228,405.791,248.077z M326.92,375.864c-2.953,0.251-5.917,0.414-8.857,0.771
		c-9.73,1.183-18.658,4.521-26.539,10.394c-8.104,6.039-14.452,13.604-18.999,22.646c-2.909,5.783-4.631,11.903-5.335,18.352
		c-0.599,5.479-0.276,10.894,0.636,16.289c1.461,8.641,4.427,16.705,9.476,23.93c14.813,21.203,41.49,31.209,68.332,22.307
		c26.931-8.932,44.372-36.187,39.291-65.686c-2.2-12.77-7.843-23.646-17.333-32.468C356.143,381.756,342.71,375.957,326.92,375.864z
		 M544.049,434.884c-0.065-1.201-0.138-2.401-0.195-3.604c-0.551-11.546-4.244-21.941-11.288-31.145
		c-6.401-8.362-14.1-15.087-23.848-19.31c-6.097-2.64-12.479-4.11-19.079-4.547c-5.288-0.35-10.581-0.255-15.839,0.623
		c-8.62,1.439-16.322,4.974-23.49,9.902c-21.978,15.112-27.818,40.264-24.098,58.935c3.323,16.675,12.244,29.606,26.479,38.817
		c8.93,5.779,18.766,8.946,29.438,9.258c5.065,0.147,10.072-0.532,15.049-1.459C523.184,487.512,544.516,462.86,544.049,434.884z
		 M405.676,504.67c-13.91-0.429-26.191,11.052-26.269,25.925c-0.078,15.083,12.285,26.281,25.994,26.337
		c14.609,0.059,26.384-11.534,26.386-26.185C431.79,515.104,418.958,504.292,405.676,504.67z M291.394,673.294
		c0.325,4.077,0.546,8.172,1.089,12.222c1.544,11.522,4.878,22.526,9.968,32.989c8.126,16.705,20.115,29.825,36.304,39.016
		c10.475,5.947,21.722,9.804,33.51,12.144c7.092,1.408,14.257,2.175,21.476,2.585c15.56,0.885,30.939-0.155,46.068-4.046
		c13.183-3.391,25.354-8.94,36.23-17.196c13.178-10,23.009-22.691,30.095-37.567c5.625-11.812,9.276-24.221,11.016-37.181
		c0.313-2.343,0.871-4.716,0.246-7.238c-1.252,0.081-2.261,0.762-3.322,1.243c-8.095,3.679-16.32,7.026-24.757,9.845
		c-12.633,4.221-25.5,7.49-38.637,9.725c-8.468,1.44-16.97,2.626-25.536,3.118c-7.605,0.436-15.235,0.589-22.854,0.592
		c-5.609,0.002-11.229-0.309-16.825-0.724c-4.795-0.354-9.561-1.088-14.345-1.595c-8.46-0.896-16.836-2.306-25.149-4.075
		c-17.984-3.828-35.496-9.154-52.308-16.673c-0.635-0.283-1.321-0.453-2.282-0.776C291.38,671.093,291.306,672.2,291.394,673.294z
		 M350.149,646.313c-1.436,10.08-2.855,20.161-4.274,30.243c-0.044,0.316-0.039,0.641-0.062,0.96
		c-0.061,0.862,0.396,1.342,1.173,1.576c0.384,0.115,0.769,0.231,1.159,0.319c7.275,1.618,14.575,3.128,21.976,4.051
		c5.092,0.636,10.199,1.148,15.306,1.646c4.471,0.436,8.948,0.835,13.451,0.687c0.536-0.018,1.07-0.093,1.752-0.154
		c0.659-11.247,0.695-22.353,0.009-33.629c-5.76-0.372-11.367-0.58-16.939-1.136c-5.5-0.55-10.993-1.283-16.436-2.244
		c-5.505-0.974-10.944-2.325-16.667-3.567C350.405,645.586,350.202,645.939,350.149,646.313z M509.362,626.378
		c-4.077,1.856-8.127,3.778-12.235,5.563c-10.066,4.372-20.454,7.855-30.938,11.066c-0.662,0.204-1.302,0.482-2.006,0.747
		c1.701,11.458,3.38,22.77,5.088,34.269c1.113-0.254,2.051-0.424,2.961-0.685c2.922-0.839,5.831-1.722,8.751-2.57
		c10.852-3.152,21.467-6.929,31.613-11.945c0.573-0.284,1.151-0.558,1.715-0.86c1.092-0.587,1.621-1.489,1.546-2.75
		c-0.111-1.841-0.112-3.69-0.302-5.522c-0.703-6.774-1.42-13.548-2.227-20.311c-0.32-2.692-0.888-5.354-1.363-8.152
		C510.967,625.668,510.161,626.015,509.362,626.378z M294.795,628.335c-0.671,4.438-1.306,8.886-1.828,13.344
		c-0.577,4.938-0.949,9.898-1.535,14.835c-0.249,2.096,0.541,3.133,2.435,4.017c12.868,5.999,26.081,11.066,39.707,15.051
		c0.88,0.258,1.791,0.695,2.894,0.366c1.646-11.247,3.289-22.481,4.955-33.863c-7.922-2.695-15.561-5.765-22.989-9.338
		c-7.501-3.608-14.68-7.806-22.137-12.425C295.731,623.308,295.177,625.809,294.795,628.335z M409.654,653.613
		c-0.048,9.944-0.079,19.889-0.113,29.833c-0.002,0.799,0.055,1.584,0.586,2.334c0.488,0.032,0.964,0.109,1.436,0.088
		c5.045-0.229,10.092-0.45,15.135-0.725c1.839-0.1,3.678-0.287,5.506-0.514c4.294-0.532,8.593-1.043,12.869-1.694
		c4.273-0.65,8.529-1.424,12.778-2.223c1.833-0.345,1.986-0.616,1.783-2.416c-0.322-2.866-0.684-5.728-1.069-8.585
		c-0.966-7.146-1.954-14.289-2.937-21.433c-0.121-0.877-0.328-1.715-1.177-2.314c-14.657,3.225-29.501,5.037-44.555,5.869
		C409.796,652.54,409.656,653.076,409.654,653.613z M401.04,641.54c0.041-8.815,0.058-17.631,0.072-26.446
		c0.002-1.201-0.007-2.405-0.078-3.604c-0.081-1.366-0.354-1.639-1.75-1.751c-2.155-0.174-4.317-0.281-6.474-0.448
		c-4.473-0.346-8.957-0.588-13.411-1.099c-6.603-0.758-13.131-2.002-19.618-3.448c-0.933-0.207-1.839-0.367-2.9-0.296
		c-0.643,3.734-1.276,7.35-1.884,10.97c-0.623,3.71-1.296,7.413-1.806,11.139c-0.493,3.606-1.294,7.182-1.494,10.86
		c16.04,4.634,32.22,6.944,49.073,7.383C400.875,643.585,401.035,642.563,401.04,641.54z M509.922,614.419
		c-2.179-8.533-4.371-17.062-6.577-25.587c-0.194-0.748-0.509-1.465-0.84-2.403c-1.066,0.464-1.944,0.808-2.79,1.22
		c-7.273,3.541-14.685,6.777-22.326,9.422c-6.12,2.119-12.357,3.902-18.543,5.837c-1.699,0.532-1.746,0.582-1.431,2.354
		c1.391,7.808,2.786,15.614,4.198,23.419c0.426,2.351,0.908,4.69,1.362,7.021c7.729-0.932,41.061-14.729,47.153-19.527
		C510.057,615.523,510.059,614.953,509.922,614.419z M348.358,603.001c0.053-0.293-0.071-0.618-0.132-1.069
		c-4.456-1.498-8.956-2.893-13.367-4.527c-4.498-1.669-8.961-3.455-13.341-5.411c-4.28-1.911-8.437-4.101-12.778-6.232
		c-0.661,0.921-1.333,1.717-1.846,2.604c-0.76,1.315-1.426,2.688-2.097,4.053c-2.662,5.416-4.421,11.152-6.006,16.952
		c-0.773,2.828-0.802,2.824,1.621,4.487c12.358,8.486,25.756,14.896,39.832,19.954c0.663,0.238,1.359,0.38,2.372,0.659
		C344.569,623.79,346.472,613.397,348.358,603.001z M409.545,611.945c-0.006,9.938-0.005,19.877-0.004,29.815
		c0,0.4-0.021,0.804,0.017,1.201c0.134,1.424,0.557,1.857,1.979,1.811c1.601-0.052,3.198-0.192,4.795-0.332
		c4.149-0.362,8.309-0.649,12.442-1.141c7.718-0.917,15.29-2.661,22.887-4.254c0.683-0.144,1.331-0.443,2.164-0.729
		c-0.118-1.206-0.169-2.313-0.343-3.399c-0.708-4.425-1.454-8.845-2.186-13.266c-0.784-4.738-1.564-9.478-2.354-14.215
		c-0.116-0.697-0.126-1.455-0.923-1.942c-12.565,2.66-25.373,3.854-38.37,4.396C409.605,610.699,409.545,611.322,409.545,611.945z"
		/>
</g>
<g id="Dark_Blue">
	<path fill-rule="evenodd" clip-rule="evenodd" fill="#8FB2BE" d="M328.952,197.836c-2.601-0.02-4.701-0.523-6.701-1.353
		c-8.359-3.469-15.535-8.612-21.461-15.457c-1.04-1.201-1.869-2.584-2.839-3.947c0.783-1.066,1.498-2.02,2.193-2.988
		c2.745-3.818,4.787-7.965,5.716-12.6c1.092-5.45,0.768-10.84-0.83-16.157c-0.322-1.07-0.662-2.135-0.984-3.206
		c-0.018-0.061,0.052-0.148,0.143-0.381c0.577,0.611,1.124,1.151,1.627,1.73c10.366,11.921,17.073,25.693,20.675,41.018
		c0.861,3.663,1.58,7.359,2.325,11.048C328.953,196.217,328.904,196.928,328.952,197.836z M281.646,124.391
		c-0.671-0.391-1.328-0.808-2.014-1.167c-5.697-2.986-11.676-5.265-17.839-7.081c-10.676-3.145-21.628-4.634-32.7-5.211
		c-9.305-0.484-18.594-0.2-27.839,1.241c-11.559,1.802-22.64,5.122-33.258,10.002c-14.874,6.835-27.992,16.229-39.83,27.469
		c-11.341,10.768-21.173,22.8-29.87,35.775c-9.714,14.493-17.998,29.777-25.071,45.718c-5.628,12.684-10.69,25.585-14.673,38.891
		c-3.015,10.073-5.255,20.328-6.914,30.701c-1.013,6.33-1.781,12.701-2.571,19.065c-0.444,3.58-0.765,7.177-1.043,10.774
		c-0.476,6.156-1.101,12.313-1.251,18.479c-0.209,8.581-0.109,17.172-0.008,25.758c0.078,6.577,0.221,13.16,0.59,19.726
		c0.474,8.408,1.522,16.766,2.659,25.112c1.255,9.214,2.61,18.408,4.39,27.539c2.982,15.296,7.153,30.254,12.689,44.822
		c3.142,8.269,6.859,16.26,12.074,23.46c5.412,7.472,10.835,14.937,16.365,22.322c5.924,7.912,12.335,15.411,19.609,22.135
		c6.942,6.416,14.846,11.148,23.988,13.729c1.976,0.558,3.888,0.625,5.913,0.107c6.007-1.535,12.064-1.438,18.131-0.274
		c6.736,1.292,12.798,4.116,18.304,8.138c14.287,10.437,23.927,24.172,29.035,41.104c1.326,4.395,2.233,8.854,2.36,13.46
		c0.226,8.193-1.675,15.906-5.298,23.212c-3.89,7.844-9.532,14.038-17.417,18.02c-5.542,2.799-11.377,3.78-17.511,2.498
		c-13.307-2.782-20.673-11.957-23.309-24.286c-0.904-4.228-0.48-8.465,0.245-12.676c0.547-3.177,1.482-6.228,2.991-9.098
		c2.652-5.045,6.689-8.275,12.239-9.678c5.628-1.423,10.646-0.323,15.07,3.417c3.566,3.015,5.918,6.891,7.929,11.281
		c-1.036,0.415-1.956,0.784-2.744,1.1c-1.699-1.946-3.171-3.744-4.766-5.425c-1.572-1.657-3.513-2.786-5.73-3.394
		c-3.25-0.89-5.639-0.112-7.598,2.612c-0.693,0.963-1.302,2.053-1.662,3.177c-3.358,10.47-3.208,20.815,1.209,30.999
		c0.905,2.088,2.133,3.934,3.577,5.674c2.233,2.691,5.104,3.817,8.527,3.506c5.463-0.496,10.477-2.22,14.861-5.616
		c2.43-1.884,4.485-4.125,6.402-6.504c6.486-8.047,9.755-17.227,9.625-27.579c-0.061-4.758-0.867-9.412-2.188-13.977
		c-3.09-10.676-8.744-19.919-15.898-28.309c-4.837-5.672-10.515-10.337-17.023-13.979c-7.498-4.197-15.518-6.022-24.078-5.054
		c-8.455,0.957-15.594,4.652-21.478,10.781c-5.184,5.399-8.936,11.721-11.764,18.602c-3.619,8.804-5.862,17.967-6.851,27.433
		c-0.742,7.108-1.23,14.216-0.501,21.371c0.681,6.689,2.35,13.089,5.208,19.161c4.995,10.611,12.722,18.814,22.554,25.061
		c12.76,8.108,26.905,11.858,41.849,12.831c6.246,0.407,12.507,0.286,18.753-0.354c3.703-0.379,7.264-1.213,10.679-2.671
		c2.063-0.882,4.113-1.794,6.161-2.71c7.671-3.432,14.233-8.339,19.575-14.837c9.857-11.991,15.037-25.816,15.876-41.258
		c0.555-10.215-1.049-20.134-4.601-29.745c-3.72-10.065-9.345-18.964-16.389-26.994c-8.089-9.223-17.292-17.206-27.518-23.956
		c-6.556-4.327-13.301-8.37-20.004-12.472c-10.175-6.227-19.57-13.446-27.961-21.931c-15.613-15.787-26.721-34.354-33.973-55.29
		c-6.354-18.343-9.358-37.285-10.007-56.624c-0.404-12.037-0.056-24.057,1.249-36.051c1.015-9.333,2.327-18.614,4.129-27.82
		c3.658-18.679,8.854-36.921,15.731-54.682c5.232-13.511,11.582-26.43,19.873-38.35c13.766-19.792,31.089-35.787,51.615-48.362
		c16.612-10.177,34.276-17.738,53.495-21.388c5.614-1.066,11.269-1.66,16.987-0.813c0.61,0.091,1.246,0.013,1.853,0.013
		c0.038-0.28,0.115-0.451,0.072-0.582c-0.577-1.75-1.292-3.464-1.729-5.247c-0.505-2.054-1.626-2.977-3.748-3.407
		c-17.314-3.508-27.555-19.277-24.704-35.884c2.693-15.689,16.799-27.588,34.998-25.412c0.59,0.071,1.18,0.133,1.77,0.2
		C281.563,124.61,281.604,124.5,281.646,124.391z M170.151,627.142c-0.04,0.118-0.048,0.249-0.093,0.263
		c-3.744,1.169-5.915,3.921-7.465,7.332c-1.481,3.258-2.152,6.724-2.488,10.235c-0.654,6.834-0.488,13.631,1.784,20.212
		c0.679,1.967,1.536,3.873,2.301,5.811c0.223,0.563,0.412,1.141,0.769,2.138c-0.747-0.373-1.098-0.489-1.38-0.698
		c-7.009-5.176-10.86-12.09-11.306-20.814c-0.318-6.226,0.841-12.119,4.16-17.506c3.011-4.889,7.458-7.076,13.081-7.132
		C169.725,626.979,169.937,627.085,170.151,627.142z"/>
</g>
<g id="Light_Blue">
	<path fill-rule="evenodd" clip-rule="evenodd" fill="#AFD5E3" d="M238.4,204.678c-0.292-0.128-0.584-0.257-0.876-0.385
		c0.845-0.345,1.689-0.69,2.89-1.181C239.832,204.274,239.117,204.478,238.4,204.678z M243.693,227.26
		c-1.155,0.578-1.946,0.8-2.466,1.511c0.184,0.162,0.367,0.324,0.551,0.485C242.514,228.911,243.087,228.415,243.693,227.26z
		 M184.928,508.177c0.245-0.02,0.49-0.039,0.734-0.059c0.225,0.463,0.45,0.925,0.822,1.69
		C185.407,509.442,185.203,508.777,184.928,508.177z M55.515,467.204c-0.136-0.706-0.251-1.416-0.412-2.116
		c-1.181-5.154-2.439-10.292-3.544-15.463c-1.843-8.626-3.259-17.328-4.451-26.068c-0.987-7.234-1.901-14.473-2.36-21.762
		c-0.191-3.042-0.423-6.083-0.558-9.127c-0.381-8.656-0.852-17.311-1.045-25.971c-0.254-11.401,0.564-22.773,1.339-34.14
		c0.25-3.681,0.512-7.369,0.986-11.025c0.999-7.712,2.063-15.418,3.245-23.104c1.23-8.003,2.849-15.931,5.06-23.731
		c7.489-26.433,18.166-51.513,31.887-75.303c10.513-18.227,22.832-35.089,37.866-49.884c12.036-11.844,25.419-21.822,40.657-29.214
		c16.999-8.247,34.972-12.4,53.835-12.815c6.668-0.147,13.308,0.228,19.946,0.872c9.771,0.949,19.351,2.765,28.671,5.876
		c11.514,3.843,22.126,9.352,31.514,17.109c12.014,9.929,20.568,22.358,26.516,36.678c3.805,9.16,6.237,18.68,7.624,28.486
		c0.319,2.259,0.775,2.646,3.086,2.882c0.319,0.033,0.642,0.042,0.962,0.044c2.889,0.016,5.778,0.074,8.667,0.032
		c7.681-0.111,14.643-2.454,20.92-6.863c5.286-3.712,9.295-8.568,12.573-14.073c5.28-8.866,8.223-18.551,10.25-28.6
		c0.496-2.458-0.12-3.686-2.147-5.068c-10.324-7.038-15.388-20.032-12.665-32.079c3.717-16.444,20.042-28.229,38.444-23.235
		c12.885,3.497,20.667,12.271,22.604,25.593c1.485,10.212-1.389,19.238-8.94,26.501c-1.665,1.602-3.61,2.921-5.474,4.306
		c-1.543,1.146-1.594,1.11-1.154,2.945c1.857,7.753,4.63,15.168,8.274,22.255c3.25,6.321,7.23,12.115,12.405,17.042
		c4.48,4.265,9.58,7.498,15.48,9.422c0.832,0.271,1.645,0.694,2.549,0.192c0.631-0.851,0.448-1.849,0.395-2.784
		c-0.266-4.644-0.562-9.286-0.89-13.926c-0.583-8.249-1.748-16.417-3.394-24.522c-3.287-16.188-8.435-31.736-15.964-46.459
		c-11.263-22.021-27.021-40.089-47.638-53.831c-16.739-11.158-35.155-18.365-54.655-22.964c-8.591-2.026-17.283-3.454-26.052-4.474
		c-7.498-0.872-15.016-1.46-22.551-1.694c-9.227-0.286-18.45-0.041-27.657,0.762c-8.003,0.697-15.906,1.96-23.728,3.771
		c-18.932,4.382-36.841,11.432-53.881,20.719c-25.508,13.903-47.989,31.738-68.058,52.667
		c-24.509,25.561-44.572,54.247-60.113,86.067c-13.884,28.429-23.829,58.069-27.593,89.643c-1.172,9.834-1.505,19.682-1.418,29.543
		c0.067,7.694,0.56,15.392,1.071,23.073c0.564,8.483,1.208,16.966,2.103,25.419c1.182,11.164,2.959,22.246,5.063,33.279
		c3.881,20.345,9.175,40.307,16.031,59.849c1.803,5.136,3.867,10.181,5.811,15.268C55.177,467.203,55.346,467.203,55.515,467.204z
		 M249.524,619.379c-0.254-0.362-0.601-0.691-0.75-1.093c-4.764-12.792-12.549-23.581-22.011-33.26
		c-5.343-5.464-11.105-10.456-17.331-14.878c-5.645-4.01-10.865-8.486-15.801-13.331c-6.015-5.903-12.045-11.787-17.406-18.311
		c-8.41-10.234-14.987-21.587-20.452-33.608c-6.827-15.02-11.71-30.671-15.124-46.795c-2.111-9.968-3.588-20.036-4.922-30.133
		c-0.999-7.565-1.612-15.156-1.837-22.774c-0.241-8.179-0.421-16.361-0.465-24.542c-0.049-9.083,0.975-18.085,2.317-27.061
		c1.759-11.762,4.5-23.286,8.299-34.549c11.251-33.358,29.776-62.031,55.691-85.867c12.532-11.526,26.404-21.139,41.942-28.224
		c5.693-2.596,11.569-4.698,17.685-6.1c4.761-1.091,9.538-1.119,14.34-0.36c1.89,0.298,3.235,1.145,3.783,3.158
		c0.566,2.082,1.37,4.099,2.045,6.076c-0.434,0.948-1.29,1.07-2.031,1.287c-5.407,1.574-10.519,3.859-15.549,6.352
		c-13.325,6.603-26.041,14.174-37.77,23.37c-20.042,15.713-36.32,34.574-48.159,57.183c-7.792,14.879-13.134,30.598-16.165,47.114
		c-1.188,6.473-2.161,12.975-2.637,19.537c-0.244,3.357-0.248,6.734-0.285,10.104c-0.078,7.057-0.284,14.12-0.105,21.172
		c0.175,6.892,0.634,13.783,1.195,20.657c1.999,24.467,6.316,48.461,14.875,71.572c3.885,10.491,8.66,20.518,14.985,29.782
		c2.351,3.442,4.582,6.973,6.724,10.55c7.266,12.138,15.508,23.581,24.291,34.656c8.443,10.646,15.931,21.924,22.101,34.054
		c3.537,6.952,6.468,14.133,8.258,21.743c0.194,0.824,0.154,1.704,0.222,2.559L249.524,619.379z M238.4,204.678
		c-2.41,1.265-4.838,2.497-7.227,3.802c-13.322,7.282-25.236,16.462-36.153,26.964c-26.491,25.484-44.626,56.016-54.983,91.226
		c-2.809,9.549-4.704,19.29-6.185,29.128c-1.557,10.348-1.808,20.759-1.958,31.189c-0.108,7.467,0.151,14.919,0.625,22.366
		c1.439,22.622,4.672,44.952,11.056,66.756c4.13,14.109,9.376,27.771,16.367,40.735c6.477,12.011,14.401,22.945,24.062,32.603
		c2.327,2.325,4.653,4.65,6.977,6.979c0.657,0.659,1.303,1.328,1.802,2.246c-0.343-0.128-0.708-0.216-1.025-0.39
		c-22.642-12.438-41.47-28.967-55.03-51.181c-8.47-13.874-14.373-28.784-18.172-44.552c-2.333-9.679-3.929-19.492-4.721-29.409
		c-0.485-6.071-0.582-12.177-0.737-18.27c-0.186-7.305,0.353-14.589,0.898-21.866c0.293-3.917,0.55-7.846,1.078-11.734
		c0.906-6.668,1.831-13.344,3.072-19.955c2.693-14.345,6.289-28.471,10.958-42.309c4.181-12.391,8.909-24.566,15.12-36.097
		c12.884-23.921,30.866-43.236,53.297-58.464c12.188-8.273,25.188-14.976,39.082-19.913c0.298-0.106,0.614-0.16,0.921-0.238
		C237.815,204.421,238.108,204.549,238.4,204.678z M241.778,229.256c-3.352,3.22-6.801,6.345-10.039,9.677
		c-10.168,10.46-18.607,22.236-26.137,34.694c-13.623,22.541-23.241,46.697-29.145,72.341c-1.672,7.263-2.912,14.607-3.614,22.04
		c-0.67,7.101-1.48,14.188-2.196,21.284c-0.225,2.233-0.434,4.474-0.497,6.716c-0.287,10.178-0.864,20.352-0.518,30.539
		c0.691,20.324,2.98,40.422,8.567,60.049c1.711,6.012,3.703,11.927,5.991,17.743c0.495,1.258,0.981,2.52,1.471,3.779
		c-0.245,0.02-0.489,0.039-0.734,0.059c-8.193-14.362-13.638-29.793-17.727-45.741c-2.451-9.561-4.168-19.263-5.41-29.05
		c-0.747-5.885-1.511-11.768-2.218-17.657c-0.249-2.069-0.432-4.152-0.508-6.234c-0.296-8.176-0.561-16.354-0.789-24.531
		c-0.104-3.687-0.183-7.378-0.119-11.064c0.143-8.188,0.914-16.322,2.145-24.422c1.739-11.445,4.54-22.614,8.526-33.478
		c8.361-22.791,21.319-42.656,38.292-59.948c9.875-10.062,20.811-18.82,32.652-26.458c0.467-0.301,0.969-0.549,1.455-0.822
		C241.411,228.933,241.595,229.095,241.778,229.256z M133.482,578.524c-0.591,0.495-0.982,0.862-1.412,1.177
		c-4.919,3.604-8.891,8.081-12.166,13.199c-5.025,7.853-8.315,16.43-10.461,25.456c-2.329,9.792-3.549,19.726-3.378,29.805
		c0.207,12.204,3.075,23.65,9.877,33.933c7.049,10.653,16.572,18.441,28.069,23.84c8.765,4.115,17.987,6.763,27.609,7.908
		c3.502,0.417,7.03,0.608,10.546,0.909c0.938,0.08,1.925-0.021,2.97,0.811c-2.553,0.52-4.867,1.083-7.211,1.449
		c-4.919,0.769-9.869,1.304-14.86,1.046c-14.922-0.769-28.93-4.68-41.652-12.616c-15.833-9.876-25.72-24.048-29.869-42.229
		c-2.194-9.617-2.746-19.343-2.013-29.173c0.638-8.55,2.405-16.813,5.906-24.657c6.145-13.765,16.29-23.425,30.201-29.146
		c1.623-0.667,3.338-1.124,5.033-1.597C131.48,578.414,132.338,578.219,133.482,578.524z M55.008,467.202
		c0.169,0.001,0.338,0.001,0.507,0.002c0.135,0.385,0.27,0.771,0.404,1.155c-0.11,0.047-0.22,0.094-0.33,0.141
		C55.395,468.067,55.202,467.635,55.008,467.202z"/>
</g>
<g id="Black_Outline">
	<path fill-rule="evenodd" clip-rule="evenodd" fill="#050505" d="M249.478,619.419c0.755,0.123,0.379,0.61,0.253,1.543
		c-0.114-0.878-0.161-1.23-0.207-1.583L249.478,619.419z M283.513,219.186c4.892,14.324,9.778,28.65,14.659,42.978
		c1.398,4.104,1.753,3.371-2.031,5.757c-27.969,17.631-49.308,41.247-63.948,70.901c-11.415,23.122-17.395,47.65-18.699,73.331
		c-0.747,14.71,0.191,29.35,2.895,43.848c3.46,18.556,9.491,36.237,18.215,52.984c9.307,17.865,21.249,33.77,35.663,47.831
		c8.177,7.978,17.031,15.121,26.448,21.58c0.979,0.672,1.913,1.412,2.901,2.146c-0.679,1.458-1.302,2.756-1.892,4.067
		c-7.184,16.005-11.31,32.846-13.516,50.179c-0.901,7.078-1.417,14.205-2.084,21.312c-0.751,8.021-0.543,16.019,0.506,24.01
		c1.415,10.772,3.891,21.274,7.804,31.415c5.736,14.866,13.989,28.108,25.599,39.128c11.805,11.204,25.74,18.685,41.256,23.333
		c10.729,3.215,21.713,4.896,32.897,5.391c11.889,0.525,23.735,0.288,35.529-1.481c9.375-1.407,18.562-3.553,27.468-6.819
		c19.062-6.993,34.983-18.309,47.387-34.467c9.203-11.988,15.515-25.392,19.581-39.896c2.805-10.004,4.559-20.162,4.508-30.595
		c-0.025-5.386-0.537-10.729-1.048-16.081c-0.792-8.311-1.96-16.562-3.617-24.738c-2.773-13.682-6.481-27.106-11.238-40.236
		c-0.322-0.889-0.54-1.815-0.771-2.601c0.238-0.302,0.313-0.46,0.438-0.544c0.931-0.627,1.869-1.243,2.812-1.854
		c16.952-11.003,31.996-24.176,44.766-39.852c26.066-32.002,40.063-68.676,42.036-109.896c0.657-13.743-0.208-27.41-2.641-40.979
		c-3.219-17.947-8.755-35.111-17.032-51.365c-11.486-22.553-26.972-41.872-46.8-57.664c-5.528-4.403-11.297-8.457-17.284-12.208
		c-0.859-0.539-1.846-0.951-2.444-1.891c0.295-0.878,0.559-1.715,0.854-2.541c8.795-24.585,17.589-49.17,26.395-73.751
		c1.486-4.15,1.357-3.546,5.139-4.414c13.692-3.142,23.689-15.486,23.861-29.524c0.105-8.514-3.028-15.8-8.563-22.126
		c-2.569-2.936-5.677-5.184-9.27-6.731c-5.736-2.47-11.697-3.103-17.89-2.425c-13.125,1.437-24.794,13.23-26.19,27.167
		c-0.864,8.63,1.463,16.342,6.832,23.147c0.487,0.618,0.931,1.27,1.374,1.878c-0.279,0.39-0.452,0.66-0.652,0.906
		c-11.398,14.004-26.121,21.344-44.164,22.017c-0.56,0.021-1.129,0.021-1.681-0.061c-0.964-0.143-1.402-0.565-1.542-1.562
		c-0.11-0.791-0.107-1.6-0.118-2.401c-0.148-11.655-1.309-23.209-3.305-34.692c-2.244-12.904-5.553-25.516-10.259-37.741
		c-6.325-16.433-14.828-31.624-26.116-45.191c-15.808-19-35.356-32.907-58.067-42.467c-19.288-8.119-39.472-12.688-60.22-14.827
		c-11.332-1.168-22.712-1.752-34.114-1.715c-0.881,0.003-1.764,0.042-2.641,0.115c-3.837,0.32-7.677,0.613-11.507,1.002
		c-4.785,0.486-9.596,0.854-14.336,1.631c-13.398,2.196-26.418,5.851-39.103,10.688c-22.789,8.69-43.644,20.817-62.966,35.625
		c-24.242,18.577-45.228,40.354-63.365,64.893c-21.989,29.75-39.182,62.001-50.587,97.261c-3.977,12.292-7.105,24.795-9.285,37.528
		c-1.395,8.146-2.343,16.352-2.829,24.606c-0.192,3.274-0.486,6.548-0.522,9.824c-0.044,3.918,0.135,7.838,0.284,11.757
		c0.356,9.381,0.654,18.758,1.49,28.113c0.685,7.668,1.292,15.34,2.337,22.976c1.609,11.757,3.442,23.47,5.825,35.099
		c4.527,22.099,10.729,43.704,18.805,64.771c7.768,20.264,17.183,39.704,28.962,57.959c12.096,18.743,26.293,35.607,44.162,49.173
		c0.552,0.42,1.03,0.938,1.755,1.606c-1.619,0.843-3.026,1.554-4.414,2.303c-15.639,8.446-25.614,21.484-30.92,38.27
		c-2.163,6.843-3.143,13.891-3.556,21.048c-0.606,10.483,0.085,20.852,2.631,31.045c4.467,17.881,13.877,32.568,29.157,43.027
		c20.596,14.099,43.38,18.974,67.99,14.734c14.259-2.457,27.645-7.492,40.176-14.724c9.251-5.339,17.466-11.948,24.192-20.311
		c6.427-7.991,10.386-17.051,11.872-27.212c0.791-5.404,1.232-10.834,1.575-16.279c0.979-15.53-1.223-30.537-7.215-44.947
		c-4.951-11.905-11.394-22.975-18.914-33.408c-5.251-7.288-10.711-14.428-16.178-21.557c-10.05-13.107-18.567-27.102-24.842-42.413
		c-7.977-19.462-12.274-39.775-13.854-60.689c-0.731-9.68-1.266-19.375-1.061-29.097c0.171-8.102,0.292-16.207,1.11-24.274
		c0.834-8.217,1.746-16.428,2.735-24.628c0.826-6.847,2.011-13.64,3.653-20.342c5.799-23.678,15.022-45.955,27.571-66.842
		c8.13-13.531,17.548-26.089,28.905-37.111c7.695-7.468,16.142-13.936,25.717-18.846c4.785-2.454,9.74-4.463,15.325-5.65
		C282.733,217.104,283.154,218.135,283.513,219.186z M186.485,509.809c-1.078-0.366-1.282-1.031-1.557-1.632
		c-8.193-14.362-13.638-29.793-17.727-45.741c-2.451-9.561-4.168-19.263-5.41-29.05c-0.747-5.885-1.511-11.768-2.218-17.657
		c-0.249-2.069-0.432-4.152-0.508-6.234c-0.296-8.176-0.561-16.354-0.789-24.531c-0.104-3.687-0.183-7.378-0.119-11.064
		c0.143-8.188,0.914-16.322,2.145-24.422c1.739-11.445,4.54-22.614,8.526-33.478c8.361-22.791,21.319-42.656,38.292-59.948
		c9.875-10.062,20.811-18.82,32.652-26.458c0.467-0.301,0.969-0.549,1.455-0.822c0.52-0.711,1.311-0.934,2.466-1.511
		c-0.606,1.155-1.179,1.651-1.915,1.997c-3.352,3.22-6.801,6.345-10.039,9.677c-10.168,10.46-18.607,22.236-26.137,34.694
		c-13.623,22.541-23.241,46.697-29.145,72.341c-1.672,7.263-2.912,14.607-3.614,22.04c-0.67,7.101-1.48,14.188-2.196,21.284
		c-0.225,2.233-0.434,4.474-0.497,6.716c-0.287,10.178-0.864,20.352-0.518,30.539c0.691,20.324,2.98,40.422,8.567,60.049
		c1.711,6.012,3.703,11.927,5.991,17.743c0.495,1.258,0.981,2.52,1.471,3.779C185.888,508.581,186.112,509.043,186.485,509.809z
		 M231.173,208.479c-13.322,7.282-25.236,16.462-36.153,26.964c-26.491,25.484-44.626,56.016-54.983,91.226
		c-2.809,9.549-4.704,19.29-6.185,29.128c-1.557,10.348-1.808,20.759-1.958,31.189c-0.108,7.467,0.151,14.919,0.625,22.366
		c1.439,22.622,4.672,44.952,11.056,66.756c4.13,14.109,9.376,27.771,16.367,40.735c6.477,12.011,14.401,22.945,24.062,32.603
		c2.327,2.325,4.653,4.65,6.977,6.979c0.657,0.659,1.303,1.328,1.802,2.246c-0.343-0.128-0.708-0.216-1.025-0.39
		c-22.642-12.438-41.47-28.967-55.03-51.181c-8.47-13.874-14.373-28.784-18.172-44.552c-2.333-9.679-3.929-19.492-4.721-29.409
		c-0.485-6.071-0.582-12.177-0.737-18.27c-0.186-7.305,0.353-14.589,0.898-21.866c0.293-3.917,0.55-7.846,1.078-11.734
		c0.906-6.668,1.831-13.344,3.072-19.955c2.693-14.345,6.289-28.471,10.958-42.309c4.181-12.391,8.909-24.566,15.12-36.097
		c12.884-23.921,30.866-43.236,53.297-58.464c12.188-8.273,25.188-14.976,39.082-19.913c0.298-0.106,0.614-0.16,0.921-0.238
		c0.845-0.345,1.689-0.69,2.89-1.181c-0.581,1.162-1.296,1.366-2.013,1.565C235.99,205.943,233.562,207.174,231.173,208.479z
		 M248.774,618.286c-4.764-12.792-12.549-23.581-22.011-33.26c-5.343-5.464-11.105-10.456-17.331-14.878
		c-5.645-4.01-10.865-8.486-15.801-13.331c-6.015-5.903-12.045-11.787-17.406-18.311c-8.41-10.234-14.987-21.587-20.452-33.608
		c-6.827-15.02-11.71-30.671-15.124-46.795c-2.111-9.968-3.588-20.036-4.922-30.133c-0.999-7.565-1.612-15.156-1.837-22.774
		c-0.241-8.179-0.421-16.361-0.465-24.542c-0.049-9.083,0.975-18.085,2.317-27.061c1.759-11.762,4.5-23.286,8.299-34.549
		c11.251-33.358,29.776-62.031,55.691-85.867c12.532-11.526,26.404-21.139,41.942-28.224c5.693-2.596,11.569-4.698,17.685-6.1
		c4.761-1.091,9.538-1.119,14.34-0.36c1.89,0.298,3.235,1.145,3.783,3.158c0.566,2.082,1.37,4.099,2.045,6.076
		c-0.434,0.948-1.29,1.07-2.031,1.287c-5.407,1.574-10.519,3.859-15.549,6.352c-13.325,6.603-26.041,14.174-37.77,23.37
		c-20.042,15.713-36.32,34.574-48.159,57.183c-7.792,14.879-13.134,30.598-16.165,47.114c-1.188,6.473-2.161,12.975-2.637,19.537
		c-0.244,3.357-0.248,6.734-0.285,10.104c-0.078,7.057-0.284,14.12-0.105,21.172c0.175,6.892,0.634,13.783,1.195,20.657
		c1.999,24.467,6.316,48.461,14.875,71.572c3.885,10.491,8.66,20.518,14.985,29.782c2.351,3.442,4.582,6.973,6.724,10.55
		c7.266,12.138,15.508,23.581,24.291,34.656c8.443,10.646,15.931,21.924,22.101,34.054c3.537,6.952,6.468,14.133,8.258,21.743
		c0.194,0.824,0.154,1.704,0.222,2.559c0.755,0.123,0.379,0.61,0.253,1.543c-0.114-0.878-0.161-1.23-0.207-1.583
		C249.27,619.017,248.924,618.688,248.774,618.286z M55.919,468.359c-0.11,0.047-0.22,0.094-0.33,0.141
		c-0.194-0.433-0.387-0.865-0.581-1.298c-1.944-5.087-4.008-10.132-5.811-15.268c-6.856-19.542-12.15-39.504-16.031-59.849
		c-2.104-11.033-3.881-22.115-5.063-33.279c-0.895-8.453-1.539-16.937-2.103-25.419c-0.511-7.682-1.004-15.379-1.071-23.073
		c-0.087-9.862,0.247-19.709,1.418-29.543c3.764-31.574,13.709-61.213,27.593-89.643c15.541-31.821,35.604-60.507,60.113-86.067
		c20.069-20.929,42.55-38.765,68.058-52.667c17.04-9.287,34.949-16.337,53.881-20.719c7.821-1.81,15.725-3.073,23.728-3.771
		c9.207-0.803,18.43-1.048,27.657-0.762c7.535,0.233,15.054,0.822,22.551,1.694c8.769,1.021,17.461,2.448,26.052,4.474
		c19.5,4.6,37.916,11.807,54.655,22.964c20.617,13.742,36.375,31.81,47.638,53.831c7.529,14.723,12.677,30.271,15.964,46.459
		c1.646,8.106,2.811,16.273,3.394,24.522c0.328,4.64,0.624,9.282,0.89,13.926c0.054,0.935,0.236,1.933-0.395,2.784
		c-0.904,0.502-1.717,0.08-2.549-0.192c-5.9-1.924-11-5.157-15.48-9.422c-5.175-4.926-9.155-10.721-12.405-17.042
		c-3.645-7.087-6.417-14.502-8.274-22.255c-0.439-1.835-0.389-1.799,1.154-2.945c1.863-1.385,3.809-2.704,5.474-4.306
		c7.552-7.264,10.426-16.289,8.94-26.501c-1.937-13.323-9.719-22.096-22.604-25.593c-18.402-4.994-34.728,6.792-38.444,23.235
		c-2.723,12.047,2.341,25.041,12.665,32.079c2.027,1.382,2.644,2.61,2.147,5.068c-2.027,10.049-4.97,19.733-10.25,28.6
		c-3.278,5.505-7.287,10.361-12.573,14.073c-6.277,4.409-13.239,6.751-20.92,6.863c-2.889,0.042-5.778-0.016-8.667-0.032
		c-0.32-0.002-0.643-0.011-0.962-0.044c-2.311-0.235-2.767-0.623-3.086-2.882c-1.387-9.806-3.819-19.326-7.624-28.486
		c-5.947-14.319-14.502-26.749-26.516-36.678c-9.388-7.757-20-13.266-31.514-17.109c-9.321-3.111-18.9-4.927-28.671-5.876
		c-6.638-0.645-13.278-1.019-19.946-0.872c-18.863,0.416-36.836,4.568-53.835,12.815c-15.238,7.393-28.621,17.37-40.657,29.214
		c-15.034,14.795-27.353,31.657-37.866,49.884c-13.721,23.791-24.398,48.871-31.887,75.303c-2.21,7.801-3.83,15.729-5.06,23.731
		c-1.181,7.686-2.246,15.392-3.245,23.104c-0.474,3.656-0.735,7.344-0.986,11.025c-0.775,11.367-1.594,22.739-1.339,34.14
		c0.193,8.66,0.664,17.315,1.045,25.971c0.134,3.044,0.367,6.085,0.558,9.127c0.458,7.289,1.373,14.527,2.36,21.762
		c1.192,8.74,2.608,17.442,4.451,26.068c1.105,5.171,2.363,10.309,3.544,15.463c0.161,0.7,0.276,1.41,0.412,2.116
		C55.649,467.589,55.784,467.975,55.919,468.359z M444.516,251.832c14.906,3.013,29.305,7.558,43.033,14.094
		c36.234,17.252,64,43.395,82.527,79.115c7.799,15.036,13.085,30.941,16.158,47.613c2.472,13.407,3.284,26.919,2.664,40.49
		c-0.797,17.42-4.484,34.29-10.671,50.605c-9.005,23.749-22.561,44.542-40.495,62.509c-25.198,25.244-55.394,41.395-90.022,49.438
		c-8.755,2.034-17.649,3.245-26.605,4.051c-9.862,0.887-19.713,0.607-29.571,0.019c-10.508-0.627-20.9-2.073-31.155-4.441
		c-32.961-7.611-61.728-22.952-85.771-46.862c-24.655-24.52-40.401-53.967-48.099-87.785c-1.905-8.372-3.306-16.856-3.817-25.427
		c-0.592-9.927-0.978-19.873-0.083-29.82c3.518-39.145,18.283-73.277,45.451-101.84c18.851-19.818,41.389-34.013,67.012-43.411
		c11.915-4.371,24.14-7.581,36.676-9.54c7.133-1.114,14.306-1.936,21.538-2.119c4.17-0.105,8.338-0.293,12.506-0.444
		C418.834,247.972,431.729,249.247,444.516,251.832z M279.752,124.52c-18.198-2.176-32.305,9.723-34.998,25.412
		c-2.851,16.607,7.39,32.376,24.704,35.884c2.121,0.43,3.243,1.353,3.748,3.407c0.438,1.783,1.152,3.497,1.729,5.247
		c0.043,0.131-0.034,0.302-0.072,0.582c-0.606,0-1.242,0.078-1.853-0.013c-5.718-0.846-11.373-0.252-16.987,0.813
		c-19.218,3.65-36.882,11.21-53.495,21.388c-20.526,12.575-37.849,28.57-51.615,48.362c-8.291,11.92-14.641,24.839-19.873,38.35
		c-6.877,17.761-12.073,36.002-15.731,54.682c-1.803,9.206-3.115,18.488-4.129,27.82c-1.304,11.995-1.652,24.014-1.249,36.051
		c0.649,19.339,3.653,38.281,10.007,56.624c7.252,20.936,18.36,39.503,33.973,55.29c8.391,8.484,17.786,15.704,27.961,21.931
		c6.703,4.102,13.448,8.145,20.004,12.472c10.227,6.75,19.429,14.733,27.518,23.956c7.044,8.03,12.668,16.929,16.389,26.994
		c3.552,9.611,5.156,19.53,4.601,29.745c-0.839,15.441-6.019,29.267-15.876,41.258c-5.341,6.498-11.904,11.405-19.575,14.837
		c-2.048,0.916-4.098,1.828-6.161,2.71c-3.416,1.458-6.976,2.292-10.679,2.671c-6.247,0.64-12.507,0.761-18.753,0.354
		c-14.944-0.973-29.089-4.723-41.849-12.831c-9.832-6.246-17.559-14.449-22.554-25.061c-2.858-6.072-4.528-12.472-5.208-19.161
		c-0.729-7.155-0.24-14.263,0.501-21.371c0.988-9.466,3.231-18.629,6.851-27.433c2.829-6.881,6.581-13.202,11.764-18.602
		c5.884-6.129,13.022-9.824,21.478-10.781c8.56-0.969,16.581,0.856,24.078,5.054c6.508,3.643,12.186,8.308,17.023,13.979
		c7.155,8.39,12.808,17.633,15.898,28.309c1.321,4.564,2.128,9.219,2.188,13.977c0.131,10.353-3.139,19.532-9.625,27.579
		c-1.917,2.379-3.972,4.62-6.402,6.504c-4.385,3.396-9.398,5.12-14.861,5.616c-3.422,0.312-6.293-0.814-8.527-3.506
		c-1.444-1.74-2.671-3.586-3.577-5.674c-4.417-10.184-4.567-20.529-1.209-30.999c0.36-1.124,0.969-2.214,1.662-3.177
		c1.959-2.725,4.349-3.502,7.598-2.612c2.217,0.607,4.158,1.736,5.73,3.394c1.595,1.681,3.067,3.479,4.766,5.425
		c0.788-0.315,1.708-0.685,2.744-1.1c-2.011-4.391-4.363-8.267-7.929-11.281c-4.424-3.74-9.442-4.84-15.07-3.417
		c-5.549,1.402-9.587,4.633-12.239,9.678c-1.509,2.87-2.444,5.921-2.991,9.098c-0.725,4.211-1.148,8.448-0.245,12.676
		c2.635,12.329,10.002,21.504,23.309,24.286c6.134,1.282,11.969,0.301,17.511-2.498c7.885-3.981,13.526-10.176,17.417-18.02
		c3.623-7.306,5.523-15.019,5.298-23.212c-0.127-4.605-1.034-9.065-2.36-13.46c-5.107-16.933-14.748-30.668-29.035-41.104
		c-5.506-4.021-11.568-6.846-18.304-8.138c-6.066-1.163-12.124-1.261-18.131,0.274c-2.025,0.518-3.937,0.45-5.913-0.107
		c-9.143-2.581-17.046-7.313-23.988-13.729c-7.274-6.724-13.686-14.223-19.609-22.135c-5.53-7.386-10.954-14.851-16.365-22.322
		c-5.215-7.2-8.932-15.191-12.074-23.46c-5.537-14.568-9.707-29.526-12.689-44.822c-1.78-9.131-3.134-18.325-4.39-27.539
		c-1.137-8.347-2.185-16.704-2.659-25.112c-0.37-6.566-0.513-13.149-0.59-19.726c-0.101-8.585-0.202-17.177,0.008-25.758
		c0.15-6.167,0.775-12.323,1.251-18.479c0.278-3.597,0.599-7.195,1.043-10.774c0.79-6.364,1.559-12.735,2.571-19.065
		c1.659-10.374,3.899-20.628,6.914-30.701c3.983-13.306,9.045-26.207,14.673-38.891c7.073-15.941,15.356-31.225,25.071-45.718
		c8.697-12.975,18.528-25.007,29.87-35.775c11.838-11.24,24.956-20.633,39.83-27.469c10.618-4.88,21.699-8.2,33.258-10.002
		c9.245-1.441,18.534-1.725,27.839-1.241c11.071,0.577,22.024,2.066,32.7,5.211c6.163,1.816,12.142,4.094,17.839,7.081
		c0.687,0.36,1.343,0.777,2.014,1.167c-0.041,0.109-0.082,0.219-0.124,0.329C280.932,124.653,280.342,124.591,279.752,124.52z
		 M514.073,159.228c-0.786-5.211,0-10.216,2.502-14.924c4.897-9.216,16.368-14.196,26.45-11.381
		c10.363,2.894,17.8,12.637,17.166,23.823c-0.237,4.192-1.559,8.003-3.87,11.478c-2.366,3.556-5.531,6.189-9.354,8.089
		c-3.764,1.87-7.849,2.109-12.057,2.351c-0.426,1.043-0.85,1.98-1.194,2.944c-7.918,22.101-15.826,44.206-23.74,66.308
		c-1.404,3.922-2.818,7.841-4.242,11.757c-0.298,0.818-0.656,1.615-0.993,2.437c-1.068,0.068-1.792-0.462-2.551-0.854
		c-12.943-6.681-26.491-11.767-40.61-15.326c-8.326-2.099-16.741-3.725-25.285-4.648c-5.184-0.561-10.352-1.296-15.546-1.694
		c-7.683-0.588-15.386-0.8-23.092-0.404c-4.006,0.206-8.013,0.399-12.015,0.665c-10.662,0.708-21.201,2.277-31.623,4.626
		c-14.835,3.345-29.121,8.251-42.723,15.097c-1.497,0.753-3.039,1.418-4.601,2.143c-0.828-0.839-1.012-1.883-1.339-2.841
		c-8.65-25.322-17.289-50.649-25.935-75.973c-0.463-1.356-0.973-2.697-1.515-4.193c-0.877-0.043-1.654-0.103-2.433-0.117
		c-11.928-0.214-19.437-7.99-22.081-15.694c-4.914-14.316,5.106-28.686,18.735-30.528c11.402-1.541,22.918,5.453,25.73,17.501
		c2.041,8.743-0.289,16.35-6.893,22.538c-1.049,0.983-2.198,1.859-3.38,2.852c0.205,0.518,0.341,1.064,0.616,1.528
		c6.679,11.264,15.61,20.096,27.669,25.524c6.435,2.896,13.213,4.378,20.23,4.871c3.766,0.265,7.517,0.389,11.297,0.075
		c12.604-1.047,23.081-6.278,31.409-15.771c6.724-7.665,11.136-16.602,14.197-26.258c1.772-5.593,2.891-11.333,3.837-17.11
		c0.246-1.503,0.501-3.006,0.716-4.514c0.191-1.344,0.006-1.707-1.163-2.308c-0.712-0.367-1.469-0.645-2.184-1.005
		c-8.361-4.218-12.786-11.146-13.088-20.368c-0.421-12.881,10.205-23.543,22.825-23.669c11.761-0.116,21.688,8.767,23.386,20.126
		c1.237,8.282-3.265,20.074-14.094,24.455c-1.03,0.417-2.061,0.835-3.249,1.317c0.142,1.011,0.215,1.96,0.412,2.884
		c2.189,10.229,5.294,20.148,10.126,29.466c3.641,7.02,7.976,13.553,13.705,19.069c6.67,6.421,14.388,10.953,23.536,12.837
		c4.582,0.944,9.229,1.139,13.887,0.994c8.598-0.269,16.843-2.099,24.631-5.808c10.134-4.825,18.354-11.98,25.172-20.815
		c1.028-1.333,1.981-2.725,2.952-4.101c0.227-0.322,0.383-0.693,0.705-1.289C519.248,171.338,515.135,166.259,514.073,159.228z
		 M293.662,670.477c16.812,7.519,34.323,12.845,52.308,16.673c8.313,1.77,16.689,3.18,25.149,4.075
		c4.784,0.507,9.55,1.24,14.345,1.595c5.597,0.415,11.216,0.726,16.825,0.724c7.619-0.003,15.249-0.156,22.854-0.592
		c8.566-0.492,17.068-1.678,25.536-3.118c13.137-2.234,26.004-5.504,38.637-9.725c8.437-2.818,16.662-6.166,24.757-9.845
		c1.062-0.481,2.07-1.162,3.322-1.243c0.625,2.522,0.067,4.896-0.246,7.238c-1.739,12.96-5.391,25.369-11.016,37.181
		c-7.086,14.876-16.917,27.567-30.095,37.567c-10.877,8.256-23.048,13.806-36.23,17.196c-15.129,3.891-30.509,4.931-46.068,4.046
		c-7.219-0.41-14.384-1.177-21.476-2.585c-11.788-2.34-23.035-6.196-33.51-12.144c-16.189-9.19-28.178-22.311-36.304-39.016
		c-5.09-10.463-8.424-21.467-9.968-32.989c-0.543-4.05-0.764-8.145-1.089-12.222c-0.087-1.094-0.013-2.201-0.013-3.594
		C292.341,670.023,293.027,670.193,293.662,670.477z M132.07,579.701c-4.919,3.604-8.891,8.081-12.166,13.199
		c-5.025,7.853-8.315,16.43-10.461,25.456c-2.329,9.792-3.549,19.726-3.378,29.805c0.207,12.204,3.075,23.65,9.877,33.933
		c7.049,10.653,16.572,18.441,28.069,23.84c8.765,4.115,17.987,6.763,27.609,7.908c3.502,0.417,7.03,0.608,10.546,0.909
		c0.938,0.08,1.925-0.021,2.97,0.811c-2.553,0.52-4.867,1.083-7.211,1.449c-4.919,0.769-9.869,1.304-14.86,1.046
		c-14.922-0.769-28.93-4.68-41.652-12.616c-15.833-9.876-25.72-24.048-29.869-42.229c-2.194-9.617-2.746-19.343-2.013-29.173
		c0.638-8.55,2.405-16.813,5.906-24.657c6.145-13.765,16.29-23.425,30.201-29.146c1.623-0.667,3.338-1.124,5.033-1.597
		c0.809-0.226,1.667-0.421,2.811-0.115C132.892,579.02,132.5,579.387,132.07,579.701z M367.264,648.633
		c5.442,0.961,10.936,1.694,16.436,2.244c5.572,0.556,11.18,0.764,16.939,1.136c0.687,11.276,0.65,22.382-0.009,33.629
		c-0.682,0.062-1.216,0.137-1.752,0.154c-4.503,0.148-8.98-0.251-13.451-0.687c-5.106-0.498-10.214-1.011-15.306-1.646
		c-7.4-0.923-14.7-2.433-21.976-4.051c-0.391-0.088-0.775-0.204-1.159-0.319c-0.777-0.234-1.233-0.714-1.173-1.576
		c0.022-0.319,0.018-0.644,0.062-0.96c1.419-10.082,2.839-20.163,4.274-30.243c0.053-0.374,0.256-0.728,0.447-1.248
		C356.319,646.308,361.759,647.659,367.264,648.633z M513.329,633.379c0.807,6.763,1.523,13.536,2.227,20.311
		c0.189,1.832,0.19,3.682,0.302,5.522c0.075,1.261-0.454,2.163-1.546,2.75c-0.563,0.303-1.142,0.576-1.715,0.86
		c-10.146,5.017-20.762,8.793-31.613,11.945c-2.92,0.849-5.829,1.731-8.751,2.57c-0.91,0.261-1.848,0.431-2.961,0.685
		c-1.708-11.499-3.387-22.811-5.088-34.269c0.704-0.265,1.344-0.543,2.006-0.747c10.483-3.211,20.871-6.694,30.938-11.066
		c4.108-1.784,8.158-3.706,12.235-5.563c0.799-0.363,1.604-0.71,2.604-1.151C512.441,628.024,513.009,630.687,513.329,633.379z
		 M318.434,632.746c7.429,3.573,15.067,6.643,22.989,9.338c-1.666,11.382-3.31,22.616-4.955,33.863
		c-1.103,0.329-2.014-0.108-2.894-0.366c-13.626-3.984-26.839-9.052-39.707-15.051c-1.894-0.884-2.684-1.921-2.435-4.017
		c0.586-4.937,0.958-9.897,1.535-14.835c0.521-4.458,1.157-8.905,1.828-13.344c0.382-2.526,0.936-5.027,1.502-8.014
		C303.754,624.94,310.933,629.138,318.434,632.746z M454.451,645.965c0.849,0.6,1.056,1.438,1.177,2.314
		c0.982,7.144,1.971,14.286,2.937,21.433c0.386,2.857,0.747,5.719,1.069,8.585c0.203,1.8,0.05,2.071-1.783,2.416
		c-4.249,0.799-8.505,1.572-12.778,2.223c-4.276,0.651-8.575,1.162-12.869,1.694c-1.828,0.227-3.667,0.414-5.506,0.514
		c-5.043,0.274-10.09,0.496-15.135,0.725c-0.472,0.021-0.947-0.056-1.436-0.088c-0.531-0.75-0.588-1.535-0.586-2.334
		c0.034-9.944,0.065-19.889,0.113-29.833c0.002-0.537,0.142-1.073,0.242-1.779C424.95,651.002,439.794,649.189,454.451,645.965z
		 M351.697,637.417c0.2-3.679,1.001-7.254,1.494-10.86c0.51-3.726,1.183-7.429,1.806-11.139c0.607-3.62,1.241-7.235,1.884-10.97
		c1.062-0.071,1.968,0.089,2.9,0.296c6.487,1.446,13.016,2.69,19.618,3.448c4.454,0.511,8.938,0.753,13.411,1.099
		c2.156,0.167,4.318,0.274,6.474,0.448c1.396,0.112,1.669,0.385,1.75,1.751c0.071,1.198,0.08,2.402,0.078,3.604
		c-0.015,8.815-0.031,17.631-0.072,26.446c-0.005,1.022-0.165,2.045-0.27,3.26C383.917,644.361,367.737,642.051,351.697,637.417z
		 M462.976,635.7c-0.454-2.33-0.937-4.67-1.362-7.021c-1.412-7.805-2.808-15.611-4.198-23.419c-0.315-1.771-0.269-1.821,1.431-2.354
		c6.186-1.935,12.423-3.718,18.543-5.837c7.642-2.645,15.053-5.881,22.326-9.422c0.846-0.412,1.724-0.756,2.79-1.22
		c0.331,0.938,0.646,1.655,0.84,2.403c2.206,8.525,4.398,17.054,6.577,25.587c0.137,0.534,0.135,1.104,0.207,1.754
		C504.036,620.972,470.705,634.769,462.976,635.7z M340.244,633.812c-14.075-5.058-27.474-11.468-39.832-19.954
		c-2.422-1.663-2.394-1.659-1.621-4.487c1.584-5.8,3.344-11.536,6.006-16.952c0.671-1.365,1.337-2.737,2.097-4.053
		c0.513-0.888,1.185-1.684,1.846-2.604c4.342,2.132,8.498,4.321,12.778,6.232c4.38,1.956,8.843,3.742,13.341,5.411
		c4.411,1.635,8.911,3.029,13.367,4.527c0.061,0.451,0.185,0.776,0.132,1.069c-1.887,10.396-3.789,20.789-5.742,31.47
		C341.604,634.191,340.907,634.05,340.244,633.812z M448.019,605.495c0.797,0.487,0.807,1.245,0.923,1.942
		c0.79,4.737,1.57,9.477,2.354,14.215c0.731,4.421,1.478,8.841,2.186,13.266c0.174,1.087,0.225,2.193,0.343,3.399
		c-0.833,0.285-1.481,0.585-2.164,0.729c-7.597,1.593-15.169,3.337-22.887,4.254c-4.134,0.491-8.293,0.778-12.442,1.141
		c-1.597,0.14-3.194,0.28-4.795,0.332c-1.422,0.047-1.845-0.387-1.979-1.811c-0.037-0.397-0.017-0.801-0.017-1.201
		c-0.001-9.938-0.002-19.877,0.004-29.815c0-0.623,0.061-1.246,0.104-2.055C422.646,609.35,435.453,608.155,448.019,605.495z
		 M322.251,196.483c-8.359-3.469-15.535-8.612-21.461-15.457c-1.04-1.201-1.869-2.584-2.839-3.947
		c0.783-1.066,1.498-2.02,2.193-2.988c2.745-3.818,4.787-7.965,5.716-12.6c1.092-5.45,0.768-10.84-0.83-16.157
		c-0.322-1.07-0.662-2.135-0.984-3.206c-0.018-0.061,0.052-0.148,0.143-0.381c0.577,0.611,1.124,1.151,1.627,1.73
		c10.366,11.921,17.073,25.693,20.675,41.018c0.861,3.663,1.58,7.359,2.325,11.048c0.137,0.674,0.088,1.385,0.136,2.292
		C326.352,197.816,324.251,197.313,322.251,196.483z M170.058,627.404c-3.744,1.169-5.915,3.921-7.465,7.332
		c-1.481,3.258-2.152,6.724-2.488,10.235c-0.654,6.834-0.488,13.631,1.784,20.212c0.679,1.967,1.536,3.873,2.301,5.811
		c0.223,0.563,0.412,1.141,0.769,2.138c-0.747-0.373-1.098-0.489-1.38-0.698c-7.009-5.176-10.86-12.09-11.306-20.814
		c-0.318-6.226,0.841-12.119,4.16-17.506c3.011-4.889,7.458-7.076,13.081-7.132c0.211-0.002,0.423,0.104,0.638,0.16
		C170.111,627.26,170.103,627.391,170.058,627.404z M326.92,375.864c15.79,0.093,29.223,5.892,40.672,16.534
		c9.49,8.823,15.133,19.699,17.333,32.468c5.081,29.499-12.36,56.754-39.291,65.686c-26.842,8.902-53.519-1.104-68.332-22.307
		c-5.048-7.225-8.014-15.289-9.476-23.93c-0.913-5.396-1.235-10.811-0.636-16.289c0.704-6.448,2.426-12.568,5.335-18.352
		c4.547-9.041,10.895-16.606,18.999-22.646c7.88-5.873,16.808-9.211,26.539-10.394C321.003,376.277,323.967,376.115,326.92,375.864z
		 M544.049,434.884c0.467,27.977-20.865,52.628-46.872,57.471c-4.977,0.927-9.983,1.606-15.049,1.459
		c-10.672-0.312-20.508-3.479-29.438-9.258c-14.234-9.211-23.155-22.143-26.479-38.817c-3.721-18.671,2.12-43.822,24.098-58.935
		c7.168-4.928,14.87-8.463,23.49-9.902c5.258-0.877,10.551-0.973,15.839-0.623c6.6,0.437,12.982,1.907,19.079,4.547
		c9.748,4.222,17.446,10.948,23.848,19.31c7.044,9.203,10.737,19.599,11.288,31.145
		C543.911,432.482,543.983,433.683,544.049,434.884z M405.676,504.67c13.282-0.378,26.114,10.434,26.111,26.077
		c-0.002,14.65-11.776,26.243-26.386,26.185c-13.709-0.056-26.072-11.254-25.994-26.337
		C379.484,515.722,391.766,504.241,405.676,504.67z"/>
</g>
</svg>
