<?xml version="1.0" encoding="utf-8"?>
<!-- Generator: Adobe Illustrator 16.0.0, SVG Export Plug-In . SVG Version: 6.00 Build 0)  -->
<!DOCTYPE svg PUBLIC "-//W3C//DTD SVG 1.1//EN" "http://www.w3.org/Graphics/SVG/1.1/DTD/svg11.dtd">
<svg version="1.1" xmlns="http://www.w3.org/2000/svg" xmlns:xlink="http://www.w3.org/1999/xlink" x="0px" y="0px" width="612px"
	 height="792px" viewBox="0 0 612 792" enable-background="new 0 0 612 792" xml:space="preserve">
<g id="Gold">
	<path fill-rule="evenodd" clip-rule="evenodd" fill="#ECCF1A" d="M158.591,467.407c0-13.952-0.001-27.904,0.002-41.856
		c0-0.882-0.025-1.771,0.082-2.642c0.149-1.211,0.654-1.704,1.889-1.745c1.841-0.063,3.688-0.053,5.528,0.016
		c1.152,0.043,1.482,0.392,1.793,1.566c0.123,0.462,0.2,0.942,0.234,1.419c0.052,0.719,0.065,1.441,0.065,2.163
		c0.003,27.103,0.005,54.206-0.004,81.309c0,1.2-0.028,2.41-0.182,3.598c-0.234,1.8-0.703,2.258-2.441,2.344
		c-1.599,0.08-3.21,0.085-4.807-0.023c-1.444-0.097-1.981-0.704-2.111-2.127c-0.073-0.796-0.048-1.603-0.048-2.403
		C158.59,495.152,158.591,481.28,158.591,467.407z M477.171,518.098c-0.557-0.411-1.258-0.258-1.779,0.217
		c-0.65,0.591-1.29,1.202-1.871,1.861c-10.175,11.55-20.335,23.112-30.51,34.663c-8.001,9.084-16.017,18.155-24.023,27.235
		c-0.848,0.962-1.727,1.904-2.497,2.926c-0.96,1.274-0.955,1.876,0.134,2.937c1.375,1.341,2.828,2.608,4.312,3.83
		c0.893,0.733,1.463,0.657,2.317-0.166c0.633-0.61,1.194-1.296,1.776-1.958c10.277-11.674,20.554-23.348,30.829-35.023
		c8.104-9.207,16.212-18.411,24.304-27.629c0.944-1.076,1.802-2.229,2.866-3.555C481.258,521.143,479.214,519.612,477.171,518.098z
		 M97.902,525.933c1.621,1.886,3.306,3.717,4.938,5.593c16.331,18.758,32.655,37.521,48.985,56.278
		c1.001,1.15,2.006,2.299,3.068,3.391c1.297,1.333,1.876,1.39,3.297,0.281c1.2-0.937,2.361-1.932,3.465-2.98
		c1.615-1.536,1.638-1.928,0.241-3.599c-1.492-1.785-3.045-3.519-4.575-5.271c-13.031-14.929-26.063-29.856-39.093-44.786
		c-4.431-5.077-8.851-10.165-13.289-15.236c-0.674-0.771-1.24-1.718-2.519-1.834c-2.491,1.248-4.545,3.078-6.321,5.694
		C96.778,524.4,97.285,525.215,97.902,525.933z M537.701,602.974c-3.547,4.039-7.093,8.079-10.64,12.118
		c-6.405,7.295-12.814,14.587-19.211,21.891c-0.617,0.705-1.425,1.319-1.493,2.551c0.47,0.527,0.952,1.166,1.53,1.701
		c2.296,2.124,4.574,4.271,6.95,6.303c2.466,2.109,2.732,2.04,4.833-0.338c5.63-6.374,11.267-12.742,16.888-19.124
		c4.507-5.118,9.008-10.242,13.485-15.386c1.518-1.742,1.544-2.047-0.059-3.58c-2.491-2.383-5.067-4.678-7.642-6.972
		c-0.587-0.521-1.312-0.888-1.922-1.292C539.148,601.25,538.44,602.133,537.701,602.974z M29.67,613.717
		c5.319,6.108,10.673,12.187,16.001,18.287c4.431,5.074,8.832,10.176,13.267,15.245c1.603,1.832,2.148,1.916,3.995,0.445
		c1.691-1.346,3.294-2.806,4.901-4.255c2.156-1.942,2.162-2.188,0.199-4.444c-9.318-10.708-18.64-21.413-27.968-32.113
		c-0.948-1.088-1.911-2.167-2.923-3.194c-1.16-1.179-1.594-1.241-2.859-0.17c-2.08,1.762-4.086,3.61-6.099,5.449
		c-0.344,0.314-0.562,0.767-1.049,1.453C28.022,611.58,28.786,612.701,29.67,613.717z M440.463,438.293
		c-0.536-1.25-1.065-2.51-1.7-3.711c-3.894-7.369-7.815-14.723-11.729-22.082c-0.15-0.282-0.296-0.568-0.463-0.842
		c-1.058-1.734-1.446-1.896-3.321-1.292c-0.99,0.319-1.966,0.686-2.939,1.056c-2.211,0.84-2.427,1.229-2.041,3.582
		c0.025,0.158,0.056,0.315,0.088,0.473c2.044,10.208,4.092,20.416,6.132,30.625c0.673,3.361,1.356,3.769,4.547,2.299
		c2.689-1.239,5.314-2.626,7.926-4.028c0.979-0.525,1.869-1.239,2.741-1.94c0.781-0.628,1.236-1.468,1.13-2.908
		C440.785,439.356,440.681,438.801,440.463,438.293z M49.311,489.344c0,0.722-0.023,1.451,0.078,2.161
		c0.184,1.292,0.75,1.898,2.049,1.921c3.928,0.066,7.859,0.085,11.787,0.023c1.546-0.023,2.149-0.657,2.287-2.23
		c0.119-1.353,0.116-2.726,0.05-4.084c-0.059-1.209-0.709-2.104-1.843-2.604c-0.513-0.226-1.041-0.42-1.541-0.67
		c-4.457-2.233-7.521-5.637-8.834-10.518c-0.912-3.387-0.944-6.814-0.445-10.255c0.86-5.92,4.156-9.926,9.679-12.145
		c0.371-0.149,0.741-0.303,1.113-0.45c1.16-0.463,1.81-1.313,1.841-2.563c0.035-1.441,0.091-2.891-0.008-4.326
		c-0.125-1.815-0.708-2.326-2.563-2.535c-0.317-0.035-0.641-0.026-0.961-0.026c-3.048-0.001-6.095-0.009-9.143,0.007
		c-0.557,0.003-1.119,0.065-1.667,0.161c-1.079,0.188-1.713,0.845-1.806,1.941c-0.067,0.797-0.074,1.602-0.075,2.402
		c-0.005,7.218-0.003,14.436-0.003,21.654C49.308,474.588,49.306,481.966,49.311,489.344z M426.157,395.583
		c-0.052-6.329-4.689-10.387-10.296-10.41c-6.506-0.026-10.395,5.124-10.393,10.332c0.002,5.825,4.624,10.293,10.438,10.265
		C421.635,405.742,426.204,401.279,426.157,395.583z M396.137,421.168c-0.146,3.364-0.384,6.726-0.619,10.085
		c-0.225,3.198-0.512,6.393-0.747,9.591c-0.236,3.198-0.488,6.397-0.645,9.601c-0.085,1.76,0.431,2.333,2.193,2.459
		c2.158,0.153,4.326,0.205,6.491,0.22c1.376,0.009,1.829-0.365,1.88-1.637c0.059-1.438-0.008-2.888-0.126-4.323
		c-0.59-7.191-1.209-14.38-1.829-21.568c-0.297-3.434-0.598-6.868-0.945-10.298c-0.067-0.667-0.362-1.312-0.638-2.263
		C398.413,415.367,396.291,417.619,396.137,421.168z M407.83,413.683c0.567,5.985,1.147,11.971,1.651,17.962
		c0.424,5.033,0.741,10.075,1.126,15.112c0.085,1.118,0.236,2.232,0.388,3.345c0.253,1.863,0.817,2.423,2.639,2.357
		c1.274-0.047,2.554-0.24,3.81-0.477c1.017-0.192,1.32-0.617,1.303-1.703c-0.013-0.796-0.124-1.599-0.276-2.382
		c-1.535-7.862-3.086-15.722-4.636-23.581c-0.667-3.379-1.337-6.758-2.019-10.134c-0.377-1.869-1.174-3.34-3.414-3.407
		C407.514,411.604,407.731,412.641,407.83,413.683z M471.281,608.979c1.219,1.303,1.941,1.338,3.245,0.164
		c0.356-0.32,0.672-0.688,0.989-1.048c10.049-11.43,20.096-22.86,30.141-34.294c0.316-0.36,0.65-0.717,0.9-1.122
		c0.515-0.837,0.328-1.67-0.465-2.34c-0.821-0.694-1.563-0.729-2.369-0.039c-0.424,0.362-0.789,0.796-1.16,1.216
		c-10.181,11.526-20.362,23.053-30.528,34.593c-0.513,0.582-0.89,1.285-1.32,1.917C470.958,608.444,471.072,608.756,471.281,608.979
		z"/>
</g>
<g id="Tan">
	<path fill-rule="evenodd" clip-rule="evenodd" fill="#E0DCC2" d="M477.166,545.245c1.115,0.74,1.896,1.143,2.537,1.702
		c5.376,4.691,10.727,9.41,16.083,14.124c0.24,0.211,0.483,0.428,0.678,0.679c0.479,0.616,0.364,1.234-0.327,1.591
		c-0.42,0.216-0.888,0.354-1.348,0.474c-5.888,1.523-11.773,3.059-17.671,4.543c-2.6,0.654-3.275,0.092-2.982-2.582
		c0.479-4.379,1.069-8.745,1.619-13.116c0.22-1.749,0.428-3.499,0.702-5.239C476.551,546.824,476.828,546.257,477.166,545.245z
		 M463.893,599.066c0.777-6.353,1.561-12.705,2.318-19.061c0.196-1.645-0.446-2.242-2.079-1.91
		c-1.487,0.302-2.953,0.709-4.428,1.077c-4.574,1.142-9.154,2.265-13.719,3.448c-0.959,0.249-2.077,0.317-2.736,1.458
		c0.237,0.307,0.43,0.653,0.709,0.901c6.169,5.455,12.306,10.949,18.659,16.422C463.553,600.619,463.794,599.875,463.893,599.066z
		 M530.601,591.79c-4.306-3.827-8.624-7.64-12.947-11.446c-0.84-0.739-1.693-1.471-2.601-2.121
		c-0.416-0.298-0.979-0.391-1.425-0.558c-0.829,0.774-0.894,1.647-1.013,2.521c-0.423,3.088-0.889,6.17-1.312,9.258
		c-0.413,3.01-0.796,6.022-1.188,9.034c-0.104,0.796-0.236,1.603,0.554,2.276c0.325,0,0.739,0.09,1.098-0.014
		c6.519-1.888,13.033-3.792,19.539-5.723c0.419-0.124,0.768-0.485,1.526-0.986C531.928,593.119,531.302,592.413,530.601,591.79z
		 M499.527,629.845c0.764-5.468,1.518-10.937,2.265-16.406c0.064-0.472,0.13-0.962,0.068-1.428
		c-0.141-1.062-0.791-1.502-1.864-1.334c-0.234,0.036-0.461,0.13-0.692,0.196c-5.527,1.602-11.053,3.211-16.586,4.796
		c-0.801,0.229-1.505,0.521-1.935,1.516c0.464,0.534,0.932,1.177,1.5,1.713c6.661,6.279,14.099,12.574,16.302,13.757
		C499.323,631.74,499.396,630.775,499.527,629.845z M467.517,550.847c-2.315,2.55-4.609,5.119-6.892,7.699
		c-4.086,4.622-8.169,9.246-12.226,13.893c-0.821,0.941-1.845,1.783-2.091,3.114c0.75,0.502,1.459,0.291,2.144,0.115
		c5.344-1.368,10.67-2.811,16.032-4.101c1.997-0.48,3.027-1.523,3.263-3.556c0.605-5.248,1.293-10.487,1.925-15.732
		c0.111-0.923,0.252-1.873-0.204-2.861C468.496,549.596,468.028,550.283,467.517,550.847z M492.218,570.931
		c-5.67,1.418-11.324,2.898-16.998,4.298c-1.769,0.436-2.451,1.532-2.641,3.244c-0.371,3.346-0.871,6.676-1.287,10.017
		c-0.287,2.307-0.518,4.621-0.781,6.931c-0.08,0.701-0.1,1.374,0.592,2.053c0.704-0.705,1.351-1.293,1.928-1.941
		c3.147-3.536,6.278-7.085,9.412-10.632c3.4-3.848,6.805-7.69,10.188-11.552c0.554-0.633,1.351-1.179,1.145-2.433
		C493.243,570.915,492.702,570.81,492.218,570.931z M508.686,626.595c0.929-0.998,1.803-2.047,2.702-3.071
		c5.239-5.967,10.485-11.929,15.715-17.904c0.714-0.816,1.521-1.591,1.874-2.627c-0.766-0.755-1.484-0.359-2.14-0.187
		c-1.625,0.429-3.23,0.933-4.843,1.408c-3.608,1.063-7.204,2.171-10.829,3.176c-1.692,0.469-2.576,1.502-2.794,3.192
		c-0.112,0.875-0.236,1.747-0.354,2.621c-0.588,4.368-1.182,8.735-1.752,13.105c-0.069,0.532-0.01,1.082-0.01,1.896
		C507.582,627.966,508.105,627.218,508.686,626.595z M503.334,585.785c-1.339,1.488-2.654,2.997-3.977,4.499
		c-4.443,5.049-8.894,10.091-13.32,15.153c-0.714,0.816-1.577,1.567-1.851,2.904c0.578,0.039,1.043,0.172,1.454,0.077
		c1.01-0.235,1.994-0.577,2.989-0.873c4.058-1.207,8.11-2.433,12.178-3.61c1.641-0.476,2.521-1.415,2.744-3.188
		c0.607-4.84,1.348-9.663,2.051-14.491c0.095-0.656,0.135-1.269-0.411-1.799C504.28,584.484,503.85,585.212,503.334,585.785z"/>
</g>
<g id="Purple">
	<path fill-rule="evenodd" clip-rule="evenodd" fill="#651237" d="M123.848,588.113c0.085,1.598-0.779,2.289-2.406,1.859
		c-4.935-1.304-9.86-2.641-14.785-3.981c-2.309-0.629-4.596-1.344-6.916-1.931c-1.814-0.459-2.569-1.56-2.792-3.394
		c-0.521-4.267-1.229-8.51-1.833-12.767c-0.448-3.154-0.858-6.313-1.272-9.472c-0.222-1.69,0.702-2.507,2.39-2.059
		c5.857,1.559,11.71,3.135,17.559,4.729c1.693,0.462,3.349,1.067,5.05,1.491c1.374,0.344,2.024,1.219,2.19,2.519
		c0.362,2.846,0.662,5.699,1.026,8.544c0.425,3.317,0.91,6.626,1.336,9.942C123.587,585.096,123.699,586.606,123.848,588.113z
		 M94.021,612.589c-0.065-1.109-0.281-2.211-0.421-3.316c-0.2-1.582-0.376-3.168-0.591-4.748c-0.257-1.894-0.562-3.781-0.812-5.676
		c-0.334-2.527-0.691-5.055-0.931-7.592c-0.17-1.804-1.132-2.585-2.828-3.023c-4.943-1.279-9.847-2.712-14.769-4.073
		c-2.461-0.681-4.92-1.37-7.398-1.985c-1.353-0.336-2.06,0.186-2.025,1.554c0.034,1.349,0.287,2.691,0.449,4.036
		c0.355,2.929,0.686,5.86,1.078,8.784c0.413,3.078,0.954,6.141,1.314,9.224c0.326,2.797,1.218,3.946,3.981,4.664
		c2.856,0.743,5.719,1.462,8.57,2.229c4.387,1.179,8.767,2.389,13.004,3.546C94.524,615.387,94.098,613.902,94.021,612.589z
		 M76.356,633.497c-0.506-0.719-1.034-1.429-1.609-2.093c-3.247-3.751-6.497-7.498-9.77-11.227
		c-3.854-4.39-7.745-8.749-11.595-13.144c-1.528-1.743-2.977-3.556-4.487-5.316c-1.25-1.458-2.514-2.905-3.816-4.317
		c-0.87-0.943-1.55-1.104-2.313-0.699c-1.105,0.588-1.439,1.529-0.704,2.583c0.728,1.043,1.663,1.939,2.494,2.912
		c2.544,2.98,5.059,5.987,7.629,8.945c2.678,3.081,5.411,6.114,8.113,9.173c1.219,1.38,2.427,2.769,3.635,4.157
		c2.992,3.441,5.978,6.887,8.975,10.323c0.369,0.423,0.78,0.809,1.187,1.195c0.437,0.417,0.938,0.654,1.515,0.296
		c0.626-0.39,1.177-0.854,1.158-1.912C76.689,634.2,76.577,633.811,76.356,633.497z"/>
</g>
<g id="Grey">
	<path fill-rule="evenodd" clip-rule="evenodd" fill="#D4D4D4" d="M533.736,168.274c0.633-0.792,1.047-1.49,1.625-2.005
		c2.814-2.509,5.67-4.971,8.518-7.441c0.362-0.314,0.752-0.602,1.156-0.86c0.678-0.434,1.371-0.384,2.032,0.052
		c0.267,0.176,0.513,0.385,0.757,0.593c3.352,2.869,7.275,3.916,11.612,3.67c1.12-0.063,2.244-0.14,3.365-0.111
		c0.419,0.011,0.832,0.304,1.206,0.451c0.012,1.166-0.858,1.422-1.493,1.847c-3.212,2.146-6.25,4.505-8.886,7.338
		c-3.429,3.685-6.189,7.77-7.361,12.763c-1.13,4.813-0.85,9.542,0.838,14.191c1.666,4.585,4.316,8.572,7.43,12.28
		c0.464,0.552,0.969,1.073,1.412,1.641c0.938,1.203,0.886,2.085-0.14,3.179c-0.763,0.813-1.741,1.069-2.813,1.171
		c-2.952,0.281-5.909,0.542-8.851,0.917c-7.827,0.999-15.469,2.667-22.502,6.452c-0.377,0.203-0.826,0.271-1.427,0.459
		c0.228-1.14,1.016-1.48,1.569-1.992c3.239-2.994,6.618-5.848,9.72-8.978c4.896-4.939,8.278-10.775,9.618-17.691
		c1.598-8.246,0.201-15.927-4.284-23.037C535.858,171.61,534.87,170.061,533.736,168.274z M465.022,272.897
		c0.494-0.155,1.013-0.257,1.477-0.476c1.663-0.786,3.264-1.718,4.965-2.403c5.708-2.298,11.664-3.415,17.813-3.432
		c2.563-0.007,5.127,0.164,7.69,0.155c1.015-0.003,2.182-0.002,3.014-0.473c2.676-1.514,4.628-3.658,4.998-6.915
		c0.581-5.108,1.816-10.078,3.288-14.991c1.55-5.17,3.631-10.09,6.876-14.457c0.159-0.214,0.248-0.479,0.495-0.969
		c-0.547,0.134-0.81,0.121-0.953,0.245c-16.631,14.444-33.254,28.898-49.877,43.352C464.88,272.656,464.951,272.776,465.022,272.897
		z M459.593,277.278c-0.729,0.583-1.482,1.138-2.186,1.751c-9.189,8.02-18.371,16.048-27.555,24.074
		c-0.241,0.211-0.492,0.413-0.719,0.639c-0.847,0.843-1.223,1.838-1.061,3.05c0.245,1.828,0.418,3.665,0.662,5.492
		c0.297,2.217,0.56,2.479,2.69,2.479c3.69,0,7.383-0.004,11.072-0.099c3.774-0.097,6.542-2.839,6.937-6.65
		c0.306-2.949,0.585-5.907,1.063-8.831c1.181-7.229,3.763-13.901,8.227-19.778c0.434-0.572,0.834-1.169,1.249-1.754
		C459.846,277.527,459.72,277.402,459.593,277.278z M140.565,480.334c3.419-3.382,6.833-6.77,10.203-10.202
		c2.042-2.08,2.043-4.048,0.032-6.085c-3.322-3.364-6.685-6.689-10.034-10.028c-0.339-0.339-0.677-0.688-1.057-0.977
		c-0.867-0.657-1.287-0.655-2.147-0.03c-0.323,0.235-0.635,0.493-0.917,0.775c-3.8,3.794-7.605,7.584-11.377,11.406
		c-0.537,0.544-0.91,1.251-1.296,1.795c1.229,2.136,11.872,12.894,14.676,14.851C139.318,481.318,140.003,480.889,140.565,480.334z
		 M83.424,468.111c4.168,4.208,8.325,8.429,12.526,12.604c1.219,1.212,1.901,1.178,3.258-0.16
		c3.936-3.876,7.842-7.784,11.724-11.715c1.392-1.41,1.363-2.05,0.104-3.476c-0.159-0.18-0.339-0.341-0.508-0.511
		c-3.504-3.515-7.008-7.032-10.517-10.544c-0.452-0.452-0.904-0.913-1.408-1.304c-0.83-0.643-1.345-0.631-2.159-0.007
		c-0.316,0.242-0.595,0.534-0.878,0.816c-3.795,3.791-7.595,7.578-11.374,11.386c-0.552,0.556-1.001,1.213-1.566,1.907
		C83.027,467.616,83.202,467.887,83.424,468.111z M151.551,548.854c1.355,0.084,2.729,0.042,4.064,0.246
		c3.766,0.575,7.22,2.024,10.466,3.99c0.616,0.373,1.218,0.773,1.858,1.1c1.395,0.713,2.76,0.108,3.101-1.426
		c0.154-0.69,0.104-1.433,0.101-2.151c-0.012-2.723-0.084-5.447-0.049-8.17c0.019-1.435,0.128-2.881,0.341-4.3
		c0.677-4.51,2.413-8.604,5-12.35c0.381-0.552,0.688-1.155,1.248-2.109c-1.243,0.341-1.758,0.944-2.326,1.437
		c-4.603,3.984-9.2,7.975-13.791,11.973c-3.504,3.051-7.005,6.105-10.485,9.185c-0.625,0.553-1.507,0.964-1.52,1.978
		C150.083,549.056,150.862,548.812,151.551,548.854z M195.299,507.67c-0.86,0.72-1.699,1.466-2.545,2.202
		c-0.847,0.737-1.689,1.479-2.535,2.216c-0.847,0.736-1.697,1.469-2.543,2.205c-0.847,0.737-1.702,1.465-2.531,2.221
		c-0.776,0.708-1.643,1.35-2.053,2.421c0.756-0.115,1.41-0.347,2.027-0.652c3.617-1.796,7.377-3.088,11.441-3.367
		c0.637-0.044,1.278-0.154,1.895-0.318c0.892-0.238,1.535-0.9,1.381-1.722c-0.424-2.259-0.335-4.642-1.541-6.931
		C196.891,506.086,196.142,506.964,195.299,507.67z"/>
</g>
<g id="White">
	<path fill-rule="evenodd" clip-rule="evenodd" fill="#FEFEFE" d="M307.781,364.819c0.758,1.372,1.8,2.248,2.814,3.127
		c6.708,5.814,14.377,9.895,22.898,12.286c3.614,1.015,7.354,1.581,11.037,2.347c0.471,0.098,0.963,0.119,1.416,0.266
		c0.814,0.265,1.383,0.789,1.49,1.701c0.113,0.956,0.273,1.908,0.353,2.866c0.707,8.554,1.391,17.109,2.112,25.662
		c0.091,1.074-0.092,2.267,0.894,3.195c0.914-0.27,1.177-1.05,1.382-1.772c0.679-2.384,1.454-4.758,1.892-7.189
		c1.278-7.102,2.373-14.234,3.002-21.43c0.215-2.467,0.719-2.893,3.321-3.184c9.437-1.053,18.329-3.765,26.52-8.65
		c3.46-2.064,6.61-4.535,9.602-7.215c0.572-0.513,1.032-1.15,1.531-1.716c-0.632-0.805-1.245-0.611-1.875-0.453
		c-3.108,0.777-6.214,1.564-9.331,2.304c-7.81,1.852-15.712,3.161-23.692,4.005c-0.876,0.093-1.763,0.147-2.643,0.129
		c-1.333-0.027-1.843-0.54-1.955-1.909c-0.052-0.638-0.053-1.286-0.008-1.925c0.275-3.84,0.524-7.682,0.875-11.516
		c0.222-2.438,0.746-2.851,3.186-2.922c0.802-0.023,1.605-0.005,2.408-0.005c16.934,0,33.867-0.001,50.802,0.001
		c0.803,0,1.609-0.026,2.406,0.045c1.713,0.152,2.112,0.62,2.012,2.28c-0.034,0.559-0.094,1.125-0.225,1.668
		c-1.6,6.624-3.488,13.155-5.99,19.508c-0.704,1.788-1.739,2.857-3.575,3.53c-7.325,2.683-11.418,8.878-11.074,16.538
		c0.042,0.952,0.215,1.916,0.462,2.838c0.561,2.087,0.177,3.92-1.083,5.679c-3.882,5.421-8.038,10.611-12.603,15.479
		c-10.748,11.46-23.097,20.795-37.047,28.014c-12.688,6.565-26.066,11.027-40.17,13.377c-10.981,1.829-22.01,2.349-33.092,1.46
		c-32.11-2.573-59.899-15.002-83.369-36.997c-19.969-18.713-33.004-41.513-39.448-68.094c-0.264-1.088-0.488-2.196-0.605-3.308
		c-0.135-1.279,0.271-1.733,1.558-1.939c0.472-0.076,0.96-0.074,1.44-0.074c6.42-0.005,12.841-0.004,19.262-0.002
		c0.401,0,0.805-0.008,1.203,0.036c1.431,0.16,2.018,0.614,2.307,2.023c0.274,1.333,0.415,2.693,0.588,4.045
		c2.601,20.294,18.659,34.949,34.717,38.931c23.038,5.712,43.331-5.407,52.785-21.431c3.632-6.154,5.898-12.787,6.5-19.945
		c0.006-0.08,0.013-0.16,0.022-0.24c0.343-2.945,0.839-3.416,3.785-3.417c21.749-0.007,43.499-0.004,65.248-0.003
		c0.321,0,0.643,0,0.963,0.017c2.159,0.116,2.663,0.528,2.821,2.728c0.313,4.32,0.537,8.646,0.794,12.971
		c0.019,0.32,0.003,0.642-0.009,0.963c-0.03,0.856-0.524,1.393-1.324,1.445c-0.951,0.062-1.92-0.01-2.871-0.117
		c-10.929-1.234-21.681-3.416-32.337-6.101c-0.458-0.115-0.934-0.172-1.405-0.216C308.323,364.498,308.177,364.631,307.781,364.819z
		 M300.805,426.354c0.652-9.122-7.778-16.378-15.897-16.421c-9.791-0.051-16.548,8.263-16.597,16.179
		c-0.054,8.906,7.704,16.355,16.113,16.445C293.385,442.654,301.44,434.821,300.805,426.354z M205.859,510.744
		c0.005,0.478,0.048,0.961,0.143,1.429c1.202,5.98,2.832,11.837,5.168,17.48c7.146,17.27,18.95,30.092,36.104,37.808
		c7.954,3.577,16.291,5.813,24.934,6.788c4.614,0.521,9.279,0.875,13.917,0.834c5.766-0.051,11.541-0.397,17.269-1.217
		c7.315-1.046,14.514-2.585,21.391-5.346c12.979-5.21,23.358-13.516,30.483-25.701c5.294-9.056,8.324-18.864,9.948-29.16
		c0.123-0.775,0.33-1.586-0.237-2.3c-1.232,0.112-1.243,0.093-2.413,0.788c-7.953,4.726-16.402,8.326-25.19,11.173
		c-14.3,4.634-29.036,6.565-43.99,7.161c-4.974,0.198-9.936-0.04-14.907-0.306c-7.379-0.396-14.704-1.125-21.968-2.479
		c-11.608-2.164-22.934-5.313-33.762-10.05c-4.834-2.115-9.5-4.615-14.247-6.931c-0.695-0.34-1.297-0.974-2.377-0.749
		C206.003,510.301,205.857,510.523,205.859,510.744z M534.175,473.148c7.187,0.028,13.526-2.176,19.257-6.382
		c7.733-5.676,11.904-13.461,13.455-22.782c0.338-2.028-0.305-2.779-2.433-2.936c-1.118-0.083-2.245-0.063-3.368-0.063
		c-35.707-0.002-71.414-0.002-107.12,0c-1.283,0-2.567,0.055-3.851,0.033c-1.71-0.029-2.915,0.619-3.528,2.299
		c-0.771,2.117-2.258,3.684-4.128,4.865c-1.827,1.154-3.704,2.231-5.579,3.308c-1.944,1.115-4.006,2.054-5.852,3.311
		c-3.298,2.247-6.919,3.256-10.848,3.419c-4.166,0.173-8.322,0.44-12.431,1.23c-0.858,0.165-1.762,0.23-2.633,0.171
		c-3.919-0.268-7.837-0.567-11.749-0.926c-0.86-0.079-1.722-0.377-2.536-0.693c-2.081-0.812-3.245-2.295-3.105-4.616
		c0.119-2.001,0.263-4,0.396-6c0.096-1.44,0.212-2.879,0.28-4.32c0.042-0.889-0.298-1.577-1.242-1.798
		c-0.465-0.108-0.942-0.226-1.414-0.229c-3.771-0.019-7.541-0.03-11.312,0.007c-0.708,0.008-1.444,0.16-2.112,0.397
		c-0.895,0.318-1.134,1.178-0.55,1.934c0.487,0.629,1.068,1.196,1.666,1.725c9.747,8.599,19.522,17.164,29.237,25.798
		c1.787,1.588,3.669,2.271,6.085,2.263c21.103-0.072,42.206-0.042,63.309-0.042C492.771,473.12,513.474,473.067,534.175,473.148z
		 M147.559,291.615c0.737-2.453,1.364-4.939,2.109-7.389c1.842-6.061,4.203-11.924,6.796-17.7c1.349-3.004,1.272-3.216-1.117-5.342
		c-1.917-1.706-3.846-3.399-5.772-5.095c-27.816-24.479-55.634-48.957-83.448-73.438c-4.876-4.292-9.72-8.622-14.614-12.894
		c-1.708-1.491-2.297-1.382-3.73,0.356c-0.153,0.186-0.301,0.375-0.439,0.572c-6.506,9.284-7.707,19.146-3.085,29.567
		c2.415,5.443,6.176,9.87,10.637,13.786c19.588,17.197,39.133,34.443,58.693,51.671c9.991,8.8,19.978,17.604,29.972,26.4
		c0.833,0.734,1.586,1.614,3.023,1.798C146.896,293.189,147.315,292.428,147.559,291.615z M414.92,481.621
		c3.547,3.137,7.159,6.204,10.62,9.433c1.883,1.757,3.921,2.55,6.497,2.497c5.456-0.11,10.915-0.033,16.373-0.033
		c30.02,0,60.038-0.044,90.057,0.022c11.399,0.025,22.076-2.509,31.958-8.24c12.832-7.441,21.618-18.163,26.113-32.332
		c0.506-1.596,0.922-3.253,1.106-4.912c0.42-3.775-1.433-6.188-5.146-6.795c-1.334-0.218-2.713-0.219-4.071-0.229
		c-3.853-0.027-7.705-0.022-11.557-0.005c-3.002,0.013-3.369,0.337-3.916,3.332c-0.23,1.262-0.367,2.543-0.66,3.789
		c-2.998,12.747-10.345,22.025-22.19,27.678c-5.083,2.425-10.468,3.408-16.087,3.394c-14.688-0.039-29.377-0.014-44.065-0.014
		c-24.079,0-48.158-0.004-72.237,0.012c-1.264,0.001-2.526,0.166-3.804,0.256C413.691,480.796,414.394,481.156,414.92,481.621z
		 M455.605,525.664c-24.864-21.908-49.734-43.81-74.608-65.707c-3.192-2.81-6.402-5.6-9.62-8.38
		c-0.518-0.447-0.976-1.097-2.024-0.889c-0.042,0.49-0.184,1.021-0.113,1.522c0.607,4.366,1.282,8.723,1.881,13.09
		c1.146,8.355,1.776,16.754,1.737,25.185c-0.011,2.456,0.766,4.229,2.621,5.848c10.156,8.863,20.229,17.823,30.339,26.74
		c9.568,8.438,19.144,16.87,28.73,25.289c0.952,0.836,1.811,1.84,3.279,2.212c0.5-0.368,1.13-0.727,1.63-1.218
		c4.002-3.928,17.098-19.194,18.366-21.493C457.063,527.105,456.373,526.34,455.605,525.664z M140.89,445.521
		c2.917,2.868,5.809,5.762,8.716,8.641c0.397,0.394,0.796,0.797,1.25,1.119c0.509,0.362,1.165,0.105,1.349-0.491
		c0.093-0.302,0.15-0.629,0.15-0.944c0.003-3.369,0.05-6.74-0.036-10.107c-0.05-1.944-0.712-2.514-2.659-2.688
		c-0.399-0.036-0.802-0.024-1.203-0.026c-3.29-0.016-6.579-0.04-9.868-0.04c-20.299-0.004-40.598-0.003-60.896-0.002
		c-0.803,0-1.605-0.008-2.407,0.018c-3.027,0.097-3.437,0.521-3.486,3.551c-0.04,2.485-0.013,4.976-0.144,7.456
		c-0.138,2.61-0.824,3.301-3.412,3.853c-0.939,0.2-1.902,0.332-2.812,0.625c-3.4,1.095-5.648,3.344-6.329,6.89
		c-0.471,2.451-0.5,4.965,0.027,7.418c0.929,4.319,3.572,7.061,7.875,8.159c0.388,0.099,0.793,0.128,1.179,0.232
		c2.656,0.714,3.302,1.452,3.494,4.139c0.097,1.358,0.091,2.725,0.119,4.088c0.026,1.282-0.025,2.57,0.066,3.848
		c0.114,1.592,0.641,2.069,2.265,2.204c0.718,0.06,1.443,0.055,2.165,0.055c23.588,0.002,47.176,0.003,70.765-0.001
		c0.802,0,1.61,0.013,2.404-0.076c1.891-0.212,2.765-1.022,2.823-2.951c0.099-3.286,0.04-6.577,0.039-9.865
		c0-0.764-0.249-1.389-1.182-1.722c-0.844,0.79-1.738,1.584-2.586,2.426c-2.564,2.541-5.1,5.111-7.67,7.646
		c-0.61,0.603-1.315,1.108-2.115,1.774c-0.792-0.647-1.505-1.139-2.109-1.74c-5.346-5.32-10.668-10.663-16.007-15.99
		c-0.833-0.831-1.614-1.773-3.055-1.92c-0.968,0.89-1.999,1.775-2.959,2.731c-5.004,4.98-9.985,9.984-14.99,14.965
		c-0.666,0.661-1.426,1.227-2.283,1.956c-0.741-0.584-1.406-1.01-1.952-1.554c-6.532-6.517-13.049-13.048-19.565-19.58
		c-2.172-2.178-2.199-2.589-0.12-4.676c6.455-6.479,12.921-12.949,19.409-19.396c0.718-0.714,1.604-1.258,2.511-1.956
		c1.036,0.937,1.956,1.703,2.801,2.545c5.004,4.98,9.99,9.979,14.984,14.971c2.538,2.536,2.68,2.545,5.145,0.087
		c5.113-5.098,10.208-10.215,15.333-15.302c0.782-0.776,1.68-1.435,2.711-2.306C139.571,444.387,140.271,444.912,140.89,445.521z
		 M239.762,483.661c0.019-5.936,0.012-11.871,0.007-17.807c-0.003-3.652-0.111-3.841-3.455-5.082
		c-6.313-2.344-12.455-5.055-18.3-8.41c-2.639-1.516-5.25-3.079-7.889-4.596c-0.593-0.341-1.248-0.575-1.759-0.807
		c-1.301,0.859-1.271,2.073-1.476,3.139c-0.348,1.808-0.633,3.632-0.839,5.462c-0.619,5.493-1.148,10.997-1.797,16.486
		c-0.223,1.883,0.45,3.092,2.144,3.819c0.293,0.126,0.565,0.301,0.851,0.446c9.294,4.762,19.05,8.327,29.073,11.193
		c0.993,0.283,2.018,0.551,3.253-0.199C239.642,486.058,239.758,484.859,239.762,483.661z M324.019,464.774
		c-5.247,1.114-10.487,2.265-15.753,3.283c-4.889,0.946-9.855,1.249-14.821,1.552c-3.814,0.232-4.049,0.527-4.06,4.294
		c-0.014,5.456-0.006,10.912,0,16.368c0.001,0.641,0.013,1.285,0.087,1.92c0.208,1.769,0.647,2.211,2.46,2.229
		c1.844,0.019,3.692-0.029,5.531-0.154c3.2-0.216,6.4-0.455,9.589-0.79c5.582-0.588,11.108-1.523,16.584-2.77
		c2.881-0.656,3.264-1.014,3.445-4.239c0.005-0.08,0.013-0.16,0.012-0.24c-0.017-6.418-0.02-12.837-0.074-19.255
		c-0.006-0.758-0.296-1.515-0.422-2.114C325.564,464.343,324.804,464.608,324.019,464.774z M245.872,468.261
		c0.013,6.016,0.005,12.031,0.006,18.048c0,0.4-0.013,0.804,0.019,1.202c0.158,1.96,0.605,2.602,2.524,2.948
		c4.886,0.884,9.773,1.8,14.692,2.457c4.685,0.626,9.409,0.957,14.119,1.382c1.195,0.107,2.405,0.15,3.604,0.1
		c1.698-0.073,2.242-0.649,2.425-2.351c0.034-0.317,0.021-0.641,0.021-0.961c0.001-6.017,0.02-12.032-0.008-18.048
		c-0.013-2.669-0.383-3.058-2.957-3.342c-1.274-0.14-2.558-0.197-3.836-0.304c-2.477-0.205-4.963-0.34-7.427-0.645
		c-6.443-0.797-12.821-1.962-19.102-3.63c-0.99-0.263-2.016-0.392-3.004-0.577C245.924,465.708,245.869,466.966,245.872,468.261z
		 M289.389,520.837c0.053,3.195,0.554,3.697,3.672,3.505c5.037-0.311,10.081-0.582,15.099-1.1c5.415-0.56,10.785-1.487,16.075-2.814
		c2.259-0.566,2.635-0.957,2.786-3.249c0.115-1.757,0.086-3.524,0.083-5.288c-0.009-4.087,0.012-8.175-0.083-12.26
		c-0.063-2.729-0.633-3.129-3.212-2.587c-10.062,2.117-20.245,3.202-30.51,3.577c-3.583,0.131-3.891,0.417-3.918,4.102
		c-0.019,2.565-0.004,5.131-0.003,7.696C289.379,515.226,289.343,518.032,289.389,520.837z M283.273,520.851
		c0.02-5.608,0.017-11.218,0.002-16.827c-0.002-0.635-0.085-1.276-0.206-1.9c-0.153-0.794-0.709-1.231-1.483-1.375
		c-0.392-0.072-0.796-0.083-1.195-0.113c-3.833-0.293-7.668-0.562-11.499-0.882c-6.467-0.54-12.876-1.515-19.251-2.709
		c-3.213-0.602-3.716-0.231-3.763,2.978c-0.001,0.08,0,0.16,0,0.24c0,5.289-0.001,10.577,0,15.866c0,0.48-0.006,0.962,0.023,1.441
		c0.055,0.902,0.569,1.47,1.394,1.762c0.452,0.16,0.917,0.284,1.383,0.398c10.451,2.575,21.061,4.019,31.813,4.459
		c0.912,0.038,1.753-0.053,2.582-0.882C283.134,522.59,283.27,521.721,283.273,520.851z M359.191,449.838
		c-7.343,4.294-14.945,8.042-22.94,10.974c-0.524,0.192-1.018,0.47-1.533,0.689c-0.899,0.384-1.374,1.063-1.465,2.027
		c-0.045,0.479-0.135,0.957-0.136,1.436c-0.01,6.66-0.008,13.321-0.007,19.982c0.001,0.964,0.114,1.896,0.896,2.841
		c1.125-0.307,2.284-0.564,3.407-0.937c9.168-3.037,17.818-7.143,25.901-12.456c1.934-1.271,2.679-2.836,2.256-5.079
		c-0.341-1.811-0.571-3.642-0.845-5.465c-0.643-4.28-1.281-8.562-1.924-12.842c-0.133-0.885-0.317-1.747-1.372-2.304
		C360.744,449.05,359.942,449.399,359.191,449.838z M336.798,516.934c9.78-3.214,19.045-7.481,27.522-13.396
		c1.698-1.185,2.418-2.586,2.386-4.622c-0.077-4.729-0.024-9.46-0.028-14.189c-0.001-0.722-0.006-1.443-0.042-2.163
		c-0.042-0.838-0.297-1.563-1.234-1.922c-1.997,1.109-4.044,2.205-6.05,3.37c-4.509,2.616-9.207,4.833-14.086,6.65
		c-3.145,1.171-6.337,2.217-9.513,3.304c-2.181,0.747-2.486,1.125-2.633,3.432c-0.02,0.319-0.011,0.641-0.011,0.962
		c0,5.05-0.019,10.101,0.014,15.151c0.007,1.186,0.182,2.37,0.267,3.4C334.674,517.81,335.762,517.274,336.798,516.934z
		 M203.498,485.738c0.144,3.603,0.392,7.203,0.416,10.806c0.021,2.993,1.094,5.021,3.806,6.608
		c8.941,5.236,18.307,9.483,28.094,12.838c0.679,0.233,1.378,0.438,2.084,0.55c1.034,0.164,1.546-0.183,1.693-1.194
		c0.138-0.946,0.181-1.914,0.184-2.873c0.018-4.567,0.013-9.136,0.006-13.703c-0.005-3.767-0.062-3.827-3.813-4.875
		c-10.106-2.824-19.975-6.282-29.381-10.979c-0.706-0.353-1.399-0.82-2.394-0.481C203.361,483.488,203.453,484.621,203.498,485.738z
		 M127.596,303.888c0.033-0.392-0.023-0.796-0.083-1.188c-0.228-1.505-0.455-3.011-0.713-4.512
		c-0.875-5.085-2.352-9.97-4.861-14.509c-3.475-6.286-8.545-10.689-15.288-13.238c-4.788-1.81-9.758-2.505-14.812-2.821
		c-1.519-0.095-3.045-0.099-4.567-0.077c-0.842,0.013-1.723,0.069-2.482,1.002c0.842,0.845,1.581,1.673,2.407,2.402
		c9.625,8.489,19.263,16.965,28.9,25.441c2.891,2.543,5.777,5.092,8.694,7.604c0.644,0.554,1.224,1.332,2.508,1.129
		C127.419,304.649,127.564,304.273,127.596,303.888z M14.097,167.105c-1.208,5.277-1.351,10.607-1.012,15.998
		c0.523,8.301,2.977,16.004,6.804,23.321c0.294,0.563,0.656,1.102,1.059,1.593c0.474,0.578,1.104,0.63,1.713,0.213
		c0.325-0.222,0.603-0.524,0.866-0.822c2.778-3.136,5.156-6.538,6.789-10.418c1.319-3.135,2.091-6.402,1.936-9.814
		c-0.179-3.925-1.478-7.501-3.615-10.797c-2.928-4.513-6.757-8.103-11.199-11.073c-0.585-0.391-1.251-0.659-1.849-0.968
		C14.431,165.693,14.421,165.691,14.097,167.105z M71.486,251.913c-1.125-5.751-2.764-11.331-5.22-16.679
		c-2.676-5.828-6.89-10.001-12.872-12.25c-3.135-1.179-6.354-2.225-9.621-2.938c-3.98-0.87-8.047-1.358-12.086-1.938
		c-0.873-0.125-1.905-0.501-2.783,0.642c0.508,0.597,0.967,1.237,1.524,1.774c2.021,1.945,4.027,3.909,6.124,5.771
		c7.612,6.759,15.254,13.484,22.892,20.214c3.428,3.021,6.867,6.028,10.312,9.029c0.575,0.5,1.063,1.279,2.086,0.839
		C72.306,254.856,71.774,253.388,71.486,251.913z M177.895,469.951c6.526-5.675,13.035-11.369,19.543-17.065
		c0.723-0.632,1.475-1.251,2.091-1.979c0.5-0.591,0.994-1.292,1.176-2.023c0.444-1.78,0.75-3.6,1.022-5.416
		c0.155-1.041-0.285-1.729-1.281-1.997c-0.917-0.248-1.885-0.423-2.831-0.428c-6.647-0.035-13.295-0.037-19.942-0.011
		c-2.864,0.012-3.368,0.52-3.388,3.379c-0.053,7.687-0.085,15.374-0.086,23.062c0,1.423,0.186,2.846,0.302,4.5
		C176.177,471.622,177.009,470.722,177.895,469.951z M405.221,547.374c0.242-4.1,0.003-8.167-1.159-12.135
		c-2.197-7.501-6.671-13.013-14.021-16.018c-5.162-2.11-10.531-2.596-16.027-2.111c-0.711,0.063-1.436,0.222-2.104,0.468
		c-1.306,0.48-1.727,1.756-0.95,2.92c0.394,0.589,0.93,1.1,1.466,1.573c9.899,8.76,19.806,17.511,29.721,26.253
		c0.584,0.515,1.25,0.938,2.296,1.715C404.803,548.841,405.177,548.117,405.221,547.374z M76.053,244.368
		c1.189,4.5,2.098,9.056,2.653,13.676c0.442,3.684,0.573,3.861,4.341,3.621c4.17-0.267,8.332-0.411,12.495,0.097
		c0.713,0.087,1.446,0.088,2.163,0.041c0.34-0.022,0.667-0.252,1.139-0.445c-0.36-0.468-0.554-0.823-0.839-1.074
		c-7.276-6.402-14.514-12.849-22.126-19.036C75.505,242.414,75.792,243.385,76.053,244.368z M32.488,160.911
		c-1.671,0.925-3.503,1.555-5.24,2.368c-0.302,0.142-0.479,0.552-0.778,0.918c1.114,1.626,2.575,2.781,3.754,4.176
		c1.137,1.344,2.169,2.776,3.281,4.142c1.135,1.394,1.377,3.406,3.175,4.604c1.612-2.132,2.271-4.66,3.583-6.833
		c1.308-2.167,3.11-4.047,4.074-6.587c-2.191-2.235-4.253-4.441-7.133-6C35.529,158.856,34.087,160.025,32.488,160.911z
		 M428.112,562.49c1.254-1.35,2.439-2.769,3.575-4.22c0.968-1.235,0.787-1.854-0.595-2.668c-0.138-0.081-0.285-0.148-0.43-0.218
		c-5.521-2.687-10.999-2.362-16.417,0.295c-0.535,0.263-0.942,0.789-1.521,1.289c0.452,0.637,0.729,1.233,1.182,1.633
		c3.111,2.75,6.117,5.629,9.753,8.332C425.293,565.313,426.755,563.95,428.112,562.49z M131.946,292.52
		c1.043,4.293,1.694,8.641,1.883,13.059c0.038,0.879,0.137,1.763,0.307,2.625c0.171,0.869,0.742,1.447,1.667,1.452
		c2.163,0.011,4.327-0.025,6.49-0.056c1.247-0.017,1.898-0.753,2.125-1.897c0.171-0.862,0.141-1.779,0.41-2.604
		c0.73-2.239-0.087-3.853-1.767-5.291c-2.984-2.555-5.902-5.187-8.864-7.767c-0.533-0.464-1.149-0.834-1.885-1.36
		C131.836,292.003,131.821,292.007,131.946,292.52z M30.997,211.85c4.025,0.594,8.05,1.182,12.078,1.753
		c0.6,0.085,1.233,0.159,1.826-0.37c-0.326-0.57-0.554-1.077-0.875-1.515c-2.46-3.354-4.635-6.87-6.182-10.749
		c-0.262-0.658-0.508-1.356-1.295-1.596c-0.144,0.086-0.342,0.134-0.41,0.254c-2.026,3.614-4.161,7.157-6.653,10.475
		c-0.184,0.245-0.26,0.571-0.367,0.813C29.53,211.775,30.303,211.748,30.997,211.85z M28.7,149.803
		c-3.107-2.069-6.463-1.449-8.547,1.681c-0.792,1.189-1.393,2.513-2.008,3.81c-0.188,0.396-0.131,0.907-0.179,1.311
		c4.188,2.273,11.502,0.483,13.879-3.373C30.727,151.453,29.995,150.665,28.7,149.803z M411.312,543.216
		c0.182,2.014-0.267,4.111,0.571,6.118c3.513-0.743,6.864-1.451,10.214-2.171c0.142-0.03,0.264-0.167,0.384-0.269
		c0.057-0.047,0.086-0.126,0.202-0.305c-0.238-0.336-0.452-0.763-0.776-1.075c-3.432-3.313-9.053-7.903-10.911-8.812
		C411.103,539.073,411.125,541.152,411.312,543.216z M372.936,503.054c-0.64,2.258-1.016,4.491-0.801,6.798
		c0.053,0.571,0.575,0.972,1.213,0.98c2.545,0.033,5.091,0.073,7.94-0.152C379.601,507.806,375.674,504.235,372.936,503.054z
		 M142.624,316.024c-0.954-0.614-2.054-0.4-2.957,0.438c0.684,1.408,1.57,2.322,3.254,2.729
		C143.403,317.914,143.763,316.758,142.624,316.024z"/>
</g>
<g id="Black">
	<path fill-rule="evenodd" clip-rule="evenodd" fill="#020202" d="M99.847,538.075c-0.868-1.229-1.354-2.05-1.968-2.761
		c-2.566-2.98-5.17-5.927-7.76-8.886c-0.317-0.362-0.653-0.711-0.942-1.094c-1.422-1.88-1.379-3.527,0.358-5.106
		c3.503-3.186,7.048-6.327,10.653-9.396c2.184-1.858,3.701-1.766,5.627,0.348c2.864,3.143,5.615,6.39,8.407,9.599
		c0.685,0.787,1.317,1.629,2.664,1.967c0.569-0.376,1.352-0.777,1.996-1.336c7.457-6.468,14.895-12.957,22.328-19.451
		c0.521-0.456,1.208-0.852,1.043-1.914c-0.364-0.1-0.79-0.297-1.225-0.318c-1.201-0.06-2.406-0.06-3.61-0.06
		c-29.858-0.003-59.717-0.002-89.575-0.003c-0.722,0-1.447,0.03-2.167-0.021c-1.83-0.131-2.352-0.664-2.528-2.532
		c-0.038-0.398-0.022-0.802-0.022-1.203c0-19.104,0-38.206,0-57.309c0-0.321-0.014-0.644,0.008-0.963
		c0.142-2.025,0.623-2.547,2.601-2.708c0.798-0.065,1.604-0.031,2.407-0.031c32.828-0.001,65.656,0,98.484-0.006
		c1.203,0,2.409-0.018,3.607-0.118c1.358-0.114,1.834-0.574,2.031-1.911c0.104-0.71,0.095-1.44,0.098-2.162
		c0.01-3.05-0.017-6.101,0.019-9.149c0.011-0.955,0.061-1.938,0.293-2.856c0.563-2.223,2.163-3.56,4.441-3.769
		c1.116-0.103,2.245-0.072,3.368-0.076c2.568-0.009,5.139,0.059,7.705-0.015c3.115-0.089,5.528,1.904,5.748,5.213
		c0.197,2.959,0.231,5.93,0.321,8.896c0.037,1.201-0.026,2.407,0.063,3.604c0.127,1.701,0.526,2.101,2.192,2.243
		c1.117,0.096,2.244,0.098,3.367,0.103c2.97,0.013,5.939,0.01,8.909,0c0.855-0.003,1.766,0.129,2.395-0.571
		c-0.025-1.069-0.841-1.451-1.375-2.004c-3.736-3.865-7.687-7.54-11.216-11.583c-16.081-18.418-26.8-39.583-32.068-63.483
		c-1.905-8.642-2.943-17.391-3.2-26.228c-0.054-1.843-0.754-3.206-2.094-4.382c-17.548-15.41-35.1-30.815-52.623-46.253
		c-18.667-16.447-37.305-32.927-55.957-49.391c-0.842-0.744-1.694-1.477-2.546-2.208c-11.536-9.903-18.988-22.292-22-37.171
		c-2.785-13.756-1.421-27.144,4.816-39.857c0.875-1.783,1.939-3.534,3.211-5.052c4.047-4.827,10.722-5.865,15.959-2.001
		c1.805,1.331,3.517,2.796,5.201,4.279c39.446,34.746,78.881,69.505,118.329,104.249c1.552,1.367,3.007,2.877,4.802,3.834
		c0.946-0.104,1.283-0.77,1.662-1.374c1.107-1.766,2.177-3.556,3.31-5.307c20.486-31.669,48.867-52.534,85.346-62.278
		c8.387-2.24,16.936-3.626,25.596-4.172c6.649-0.419,13.316-0.388,19.966,0.058c24.421,1.638,46.903,9.201,67.471,22.405
		c20.682,13.277,36.752,30.874,48.546,52.409c0.537,0.983,1.069,1.976,1.699,2.899c0.59,0.865,1.18,0.935,2.039,0.333
		c0.524-0.366,0.991-0.815,1.475-1.236c17.307-15.076,34.619-30.146,51.918-45.231c24.497-21.361,48.985-42.733,73.477-64.102
		c1.33-1.161,2.649-2.334,3.978-3.497c1.525-1.336,3.226-2.397,5.154-3.023c4.405-1.429,8.25-0.211,11.549,2.794
		c1.162,1.059,2.103,2.426,2.922,3.787c2.756,4.577,4.359,9.617,5.6,14.773c1.552,6.446,2.091,13,1.5,19.595
		c-0.99,11.065-4.666,21.23-10.667,30.566c-2.749,4.276-5.967,8.177-9.726,11.585c-5.647,5.119-11.376,10.15-17.12,15.162
		c-34.468,30.075-68.931,60.156-103.464,90.156c-2.563,2.227-3.723,4.628-4.021,8.008c-1.041,11.788-3.763,23.237-7.85,34.349
		c-1.04,2.828-1.163,3.297,1.906,4.683c6.807,3.071,10.613,10.268,9.526,17.526c-0.188,1.251-0.521,2.551-1.109,3.655
		c-1.158,2.176-0.801,4.11,0.311,6.148c3.532,6.473,7.005,12.978,10.492,19.474c0.948,1.766,1.912,3.523,2.788,5.324
		c0.793,1.629,2.012,2.39,3.824,2.349c2.084-0.046,4.17,0.007,6.255,0.007c44.307,0.001,88.612-0.002,132.918,0.011
		c1.763,0.001,3.531,0.088,5.287,0.244c6.582,0.585,10.621,5.038,10.747,11.604c0.054,2.78-0.512,5.415-1.321,8.024
		c-4.561,14.699-13.444,26.087-26.383,34.352c-7.449,4.758-15.508,8.002-24.238,9.442c-4.753,0.783-9.563,1.092-14.385,1.092
		c-32.025,0.001-64.051-0.001-96.076,0.006c-1.427,0.001-2.853,0.082-4.539,0.133c0.228,0.648,0.286,1.111,0.529,1.436
		c0.331,0.441,0.797,0.784,1.217,1.155c6.625,5.835,13.247,11.673,19.882,17.497c1.138,0.998,2.326,1.939,3.35,2.789
		c1.377-0.025,1.93-0.868,2.56-1.57c2.517-2.81,5.012-5.639,7.538-8.44c0.643-0.713,1.32-1.411,2.067-2.009
		c1.397-1.116,2.729-1.145,4.209-0.197c0.27,0.173,0.521,0.376,0.763,0.587c3.323,2.905,6.672,5.781,9.953,8.732
		c2.278,2.05,2.415,3.87,0.404,6.266c-2.475,2.951-5.07,5.8-7.621,8.687c-2.736,3.098-2.75,3.225,0.267,5.881
		c21.017,18.516,42.041,37.022,63.061,55.533c3.734,3.289,7.468,6.578,11.186,9.885c0.778,0.691,1.546,1.412,2.213,2.207
		c1.17,1.397,1.22,2.437,0.247,3.942c-0.39,0.603-0.884,1.14-1.359,1.682c-12.022,13.688-24.049,27.371-36.075,41.055
		c-0.265,0.302-0.521,0.613-0.814,0.886c-1.599,1.488-3.218,1.611-4.997,0.346c-0.586-0.416-1.11-0.923-1.651-1.399
		c-24.334-21.428-48.663-42.859-73.005-64.276c-1.374-1.209-2.616-2.607-4.217-3.354c-1.209,0.099-1.816,0.864-2.446,1.586
		c-2.642,3.021-5.271,6.052-7.922,9.063c-0.527,0.6-1.089,1.184-1.709,1.683c-1.118,0.899-2.36,0.977-3.575,0.212
		c-0.812-0.511-1.59-1.092-2.314-1.72c-2.851-2.471-5.673-4.973-8.506-7.464c-0.061-0.053-0.119-0.106-0.178-0.161
		c-2.611-2.449-2.771-3.862-0.503-6.57c2.576-3.075,5.27-6.052,7.891-9.09c0.674-0.78,1.27-1.627,1.813-2.329
		c-0.205-1.355-1.123-1.941-1.895-2.622c-5.538-4.883-11.088-9.753-16.63-14.631c-9.398-8.271-18.793-16.547-28.191-24.819
		c-0.723-0.636-1.428-1.3-2.2-1.87c-0.918-0.678-1.6-0.479-2.082,0.595c-0.361,0.801-0.637,1.643-0.923,2.475
		c-2.244,6.552-5.157,12.77-9.083,18.5c-8.422,12.292-19.924,20.46-33.866,25.369c-6.067,2.137-12.313,3.503-18.679,4.401
		c-7.965,1.124-15.967,1.607-23.998,1.349c-13.521-0.436-26.549-3.051-38.822-8.976c-15.05-7.265-26.328-18.352-33.949-33.195
		c-0.805-1.567-1.556-3.164-2.379-4.723c-0.962-1.821-1.469-1.931-3.089-0.558c-2.754,2.335-5.47,4.717-8.189,7.093
		c-10.515,9.189-21.026,18.382-31.532,27.581c-0.965,0.846-1.928,1.702-2.812,2.63c-1.032,1.084-1.033,1.746-0.121,2.952
		c0.435,0.575,0.936,1.101,1.41,1.646c2.37,2.725,4.775,5.42,7.102,8.182c2.501,2.971,2.443,4.237-0.463,6.9
		c-3.017,2.764-6.106,5.452-9.244,8.079c-2.783,2.33-3.969,2.251-6.521-0.473c-2.688-2.869-5.247-5.857-7.855-8.801
		c-2.517-2.841-2.516-2.848-5.287-0.429c-25.029,21.852-50.056,43.704-75.086,65.553c-0.604,0.526-1.203,1.08-1.882,1.493
		c-1.662,1.012-3.182,0.883-4.648-0.416c-0.777-0.688-1.456-1.493-2.141-2.278c-11.286-12.945-22.568-25.895-33.842-38.85
		c-0.736-0.847-1.475-1.705-2.087-2.641c-1.018-1.556-0.879-3.017,0.359-4.396c0.533-0.593,1.165-1.1,1.769-1.627
		c24.848-21.692,49.697-43.383,74.547-65.071C97.692,539.914,98.667,539.089,99.847,538.075z M307.781,364.819
		c0.396-0.188,0.542-0.322,0.676-0.31c0.472,0.043,0.947,0.101,1.405,0.216c10.656,2.685,21.408,4.867,32.337,6.101
		c0.951,0.107,1.92,0.179,2.871,0.117c0.8-0.052,1.294-0.588,1.324-1.445c0.012-0.321,0.027-0.643,0.009-0.963
		c-0.257-4.324-0.481-8.651-0.794-12.971c-0.158-2.199-0.662-2.611-2.821-2.728c-0.32-0.017-0.642-0.017-0.963-0.017
		c-21.749,0-43.499-0.004-65.248,0.003c-2.946,0.001-3.442,0.472-3.785,3.417c-0.009,0.08-0.016,0.16-0.022,0.24
		c-0.602,7.159-2.868,13.791-6.5,19.945c-9.454,16.023-29.748,27.143-52.785,21.431c-16.058-3.982-32.116-18.637-34.717-38.931
		c-0.173-1.352-0.314-2.713-0.588-4.045c-0.289-1.409-0.876-1.863-2.307-2.023c-0.397-0.044-0.802-0.036-1.203-0.036
		c-6.42-0.001-12.841-0.002-19.262,0.002c-0.48,0-0.968-0.002-1.44,0.074c-1.287,0.207-1.693,0.66-1.558,1.939
		c0.117,1.112,0.341,2.219,0.605,3.308c6.444,26.581,19.479,49.381,39.448,68.094c23.47,21.995,51.259,34.424,83.369,36.997
		c11.082,0.889,22.111,0.369,33.092-1.46c14.104-2.35,27.481-6.812,40.17-13.377c13.95-7.219,26.299-16.554,37.047-28.014
		c4.564-4.867,8.721-10.058,12.603-15.479c1.26-1.759,1.644-3.592,1.083-5.679c-0.247-0.922-0.42-1.886-0.462-2.838
		c-0.344-7.66,3.749-13.854,11.074-16.538c1.836-0.672,2.871-1.742,3.575-3.53c2.502-6.353,4.391-12.884,5.99-19.508
		c0.131-0.543,0.19-1.109,0.225-1.668c0.101-1.661-0.299-2.128-2.012-2.28c-0.797-0.071-1.604-0.044-2.406-0.045
		c-16.935-0.002-33.868-0.001-50.802-0.001c-0.803,0-1.606-0.018-2.408,0.005c-2.439,0.071-2.964,0.484-3.186,2.922
		c-0.351,3.833-0.6,7.676-0.875,11.516c-0.045,0.639-0.044,1.287,0.008,1.925c0.112,1.369,0.622,1.881,1.955,1.909
		c0.88,0.018,1.767-0.036,2.643-0.129c7.98-0.844,15.883-2.153,23.692-4.005c3.117-0.739,6.223-1.526,9.331-2.304
		c0.63-0.158,1.243-0.352,1.875,0.453c-0.499,0.566-0.959,1.204-1.531,1.716c-2.991,2.681-6.142,5.151-9.602,7.215
		c-8.19,4.885-17.083,7.598-26.52,8.65c-2.603,0.291-3.106,0.716-3.321,3.184c-0.629,7.196-1.724,14.329-3.002,21.43
		c-0.438,2.432-1.213,4.806-1.892,7.189c-0.205,0.723-0.468,1.503-1.382,1.772c-0.985-0.929-0.803-2.121-0.894-3.195
		c-0.722-8.553-1.405-17.108-2.112-25.662c-0.079-0.958-0.239-1.91-0.353-2.866c-0.107-0.913-0.676-1.437-1.49-1.701
		c-0.453-0.147-0.945-0.168-1.416-0.266c-3.684-0.766-7.423-1.333-11.037-2.347c-8.521-2.391-16.19-6.471-22.898-12.286
		C309.581,367.067,308.539,366.191,307.781,364.819z M206.122,509.968c-0.119,0.333-0.265,0.556-0.263,0.776
		c0.005,0.478,0.048,0.961,0.143,1.429c1.202,5.98,2.832,11.837,5.168,17.48c7.146,17.27,18.95,30.092,36.104,37.808
		c7.954,3.577,16.291,5.813,24.934,6.788c4.614,0.521,9.279,0.875,13.917,0.834c5.766-0.051,11.541-0.397,17.269-1.217
		c7.315-1.046,14.514-2.585,21.391-5.346c12.979-5.21,23.358-13.516,30.483-25.701c5.294-9.056,8.324-18.864,9.948-29.16
		c0.123-0.775,0.33-1.586-0.237-2.3c-1.232,0.112-1.243,0.093-2.413,0.788c-7.953,4.726-16.402,8.326-25.19,11.173
		c-14.3,4.634-29.036,6.565-43.99,7.161c-4.974,0.198-9.936-0.04-14.907-0.306c-7.379-0.396-14.704-1.125-21.968-2.479
		c-11.608-2.164-22.934-5.313-33.762-10.05c-4.834-2.115-9.5-4.615-14.247-6.931C207.804,510.377,207.202,509.743,206.122,509.968z
		 M472.069,473.12c20.702,0,41.404-0.053,62.105,0.028c7.187,0.028,13.526-2.176,19.257-6.382
		c7.733-5.676,11.904-13.461,13.455-22.782c0.338-2.028-0.305-2.779-2.433-2.936c-1.118-0.083-2.245-0.063-3.368-0.063
		c-35.707-0.002-71.414-0.002-107.12,0c-1.283,0-2.567,0.055-3.851,0.033c-1.71-0.029-2.915,0.619-3.528,2.299
		c-0.771,2.117-2.258,3.684-4.128,4.865c-1.827,1.154-3.704,2.231-5.579,3.308c-1.944,1.115-4.006,2.054-5.852,3.311
		c-3.298,2.247-6.919,3.256-10.848,3.419c-4.166,0.173-8.322,0.44-12.431,1.23c-0.858,0.165-1.762,0.23-2.633,0.171
		c-3.919-0.268-7.837-0.567-11.749-0.926c-0.86-0.079-1.722-0.377-2.536-0.693c-2.081-0.812-3.245-2.295-3.105-4.616
		c0.119-2.001,0.263-4,0.396-6c0.096-1.44,0.212-2.879,0.28-4.32c0.042-0.889-0.298-1.577-1.242-1.798
		c-0.465-0.108-0.942-0.226-1.414-0.229c-3.771-0.019-7.541-0.03-11.312,0.007c-0.708,0.008-1.444,0.16-2.112,0.397
		c-0.895,0.318-1.134,1.178-0.55,1.934c0.487,0.629,1.068,1.196,1.666,1.725c9.747,8.599,19.522,17.164,29.237,25.798
		c1.787,1.588,3.669,2.271,6.085,2.263C429.863,473.09,450.967,473.12,472.069,473.12z M146.584,293.909
		c0.312-0.72,0.73-1.48,0.975-2.293c0.737-2.453,1.364-4.939,2.109-7.389c1.842-6.061,4.203-11.924,6.796-17.7
		c1.349-3.004,1.272-3.216-1.117-5.342c-1.917-1.706-3.846-3.399-5.772-5.095c-27.816-24.479-55.634-48.957-83.448-73.438
		c-4.876-4.292-9.72-8.622-14.614-12.894c-1.708-1.491-2.297-1.382-3.73,0.356c-0.153,0.186-0.301,0.375-0.439,0.572
		c-6.506,9.284-7.707,19.146-3.085,29.567c2.415,5.443,6.176,9.87,10.637,13.786c19.588,17.197,39.133,34.443,58.693,51.671
		c9.991,8.8,19.978,17.604,29.972,26.4C144.395,292.844,145.147,293.724,146.584,293.909z M413.91,479.474
		c-0.219,1.322,0.483,1.683,1.01,2.147c3.547,3.137,7.159,6.204,10.62,9.433c1.883,1.757,3.921,2.55,6.497,2.497
		c5.456-0.11,10.915-0.033,16.373-0.033c30.02,0,60.038-0.044,90.057,0.022c11.399,0.025,22.076-2.509,31.958-8.24
		c12.832-7.441,21.618-18.163,26.113-32.332c0.506-1.596,0.922-3.253,1.106-4.912c0.42-3.775-1.433-6.188-5.146-6.795
		c-1.334-0.218-2.713-0.219-4.071-0.229c-3.853-0.027-7.705-0.022-11.557-0.005c-3.002,0.013-3.369,0.337-3.916,3.332
		c-0.23,1.262-0.367,2.543-0.66,3.789c-2.998,12.747-10.345,22.025-22.19,27.678c-5.083,2.425-10.468,3.408-16.087,3.394
		c-14.688-0.039-29.377-0.014-44.065-0.014c-24.079,0-48.158-0.004-72.237,0.012C416.45,479.219,415.188,479.384,413.91,479.474z
		 M457.823,527.863c-0.761-0.758-1.45-1.523-2.218-2.199c-24.864-21.908-49.734-43.81-74.608-65.707
		c-3.192-2.81-6.402-5.6-9.62-8.38c-0.518-0.447-0.976-1.097-2.024-0.889c-0.042,0.49-0.184,1.021-0.113,1.522
		c0.607,4.366,1.282,8.723,1.881,13.09c1.146,8.355,1.776,16.754,1.737,25.185c-0.011,2.456,0.766,4.229,2.621,5.848
		c10.156,8.863,20.229,17.823,30.339,26.74c9.568,8.438,19.144,16.87,28.73,25.289c0.952,0.836,1.811,1.84,3.279,2.212
		c0.5-0.368,1.13-0.727,1.63-1.218C443.459,545.429,456.555,530.162,457.823,527.863z M138.625,443.583
		c0.945,0.804,1.646,1.329,2.265,1.938c2.917,2.868,5.809,5.762,8.716,8.641c0.397,0.394,0.796,0.797,1.25,1.119
		c0.509,0.362,1.165,0.105,1.349-0.491c0.093-0.302,0.15-0.629,0.15-0.944c0.003-3.369,0.05-6.74-0.036-10.107
		c-0.05-1.944-0.712-2.514-2.659-2.688c-0.399-0.036-0.802-0.024-1.203-0.026c-3.29-0.016-6.579-0.04-9.868-0.04
		c-20.299-0.004-40.598-0.003-60.896-0.002c-0.803,0-1.605-0.008-2.407,0.018c-3.027,0.097-3.437,0.521-3.486,3.551
		c-0.04,2.485-0.013,4.976-0.144,7.456c-0.138,2.61-0.824,3.301-3.412,3.853c-0.939,0.2-1.902,0.332-2.812,0.625
		c-3.4,1.095-5.648,3.344-6.329,6.89c-0.471,2.451-0.5,4.965,0.027,7.418c0.929,4.319,3.572,7.061,7.875,8.159
		c0.388,0.099,0.793,0.128,1.179,0.232c2.656,0.714,3.302,1.452,3.494,4.139c0.097,1.358,0.091,2.725,0.119,4.088
		c0.026,1.282-0.025,2.57,0.066,3.848c0.114,1.592,0.641,2.069,2.265,2.204c0.718,0.06,1.443,0.055,2.165,0.055
		c23.588,0.002,47.176,0.003,70.765-0.001c0.802,0,1.61,0.013,2.404-0.076c1.891-0.212,2.765-1.022,2.823-2.951
		c0.099-3.286,0.04-6.577,0.039-9.865c0-0.764-0.249-1.389-1.182-1.722c-0.844,0.79-1.738,1.584-2.586,2.426
		c-2.564,2.541-5.1,5.111-7.67,7.646c-0.61,0.603-1.315,1.108-2.115,1.774c-0.792-0.647-1.505-1.139-2.109-1.74
		c-5.346-5.32-10.668-10.663-16.007-15.99c-0.833-0.831-1.614-1.773-3.055-1.92c-0.968,0.89-1.999,1.775-2.959,2.731
		c-5.004,4.98-9.985,9.984-14.99,14.965c-0.666,0.661-1.426,1.227-2.283,1.956c-0.741-0.584-1.406-1.01-1.952-1.554
		c-6.532-6.517-13.049-13.048-19.565-19.58c-2.172-2.178-2.199-2.589-0.12-4.676c6.455-6.479,12.921-12.949,19.409-19.396
		c0.718-0.714,1.604-1.258,2.511-1.956c1.036,0.937,1.956,1.703,2.801,2.545c5.004,4.98,9.99,9.979,14.984,14.971
		c2.538,2.536,2.68,2.545,5.145,0.087c5.113-5.098,10.208-10.215,15.333-15.302C136.696,445.112,137.594,444.454,138.625,443.583z
		 M239.575,487.307c0.067-1.249,0.183-2.447,0.187-3.646c0.019-5.936,0.012-11.871,0.007-17.807
		c-0.003-3.652-0.111-3.841-3.455-5.082c-6.313-2.344-12.455-5.055-18.3-8.41c-2.639-1.516-5.25-3.079-7.889-4.596
		c-0.593-0.341-1.248-0.575-1.759-0.807c-1.301,0.859-1.271,2.073-1.476,3.139c-0.348,1.808-0.633,3.632-0.839,5.462
		c-0.619,5.493-1.148,10.997-1.797,16.486c-0.223,1.883,0.45,3.092,2.144,3.819c0.293,0.126,0.565,0.301,0.851,0.446
		c9.294,4.762,19.05,8.327,29.073,11.193C237.315,487.789,238.34,488.057,239.575,487.307z M326.598,464.858
		c-1.033-0.516-1.794-0.25-2.579-0.084c-5.247,1.114-10.487,2.265-15.753,3.283c-4.889,0.946-9.855,1.249-14.821,1.552
		c-3.814,0.232-4.049,0.527-4.06,4.294c-0.014,5.456-0.006,10.912,0,16.368c0.001,0.641,0.013,1.285,0.087,1.92
		c0.208,1.769,0.647,2.211,2.46,2.229c1.844,0.019,3.692-0.029,5.531-0.154c3.2-0.216,6.4-0.455,9.589-0.79
		c5.582-0.588,11.108-1.523,16.584-2.77c2.881-0.656,3.264-1.014,3.445-4.239c0.005-0.08,0.013-0.16,0.012-0.24
		c-0.017-6.418-0.02-12.837-0.074-19.255C327.014,466.215,326.724,465.458,326.598,464.858z M246.948,464.541
		c-1.023,1.167-1.079,2.425-1.076,3.72c0.013,6.016,0.005,12.031,0.006,18.048c0,0.4-0.013,0.804,0.019,1.202
		c0.158,1.96,0.605,2.602,2.524,2.948c4.886,0.884,9.773,1.8,14.692,2.457c4.685,0.626,9.409,0.957,14.119,1.382
		c1.195,0.107,2.405,0.15,3.604,0.1c1.698-0.073,2.242-0.649,2.425-2.351c0.034-0.317,0.021-0.641,0.021-0.961
		c0.001-6.017,0.02-12.032-0.008-18.048c-0.013-2.669-0.383-3.058-2.957-3.342c-1.274-0.14-2.558-0.197-3.836-0.304
		c-2.477-0.205-4.963-0.34-7.427-0.645c-6.443-0.797-12.821-1.962-19.102-3.63C248.962,464.855,247.936,464.727,246.948,464.541z
		 M289.379,512.419c0,2.807-0.037,5.613,0.01,8.418c0.053,3.195,0.554,3.697,3.672,3.505c5.037-0.311,10.081-0.582,15.099-1.1
		c5.415-0.56,10.785-1.487,16.075-2.814c2.259-0.566,2.635-0.957,2.786-3.249c0.115-1.757,0.086-3.524,0.083-5.288
		c-0.009-4.087,0.012-8.175-0.083-12.26c-0.063-2.729-0.633-3.129-3.212-2.587c-10.062,2.117-20.245,3.202-30.51,3.577
		c-3.583,0.131-3.891,0.417-3.918,4.102C289.362,507.288,289.377,509.854,289.379,512.419z M158.591,467.407
		c0,13.873-0.001,27.745,0.001,41.617c0,0.801-0.025,1.607,0.048,2.403c0.129,1.423,0.667,2.03,2.111,2.127
		c1.596,0.108,3.208,0.104,4.807,0.023c1.738-0.086,2.207-0.544,2.441-2.344c0.154-1.188,0.182-2.397,0.182-3.598
		c0.009-27.103,0.008-54.206,0.004-81.309c0-0.722-0.013-1.444-0.065-2.163c-0.034-0.477-0.112-0.957-0.234-1.419
		c-0.311-1.175-0.641-1.523-1.793-1.566c-1.841-0.068-3.688-0.078-5.528-0.016c-1.235,0.041-1.74,0.534-1.889,1.745
		c-0.107,0.87-0.082,1.76-0.082,2.642C158.589,439.503,158.591,453.455,158.591,467.407z M483.028,523.436
		c-1.771-2.293-3.814-3.823-5.857-5.338c-0.557-0.411-1.258-0.258-1.779,0.217c-0.65,0.591-1.29,1.202-1.871,1.861
		c-10.175,11.55-20.335,23.112-30.51,34.663c-8.001,9.084-16.017,18.155-24.023,27.235c-0.848,0.962-1.727,1.904-2.497,2.926
		c-0.96,1.274-0.955,1.876,0.134,2.937c1.375,1.341,2.828,2.608,4.312,3.83c0.893,0.733,1.463,0.657,2.317-0.166
		c0.633-0.61,1.194-1.296,1.776-1.958c10.277-11.674,20.554-23.348,30.829-35.023c8.104-9.207,16.212-18.411,24.304-27.629
		C481.106,525.914,481.964,524.761,483.028,523.436z M96.101,523.463c0.678,0.938,1.184,1.752,1.802,2.47
		c1.621,1.886,3.306,3.717,4.938,5.593c16.331,18.758,32.655,37.521,48.985,56.278c1.001,1.15,2.006,2.299,3.068,3.391
		c1.297,1.333,1.876,1.39,3.297,0.281c1.2-0.937,2.361-1.932,3.465-2.98c1.615-1.536,1.638-1.928,0.241-3.599
		c-1.492-1.785-3.045-3.519-4.575-5.271c-13.031-14.929-26.063-29.856-39.093-44.786c-4.431-5.077-8.851-10.165-13.289-15.236
		c-0.674-0.771-1.24-1.718-2.519-1.834C99.93,519.017,97.876,520.847,96.101,523.463z M283.073,523.307
		c0.062-0.717,0.197-1.586,0.2-2.456c0.02-5.608,0.017-11.218,0.002-16.827c-0.002-0.635-0.085-1.276-0.206-1.9
		c-0.153-0.794-0.709-1.231-1.483-1.375c-0.392-0.072-0.796-0.083-1.195-0.113c-3.833-0.293-7.668-0.562-11.499-0.882
		c-6.467-0.54-12.876-1.515-19.251-2.709c-3.213-0.602-3.716-0.231-3.763,2.978c-0.001,0.08,0,0.16,0,0.24
		c0,5.289-0.001,10.577,0,15.866c0,0.48-0.006,0.962,0.023,1.441c0.055,0.902,0.569,1.47,1.394,1.762
		c0.452,0.16,0.917,0.284,1.383,0.398c10.451,2.575,21.061,4.019,31.813,4.459C281.403,524.227,282.245,524.136,283.073,523.307z
		 M361.43,448.705c-0.686,0.345-1.487,0.694-2.238,1.133c-7.343,4.294-14.945,8.042-22.94,10.974
		c-0.524,0.192-1.018,0.47-1.533,0.689c-0.899,0.384-1.374,1.063-1.465,2.027c-0.045,0.479-0.135,0.957-0.136,1.436
		c-0.01,6.66-0.008,13.321-0.007,19.982c0.001,0.964,0.114,1.896,0.896,2.841c1.125-0.307,2.284-0.564,3.407-0.937
		c9.168-3.037,17.818-7.143,25.901-12.456c1.934-1.271,2.679-2.836,2.256-5.079c-0.341-1.811-0.571-3.642-0.845-5.465
		c-0.643-4.28-1.281-8.562-1.924-12.842C362.669,450.124,362.484,449.262,361.43,448.705z M533.736,168.274
		c1.134,1.787,2.122,3.336,3.103,4.89c4.485,7.109,5.882,14.791,4.284,23.037c-1.34,6.916-4.723,12.751-9.618,17.691
		c-3.102,3.129-6.48,5.983-9.72,8.978c-0.554,0.512-1.342,0.852-1.569,1.992c0.601-0.188,1.05-0.256,1.427-0.459
		c7.033-3.785,14.675-5.453,22.502-6.452c2.941-0.375,5.898-0.636,8.851-0.917c1.071-0.102,2.05-0.358,2.813-1.171
		c1.025-1.094,1.077-1.976,0.14-3.179c-0.443-0.568-0.948-1.089-1.412-1.641c-3.113-3.708-5.764-7.694-7.43-12.28
		c-1.688-4.649-1.968-9.377-0.838-14.191c1.172-4.993,3.933-9.079,7.361-12.763c2.636-2.833,5.674-5.192,8.886-7.338
		c0.635-0.424,1.505-0.681,1.493-1.847c-0.374-0.147-0.787-0.44-1.206-0.451c-1.121-0.028-2.245,0.048-3.365,0.111
		c-4.337,0.246-8.261-0.801-11.612-3.67c-0.244-0.208-0.49-0.417-0.757-0.593c-0.661-0.437-1.354-0.486-2.032-0.052
		c-0.404,0.258-0.794,0.546-1.156,0.86c-2.848,2.47-5.703,4.933-8.518,7.441C534.783,166.784,534.369,167.482,533.736,168.274z
		 M540.422,600.846c-1.273,0.404-1.981,1.287-2.721,2.128c-3.547,4.039-7.093,8.079-10.64,12.118
		c-6.405,7.295-12.814,14.587-19.211,21.891c-0.617,0.705-1.425,1.319-1.493,2.551c0.47,0.527,0.952,1.166,1.53,1.701
		c2.296,2.124,4.574,4.271,6.95,6.303c2.466,2.109,2.732,2.04,4.833-0.338c5.63-6.374,11.267-12.742,16.888-19.124
		c4.507-5.118,9.008-10.242,13.485-15.386c1.518-1.742,1.544-2.047-0.059-3.58c-2.491-2.383-5.067-4.678-7.642-6.972
		C541.757,601.616,541.032,601.25,540.422,600.846z M333.39,516.91c1.284,0.899,2.372,0.364,3.408,0.023
		c9.78-3.214,19.045-7.481,27.522-13.396c1.698-1.185,2.418-2.586,2.386-4.622c-0.077-4.729-0.024-9.46-0.028-14.189
		c-0.001-0.722-0.006-1.443-0.042-2.163c-0.042-0.838-0.297-1.563-1.234-1.922c-1.997,1.109-4.044,2.205-6.05,3.37
		c-4.509,2.616-9.207,4.833-14.086,6.65c-3.145,1.171-6.337,2.217-9.513,3.304c-2.181,0.747-2.486,1.125-2.633,3.432
		c-0.02,0.319-0.011,0.641-0.011,0.962c0,5.05-0.019,10.101,0.014,15.151C333.13,514.695,333.305,515.88,333.39,516.91z
		 M204.194,482.434c-0.833,1.055-0.741,2.188-0.696,3.305c0.144,3.603,0.392,7.203,0.416,10.806
		c0.021,2.993,1.094,5.021,3.806,6.608c8.941,5.236,18.307,9.483,28.094,12.838c0.679,0.233,1.378,0.438,2.084,0.55
		c1.034,0.164,1.546-0.183,1.693-1.194c0.138-0.946,0.181-1.914,0.184-2.873c0.018-4.567,0.013-9.136,0.006-13.703
		c-0.005-3.767-0.062-3.827-3.813-4.875c-10.106-2.824-19.975-6.282-29.381-10.979C205.882,482.563,205.188,482.095,204.194,482.434
		z M123.848,588.113c-0.149-1.507-0.261-3.018-0.454-4.519c-0.426-3.316-0.911-6.625-1.336-9.942
		c-0.365-2.845-0.664-5.698-1.026-8.544c-0.166-1.3-0.816-2.175-2.19-2.519c-1.701-0.424-3.356-1.029-5.05-1.491
		c-5.848-1.594-11.701-3.17-17.559-4.729c-1.688-0.448-2.611,0.368-2.39,2.059c0.414,3.158,0.825,6.317,1.272,9.472
		c0.604,4.257,1.313,8.5,1.833,12.767c0.224,1.834,0.979,2.935,2.792,3.394c2.319,0.587,4.606,1.302,6.916,1.931
		c4.925,1.341,9.85,2.678,14.785,3.981C123.069,590.402,123.933,589.711,123.848,588.113z M92.642,616.211
		c1.882-0.824,1.456-2.309,1.378-3.622c-0.065-1.109-0.281-2.211-0.421-3.316c-0.2-1.582-0.376-3.168-0.591-4.748
		c-0.257-1.894-0.562-3.781-0.812-5.676c-0.334-2.527-0.691-5.055-0.931-7.592c-0.17-1.804-1.132-2.585-2.828-3.023
		c-4.943-1.279-9.847-2.712-14.769-4.073c-2.461-0.681-4.92-1.37-7.398-1.985c-1.353-0.336-2.06,0.186-2.025,1.554
		c0.034,1.349,0.287,2.691,0.449,4.036c0.355,2.929,0.686,5.86,1.078,8.784c0.413,3.078,0.954,6.141,1.314,9.224
		c0.326,2.797,1.218,3.946,3.981,4.664c2.856,0.743,5.719,1.462,8.57,2.229C84.025,613.844,88.405,615.054,92.642,616.211z
		 M27.135,610.42c0.887,1.16,1.651,2.281,2.535,3.297c5.319,6.108,10.673,12.187,16.001,18.287
		c4.431,5.074,8.832,10.176,13.267,15.245c1.603,1.832,2.148,1.916,3.995,0.445c1.691-1.346,3.294-2.806,4.901-4.255
		c2.156-1.942,2.162-2.188,0.199-4.444c-9.318-10.708-18.64-21.413-27.968-32.113c-0.948-1.088-1.911-2.167-2.923-3.194
		c-1.16-1.179-1.594-1.241-2.859-0.17c-2.08,1.762-4.086,3.61-6.099,5.449C27.84,609.281,27.623,609.733,27.135,610.42z
		 M127.301,305.12c0.118-0.471,0.264-0.847,0.295-1.232c0.033-0.392-0.023-0.796-0.083-1.188c-0.228-1.505-0.455-3.011-0.713-4.512
		c-0.875-5.085-2.352-9.97-4.861-14.509c-3.475-6.286-8.545-10.689-15.288-13.238c-4.788-1.81-9.758-2.505-14.812-2.821
		c-1.519-0.095-3.045-0.099-4.567-0.077c-0.842,0.013-1.723,0.069-2.482,1.002c0.842,0.845,1.581,1.673,2.407,2.402
		c9.625,8.489,19.263,16.965,28.9,25.441c2.891,2.543,5.777,5.092,8.694,7.604C125.436,304.545,126.016,305.323,127.301,305.12z
		 M464.809,272.535c0.071,0.121,0.143,0.242,0.214,0.362c0.494-0.155,1.013-0.257,1.477-0.476c1.663-0.786,3.264-1.718,4.965-2.403
		c5.708-2.298,11.664-3.415,17.813-3.432c2.563-0.007,5.127,0.164,7.69,0.155c1.015-0.003,2.182-0.002,3.014-0.473
		c2.676-1.514,4.628-3.658,4.998-6.915c0.581-5.108,1.816-10.078,3.288-14.991c1.55-5.17,3.631-10.09,6.876-14.457
		c0.159-0.214,0.248-0.479,0.495-0.969c-0.547,0.134-0.81,0.121-0.953,0.245C498.055,243.627,481.432,258.081,464.809,272.535z
		 M15.589,164.336c-1.158,1.357-1.167,1.354-1.492,2.769c-1.208,5.277-1.351,10.607-1.012,15.998
		c0.523,8.301,2.977,16.004,6.804,23.321c0.294,0.563,0.656,1.102,1.059,1.593c0.474,0.578,1.104,0.63,1.713,0.213
		c0.325-0.222,0.603-0.524,0.866-0.822c2.778-3.136,5.156-6.538,6.789-10.418c1.319-3.135,2.091-6.402,1.936-9.814
		c-0.179-3.925-1.478-7.501-3.615-10.797c-2.928-4.513-6.757-8.103-11.199-11.073C16.853,164.914,16.187,164.646,15.589,164.336z
		 M71.841,256.376c0.465-1.52-0.067-2.988-0.355-4.463c-1.125-5.751-2.764-11.331-5.22-16.679
		c-2.676-5.828-6.89-10.001-12.872-12.25c-3.135-1.179-6.354-2.225-9.621-2.938c-3.98-0.87-8.047-1.358-12.086-1.938
		c-0.873-0.125-1.905-0.501-2.783,0.642c0.508,0.597,0.967,1.237,1.524,1.774c2.021,1.945,4.027,3.909,6.124,5.771
		c7.612,6.759,15.254,13.484,22.892,20.214c3.428,3.021,6.867,6.028,10.312,9.029C70.33,256.037,70.819,256.816,71.841,256.376z
		 M174.501,471.972c1.676-0.35,2.508-1.25,3.394-2.021c6.526-5.675,13.035-11.369,19.543-17.065
		c0.723-0.632,1.475-1.251,2.091-1.979c0.5-0.591,0.994-1.292,1.176-2.023c0.444-1.78,0.75-3.6,1.022-5.416
		c0.155-1.041-0.285-1.729-1.281-1.997c-0.917-0.248-1.885-0.423-2.831-0.428c-6.647-0.035-13.295-0.037-19.942-0.011
		c-2.864,0.012-3.368,0.52-3.388,3.379c-0.053,7.687-0.085,15.374-0.086,23.062C174.199,468.895,174.384,470.317,174.501,471.972z
		 M404.44,550.039c0.362-1.198,0.736-1.922,0.78-2.665c0.242-4.1,0.003-8.167-1.159-12.135c-2.197-7.501-6.671-13.013-14.021-16.018
		c-5.162-2.11-10.531-2.596-16.027-2.111c-0.711,0.063-1.436,0.222-2.104,0.468c-1.306,0.48-1.727,1.756-0.95,2.92
		c0.394,0.589,0.93,1.1,1.466,1.573c9.899,8.76,19.806,17.511,29.721,26.253C402.729,548.839,403.395,549.263,404.44,550.039z
		 M440.833,439.523c-0.048-0.167-0.152-0.723-0.37-1.23c-0.536-1.25-1.065-2.51-1.7-3.711c-3.894-7.369-7.815-14.723-11.729-22.082
		c-0.15-0.282-0.296-0.568-0.463-0.842c-1.058-1.734-1.446-1.896-3.321-1.292c-0.99,0.319-1.966,0.686-2.939,1.056
		c-2.211,0.84-2.427,1.229-2.041,3.582c0.025,0.158,0.056,0.315,0.088,0.473c2.044,10.208,4.092,20.416,6.132,30.625
		c0.673,3.361,1.356,3.769,4.547,2.299c2.689-1.239,5.314-2.626,7.926-4.028c0.979-0.525,1.869-1.239,2.741-1.94
		C440.484,441.804,440.939,440.964,440.833,439.523z M49.308,467.21c0,7.378-0.002,14.756,0.003,22.134
		c0,0.722-0.023,1.451,0.078,2.161c0.184,1.292,0.75,1.898,2.049,1.921c3.928,0.066,7.859,0.085,11.787,0.023
		c1.546-0.023,2.149-0.657,2.287-2.23c0.119-1.353,0.116-2.726,0.05-4.084c-0.059-1.209-0.709-2.104-1.843-2.604
		c-0.513-0.226-1.041-0.42-1.541-0.67c-4.457-2.233-7.521-5.637-8.834-10.518c-0.912-3.387-0.944-6.814-0.445-10.255
		c0.86-5.92,4.156-9.926,9.679-12.145c0.371-0.149,0.741-0.303,1.113-0.45c1.16-0.463,1.81-1.313,1.841-2.563
		c0.035-1.441,0.091-2.891-0.008-4.326c-0.125-1.815-0.708-2.326-2.563-2.535c-0.317-0.035-0.641-0.026-0.961-0.026
		c-3.048-0.001-6.095-0.009-9.143,0.007c-0.557,0.003-1.119,0.065-1.667,0.161c-1.079,0.188-1.713,0.845-1.806,1.941
		c-0.067,0.797-0.074,1.602-0.075,2.402C49.306,452.773,49.308,459.991,49.308,467.21z M459.973,277.651
		c-0.127-0.125-0.253-0.249-0.38-0.374c-0.729,0.583-1.482,1.138-2.186,1.751c-9.189,8.02-18.371,16.048-27.555,24.074
		c-0.241,0.211-0.492,0.413-0.719,0.639c-0.847,0.843-1.223,1.838-1.061,3.05c0.245,1.828,0.418,3.665,0.662,5.492
		c0.297,2.217,0.56,2.479,2.69,2.479c3.69,0,7.383-0.004,11.072-0.099c3.774-0.097,6.542-2.839,6.937-6.65
		c0.306-2.949,0.585-5.907,1.063-8.831c1.181-7.229,3.763-13.901,8.227-19.778C459.157,278.834,459.558,278.237,459.973,277.651z
		 M138.647,481.839c0.671-0.521,1.356-0.95,1.918-1.505c3.419-3.382,6.833-6.77,10.203-10.202c2.042-2.08,2.043-4.048,0.032-6.085
		c-3.322-3.364-6.685-6.689-10.034-10.028c-0.339-0.339-0.677-0.688-1.057-0.977c-0.867-0.657-1.287-0.655-2.147-0.03
		c-0.323,0.235-0.635,0.493-0.917,0.775c-3.8,3.794-7.605,7.584-11.377,11.406c-0.537,0.544-0.91,1.251-1.296,1.795
		C125.2,469.124,135.842,479.882,138.647,481.839z M82.626,467.108c0.401,0.508,0.576,0.778,0.798,1.003
		c4.168,4.208,8.325,8.429,12.526,12.604c1.219,1.212,1.901,1.178,3.258-0.16c3.936-3.876,7.842-7.784,11.724-11.715
		c1.392-1.41,1.363-2.05,0.104-3.476c-0.159-0.18-0.339-0.341-0.508-0.511c-3.504-3.515-7.008-7.032-10.517-10.544
		c-0.452-0.452-0.904-0.913-1.408-1.304c-0.83-0.643-1.345-0.631-2.159-0.007c-0.316,0.242-0.595,0.534-0.878,0.816
		c-3.795,3.791-7.595,7.578-11.374,11.386C83.641,465.757,83.191,466.414,82.626,467.108z M415.907,405.771
		c5.728-0.028,10.297-4.491,10.25-10.188c-0.052-6.329-4.689-10.387-10.296-10.41c-6.506-0.026-10.395,5.124-10.393,10.332
		C405.471,401.33,410.093,405.799,415.907,405.771z M401.152,413.034c-2.739,2.333-4.861,4.585-5.016,8.134
		c-0.146,3.364-0.384,6.726-0.619,10.085c-0.225,3.198-0.512,6.393-0.747,9.591c-0.236,3.198-0.488,6.397-0.645,9.601
		c-0.085,1.76,0.431,2.333,2.193,2.459c2.158,0.153,4.326,0.205,6.491,0.22c1.376,0.009,1.829-0.365,1.88-1.637
		c0.059-1.438-0.008-2.888-0.126-4.323c-0.59-7.191-1.209-14.38-1.829-21.568c-0.297-3.434-0.598-6.868-0.945-10.298
		C401.723,414.63,401.428,413.985,401.152,413.034z M149.56,548.256c0.523,0.8,1.302,0.556,1.991,0.599
		c1.355,0.084,2.729,0.042,4.064,0.246c3.766,0.575,7.22,2.024,10.466,3.99c0.616,0.373,1.218,0.773,1.858,1.1
		c1.395,0.713,2.76,0.108,3.101-1.426c0.154-0.69,0.104-1.433,0.101-2.151c-0.012-2.723-0.084-5.447-0.049-8.17
		c0.019-1.435,0.128-2.881,0.341-4.3c0.677-4.51,2.413-8.604,5-12.35c0.381-0.552,0.688-1.155,1.248-2.109
		c-1.243,0.341-1.758,0.944-2.326,1.437c-4.603,3.984-9.2,7.975-13.791,11.973c-3.504,3.051-7.005,6.105-10.485,9.185
		C150.455,546.831,149.573,547.242,149.56,548.256z M477.166,545.245c-0.338,1.012-0.615,1.579-0.709,2.175
		c-0.274,1.74-0.482,3.49-0.702,5.239c-0.55,4.371-1.141,8.737-1.619,13.116c-0.293,2.674,0.383,3.236,2.982,2.582
		c5.897-1.484,11.783-3.02,17.671-4.543c0.46-0.119,0.928-0.258,1.348-0.474c0.691-0.356,0.806-0.975,0.327-1.591
		c-0.194-0.251-0.438-0.468-0.678-0.679c-5.356-4.714-10.707-9.433-16.083-14.124C479.062,546.388,478.281,545.985,477.166,545.245z
		 M462.617,601.402c0.936-0.783,1.177-1.527,1.275-2.336c0.777-6.353,1.561-12.705,2.318-19.061c0.196-1.645-0.446-2.242-2.079-1.91
		c-1.487,0.302-2.953,0.709-4.428,1.077c-4.574,1.142-9.154,2.265-13.719,3.448c-0.959,0.249-2.077,0.317-2.736,1.458
		c0.237,0.307,0.43,0.653,0.709,0.901C450.127,590.436,456.264,595.93,462.617,601.402z M532.832,594.031
		c-0.904-0.912-1.53-1.618-2.231-2.241c-4.306-3.827-8.624-7.64-12.947-11.446c-0.84-0.739-1.693-1.471-2.601-2.121
		c-0.416-0.298-0.979-0.391-1.425-0.558c-0.829,0.774-0.894,1.647-1.013,2.521c-0.423,3.088-0.889,6.17-1.312,9.258
		c-0.413,3.01-0.796,6.022-1.188,9.034c-0.104,0.796-0.236,1.603,0.554,2.276c0.325,0,0.739,0.09,1.098-0.014
		c6.519-1.888,13.033-3.792,19.539-5.723C531.725,594.894,532.073,594.532,532.832,594.031z M498.585,632.654
		c0.738-0.914,0.812-1.879,0.942-2.81c0.764-5.468,1.518-10.937,2.265-16.406c0.064-0.472,0.13-0.962,0.068-1.428
		c-0.141-1.062-0.791-1.502-1.864-1.334c-0.234,0.036-0.461,0.13-0.692,0.196c-5.527,1.602-11.053,3.211-16.586,4.796
		c-0.801,0.229-1.505,0.521-1.935,1.516c0.464,0.534,0.932,1.177,1.5,1.713C488.944,625.177,496.382,631.472,498.585,632.654z
		 M469.468,549.418c-0.972,0.178-1.439,0.865-1.951,1.429c-2.315,2.55-4.609,5.119-6.892,7.699
		c-4.086,4.622-8.169,9.246-12.226,13.893c-0.821,0.941-1.845,1.783-2.091,3.114c0.75,0.502,1.459,0.291,2.144,0.115
		c5.344-1.368,10.67-2.811,16.032-4.101c1.997-0.48,3.027-1.523,3.263-3.556c0.605-5.248,1.293-10.487,1.925-15.732
		C469.783,551.356,469.924,550.406,469.468,549.418z M493.775,570.915c-0.532,0-1.073-0.105-1.558,0.016
		c-5.67,1.418-11.324,2.898-16.998,4.298c-1.769,0.436-2.451,1.532-2.641,3.244c-0.371,3.346-0.871,6.676-1.287,10.017
		c-0.287,2.307-0.518,4.621-0.781,6.931c-0.08,0.701-0.1,1.374,0.592,2.053c0.704-0.705,1.351-1.293,1.928-1.941
		c3.147-3.536,6.278-7.085,9.412-10.632c3.4-3.848,6.805-7.69,10.188-11.552C493.185,572.715,493.981,572.169,493.775,570.915z
		 M408.401,410.775c-0.888,0.829-0.67,1.865-0.571,2.907c0.567,5.985,1.147,11.971,1.651,17.962
		c0.424,5.033,0.741,10.075,1.126,15.112c0.085,1.118,0.236,2.232,0.388,3.345c0.253,1.863,0.817,2.423,2.639,2.357
		c1.274-0.047,2.554-0.24,3.81-0.477c1.017-0.192,1.32-0.617,1.303-1.703c-0.013-0.796-0.124-1.599-0.276-2.382
		c-1.535-7.862-3.086-15.722-4.636-23.581c-0.667-3.379-1.337-6.758-2.019-10.134C411.438,412.313,410.642,410.843,408.401,410.775z
		 M506.256,628.204c1.326-0.238,1.85-0.986,2.43-1.609c0.929-0.998,1.803-2.047,2.702-3.071
		c5.239-5.967,10.485-11.929,15.715-17.904c0.714-0.816,1.521-1.591,1.874-2.627c-0.766-0.755-1.484-0.359-2.14-0.187
		c-1.625,0.429-3.23,0.933-4.843,1.408c-3.608,1.063-7.204,2.171-10.829,3.176c-1.692,0.469-2.576,1.502-2.794,3.192
		c-0.112,0.875-0.236,1.747-0.354,2.621c-0.588,4.368-1.182,8.735-1.752,13.105C506.196,626.841,506.256,627.391,506.256,628.204z
		 M75.878,241.248c-0.374,1.166-0.086,2.137,0.174,3.12c1.189,4.5,2.098,9.056,2.653,13.676c0.442,3.684,0.573,3.861,4.341,3.621
		c4.17-0.267,8.332-0.411,12.495,0.097c0.713,0.087,1.446,0.088,2.163,0.041c0.34-0.022,0.667-0.252,1.139-0.445
		c-0.36-0.468-0.554-0.823-0.839-1.074C90.728,253.882,83.49,247.435,75.878,241.248z M470.714,608.025
		c0.244,0.419,0.358,0.73,0.567,0.953c1.219,1.303,1.941,1.338,3.245,0.164c0.356-0.32,0.672-0.688,0.989-1.048
		c10.049-11.43,20.096-22.86,30.141-34.294c0.316-0.36,0.65-0.717,0.9-1.122c0.515-0.837,0.328-1.67-0.465-2.34
		c-0.821-0.694-1.563-0.729-2.369-0.039c-0.424,0.362-0.789,0.796-1.16,1.216c-10.181,11.526-20.362,23.053-30.528,34.593
		C471.521,606.69,471.145,607.394,470.714,608.025z M505.191,584.458c-0.911,0.026-1.342,0.754-1.857,1.327
		c-1.339,1.488-2.654,2.997-3.977,4.499c-4.443,5.049-8.894,10.091-13.32,15.153c-0.714,0.816-1.577,1.567-1.851,2.904
		c0.578,0.039,1.043,0.172,1.454,0.077c1.01-0.235,1.994-0.577,2.989-0.873c4.058-1.207,8.11-2.433,12.178-3.61
		c1.641-0.476,2.521-1.415,2.744-3.188c0.607-4.84,1.348-9.663,2.051-14.491C505.697,585.601,505.737,584.988,505.191,584.458z
		 M76.768,634.374c-0.079-0.174-0.191-0.563-0.412-0.877c-0.506-0.719-1.034-1.429-1.609-2.093
		c-3.247-3.751-6.497-7.498-9.77-11.227c-3.854-4.39-7.745-8.749-11.595-13.144c-1.528-1.743-2.977-3.556-4.487-5.316
		c-1.25-1.458-2.514-2.905-3.816-4.317c-0.87-0.943-1.55-1.104-2.313-0.699c-1.105,0.588-1.439,1.529-0.704,2.583
		c0.728,1.043,1.663,1.939,2.494,2.912c2.544,2.98,5.059,5.987,7.629,8.945c2.678,3.081,5.411,6.114,8.113,9.173
		c1.219,1.38,2.427,2.769,3.635,4.157c2.992,3.441,5.978,6.887,8.975,10.323c0.369,0.423,0.78,0.809,1.187,1.195
		c0.437,0.417,0.938,0.654,1.515,0.296C76.236,635.896,76.787,635.433,76.768,634.374z M37.204,157.699
		c-1.674,1.157-3.116,2.326-4.715,3.211c-1.671,0.925-3.503,1.555-5.24,2.368c-0.302,0.142-0.479,0.552-0.778,0.918
		c1.114,1.626,2.575,2.781,3.754,4.176c1.137,1.344,2.169,2.776,3.281,4.142c1.135,1.394,1.377,3.406,3.175,4.604
		c1.612-2.132,2.271-4.66,3.583-6.833c1.308-2.167,3.11-4.047,4.074-6.587C42.146,161.463,40.084,159.258,37.204,157.699z
		 M423.659,566.934c1.634-1.62,3.096-2.983,4.453-4.443c1.254-1.35,2.439-2.769,3.575-4.22c0.968-1.235,0.787-1.854-0.595-2.668
		c-0.138-0.081-0.285-0.148-0.43-0.218c-5.521-2.687-10.999-2.362-16.417,0.295c-0.535,0.263-0.942,0.789-1.521,1.289
		c0.452,0.637,0.729,1.233,1.182,1.633C417.018,561.352,420.023,564.23,423.659,566.934z M132.312,290.68
		c-0.476,1.323-0.49,1.327-0.366,1.839c1.043,4.293,1.694,8.641,1.883,13.059c0.038,0.879,0.137,1.763,0.307,2.625
		c0.171,0.869,0.742,1.447,1.667,1.452c2.163,0.011,4.327-0.025,6.49-0.056c1.247-0.017,1.898-0.753,2.125-1.897
		c0.171-0.862,0.141-1.779,0.41-2.604c0.73-2.239-0.087-3.853-1.767-5.291c-2.984-2.555-5.902-5.187-8.864-7.767
		C133.663,291.576,133.047,291.206,132.312,290.68z M29.119,210.916c0.412,0.859,1.184,0.832,1.878,0.934
		c4.025,0.594,8.05,1.182,12.078,1.753c0.6,0.085,1.233,0.159,1.826-0.37c-0.326-0.57-0.554-1.077-0.875-1.515
		c-2.46-3.354-4.635-6.87-6.182-10.749c-0.262-0.658-0.508-1.356-1.295-1.596c-0.144,0.086-0.342,0.134-0.41,0.254
		c-2.026,3.614-4.161,7.157-6.653,10.475C29.302,210.348,29.225,210.673,29.119,210.916z M31.846,153.232
		c-1.119-1.779-1.851-2.567-3.146-3.429c-3.107-2.069-6.463-1.449-8.547,1.681c-0.792,1.189-1.393,2.513-2.008,3.81
		c-0.188,0.396-0.131,0.907-0.179,1.311C22.154,158.878,29.468,157.088,31.846,153.232z M198.295,505.944
		c-1.404,0.142-2.154,1.02-2.996,1.726c-0.86,0.72-1.699,1.466-2.545,2.202c-0.847,0.737-1.689,1.479-2.535,2.216
		c-0.847,0.736-1.697,1.469-2.543,2.205c-0.847,0.737-1.702,1.465-2.531,2.221c-0.776,0.708-1.643,1.35-2.053,2.421
		c0.756-0.115,1.41-0.347,2.027-0.652c3.617-1.796,7.377-3.088,11.441-3.367c0.637-0.044,1.278-0.154,1.895-0.318
		c0.892-0.238,1.535-0.9,1.381-1.722C199.412,510.616,199.5,508.233,198.295,505.944z M410.995,536.703
		c0.107,2.37,0.13,4.449,0.316,6.513c0.182,2.014-0.267,4.111,0.571,6.118c3.513-0.743,6.864-1.451,10.214-2.171
		c0.142-0.03,0.264-0.167,0.384-0.269c0.057-0.047,0.086-0.126,0.202-0.305c-0.238-0.336-0.452-0.763-0.776-1.075
		C418.475,542.202,412.854,537.611,410.995,536.703z M381.288,510.68c-1.688-2.874-5.614-6.444-8.353-7.626
		c-0.64,2.258-1.016,4.491-0.801,6.798c0.053,0.571,0.575,0.972,1.213,0.98C375.893,510.865,378.438,510.905,381.288,510.68z
		 M381.439,434.633c1.487,0.102,2.75,0.21,4.015,0.265c0.553,0.024,1.115-0.024,1.664-0.103c1.299-0.187,1.722-0.468,1.88-1.749
		c0.224-1.806,0.261-3.635,0.34-5.456c0.007-0.154-0.271-0.32-0.407-0.472C385.919,428.939,382.25,432.53,381.439,434.633z
		 M142.921,319.19c0.482-1.276,0.842-2.433-0.297-3.166c-0.954-0.614-2.054-0.4-2.957,0.438
		C140.351,317.87,141.237,318.784,142.921,319.19z M284.908,409.934c-9.791-0.051-16.548,8.263-16.597,16.179
		c-0.054,8.906,7.704,16.355,16.113,16.445c8.961,0.097,17.016-7.736,16.381-16.203
		C301.458,417.232,293.027,409.977,284.908,409.934z"/>
</g>
</svg>
